<?xml version="1.0" encoding="UTF-8" standalone="no"?>
<!DOCTYPE svg PUBLIC "-//W3C//DTD SVG 1.1//EN" "http://www.w3.org/Graphics/SVG/1.1/DTD/svg11.dtd">
<svg width="100%" height="100%" viewBox="0 0 1080 1920" version="1.1" xmlns="http://www.w3.org/2000/svg" xmlns:xlink="http://www.w3.org/1999/xlink" xml:space="preserve" xmlns:serif="http://www.serif.com/" style="fill-rule:evenodd;clip-rule:evenodd;stroke-linejoin:round;stroke-miterlimit:2;">
    <g transform="matrix(1.00005,0,0,1.00005,-35.432,-21.1919)">
        <g transform="matrix(-1.51078,4.65001e-16,-4.73158e-16,-1.40465,1253.34,3695.48)">
            <path d="M448.85,1366.84C448.85,1366.84 373.972,1521.57 373.972,1587.89C373.972,1632.34 407.524,1668.42 448.85,1668.42C490.176,1668.42 523.727,1632.34 523.727,1587.89C523.727,1521.57 448.85,1366.84 448.85,1366.84Z" style="fill:rgb(255,0,7);"/>
        </g>
        <g transform="matrix(-1.00133,3.10457e-16,-3.14993e-16,-0.942321,1024.68,2960.52)">
            <path d="M448.85,1366.84C448.85,1366.84 373.972,1522.25 373.972,1588.86C373.972,1632.77 407.524,1668.42 448.85,1668.42C490.176,1668.42 523.727,1632.77 523.727,1588.86C523.727,1522.25 448.85,1366.84 448.85,1366.84Z" style="fill:rgb(255,169,0);"/>
        </g>
        <g transform="matrix(2.05428,0,0,1.29997,209.035,-85.1687)">
            <path d="M260.221,1187.41L96.3,1187.41L137.281,1035.64L219.241,1035.64L260.221,1187.41Z" style="fill:rgb(102,102,102);"/>
        </g>
        <g transform="matrix(1.29997,0,0,1.29997,-118.532,-148.091)">
            <path d="M390.462,468.753C447.611,363.923 528.405,257.562 528.405,257.562C528.405,257.562 614.627,363.045 675.581,466.752C690.532,489.436 704.022,515.613 715.73,544.658C720.433,555.754 724.411,566.456 727.49,576.598C751.291,647.534 765.138,732.337 765.138,823.399C765.138,958.796 734.524,1080.36 686.083,1163.13L381.268,1163.13C332.827,1080.36 302.213,958.796 302.213,823.399C302.213,679.629 336.731,551.461 390.462,468.753Z" style="fill:rgb(197,197,197);"/>
        </g>
        <g transform="matrix(1.29997,0,0,1.29997,-126.753,-148.091)">
            <path d="M390.299,479.115C392.433,475.578 394.593,472.128 396.786,468.753C453.935,363.923 534.729,257.562 534.729,257.562C534.729,257.562 620.951,363.045 681.905,466.752C684.55,470.765 687.149,474.887 689.7,479.115L390.299,479.115Z" style="fill:#color;"/>
        </g>
        <g transform="matrix(1.29997,0,0,1.29997,-126.753,-148.091)">
            <path d="M388.485,1159.74L389.238,1159.88L388.636,1160.34L388.772,1160.88L387.521,1161.2L268.789,1252.1L250.577,1174.66L237.025,1120.23L315.202,865.45L388.485,1159.74Z" style="fill:#color;"/>
        </g>
        <g transform="matrix(-1.29997,0,0,1.29997,1277.56,-148.091)">
            <path d="M388.485,1159.74L389.238,1159.88L388.636,1160.34L388.772,1160.88L387.521,1161.2L268.789,1252.1L250.577,1174.66L237.025,1120.23L315.202,865.45L388.485,1159.74Z" style="fill:#color;"/>
        </g>
        <g transform="matrix(1.55203,0,0,1.55203,-315.726,-426.559)">
            <circle cx="574.058" cy="730.557" r="75.383" style="fill:rgb(102,102,102);"/>
        </g>
        <g transform="matrix(1.29997,0,0,1.29997,-171.028,-242.614)">
            <circle cx="574.058" cy="730.557" r="75.383" style="fill:rgb(186,231,255);"/>
        </g>
    </g>
</svg>
