<?xml version="1.0" encoding="UTF-8" standalone="no"?>
<!DOCTYPE svg PUBLIC "-//W3C//DTD SVG 1.1//EN" "http://www.w3.org/Graphics/SVG/1.1/DTD/svg11.dtd">
<svg width="100%" height="100%" viewBox="0 0 1080 1920" version="1.1" xmlns="http://www.w3.org/2000/svg" xmlns:xlink="http://www.w3.org/1999/xlink" xml:space="preserve" xmlns:serif="http://www.serif.com/" style="fill-rule:evenodd;clip-rule:evenodd;stroke-linejoin:round;stroke-miterlimit:2;">
    <g transform="matrix(1,0,0,1,-108.453,-92.0219)">
        <g transform="matrix(-1.51087,4.6503e-16,-4.73188e-16,-1.40474,1326.43,3766.53)">
            <path d="M448.85,1366.84C448.85,1366.84 373.972,1521.57 373.972,1587.89C373.972,1632.34 407.524,1668.42 448.85,1668.42C490.176,1668.42 523.727,1632.34 523.727,1587.89C523.727,1521.57 448.85,1366.84 448.85,1366.84Z" style="fill:rgb(255,0,7);"/>
        </g>
        <g transform="matrix(-1.00139,3.10477e-16,-3.15012e-16,-0.94238,1097.75,3031.52)">
            <path d="M448.85,1366.84C448.85,1366.84 373.972,1522.25 373.972,1588.86C373.972,1632.77 407.524,1668.42 448.85,1668.42C490.176,1668.42 523.727,1632.77 523.727,1588.86C523.727,1522.25 448.85,1366.84 448.85,1366.84Z" style="fill:rgb(255,169,0);"/>
        </g>
        <g transform="matrix(2.05441,0,0,1.30005,282.053,-14.3558)">
            <path d="M260.221,1187.41L96.3,1187.41L137.281,1035.64L219.241,1035.64L260.221,1187.41Z" style="fill:rgb(102,102,102);"/>
        </g>
        <g transform="matrix(1.30005,0,0,1.30005,-45.5337,-77.2825)">
            <path d="M390.462,468.753C447.611,363.923 528.405,257.562 528.405,257.562C528.405,257.562 614.627,363.045 675.581,466.752C690.532,489.436 704.022,515.613 715.73,544.658C720.433,555.754 724.411,566.456 727.49,576.598C751.291,647.534 765.138,732.337 765.138,823.399C765.138,958.796 734.524,1080.36 686.083,1163.13L381.268,1163.13C332.827,1080.36 302.213,958.796 302.213,823.399C302.213,679.629 336.731,551.461 390.462,468.753Z" style="fill:rgb(197,197,197);"/>
        </g>
        <g transform="matrix(1.30005,0,0,1.30005,-53.7554,-77.2825)">
            <path d="M390.299,479.115C392.433,475.578 394.593,472.128 396.786,468.753C453.935,363.923 534.729,257.562 534.729,257.562C534.729,257.562 620.951,363.045 681.905,466.752C684.55,470.765 687.149,474.887 689.7,479.115L390.299,479.115Z" style="fill:#color;"/>
        </g>
        <g transform="matrix(1.55213,0,0,1.55213,-242.74,-355.768)">
            <circle cx="574.058" cy="730.557" r="75.383" style="fill:rgb(102,102,102);"/>
        </g>
        <g transform="matrix(1.30005,0,0,1.30005,-98.0331,-171.811)">
            <circle cx="574.058" cy="730.557" r="75.383" style="fill:rgb(186,231,255);"/>
        </g>
        <g transform="matrix(1.29828,-0.0679016,0.0679016,1.29828,-85.6684,88.9171)">
            <path d="M356.142,1053.31C344.596,1050.82 332.596,1049.5 320.284,1049.5C228.479,1049.5 153.944,1122.76 153.944,1213C153.944,1213.87 153.951,1214.73 153.965,1215.6L153.145,1215.8C118.523,1074.29 191.034,933.608 316.539,891.446L356.142,1053.31Z" style="fill:#color;"/>
        </g>
        <g transform="matrix(-1.29828,-0.0679016,-0.0679016,1.29828,1382.57,88.9171)">
            <path d="M356.142,1053.31C344.596,1050.82 332.596,1049.5 320.284,1049.5C228.479,1049.5 153.944,1122.76 153.944,1213C153.944,1213.87 153.951,1214.73 153.965,1215.6L153.145,1215.8C118.523,1074.29 191.034,933.608 316.539,891.446L356.142,1053.31Z" style="fill:#color;"/>
        </g>
    </g>
</svg>
