<?xml version="1.0" encoding="UTF-8"?>
<svg id="Layer_2" data-name="Layer 2" xmlns="http://www.w3.org/2000/svg" viewBox="0 0 243.42985 426.83598">
  <defs>
    <style>
      .astro-short-curly .cls-1 {
        fill: #fff;
      }

      .astro-short-curly .cls-2 {
        fill: #color;
        stroke-linecap: round;
        stroke-linejoin: round;
        stroke-width: 2.69019px;
      }

      .astro-short-curly .cls-2, .astro-short-curly .cls-3, .astro-short-curly .cls-4, .astro-short-curly .cls-5, .astro-short-curly .cls-6, .astro-short-curly .cls-7, .astro-short-curly .cls-8, .astro-short-curly .cls-9, .astro-short-curly .cls-10, .astro-short-curly .cls-11, .astro-short-curly .cls-12, .astro-short-curly .cls-13, .astro-short-curly .cls-14, .astro-short-curly .cls-15, .astro-short-curly .cls-16, .astro-short-curly .cls-17 {
        stroke: #231f20;
      }

      .astro-short-curly .cls-3 {
        fill: #23419a;
      }

      .astro-short-curly .cls-3, .astro-short-curly .cls-4, .astro-short-curly .cls-5, .astro-short-curly .cls-6, .astro-short-curly .cls-7, .astro-short-curly .cls-8, .astro-short-curly .cls-9, .astro-short-curly .cls-10, .astro-short-curly .cls-11, .astro-short-curly .cls-12, .astro-short-curly .cls-13, .astro-short-curly .cls-14, .astro-short-curly .cls-15, .astro-short-curly .cls-16, .astro-short-curly .cls-17 {
        stroke-miterlimit: 10;
      }

      .astro-short-curly .cls-3, .astro-short-curly .cls-4, .astro-short-curly .cls-6, .astro-short-curly .cls-7, .astro-short-curly .cls-8, .astro-short-curly .cls-9, .astro-short-curly .cls-12, .astro-short-curly .cls-13, .astro-short-curly .cls-17 {
        stroke-width: 2px;
      }

      .astro-short-curly .cls-4 {
        fill: #ce3927;
      }

      .astro-short-curly .cls-5 {
        fill: #skinColor;
      }

      .astro-short-curly .cls-5, .astro-short-curly .cls-10, .astro-short-curly .cls-11, .astro-short-curly .cls-15, .astro-short-curly .cls-16 {
        stroke-width: 3px;
      }

      .astro-short-curly .cls-6, .astro-short-curly .cls-17 {
        fill: #1d172c;
      }

      .astro-short-curly .cls-7 {
        fill: #eee81b;
      }

      .astro-short-curly .cls-8 {
        fill: #273a83;
      }

      .astro-short-curly .cls-9 {
        fill: #e8e8e8;
      }

      .astro-short-curly .cls-10 {
        fill: #3d2912;
      }

      .astro-short-curly .cls-18 {
        fill: #db8aa1;
      }

      .astro-short-curly .cls-11 {
        fill: #ef4136;
      }

      .astro-short-curly .cls-12 {
        fill: #dcdbdb;
      }

      .astro-short-curly .cls-13 {
        fill: #cf6528;
      }

      .astro-short-curly .cls-14 {
        stroke-width: 2.17621px;
      }

      .astro-short-curly .cls-14, .astro-short-curly .cls-16 {
        fill: #cccccb;
      }

      .astro-short-curly .cls-15 {
        fill: #b5b5b6;
      }

      .astro-short-curly .cls-19 {
        fill: #231f20;
      }

      .astro-short-curly .cls-17 {
        opacity: .53;
      }
    </style>
  </defs>
  <g class="astro-short-curly" id="Layer_1-2" data-name="Layer 1">
    <path class="cls-6" d="m204.14998,105.67206c0,1.46002-.04004,2.91998-.12012,4.35999v.01001c-1.47998,28.42999-17.37988,53.03998-40.5199,66.66998-10.01001,5.91003-21.37,9.75-33.51001,10.95001-2.72009.28003-5.48999.41998-8.28003.41998-2.08997,0-4.16003-.07996-6.20007-.22998-10.87988-.81-21.15991-3.71997-30.44995-8.34998-26.86987-13.35004-45.41992-40.92004-45.78003-72.86005v-.00995c-.01001-.32001-.01001-.64001-.01001-.96002,0-45.51001,36.91016-82.40002,82.44006-82.40002,45.52002,0,82.43005,36.89001,82.43005,82.40002Z"/>
    <path class="cls-16" d="m93.49613,184.91381c-3.21362.04172-8.19067.45932-13.75793,2.54138-10.74524,4.01852-17.08459,11.76736-22.70056,18.80255-4.39832,5.50983-6.85706,9.92273-10.23523,15.98566-4.2655,7.65543-8.91833,16.05292-12.13611,27.80466-1.47192,5.37561-3.0127,12.69397-3.53955,21.54089-2.17896,2.09683-5.14941,5.28424-8.02551,9.63058-3.46509,5.23648-6.66174,9.9805-7.10828,16.50955-.46399,6.78372,1.98865,15.91309,6.90454,16.98727,2.70557.59122,5.29468-1.44604,5.88538-1.91083,3.17725-2.49997,3.13025-5.89081,5.80884-13.14651,1.12366-3.04385,2.23853-5.44452,2.98096-6.95541-.64478,1.33066-1.53296,3.25433-2.47717,5.6304-1.98828,5.00345-1.75171,5.7905-1.42102,6.06387.59497.49179,1.98071-.27698,2.44592-.53503,4.91199-2.72491,8.68066-19.66183,9.91077-25.62421,2.12219-1.73196,4.56409-3.83102,7.19495-6.30179,2.45032-2.30127,4.93933-4.80811,7.42749-7.5351,10.41406-11.41406,17.33496-22.8757,21.9292-32.1944,3.21375-7.4744,6.47742-16.89569,8.62036-28.03241,1.35254-7.0293,2.02246-13.51489,2.29297-19.26114Z"/>
    <path class="cls-16" d="m156.00398,184.91381c3.21362.04172,8.19067.45932,13.75793,2.54138,10.74524,4.01852,17.08459,11.76736,22.70056,18.80255,4.39832,5.50983,6.85706,9.92273,10.23523,15.98566,4.2655,7.65543,8.91833,16.05292,12.13611,27.80466,1.47192,5.37561,3.0127,12.69397,3.53955,21.54089,2.17896,2.09683,5.14941,5.28424,8.02551,9.63058,3.46509,5.23648,6.66174,9.9805,7.10828,16.50955.46399,6.78372-1.98865,15.91309-6.90454,16.98727-2.70557.59122-5.29468-1.44604-5.88538-1.91083-3.17725-2.49997-3.13025-5.89081-5.80884-13.14651-1.12366-3.04385-2.23853-5.44452-2.98096-6.95541.64478,1.33066,1.53296,3.25433,2.47717,5.6304,1.98828,5.00345,1.75171,5.7905,1.42102,6.06387-.59497.49179-1.98071-.27698-2.44592-.53503-4.91199-2.72491-8.68066-19.66183-9.91077-25.62421-2.12219-1.73196-4.56409-3.83102-7.19495-6.30179-2.45032-2.30127-4.93933-4.80811-7.42749-7.5351-10.41406-11.41406-17.33496-22.8757-21.9292-32.1944-3.21375-7.4744-6.47742-16.89569-8.62036-28.03241-1.35254-7.0293-2.02246-13.51489-2.29297-19.26114Z"/>
    <path class="cls-11" d="m220.70283,263.99352c2.10962-.93631,4.46375.23312,5.00757,2.11182.48547,1.67712-.53943,3.68616-2.47766,4.3248-8.17395,3.44998-16.3479,6.89993-24.52185,10.34991-2.12976.74057-4.2699-.46832-4.70056-2.17834-.328-1.30219.35083-2.8334,1.71973-3.66879,8.32422-3.64645,16.64856-7.29294,24.97278-10.93939Z"/>
    <path class="cls-15" d="m220.03114,135.29964c3.40057-.0974,10.81952-.83912,16.20136-6.29569,6.24545-6.33225,5.90091-15.11408,5.51974-24.82851-.34317-8.74612-.59389-15.13727-5.51974-20.49337-5.90385-6.41958-14.47469-6.94952-17.17285-7.00845.32386,19.54201.64762,39.08404.97149,58.62602Z"/>
    <path class="cls-15" d="m23.39871,76.67362c-3.40057.0974-10.81952.83912-16.20136,6.29569-6.24545,6.33225-5.90091,15.11408-5.51974,24.82851.34317,8.74612.59389,15.13727,5.51974,20.49337,5.90385,6.41958,14.47469,6.94952,17.17285,7.00845-.32386-19.54201-.64762-39.08404-.97149-58.62602Z"/>
    <path class="cls-15" d="m175.75504,377.57572c-2.17993,6.66998-5.67993,16.02002-11.22998,26.83002-3.95996,1.48999-10.52991,3.39996-18.80994,3.20996-7.09998-.15997-12.79993-1.81-16.51001-3.20996-1.96997-22.14001-3.94006-44.29004-5.91003-66.42998-1.97998,22.13994-3.94995,44.28996-5.91992,66.42998-3.70996,1.39996-9.41003,3.04999-16.51001,3.20996-8.28003.19-14.8501-1.71997-18.81006-3.20996-5.55005-10.81-9.05005-20.16003-11.22998-26.83002-19.96057-61.07384-3.14929-118.97081-.09998-129.45,4.40356-15.133,6.41113-22.7551,7.59998-27.34998,1.67371-6.46881,3.75354-15.71402,5.36707-27.45923,26.12012.30832,52.24036.61664,78.36047.92496,2.3407,11.06299,4.52161,20.00787,6.20239,26.53427.23462.91122,1.34033,5.33087,2.99316,11.22577,1.82153,6.49683,3.04382,10.23331,4.60693,16.12421,18.00964,67.87149,2.0127,122.98543-.1001,129.45Z"/>
    <path class="cls-16" d="m122.34349,1.5C65.61351,1.5,19.62352,47.47003,19.62352,104.17004c0,16.69,3.98999,32.44995,11.06006,46.38995,9.76001,19.23004,25.3999,34.98004,44.55005,44.88,14.10986,7.29004,30.12988,11.41003,47.10986,11.41003,20.67004,0,39.92004-6.11005,56.03003-16.61005l.01001-.00995c14.52002-9.47003,26.48999-22.51001,34.67004-37.87v-.01001c7.66003-14.37,12-30.77002,12-48.17999C225.05357,47.47003,179.06358,1.5,122.34349,1.5Zm82.31006,108.75v.01001c-1.47998,28.42999-17.38,53.03998-40.52002,66.66998-8.57996,5.06-18.13989,8.60004-28.33997,10.27002-.03992.01001-.06995.01001-.10999.02002-1.67004.26996-3.36011.48999-5.06006.65997-2.71997.28003-5.48999.41998-8.28003.41998-2.08984,0-4.15991-.07996-6.19995-.22998-1.82007-.14001-3.63-.33002-5.40991-.58997-.17004-.02002-.33008-.05005-.5-.08002-8.71008-1.26001-16.96008-3.90002-24.54004-7.67999-26.87012-13.35004-45.42004-40.92004-45.78003-72.85999v-.01001c-.01001-.32001-.01001-.64001-.01001-.96002,0-45.51001,36.91003-82.40002,82.43994-82.40002,45.52002,0,82.43005,36.89001,82.43005,82.40002,0,1.46002-.03992,2.91998-.12,4.35999Z"/>
    <path class="cls-5" d="m137.02354,182.48004c-.44006,1.34998-.88,2.92999-1.22998,4.71997-.03992.01001-.06995.01001-.10999.02002-1.67004.26996-3.36011.48999-5.06006.65997-2.71997.28003-5.48999.41998-8.28003.41998-2.08984,0-4.15991-.07996-6.19995-.22998-1.82007-.14001-3.63-.33002-5.40991-.58997-.17004-.02002-.33008-.05005-.5-.08002-.43005-2.14001-1.07007-3.91003-1.65015-5.22003,9.4801.10004,18.96008.20001,28.44006.30005Z"/>
    <ellipse class="cls-5" cx="185.77788" cy="121.9235" rx="13.33645" ry="9.80543" transform="translate(35.09118 285.23999) rotate(-80.57965)"/>
    <ellipse class="cls-5" cx="58.48558" cy="123.95353" rx="9.80543" ry="13.33645" transform="translate(-19.49954 11.24434) rotate(-9.42035)"/>
    <path class="cls-5" d="m183.64278,121.7329c-.82001,16.94-7.71002,28.91998-10.25,33.21002-2.78003,4.69995-8.01001,13.32996-18.34003,20.63995-4.59998,3.25-16.63,11.52002-33.47998,11.01001-14.60004-.45001-24.75-7.23999-30.73004-11.23999-3.84998-2.58002-12.40997-8.42999-19.26001-19.26001-3.5-5.53998-5.73999-11.07001-7.15997-16.32001-2.46002-9.07996-2.5-17.27997-2.46997-23.12.01996-3.23999.02997-6.67999.23999-10.23999.57001-9.40997,2.5-19.67999,9.38995-29.42999,16.48004-23.31,46.93005-23.38,49.98004-23.34003,2.62.03003,31.42999.89001,49.53998,24.72003,4.21002,5.54999,7.01001,11.22998,8.85999,16.52997,3.35004,9.54004,3.65002,17.81006,3.75,21.76001.04004,1.73999.02002,3.44-.06995,5.08002Z"/>
    <path class="cls-19" d="m114.57786,136.94601c2.46653-7.60894,13.9855-6.9825,16.39488.34411-1.48607-.832-2.82042-1.51855-4.18456-1.99679-4.23372-1.6055-8.38027-.78256-12.21033,1.65268h0Z"/>
    <path class="cls-19" d="m78.84092,99.81299c4.17925-8.16596,17.3499-9.04953,23.14683-2.22013-7.75895-2.56944-16.14534-2.22873-23.14683,2.22013h0Z"/>
    <path class="cls-19" d="m145.58311,96.63354c6.41589-6.55641,19.25459-3.48896,22.76197,4.75387-6.64587-4.75766-14.75507-6.92284-22.76197-4.75387h0Z"/>
    <g>
      <circle class="cls-1" cx="92.53515" cy="117.08284" r="13.14205"/>
      <path class="cls-19" d="m103.56346,124.23053c-6.4796,10.05542-22.16631,7.6401-25.13975-4.13501-2.07148-7.56372,3.34321-15.93391,11.09746-17.1303,11.96728-2.10342,20.57791,11.24564,14.04229,21.26531h0Zm0,0c6.13892-9.53714-2.6566-21.55314-13.50233-18.73464-6.1226,1.497-10.25447,7.85856-9.11919,14.06219,1.85187,11.05949,16.42525,14.17199,22.62151,4.67244h0Z"/>
    </g>
    <circle cx="93.64436" cy="119.95204" r="10.27285"/>
    <circle class="cls-1" cx="87.62147" cy="114.50435" r="3.16883"/>
    <path class="cls-10" d="m138.79783,162.81123c-.79666,1.28992-5.57944,9.03394-13.79999,9.83258-9.01779.8761-15.49426-7.25449-16.31-8.31085-.76584-.99173-1.68427-2.60156-3.52112-5.8212-2.30447-4.03928-4.03574-7.44781-5.17462-9.7793,1.53088.81531,3.8511,1.89093,6.84698,2.67694.36252.09512,1.04617.25354,2.00873.45724,4.01001.84863,9.02002,1.51199,14.78003,1.38516,3.96619-.08734,9.18726-.22659,15.59998-2.25327,2.67084-.84409,4.82364-1.78546,6.3306-2.51273-.86554,2.08542-2.17993,5.13342-3.93311,8.7648-1.44855,3.0004-2.17282,4.50058-2.82748,5.56061Z"/>
    <path class="cls-18" d="m137.49793,162.18056c-.26743.52246-4.13364,7.76385-12.38217,8.59872-6.02173.6095-11.94629-2.44162-15.13376-7.79617,1.03842-.33054,2.48785-.75433,4.24203-1.14648,5.1788-1.15775,9.54953-1.26523,12.30377-1.18893,4.26233.11807,7.97034.76819,10.97012,1.53287Z"/>
    <path class="cls-1" d="m139.22783,152.45228c-.19.39996-.40002.77997-.63,1.09998-.38.53003-1.62,2.09998-7.17999,3.35999-2.66998.61005-6.65997,1.47003-12.08002.77002-4.10999-.53998-7.46997-.97003-9.91998-3.67999-.15002-.16998-.34998-.39001-.57001-.66003,4.01001.87,9.02002,1.55005,14.78003,1.42004,6.25-.14001,11.54999-1.17999,15.59998-2.31Z"/>
    <g>
      <circle class="cls-1" cx="152.61266" cy="117.01934" r="13.14205"/>
      <path class="cls-19" d="m141.58433,124.16702c6.19665,9.49993,20.77172,6.38581,22.62154-4.67265,1.13462-6.20315-2.99604-12.56552-9.11941-14.06202-10.84762-2.81715-19.6407,9.19792-13.50213,18.73466h0Zm0,0c-6.5346-10.0208,2.07446-23.36897,14.04261-21.26533,7.75299,1.19742,13.16991,9.56612,11.09696,17.13062-2.97301,11.77424-18.66153,14.19057-25.13957,4.13471h0Z"/>
    </g>
    <circle cx="151.50344" cy="119.88855" r="10.27285"/>
    <circle class="cls-1" cx="157.52633" cy="114.44085" r="3.16883"/>
    <ellipse class="cls-18" cx="82.71844" cy="139.01661" rx="8.81671" ry="3.89332"/>
    <ellipse class="cls-18" cx="162.78077" cy="139.01661" rx="8.81671" ry="3.89332"/>
    <path class="cls-2" d="m183.81517,120.90364c.08429-1.63916.11176-3.33374.06995-5.08008-.27863-11.64185-3.53674-21.5188-7.13483-29.08362-1.44849.25452-3.17316.34106-5.04767-.01965-7.63788-1.46985-11.2851-9.12024-11.82404-10.29651-1.36774,1.20312-4.76215,3.85425-9.85986,4.58594-7.13245,1.02368-12.44226-2.45032-13.70355-3.32605-6.77386,7.32922-16.95032,8.86243-23.70007,4.50989-6.47083-4.17261-7.28986-12.14087-7.39001-13.28992.45917,6.6427-4.43982,11.25098-8.51001,10.91992-2.91711-.2373-5.71399-3.03662-6.77283-6.83936-.46875,2.12439-1.84381,6.9762-6.10272,11.32373-5.28461,5.39453-11.5827,6.51465-13.617,6.79089.23218,1.11328.77173,4.42505-.91718,8.02551-2.08038,4.43506-6.03961,6.10522-6.94025,6.45923.19861,2.91003.20758,6.37427-.23999,10.23999-.30646,2.64648-.77582,5.04041-1.30383,7.14795-.72552-.18445-8.44958-2.28845-11.23572-9.85986-1.95142-5.3031-.26593-9.98755.22931-11.23572-3.89032-2.60742-5.61633-7.24487-4.35669-11.2356,1.39832-4.43005,5.82184-5.99109,6.31696-6.15674-3.48865-4.39929-3.84802-10.30078-1.04303-14.48022,3.05121-4.54626,8.46576-4.99731,9.17194-5.04456-2.61902-1.21948-3.58002-4.38672-2.29297-6.64978,1.15063-2.02319,3.86414-2.91235,6.1911-1.83435-1.87762-4.11414-.61804-8.86621,2.75159-11.23572,2.74945-1.93347,6.53564-2.02173,9.63055-.22925-.80511-4.17322,1.32306-8.20374,4.81531-9.63062,2.67468-1.09277,5.84406-.53345,8.25476,1.37585-.42548-3.0321,1.12048-5.93628,3.66876-7.10828,3.03729-1.39697,6.96344-.08691,8.71338,3.21021.07739-.28552,1.98639-6.92188,7.7962-8.48413,5.40442-1.45325,11.94971,2.08496,14.25281,8.79065-.0946-4.10071,2.38428-7.54663,5.46692-8.33203,3.97821-1.01355,9.11407,2.36523,9.63055,8.02551,1.68506-3.84717,5.86969-5.9563,9.85992-5.04468,4.1922.95776,7.09985,5.00537,6.64966,9.40137.2793-.21411,5.40198-4.00977,11.00635-1.83447,4.74622,1.84216,7.7514,7.15674,6.92212,12.81384,3.35919-1.19995,6.83398.03699,8.21167,2.54932,1.34558,2.45386.15924,5.15527,0,5.50317,2.72198-.88171,5.5769.57666,6.42035,2.98083.92517,2.63708-.76984,5.84192-3.84796,6.53735,3.25342-2.09607,7.38623-1.14429,9.12189,1.48816,1.93268,2.93115.72858,7.69641-3.23816,9.50146,3.237.60901,5.7937,3.11743,6.44836,6.32019.6731,3.29321-.79333,6.69165-3.66882,8.48401.36481,1.24622,1.01862,4.10327.14081,7.56274-.93976,3.70386-3.10114,5.99353-4.03888,6.88318.78992.95361,1.888,2.61523,2.06366,4.81531.315,3.94507-2.46582,7.99316-7.0188,10.08496Z"/>
    <path class="cls-17" d="m206.20032,105.98166c0,1.46002-.04004,2.91998-.12012,4.35999v.01001c-1.47998,28.42999-17.37988,53.03998-40.5199,66.66998-10.01001,5.91003-21.37,9.75-33.51001,10.95001-2.72009.28003-5.48999.41998-8.28003.41998-2.08997,0-4.16003-.07996-6.20007-.22998-10.87988-.81-21.15991-3.71997-30.44995-8.34998-26.86987-13.35004-45.41992-40.92004-45.78003-72.86005v-.00995c-.01001-.32001-.01001-.64001-.01001-.96002,0-45.51001,36.91016-82.40002,82.44006-82.40002,45.52002,0,82.43005,36.89001,82.43005,82.40002Z"/>
    <path class="cls-16" d="m117.58939,422.04794c-1.1405,2.53757-5.46948,2.83842-14.52234,2.9809-16.38916.25792-20.3479-.44254-21.10132-2.59819-.32056-.91721-.23804-2.5945.25208-4.03212.50098-1.46953,1.32996-2.457,1.83801-2.97789-.12012-1.68861-.2887-3.45685-.51746-5.29625-.23608-1.89787-.51587-3.70686-.82446-5.42117,2.10669.56969,4.8175,1.1983,8.0094,1.67616.61108.09148,4.078.60228,7.57251.72125,6.87305.23401,13.23914-1.0686,17.57373-2.25014-.11462,3.17198-.22925,6.34395-.34387,9.51593.53931.47078,1.57117,1.50351,2.12244,3.15511.5874,1.7597.37476,3.56207-.05872,4.52641Z"/>
    <path class="cls-16" d="m128.4202,422.04794c.90747,2.1304,4.16052,3.24051,18.36658,3.28664,12.81665.04161,16.52795-.84132,17.25708-2.90393.32886-.93016.23364-2.60721-.25208-4.03212-.50098-1.46953-1.32996-2.457-1.83801-2.97789.12012-1.68861.2887-3.45685.51746-5.29625.23608-1.89787.51587-3.70686.82446-5.42117-2.10669.56969-4.8175,1.1983-8.0094,1.67616-.61108.09148-4.078.60228-7.57251.72125-6.87305.23401-13.23914-1.0686-17.57373-2.25014.11462,3.17198.22925,6.34395.34387,9.51593-.53931.47078-1.57117,1.50351-2.12244,3.15511-.60681,1.81818-.32532,3.62473.05872,4.52641Z"/>
    <path class="cls-12" d="m165.59671,288.33988c-10.37671,2.80328-24.04504,5.4216-40.1814,5.72791-20.3009.38538-37.1416-3.02847-48.97998-6.41998.21997-16.40997,1.27991-28.48999,2.30994-31.52997.83997-2.48004,2.31995-4.08002,2.31995-4.08002.70996-.76001,1.45996-1.33002,2.72998-2.10999,2.43005-1.48004,4.90015-2.59003,6.21997-3.05005,5.1001-1.75,13.1001-2.66998,19.94006-3.14996.81995-.06,1.63-.10999,2.41003-.15002,6.01001-.35999,10.62-.38,10.62-.38,0,0,4.95007-.04999,11.22998.30005.79004.03998,1.59998.08997,2.43005.14996,8,.56,17.30005,1.81,21.31995,4.58002,2.38,1.64001,3.89001,3.81,3.89001,3.81.46008.78467,1.09729,1.97092,1.68457,3.48108,1.75806,4.5206,1.68982,8.39877,1.67371,10.37619-.04358,5.32361.15857,12.89316.38318,22.44479Z"/>
    <rect class="cls-9" x="96.97158" y="253.8324" width="25.49002" height="19.17018"/>
    <rect class="cls-9" x="122.4616" y="253.8324" width="25.49002" height="19.17018"/>
    <polyline class="cls-8" points="102.49526 293.02782 103.01526 293.02782 103.01526 272.99782 99.49526 272.99782 99.49526 292.63782"/>
    <polyline class="cls-8" points="118.01526 294.09782 118.01526 272.99782 121.53526 272.99782 121.53526 294.12782"/>
    <polyline class="cls-8" points="123.76526 294.09782 123.76526 272.99782 127.27526 272.99782 127.27526 293.99782"/>
    <polyline class="cls-8" points="141.90526 292.71782 141.90526 272.99782 145.41526 272.99782 145.41526 292.20782"/>
    <rect class="cls-13" x="125.30553" y="257.04498" width="5.58253" height="9.1111" rx=".69782" ry=".69782"/>
    <rect class="cls-4" x="132.70501" y="257.04498" width="5.58253" height="9.1111" rx=".71098" ry=".71098"/>
    <rect class="cls-7" x="139.8326" y="257.04498" width="5.58253" height="6.4515" rx=".53094" ry=".53094"/>
    <circle class="cls-7" cx="111.28339" cy="260.77105" r="3.72607"/>
    <rect class="cls-13" x="100.76349" y="257.04498" width="3.73924" height="13.85098" rx="1.86962" ry="1.86962"/>
    <circle class="cls-8" cx="81.86199" cy="271.22964" r="8.22896"/>
    <circle class="cls-3" cx="81.86199" cy="271.22964" r="4.79913"/>
    <circle class="cls-8" cx="161.41956" cy="271.22964" r="8.22896"/>
    <circle class="cls-3" cx="161.41956" cy="271.22964" r="4.79913"/>
    <path class="cls-14" d="m139.22867,228.02781v15.47998c0,.05005,0,.10004-.0237.14001-.98279-.06-1.94174-.10999-2.87713-.14996-7.43526-.35004-13.29603-.30005-13.29603-.30005,0,0-5.45811.02002-12.57382.38-.92354.04004-1.88263.09003-2.85342.15002-.03541-.07001-.04726-.14001-.04726-.22003v-15.47998c0-.46997.44977-.83997.9945-.83997h29.68222c.54458,0,.99464.37.99464.83997Z"/>
    <path class="cls-9" d="m134.21524,232.61784v10.88c-6.27991-.35004-11.22998-.30005-11.22998-.30005,0,0-4.60999.02002-10.62.38v-10.95996c0-.48004.38-.87.85999-.87h20.13c.47998,0,.85999.38995.85999.87Z"/>
    <rect class="cls-3" x="115.91691" y="235.76819" width="14.74629" height="2.99353" rx=".40816" ry=".40816"/>
    <path class="cls-11" d="m63.82425,280.98344c-2.50439.065-4.69397,1.46051-5.46423,3.46579-1.0509,2.73578.61389,6.41284,4.17358,7.64767,14.44397,4.25079,34.93567,8.62747,59.72449,8.70901,25.78857.08484,47.02698-4.50919,61.77063-8.89783,3.22485-.38,5.4834-3.42029,4.95557-6.54169-.51648-3.05368-3.5282-5.17093-6.64978-4.58597-13.95337,4.4765-34.79419,9.43094-60.38208,9.32483-24.4646-.10144-44.47363-4.79245-58.12817-9.12183Z"/>
    <path class="cls-11" d="m80.37271,402.70497c-.94495.33434-1.64233,1.10367-1.75793,1.98727-.16138,1.23337.82678,2.56763,2.36951,2.82802,5.02173.92976,11.22937,1.66599,18.34387,1.6051,6.7561-.05782,12.66931-.82025,17.50317-1.75797,2.11096-.11847,3.3551-1.80452,3.1051-3.01912-.17859-.86778-1.14197-1.60236-2.3407-1.79617-4.93286,1.17032-11.41223,2.22513-19.03186,2.21657-7.22986-.00812-13.41248-.9713-18.19116-2.06371Z"/>
    <path class="cls-11" d="m165.86179,402.70497c.94495.33434,1.64233,1.10367,1.75793,1.98727.16138,1.23337-.82678,2.56763-2.36951,2.82802-5.02173.92976-11.22937,1.66599-18.34387,1.6051-6.7561-.05782-12.66931-.82025-17.50317-1.75797-2.11096-.11847-3.3551-1.80452-3.1051-3.01912.17859-.86778,1.14197-1.60236,2.3407-1.79617,4.93286,1.17032,11.41223,2.22513,19.03186,2.21657,7.22986-.00812,13.41248-.9713,18.19116-2.06371Z"/>
    <path class="cls-16" d="m64.81864,349.48097c4.84473,2.69041,11.95154,5.86325,20.98083,7.40764,16.42761,2.80983,29.76135-1.38828,36.09155-3.87602-.51489,5.77591-1.02979,11.55183-1.54468,17.32774-7.39319,2.31799-20.05188,5.12267-35.23474,2.59924-6.71411-1.11589-12.41174-3.02277-16.9519-4.96104-1.11365-6.16585-2.22742-12.33171-3.34106-18.49756Z"/>
    <path class="cls-16" d="m181.72679,349.48097c-4.84473,2.69041-11.95154,5.86325-20.98083,7.40764-16.42761,2.80983-29.76135-1.38828-36.09155-3.87602.51489,5.77591,1.02979,11.55183,1.54468,17.32774,7.39319,2.31799,20.05188,5.12267,35.23474,2.59924,6.71411-1.11589,12.41174-3.02277,16.9519-4.96104,1.11365-6.16585,2.22742-12.33171,3.34106-18.49756Z"/>
    <path class="cls-11" d="m28.79728,263.99352c-2.10962-.93631-4.46375.23312-5.00757,2.11182-.48547,1.67712.53943,3.68616,2.47766,4.3248,8.17395,3.44998,16.3479,6.89993,24.52185,10.34991,2.12976.74057,4.2699-.46832,4.70056-2.17834.328-1.30219-.35083-2.8334-1.71973-3.66879-8.32422-3.64645-16.64856-7.29294-24.97278-10.93939Z"/>
  </g>
</svg>