<?xml version="1.0" encoding="UTF-8"?>
<svg id="Layer_2" data-name="Layer 2" xmlns="http://www.w3.org/2000/svg" viewBox="0 0 243.42985 426.83186">
  <defs>
    <style>
      .cls-1 {
        fill: #fff;
      }

      .cls-2 {
        fill: #ffcb48;
        stroke-linecap: round;
        stroke-linejoin: round;
        stroke-width: 2.69019px;
      }

      .cls-2, .cls-3, .cls-4, .cls-5, .cls-6, .cls-7, .cls-8, .cls-9, .cls-10, .cls-11, .cls-12, .cls-13, .cls-14, .cls-15, .cls-16, .cls-17 {
        stroke: #231f20;
      }

      .cls-3 {
        fill: #23419a;
      }

      .cls-3, .cls-4, .cls-5, .cls-6, .cls-7, .cls-8, .cls-9, .cls-10, .cls-11, .cls-12, .cls-13, .cls-14, .cls-15, .cls-16, .cls-17 {
        stroke-miterlimit: 10;
      }

      .cls-3, .cls-4, .cls-6, .cls-7, .cls-8, .cls-9, .cls-12, .cls-13, .cls-17 {
        stroke-width: 2px;
      }

      .cls-4 {
        fill: #ce3927;
      }

      .cls-5 {
        fill: #fcd8b1;
      }

      .cls-5, .cls-10, .cls-11, .cls-15, .cls-16 {
        stroke-width: 3px;
      }

      .cls-6, .cls-17 {
        fill: #1d172c;
      }

      .cls-7 {
        fill: #eee81b;
      }

      .cls-8 {
        fill: #273a83;
      }

      .cls-9 {
        fill: #e8e8e8;
      }

      .cls-10 {
        fill: #3d2912;
      }

      .cls-18 {
        fill: #db8aa1;
      }

      .cls-11 {
        fill: #ef4136;
      }

      .cls-12 {
        fill: #dcdbdb;
      }

      .cls-13 {
        fill: #cf6528;
      }

      .cls-14 {
        stroke-width: 2.17621px;
      }

      .cls-14, .cls-16 {
        fill: #cccccb;
      }

      .cls-15 {
        fill: #b5b5b6;
      }

      .cls-19 {
        fill: #231f20;
      }

      .cls-17 {
        opacity: .53;
      }
    </style>
  </defs>
  <g id="Layer_1-2" data-name="Layer 1">
    <path class="cls-6" d="m204.45108,107.86587c0,1.46002-.04004,2.91998-.12012,4.35999v.01001c-1.47998,28.42999-17.37988,53.03998-40.5199,66.66998-10.01001,5.91003-21.37,9.75-33.51001,10.95001-2.72009.28003-5.48999.41998-8.28003.41998-2.08997,0-4.16003-.07996-6.20007-.22998-10.87988-.81-21.15991-3.71997-30.44995-8.34998-26.86987-13.35004-45.41992-40.92004-45.78003-72.86005v-.00995c-.01001-.32001-.01001-.64001-.01001-.96002,0-45.51001,36.91016-82.40002,82.44006-82.40002,45.52002,0,82.43005,36.89001,82.43005,82.40002Z"/>
    <path class="cls-16" d="m93.49613,184.9097c-3.21362.04172-8.19067.45932-13.75793,2.54138-10.74524,4.01852-17.08459,11.76736-22.70056,18.80255-4.39832,5.50983-6.85706,9.92273-10.23523,15.98566-4.2655,7.65543-8.91833,16.05292-12.13611,27.80466-1.47192,5.37561-3.0127,12.69397-3.53955,21.54089-2.17896,2.09683-5.14941,5.28424-8.02551,9.63058-3.46509,5.23648-6.66174,9.9805-7.10828,16.50955-.46399,6.78372,1.98865,15.91309,6.90454,16.98727,2.70557.59122,5.29468-1.44604,5.88538-1.91083,3.17725-2.49997,3.13025-5.89081,5.80884-13.14651,1.12366-3.04385,2.23853-5.44452,2.98096-6.95541-.64478,1.33066-1.53296,3.25433-2.47717,5.6304-1.98828,5.00345-1.75171,5.7905-1.42102,6.06387.59497.49179,1.98071-.27698,2.44592-.53503,4.91199-2.72491,8.68066-19.66183,9.91077-25.62421,2.12219-1.73196,4.56409-3.83102,7.19495-6.30179,2.45032-2.30127,4.93933-4.80811,7.42749-7.5351,10.41406-11.41406,17.33496-22.8757,21.9292-32.1944,3.21375-7.4744,6.47742-16.89569,8.62036-28.03241,1.35254-7.0293,2.02246-13.51489,2.29297-19.26114Z"/>
    <path class="cls-16" d="m156.00398,184.9097c3.21362.04172,8.19067.45932,13.75793,2.54138,10.74524,4.01852,17.08459,11.76736,22.70056,18.80255,4.39832,5.50983,6.85706,9.92273,10.23523,15.98566,4.2655,7.65543,8.91833,16.05292,12.13611,27.80466,1.47192,5.37561,3.0127,12.69397,3.53955,21.54089,2.17896,2.09683,5.14941,5.28424,8.02551,9.63058,3.46509,5.23648,6.66174,9.9805,7.10828,16.50955.46399,6.78372-1.98865,15.91309-6.90454,16.98727-2.70557.59122-5.29468-1.44604-5.88538-1.91083-3.17725-2.49997-3.13025-5.89081-5.80884-13.14651-1.12366-3.04385-2.23853-5.44452-2.98096-6.95541.64478,1.33066,1.53296,3.25433,2.47717,5.6304,1.98828,5.00345,1.75171,5.7905,1.42102,6.06387-.59497.49179-1.98071-.27698-2.44592-.53503-4.91199-2.72491-8.68066-19.66183-9.91077-25.62421-2.12219-1.73196-4.56409-3.83102-7.19495-6.30179-2.45032-2.30127-4.93933-4.80811-7.42749-7.5351-10.41406-11.41406-17.33496-22.8757-21.9292-32.1944-3.21375-7.4744-6.47742-16.89569-8.62036-28.03241-1.35254-7.0293-2.02246-13.51489-2.29297-19.26114Z"/>
    <path class="cls-11" d="m220.70283,263.98941c2.10962-.93631,4.46375.23312,5.00757,2.11182.48547,1.67712-.53943,3.68616-2.47766,4.3248-8.17395,3.44998-16.3479,6.89993-24.52185,10.34991-2.12976.74057-4.2699-.46832-4.70056-2.17834-.328-1.30219.35083-2.8334,1.71973-3.66879,8.32422-3.64645,16.64856-7.29294,24.97278-10.93939Z"/>
    <path class="cls-15" d="m220.03114,135.29553c3.40057-.0974,10.81952-.83912,16.20136-6.29569,6.24545-6.33225,5.90091-15.11408,5.51974-24.82851-.34317-8.74612-.59389-15.13727-5.51974-20.49337-5.90385-6.41958-14.47469-6.94952-17.17285-7.00845.32386,19.54201.64762,39.08404.97149,58.62602Z"/>
    <path class="cls-15" d="m23.39871,76.66951c-3.40057.0974-10.81952.83912-16.20136,6.29569-6.24545,6.33225-5.90091,15.11408-5.51974,24.82851.34317,8.74612.59389,15.13727,5.51974,20.49337,5.90385,6.41958,14.47469,6.94952,17.17285,7.00845-.32386-19.54201-.64762-39.08404-.97149-58.62602Z"/>
    <path class="cls-15" d="m175.75504,377.57161c-2.17993,6.66998-5.67993,16.02002-11.22998,26.83002-3.95996,1.48999-10.52991,3.39996-18.80994,3.20996-7.09998-.15997-12.79993-1.81-16.51001-3.20996-1.96997-22.14001-3.94006-44.29004-5.91003-66.42998-1.97998,22.13994-3.94995,44.28996-5.91992,66.42998-3.70996,1.39996-9.41003,3.04999-16.51001,3.20996-8.28003.19-14.8501-1.71997-18.81006-3.20996-5.55005-10.81-9.05005-20.16003-11.22998-26.83002-19.96057-61.07384-3.14929-118.97081-.09998-129.45,4.40356-15.133,6.41113-22.7551,7.59998-27.34998,1.67371-6.46881,3.75354-15.71402,5.36707-27.45923,26.12012.30832,52.24036.61664,78.36047.92496,2.3407,11.06299,4.52161,20.00787,6.20239,26.53427.23462.91122,1.34033,5.33087,2.99316,11.22577,1.82153,6.49683,3.04382,10.23331,4.60693,16.12421,18.00964,67.87149,2.0127,122.98543-.1001,129.45Z"/>
    <path class="cls-16" d="m122.33866,1.5C65.60868,1.5,19.61869,47.47003,19.61869,104.16998c0,16.69,3.98999,32.45001,11.05994,46.39001,9.76001,19.23004,25.40002,34.98004,44.55005,44.88,14.10999,7.28998,30.13,11.41003,47.10999,11.41003,20.67004,0,39.92004-6.11005,56.03003-16.61005l.01001-.01001c14.5199-9.46997,26.48999-22.50995,34.67004-37.87v-.00995c7.65991-14.37006,12-30.77002,12-48.18005C225.04874,47.47003,179.05875,1.5,122.33866,1.5Zm82.30994,108.75v.01001c-1.47998,28.42999-17.37988,53.03998-40.5199,66.66998-8.60999,5.08002-18.21008,8.63-28.45007,10.29004-1.66992.26996-3.35986.48999-5.05994.65997-2.72009.28003-5.48999.41998-8.28003.41998-2.08997,0-4.16003-.07996-6.20007-.22998-1.81982-.14001-3.62988-.33002-5.40991-.59003-8.89001-1.23999-17.31006-3.90997-25.04004-7.75995-26.86987-13.35004-45.41992-40.92004-45.78003-72.86005v-.00995c-.01001-.32001-.01001-.64001-.01001-.96002,0-45.51001,36.91016-82.40002,82.44006-82.40002,45.52002,0,82.43005,36.89001,82.43005,82.40002,0,1.46002-.04004,2.91998-.12012,4.35999Z"/>
    <path class="cls-5" d="m137.21866,180.78003c-.58008,1.77997-1.1499,3.94995-1.54004,6.44-1.66992.26996-3.35986.48999-5.05994.65997-2.72009.28003-5.48999.41998-8.28003.41998-2.08997,0-4.16003-.07996-6.20007-.22998-1.81982-.14001-3.62988-.33002-5.40991-.59003-.37-2.94995-1.20996-5.33997-1.93994-7.00995,9.47998.09998,18.95996.20996,28.42993.31Z"/>
    <ellipse class="cls-5" cx="185.9798" cy="120.21754" rx="13.33645" ry="9.80543" transform="translate(36.943 284.01246) rotate(-80.57965)"/>
    <ellipse class="cls-5" cx="58.68751" cy="122.24757" rx="9.80543" ry="13.33645" transform="translate(-19.21759 11.25438) rotate(-9.42035)"/>
    <path class="cls-5" d="m183.84471,120.02694c-.82001,16.94-7.71002,28.91998-10.25,33.21002-2.78003,4.69995-8.01001,13.32996-18.34003,20.63995-4.59998,3.25-16.63,11.52002-33.47998,11.01001-14.60004-.45001-24.75-7.23999-30.73004-11.23999-3.84998-2.58002-12.40997-8.42999-19.26001-19.26001-3.5-5.53998-5.73999-11.07001-7.15997-16.32001-2.46002-9.07996-2.5-17.27997-2.46997-23.12.01996-3.23999.02997-6.67999.23999-10.23999.57001-9.40997,2.5-19.67999,9.38995-29.42999,16.48004-23.31,46.93005-23.38,49.98004-23.34003,2.62.03003,31.42999.89001,49.53998,24.72003,4.21002,5.54999,7.01001,11.22998,8.85999,16.52997,3.35004,9.54004,3.65002,17.81006,3.75,21.76001.04004,1.73999.02002,3.44-.06995,5.08002Z"/>
    <path class="cls-19" d="m114.77977,135.24005c2.46653-7.60896,13.98559-6.98243,16.39488.34411-1.48607-.83197-2.82042-1.51855-4.18456-1.99679-4.23365-1.60552-8.38029-.78251-12.21033,1.65268h0Z"/>
    <path class="cls-19" d="m79.04283,98.10702c4.17935-8.16591,17.34994-9.04954,23.14683-2.22013-7.75897-2.56944-16.14522-2.22873-23.14683,2.22013h0Z"/>
    <path class="cls-19" d="m145.78502,94.92758c6.41591-6.55645,19.25459-3.48892,22.76197,4.75387-6.64584-4.75766-14.75506-6.92281-22.76197-4.75387h0Z"/>
    <path class="cls-2" d="m183.7319,119.27067c.08997-1.64001.10999-3.34003.06995-5.08002-.09998-3.94995-.40002-12.21997-3.75-21.76001-4.76001,1.22003-10.26001,1.77002-16.07996.59003-16.36011-3.33002-25.83008-18.40997-27.73999-16.96997-.94006.70996.40991,5.04999,9.1499,19.65997-4.01001-.17999-21.27002-1.39001-32.84998-15.15002-3.92993-4.66998-6.12-9.5-7.39001-13.28998-2.42993,2.32001-5.71997,5.91998-8.51001,10.91998-6.07996,10.89001-5.59998,20.91003-7.02991,20.87-1.12-.03998-2.46008-6.32996-1.83008-12.63995.93005-9.32001,5.90002-16.03003,8.85999-19.40002-2.72998,2.89001-6.75,7.44-11,13.52002-5.79993,8.29999-6.92993,12.15997-11.62,16.52997-2.45996,2.28003-6.14001,4.94-11.72998,6.88-.20996,3.56-.21997,7-.23999,10.23999-.03003,5.84003.01001,14.04004,2.46997,23.12-2.68994-6.70996-6.15991-18.31995-10.97998-39.47998-1.73999-7.62-2.31995-10.65002-1.83997-14.97998,1.64001-14.69,16.12-23.31,14.67993-25.22003-.53992-.71997-3.06995-.28998-11.19995,4.09003,6.36438-9.24655,13.2041-15.17999,17.98462-18.72522,6.34412-4.70477,22.21521-16.47476,41.50317-13.75797,3.81604.53751,6.88879,1.51852,8.94263,2.293,4.66943-1.88339,8.52771-2.38303,11.00647-2.52231,16.90454-.94998,31.33032,11.39258,38.52905,17.55176.36621.31329.69397.60065.69409.60074,6.28992,5.40997,10.44995,10.97998,13,14.89996-3.57007-2.44-7.14001-4.88995-10.70007-7.33997,2.26001,2.04999,5.21008,5.13,7.79004,9.40997,9.45996,15.63,7.90002,37.12-.18994,55.14001Z"/>
    <g>
      <circle class="cls-1" cx="92.73708" cy="115.37688" r="13.14205"/>
      <path class="cls-19" d="m103.76537,122.52457c-6.47974,10.05555-22.16616,7.64008-25.13975-4.13501-2.07147-7.56363,3.34325-15.93394,11.09746-17.13027,11.96727-2.10354,20.57791,11.24565,14.04229,21.26528h0Zm0,0c6.13889-9.53717-2.6565-21.55308-13.50233-18.73464-6.12257,1.49697-10.25447,7.85859-9.11919,14.06219,1.852,11.05949,16.42522,14.17206,22.62151,4.67244h0Z"/>
    </g>
    <circle cx="93.84629" cy="118.24609" r="10.27285"/>
    <circle class="cls-1" cx="87.8234" cy="112.79839" r="3.16883"/>
    <path class="cls-10" d="m138.99975,161.10527c-.79666,1.28992-5.57944,9.03394-13.79999,9.83258-9.01779.8761-15.49426-7.25449-16.31-8.31085-.76584-.99173-1.68427-2.60156-3.52112-5.8212-2.30447-4.03928-4.03574-7.44781-5.17462-9.7793,1.53088.81531,3.8511,1.89093,6.84698,2.67694.36252.09512,1.04617.25354,2.00873.45724,4.01001.84863,9.02002,1.51199,14.78003,1.38516,3.96619-.08734,9.18726-.22659,15.59998-2.25327,2.67084-.84409,4.82364-1.78546,6.3306-2.51273-.86554,2.08542-2.17993,5.13342-3.93311,8.7648-1.44855,3.0004-2.17282,4.50058-2.82748,5.56061Z"/>
    <path class="cls-18" d="m137.69986,160.4746c-.26743.52246-4.13364,7.76385-12.38217,8.59872-6.02173.6095-11.94629-2.44162-15.13376-7.79617,1.03842-.33054,2.48785-.75433,4.24203-1.14648,5.1788-1.15775,9.54953-1.26523,12.30377-1.18893,4.26233.11807,7.97034.76819,10.97012,1.53287Z"/>
    <path class="cls-1" d="m139.42975,150.74633c-.19.39996-.40002.77997-.63,1.09998-.38.53003-1.62,2.09998-7.17999,3.35999-2.66998.61005-6.65997,1.47003-12.08002.77002-4.10999-.53998-7.46997-.97003-9.91998-3.67999-.15002-.16998-.34998-.39001-.57001-.66003,4.01001.87,9.02002,1.55005,14.78003,1.42004,6.25-.14001,11.54999-1.17999,15.59998-2.31Z"/>
    <g>
      <circle class="cls-1" cx="152.81458" cy="115.31338" r="13.14205"/>
      <path class="cls-19" d="m141.78624,122.46106c6.19678,9.5,20.77157,6.38579,22.62166-4.67262,1.1344-6.2032-2.99611-12.56551-9.11953-14.06206-10.84771-2.81707-19.64059,9.19783-13.50213,18.73468h0Zm0,0c-6.53449-10.02076,2.07445-23.36894,14.04261-21.26533,7.75292,1.19746,13.17004,9.5661,11.09696,17.13062-2.97299,11.77425-18.66154,14.19056-25.13957,4.13471h0Z"/>
    </g>
    <circle cx="151.70537" cy="118.18259" r="10.27285"/>
    <circle class="cls-1" cx="157.72826" cy="112.7349" r="3.16883"/>
    <ellipse class="cls-18" cx="82.92037" cy="137.31065" rx="8.81671" ry="3.89332"/>
    <ellipse class="cls-18" cx="162.9827" cy="137.31065" rx="8.81671" ry="3.89332"/>
    <path class="cls-17" d="m206.20032,105.97754c0,1.46002-.04004,2.91998-.12012,4.35999v.01001c-1.47998,28.42999-17.37988,53.03998-40.5199,66.66998-10.01001,5.91003-21.37,9.75-33.51001,10.95001-2.72009.28003-5.48999.41998-8.28003.41998-2.08997,0-4.16003-.07996-6.20007-.22998-10.87988-.81-21.15991-3.71997-30.44995-8.34998-26.86987-13.35004-45.41992-40.92004-45.78003-72.86005v-.00995c-.01001-.32001-.01001-.64001-.01001-.96002,0-45.51001,36.91016-82.40002,82.44006-82.40002,45.52002,0,82.43005,36.89001,82.43005,82.40002Z"/>
    <path class="cls-16" d="m117.58939,422.04383c-1.1405,2.53757-5.46948,2.83842-14.52234,2.9809-16.38916.25792-20.3479-.44254-21.10132-2.59819-.32056-.91721-.23804-2.5945.25208-4.03212.50098-1.46953,1.32996-2.457,1.83801-2.97789-.12012-1.68861-.2887-3.45685-.51746-5.29625-.23608-1.89787-.51587-3.70686-.82446-5.42117,2.10669.56969,4.8175,1.1983,8.0094,1.67616.61108.09148,4.078.60228,7.57251.72125,6.87305.23401,13.23914-1.0686,17.57373-2.25014-.11462,3.17198-.22925,6.34395-.34387,9.51593.53931.47078,1.57117,1.50351,2.12244,3.15511.5874,1.7597.37476,3.56207-.05872,4.52641Z"/>
    <path class="cls-16" d="m128.4202,422.04383c.90747,2.1304,4.16052,3.24051,18.36658,3.28664,12.81665.04161,16.52795-.84132,17.25708-2.90393.32886-.93016.23364-2.60721-.25208-4.03212-.50098-1.46953-1.32996-2.457-1.83801-2.97789.12012-1.68861.2887-3.45685.51746-5.29625.23608-1.89787.51587-3.70686.82446-5.42117-2.10669.56969-4.8175,1.1983-8.0094,1.67616-.61108.09148-4.078.60228-7.57251.72125-6.87305.23401-13.23914-1.0686-17.57373-2.25014.11462,3.17198.22925,6.34395.34387,9.51593-.53931.47078-1.57117,1.50351-2.12244,3.15511-.60681,1.81818-.32532,3.62473.05872,4.52641Z"/>
    <path class="cls-12" d="m165.59671,288.33577c-10.37671,2.80328-24.04504,5.4216-40.1814,5.72791-20.3009.38538-37.1416-3.02847-48.97998-6.41998.21997-16.40997,1.27991-28.48999,2.30994-31.52997.83997-2.48004,2.31995-4.08002,2.31995-4.08002.70996-.76001,1.45996-1.33002,2.72998-2.10999,2.43005-1.48004,4.90015-2.59003,6.21997-3.05005,5.1001-1.75,13.1001-2.66998,19.94006-3.14996.81995-.06,1.63-.10999,2.41003-.15002,6.01001-.35999,10.62-.38,10.62-.38,0,0,4.95007-.04999,11.22998.30005.79004.03998,1.59998.08997,2.43005.14996,8,.56,17.30005,1.81,21.31995,4.58002,2.38,1.64001,3.89001,3.81,3.89001,3.81.46008.78467,1.09729,1.97092,1.68457,3.48108,1.75806,4.5206,1.68982,8.39877,1.67371,10.37619-.04358,5.32361.15857,12.89316.38318,22.44479Z"/>
    <rect class="cls-9" x="96.97158" y="253.82828" width="25.49002" height="19.17018"/>
    <rect class="cls-9" x="122.4616" y="253.82828" width="25.49002" height="19.17018"/>
    <polyline class="cls-8" points="102.49526 293.0237 103.01526 293.0237 103.01526 272.9937 99.49526 272.9937 99.49526 292.6337"/>
    <polyline class="cls-8" points="118.01526 294.0937 118.01526 272.9937 121.53526 272.9937 121.53526 294.1237"/>
    <polyline class="cls-8" points="123.76526 294.0937 123.76526 272.9937 127.27526 272.9937 127.27526 293.9937"/>
    <polyline class="cls-8" points="141.90526 292.7137 141.90526 272.9937 145.41526 272.9937 145.41526 292.2037"/>
    <rect class="cls-13" x="125.30553" y="257.04087" width="5.58253" height="9.1111" rx=".69782" ry=".69782"/>
    <rect class="cls-4" x="132.70501" y="257.04087" width="5.58253" height="9.1111" rx=".71098" ry=".71098"/>
    <rect class="cls-7" x="139.8326" y="257.04087" width="5.58253" height="6.4515" rx=".53094" ry=".53094"/>
    <circle class="cls-7" cx="111.28339" cy="260.76694" r="3.72607"/>
    <rect class="cls-13" x="100.76349" y="257.04087" width="3.73924" height="13.85098" rx="1.86962" ry="1.86962"/>
    <circle class="cls-8" cx="81.86199" cy="271.22553" r="8.22896"/>
    <circle class="cls-3" cx="81.86199" cy="271.22553" r="4.79913"/>
    <circle class="cls-8" cx="161.41956" cy="271.22553" r="8.22896"/>
    <circle class="cls-3" cx="161.41956" cy="271.22553" r="4.79913"/>
    <path class="cls-14" d="m139.22867,228.0237v15.47998c0,.05005,0,.10004-.0237.14001-.98279-.06-1.94174-.10999-2.87713-.14996-7.43526-.35004-13.29603-.30005-13.29603-.30005,0,0-5.45811.02002-12.57382.38-.92354.04004-1.88263.09003-2.85342.15002-.03541-.07001-.04726-.14001-.04726-.22003v-15.47998c0-.46997.44977-.83997.9945-.83997h29.68222c.54458,0,.99464.37.99464.83997Z"/>
    <path class="cls-9" d="m134.21524,232.61373v10.88c-6.27991-.35004-11.22998-.30005-11.22998-.30005,0,0-4.60999.02002-10.62.38v-10.95996c0-.48004.38-.87.85999-.87h20.13c.47998,0,.85999.38995.85999.87Z"/>
    <rect class="cls-3" x="115.91691" y="235.76408" width="14.74629" height="2.99353" rx=".40816" ry=".40816"/>
    <path class="cls-11" d="m63.82425,280.97933c-2.50439.065-4.69397,1.46051-5.46423,3.46579-1.0509,2.73578.61389,6.41284,4.17358,7.64767,14.44397,4.25079,34.93567,8.62747,59.72449,8.70901,25.78857.08484,47.02698-4.50919,61.77063-8.89783,3.22485-.38,5.4834-3.42029,4.95557-6.54169-.51648-3.05368-3.5282-5.17093-6.64978-4.58597-13.95337,4.4765-34.79419,9.43094-60.38208,9.32483-24.4646-.10144-44.47363-4.79245-58.12817-9.12183Z"/>
    <path class="cls-11" d="m80.37271,402.70086c-.94495.33434-1.64233,1.10367-1.75793,1.98727-.16138,1.23337.82678,2.56763,2.36951,2.82802,5.02173.92976,11.22937,1.66599,18.34387,1.6051,6.7561-.05782,12.66931-.82025,17.50317-1.75797,2.11096-.11847,3.3551-1.80452,3.1051-3.01912-.17859-.86778-1.14197-1.60236-2.3407-1.79617-4.93286,1.17032-11.41223,2.22513-19.03186,2.21657-7.22986-.00812-13.41248-.9713-18.19116-2.06371Z"/>
    <path class="cls-11" d="m165.86179,402.70086c.94495.33434,1.64233,1.10367,1.75793,1.98727.16138,1.23337-.82678,2.56763-2.36951,2.82802-5.02173.92976-11.22937,1.66599-18.34387,1.6051-6.7561-.05782-12.66931-.82025-17.50317-1.75797-2.11096-.11847-3.3551-1.80452-3.1051-3.01912.17859-.86778,1.14197-1.60236,2.3407-1.79617,4.93286,1.17032,11.41223,2.22513,19.03186,2.21657,7.22986-.00812,13.41248-.9713,18.19116-2.06371Z"/>
    <path class="cls-16" d="m64.81864,349.47686c4.84473,2.69041,11.95154,5.86325,20.98083,7.40764,16.42761,2.80983,29.76135-1.38828,36.09155-3.87602-.51489,5.77591-1.02979,11.55183-1.54468,17.32774-7.39319,2.31799-20.05188,5.12267-35.23474,2.59924-6.71411-1.11589-12.41174-3.02277-16.9519-4.96104-1.11365-6.16585-2.22742-12.33171-3.34106-18.49756Z"/>
    <path class="cls-16" d="m181.72679,349.47686c-4.84473,2.69041-11.95154,5.86325-20.98083,7.40764-16.42761,2.80983-29.76135-1.38828-36.09155-3.87602.51489,5.77591,1.02979,11.55183,1.54468,17.32774,7.39319,2.31799,20.05188,5.12267,35.23474,2.59924,6.71411-1.11589,12.41174-3.02277,16.9519-4.96104,1.11365-6.16585,2.22742-12.33171,3.34106-18.49756Z"/>
    <path class="cls-11" d="m28.79728,263.98941c-2.10962-.93631-4.46375.23312-5.00757,2.11182-.48547,1.67712.53943,3.68616,2.47766,4.3248,8.17395,3.44998,16.3479,6.89993,24.52185,10.34991,2.12976.74057,4.2699-.46832,4.70056-2.17834.328-1.30219-.35083-2.8334-1.71973-3.66879-8.32422-3.64645-16.64856-7.29294-24.97278-10.93939Z"/>
  </g>
</svg>