<?xml version="1.0" encoding="UTF-8"?>
<svg id="Layer_2" data-name="Layer 2" xmlns="http://www.w3.org/2000/svg" viewBox="0 0 243.429849718751939 452.830403657527313">
  <defs>
    <style>
      .cls-1 {
        fill: #23419a;
      }

      .cls-1, .cls-2, .cls-3, .cls-4, .cls-5, .cls-6, .cls-7, .cls-8, .cls-9, .cls-10, .cls-11, .cls-12 {
        stroke: #231f20;
        stroke-miterlimit: 10;
      }

      .cls-1, .cls-2, .cls-3, .cls-4, .cls-6, .cls-7, .cls-9, .cls-10 {
        stroke-width: 2px;
      }

      .cls-2 {
        fill: #ce3927;
      }

      .cls-3 {
        fill: #1d172c;
      }

      .cls-4 {
        fill: #eee81b;
      }

      .cls-5 {
        stroke-width: 2.176213261913451px;
      }

      .cls-5, .cls-13, .cls-12 {
        fill: #cccccb;
      }

      .cls-6 {
        fill: #273a83;
      }

      .cls-7 {
        fill: #e8e8e8;
      }

      .cls-8 {
        fill: #ef4136;
      }

      .cls-8, .cls-11, .cls-12 {
        stroke-width: 3px;
      }

      .cls-9 {
        fill: #dcdbdb;
      }

      .cls-10 {
        fill: #cf6528;
      }

      .cls-11 {
        fill: #b5b5b6;
      }
    </style>
  </defs>
  <g id="Layer_1-2" data-name="Layer 1">
    <path class="cls-12" d="m93.496130662671931,210.908238049200918c-3.213623046875.041717529296875-8.190673828125.459320068359375-13.7579345703125,2.5413818359375-10.7452392578125,4.018524169921875-17.0845947265625,11.767364501953125-22.7005615234375,18.80255126953125-4.3983154296875,5.50982666015625-6.8570556640625,9.9227294921875-10.2352294921875,15.98565673828125-4.2655029296875,7.655426025390625-8.9183349609375,16.05291748046875-12.1361083984375,27.804656982421875-1.471923828125,5.3756103515625-3.0126953125,12.6939697265625-3.53955078125,21.5408935546875-2.178955078125,2.096832275390625-5.1494140625,5.28424072265625-8.0255126953125,9.630584716796875-3.465087890625,5.236480712890625-6.6617431640625,9.980499267578125-7.1082763671875,16.509552001953125-.4639892578125,6.783721923828125,1.9886474609375,15.9130859375,6.904541015625,16.987274169921875,2.70556640625.591217041015625,5.294677734375-1.446044921875,5.8853759765625-1.91082763671875,3.17724609375-2.499969482421875,3.1302490234375-5.89080810546875,5.808837890625-13.146514892578125,1.1236572265625-3.043853759765625,2.238525390625-5.44451904296875,2.98095703125-6.955413818359375-.644775390625,1.330657958984375-1.532958984375,3.25433349609375-2.4771728515625,5.630401611328125-1.98828125,5.003448486328125-1.751708984375,5.790496826171875-1.4210205078125,6.063873291015625.594970703125.491790771484375,1.980712890625-.2769775390625,2.4459228515625-.5350341796875,4.9119873046875-2.72491455078125,8.6806640625-19.661834716796875,9.9107666015625-25.62420654296875,2.1221923828125-1.731964111328125,4.5640869140625-3.831024169921875,7.1949462890625-6.301788330078125,2.4503173828125-2.30126953125,4.9393310546875-4.80810546875,7.427490234375-7.53509521484375,10.4140625-11.4140625,17.3349609375-22.875701904296875,21.92919921875-32.19439697265625,3.2137451171875-7.474395751953125,6.4774169921875-16.89569091796875,8.620361328125-28.03240966796875,1.3525390625-7.029296875,2.0224609375-13.514892578125,2.29296875-19.261138916015625Z"/>
    <path class="cls-12" d="m156.003977862368629,210.908238047638406c3.213623046873181.041717529440575,8.190673828104991.459320068726811,13.757934570197904,2.541381836555047,10.74523925763242,4.018524170403907,17.084594726034993,11.767364502719829,22.700561522593489,18.802551270550794,4.398315429440117,5.50982666035361,6.857055663616848,9.922729492494909,10.235229491470818,15.985656738740545,4.265502929343711,7.655426025581619,8.91833496021718,16.052917480868928,12.136108397187854,27.804656982966662,1.471923827884893,5.375610351628893,3.012695311930656,12.693969726698015,3.539550780284117,21.540893554846662,2.178955078030413,2.096832275487941,5.149414062261712,5.284240722887262,8.025512694879581,9.630584717157035,3.46508789039035,5.236480713046149,6.661743163615029,9.980499267877349,7.108276366447171,16.509552002272358.46398925750691,6.783721923849043-1.988647461652363,15.91308593740996-6.904541016388976,16.987274169611737-2.705566406275466.591217040893753-5.294677734309516-1.446044922113288-5.885375976475189-1.910827636983413-3.177246093639042-2.499969482564666-3.130249023173747-5.890808105608812-5.808837890035647-13.14651489283824-1.123657226426076-3.043853759816557-2.238525390381255-5.444519043069704-2.980957030937134-6.95541381849398.644775390564973,1.330657959013479,1.532958984227662,3.254333496162872,2.47717285130966,5.630401611439993,1.988281249774445,5.003448486417255,1.751708984114885,5.790496826250092,1.421020507539652,6.06387329107929-.594970703146828.49179077145709-1.980712890612267-.27697753915163-2.445922851538853-.535034179797549-4.911987304565628-2.724914551001348-8.680664061615971-19.661834717186139-9.91076660041108-25.624206543413493-2.122192382736102-1.731964111423622-4.564086913891515-3.831024170126511-7.194946288780557-6.301788330400996-2.450317382708818-2.301269531360049-4.93933105447104-4.808105468971917-7.427490234036668-7.535095215177535-10.414062499487045-11.41406250046748-17.334960936472271-22.875701905075402-21.929199217303903-32.194396973641233-3.213745116852806-7.474395752096825-6.477416991428981-16.895690918258879-8.620361326866259-28.032409668355285-1.352539062185315-7.029296875060936-2.022460936894277-13.514892578215949-2.29296874913598-19.261138916118398Z"/>
    <path class="cls-8" d="m220.702830397880462,289.987949964605832c2.109619140666837-.936309814358538,4.463745117178405.233123779496964,5.007568359280413,2.111816406474645.485473632737921,1.677124023459328-.539428711103028,3.686157226537944-2.477661133007132,4.324798583872507-8.173950195467114,3.449981689086599-16.347900390934228,6.899932860594163-24.521850586401342,10.349914549680761-2.129760742220242.740570068263878-4.269897460915672-.468322754098153-4.700561523339275-2.178344726773503-.328002929629292-1.302185058608302.350830078252329-2.833404541000164,1.719726562663709-3.668792724532068,8.324218750163709-3.646453857048073,16.648559570639918-7.29293823167427,24.972778320803627-10.939392088722343Z"/>
    <path class="cls-11" d="m220.031136756819251,135.294067820558666c3.400567362745278-.097402274133856,10.819519576261882-.839117706833349,16.201363710952137-6.295690663426285,6.245445308284616-6.332249298358875,5.900907375011229-15.11408449148712,5.519743264851058-24.828505809599847-.343173634420964-8.746115780805667-.593889785075589-15.13726801608118-5.519743264851058-20.493370290872008-5.903845864846517-6.419580901177142-14.474686094088611-6.949523753470203-17.172849439957645-7.00845291609312.323863558356607,19.54200655999739.647622170648901,39.084039345700148.971485729005508,58.626019679991259Z"/>
    <path class="cls-11" d="m23.39871296192905,76.668048140567407c-3.400567362747097.097402274133856-10.819519576263701.839117706833349-16.201363710952137,6.295690663426285-6.245445308284616,6.332249298358875-5.900907375011229,15.114084491488029-5.519743264851058,24.828505809600756.343173634420964,8.746115780805667.593889785075589,15.137268016079361,5.519743264851058,20.493370290872008,5.903845864846517,6.419580901176232,14.474686094088611,6.949523753470203,17.172849439957645,7.00845291609221-.323863558356607-19.54200655999739-.647622170648901-39.084039345701058-.971485729005508-58.626019679991259Z"/>
    <path class="cls-11" d="m175.75503917455535,403.570151883439394c-2.179931640625,6.66998291015625-5.679931640625,16.02001953125-11.22998046875,26.83001708984375-3.9599609375,1.489990234375-10.5299072265625,3.39996337890625-18.8099365234375,3.2099609375-7.0999755859375-.15997314453125-12.7999267578125-1.80999755859375-16.510009765625-3.2099609375-1.969970703125-22.1400146484375-3.9400634765625-44.2900390625-5.9100341796875-66.42999267578125-1.97998046875,22.13995361328125-3.949951171875,44.28997802734375-5.919921875,66.42999267578125-3.7099609375,1.39996337890625-9.4100341796875,3.04998779296875-16.510009765625,3.2099609375-8.280029296875.19000244140625-14.85009765625-1.719970703125-18.81005859375-3.2099609375-5.550048828125-10.80999755859375-9.050048828125-20.1600341796875-11.22998046875-26.83001708984375-19.9605712890625-61.0738525390625-3.1492919921875-118.9708251953125-.0999755859375-129.45001220703125,1.984130859375-6.818389892578125,4.5260009765625-14.212005615234375,7.5999755859375-27.3499755859375,4.8089599609375-20.55340576171875,6.80078125-37.560516357421875,7.731201171875-48.236419677734375,23.9053955078125-.101806640625,47.8106689453125-.203582763671875,71.716064453125-.305389404296875,1.8724365234375,10.61419677734375,5.1558837890625,27.669525146484375,10.482666015625,48.54180908203125,3.7606201171875,14.73553466796875,5.31640625,18.7435302734375,7.60009765625,27.3499755859375,18.0096435546875,67.871490478515625,2.0126953125,122.985443115234375-.10009765625,129.45001220703125Z"/>
    <ellipse class="cls-12" cx="122.334110890714328" cy="104.172548048379667" rx="102.714868126388865" ry="102.672548048380577"/>
    <ellipse class="cls-3" cx="122.334110890715237" cy="105.891275952962133" rx="82.437815639175824" ry="82.403850013241936"/>
    <path class="cls-12" d="m117.58938976049285,448.042365628556581c-1.1405029296875,2.537567138671875-5.469482421875,2.838424682617188-14.5223388671875,2.98089599609375-16.38916015625.257919311523438-20.347900390625-.442535400390625-21.101318359375-2.598190307617188-.320556640625-.917205810546875-.238037109375-2.594497680664062.2520751953125-4.032119750976562.5009765625-1.469528198242188,1.3299560546875-2.457000732421875,1.8380126953125-2.977890014648438-.1201171875-1.688613891601562-.2886962890625-3.45684814453125-.5174560546875-5.296249389648438-.236083984375-1.897872924804688-.515869140625-3.706863403320312-.824462890625-5.421173095703125,2.106689453125.569686889648438,4.8175048828125,1.19830322265625,8.0093994140625,1.676162719726562.611083984375.091476440429688,4.0780029296875.602279663085938,7.572509765625.72125244140625,6.873046875.2340087890625,13.2391357421875-1.068603515625,17.57373046875-2.250137329101562-.1146240234375,3.171981811523438-.229248046875,6.343948364257812-.3438720703125,9.51593017578125.539306640625.470779418945312,1.5711669921875,1.503509521484375,2.1224365234375,3.155105590820312.58740234375,1.75970458984375.374755859375,3.56207275390625-.0587158203125,4.526412963867188Z"/>
    <path class="cls-12" d="m128.42020030736785,448.042365628556581c.907470703125,2.130401611328125,4.1605224609375,3.240509033203125,18.3665771484375,3.286636352539062,12.816650390625.041610717773438,16.5279541015625-.841323852539062,17.257080078125-2.9039306640625.328857421875-.930160522460938.233642578125-2.607208251953125-.2520751953125-4.032119750976562-.5009765625-1.469528198242188-1.3299560546875-2.457000732421875-1.8380126953125-2.977890014648438.1201171875-1.688613891601562.2886962890625-3.45684814453125.5174560546875-5.296249389648438.236083984375-1.897872924804688.515869140625-3.706863403320312.824462890625-5.421173095703125-2.106689453125.569686889648438-4.8175048828125,1.19830322265625-8.0093994140625,1.676162719726562-.611083984375.091476440429688-4.0780029296875.602279663085938-7.572509765625.72125244140625-6.873046875.2340087890625-13.2391357421875-1.068603515625-17.57373046875-2.250137329101562.1146240234375,3.171981811523438.229248046875,6.343948364257812.3438720703125,9.51593017578125-.539306640625.470779418945312-1.5711669921875,1.503509521484375-2.1224365234375,3.155105590820312-.6068115234375,1.81817626953125-.3253173828125,3.624725341796875.0587158203125,4.526412963867188Z"/>
    <path class="cls-9" d="m165.59671397924285,314.334312039689394c-10.376708984375,2.80328369140625-24.0450439453125,5.421600341796875-40.181396484375,5.7279052734375-20.3009033203125.3853759765625-37.1416015625-3.028472900390625-48.97998046875-6.41998291015625.219970703125-16.40997314453125,1.2799072265625-28.489990234375,2.3099365234375-31.52996826171875.8399658203125-2.48004150390625,2.3199462890625-4.08001708984375,2.3199462890625-4.08001708984375.7099609375-.760009765625,1.4599609375-1.33001708984375,2.72998046875-2.1099853515625,2.4300537109375-1.48004150390625,4.900146484375-2.59002685546875,6.219970703125-3.050048828125,5.10009765625-1.75,13.10009765625-2.66998291015625,19.9400634765625-3.14996337890625.8199462890625-.05999755859375,1.6300048828125-.1099853515625,2.4100341796875-.1500244140625,6.010009765625-.3599853515625,10.6199951171875-.3800048828125,10.6199951171875-.3800048828125,0,0,4.9500732421875-.04998779296875,11.22998046875.300048828125.7900390625.03997802734375,1.5999755859375.0899658203125,2.4300537109375.14996337890625,8,.55999755859375,17.300048828125,1.80999755859375,21.3199462890625,4.58001708984375,2.3800048828125,1.6400146484375,3.8900146484375,3.80999755859375,3.8900146484375,3.80999755859375.4600830078125.78466796875,1.0972900390625,1.970916748046875,1.6845703125,3.4810791015625,1.758056640625,4.520599365234375,1.6898193359375,8.398773193359375,1.6737060546875,10.376190185546875-.0435791015625,5.3236083984375.1585693359375,12.893157958984375.3831787109375,22.444793701171875Z"/>
    <rect class="cls-7" x="96.971582631829733" y="279.826823784822409" width="25.490020457973515" height="19.170180675004303"/>
    <rect class="cls-7" x="122.461603089803248" y="279.826823784822409" width="25.490020457971696" height="19.170180675004303"/>
    <polyline class="cls-6" points="102.495258901117268 319.022244168595535 103.015258901117704 319.022244168595535 103.015258901117704 298.992244168595789 99.495258901117268 298.992244168595789 99.495258901117268 318.632244168596117"/>
    <polyline class="cls-6" points="118.015258901117704 320.092244168596153 118.015258901117704 298.992244168595789 121.535258901118141 298.992244168595789 121.535258901118141 320.122244168595898"/>
    <polyline class="cls-6" points="123.765258901117704 320.092244168596153 123.765258901117704 298.992244168595789 127.275258901117923 298.992244168595789 127.275258901117923 319.992244168595789"/>
    <polyline class="cls-6" points="141.905258901118941 318.712244168596044 141.905258901118941 298.992244168595789 145.41525890111734 298.992244168595789 145.41525890111734 318.202244168595826"/>
    <rect class="cls-10" x="125.305530992136482" y="283.039409007830727" width="5.582525141624501" height="9.111102353779643" rx=".697815642703063" ry=".697815642703063"/>
    <rect class="cls-2" x="132.705010071364086" y="283.039409007830727" width="5.582525141622682" height="9.111102353779643" rx=".710981975584218" ry=".710981975584218"/>
    <rect class="cls-4" x="139.832595684903936" y="283.039409007830727" width="5.582525141622682" height="6.451503111780767" rx=".530936719274905" ry=".530936719274905"/>
    <circle class="cls-4" cx="111.28338647392593" cy="286.765481213455587" r="3.726072205625542"/>
    <rect class="cls-10" x="100.763486510305029" y="283.039409007664176" width="3.739238519411629" height="13.850982190134857" rx="1.869617398391619" ry="1.869617398391619"/>
    <circle class="cls-6" cx="81.861991032032165" cy="297.224065722849446" r="8.228958049753144"/>
    <circle class="cls-1" cx="81.861991032032165" cy="297.224065722849446" r="4.799128334698253"/>
    <circle class="cls-6" cx="161.419557466098922" cy="297.224065722849446" r="8.228958049753144"/>
    <circle class="cls-1" cx="161.419557466098922" cy="297.224065722849446" r="4.799128334698253"/>
    <path class="cls-5" d="m139.228674607988069,254.022239285783144v15.47998046875c0,.050048828125,0,.10003662109375-.023702646283709.1400146484375-.982792650725969-.05999755859375-1.941738126841301-.1099853515625-2.877125485005308-.14996337890625-7.435259987747486-.35003662109375-13.296028337696043-.300048828125-13.296028337696043-.300048828125,0,0-5.458112419815734.02001953125-12.573820267745759.3800048828125-.923536035021243.0400390625-1.882626039467141.09002685546875-2.853422838721599.1500244140625-.035409441094089-.07000732421875-.047260764235034-.1400146484375-.047260764235034-.22003173828125v-15.47998046875c0-.469970703125.449772166039111-.8399658203125.994499445538167-.8399658203125h29.682216920282372c.544582751164853,0,.994643973866914.3699951171875.994643973866914.8399658203125Z"/>
    <path class="cls-7" d="m134.21524425268035,258.612266141251894v10.8800048828125c-6.2799072265625-.35003662109375-11.22998046875-.300048828125-11.22998046875-.300048828125,0,0-4.6099853515625.02001953125-10.6199951171875.3800048828125v-10.9599609375c0-.48004150390625.3800048828125-.8699951171875.8599853515625-.8699951171875h20.1300048828125c.47998046875,0,.8599853515625.38995361328125.8599853515625.8699951171875Z"/>
    <rect class="cls-1" x="115.91690650450073" y="261.76261507183608" width="14.746292826926947" height="2.993526472001577" rx=".408156319317641" ry=".408156319317641"/>
    <path class="cls-8" d="m63.82425304174285,306.977866727189394c-2.50439453125.06500244140625-4.6939697265625,1.46051025390625-5.4642333984375,3.465789794921875-1.0509033203125,2.73577880859375.6138916015625,6.412841796875,4.173583984375,7.647674560546875,14.4439697265625,4.25079345703125,34.9356689453125,8.627471923828125,59.7244873046875,8.709014892578125,25.78857421875.0848388671875,47.0269775390625-4.509185791015625,61.7706298828125-8.8978271484375,3.224853515625-.3800048828125,5.4833984375-3.4202880859375,4.95556640625-6.54168701171875-.5164794921875-3.053680419921875-3.5281982421875-5.170928955078125-6.6497802734375-4.585968017578125-13.953369140625,4.47650146484375-34.794189453125,9.430938720703125-60.382080078125,9.3248291015625-24.464599609375-.1014404296875-44.4736328125-4.792449951171875-58.128173828125-9.121826171875Z"/>
    <path class="cls-8" d="m80.37271495580535,428.699400399491424c-.9449462890625.334335327148438-1.642333984375,1.103668212890625-1.7579345703125,1.987274169921875-.161376953125,1.233367919921875.8267822265625,2.567626953125,2.3695068359375,2.828018188476562,5.021728515625.929763793945312,11.2293701171875,1.665985107421875,18.3438720703125,1.6051025390625,6.756103515625-.057815551757812,12.6693115234375-.82025146484375,17.503173828125-1.757965087890625,2.1109619140625-.11846923828125,3.3551025390625-1.804519653320312,3.1051025390625-3.019119262695312-.1785888671875-.867782592773438-1.1419677734375-1.60235595703125-2.3406982421875-1.796173095703125-4.932861328125,1.170318603515625-11.4122314453125,2.225128173828125-19.0318603515625,2.216567993164062-7.2298583984375-.00811767578125-13.4124755859375-.971298217773438-18.191162109375-2.063705444335938Z"/>
    <path class="cls-8" d="m165.861790221100819,428.699400400733794c.944946289046129.334335327191184,1.642333984324068,1.103668212964294,1.75793457022337,1.987274170001001.161376953068611,1.233367919929151-.826782226678915,2.567626953087711-2.369506836064829,2.828018188370152-5.021728515666837.929763793719758-11.229370117262079,1.665985106917105-18.34387207038526,1.605102538238498-6.756103515621362-.057815552060674-12.66931152340112-.820251465412184-17.503173828046783-1.757965088676428-2.110961914057043-.118469238375837-3.355102538980645-1.804519653470379-3.105102538926076-3.019119262834465.178588867225699-.867782592765252,1.14196777351026-1.602355956980318,2.340698242267536-1.796173095597624,4.932861328072249,1.170318603736632,11.412231445212456,2.225128174340171,19.031860351464275,2.216567994018078,7.2298583984375-.00811767545656,13.412475585981156-.971298217171352,18.191162109467768-2.063705443519211Z"/>
    <path class="cls-13" d="m65.942903430433944,71.754044034924846c-1.231647025559141-1.089887912882659,3.433205589137287-10.075864005810217,10.645204161346555-16.946422156853259,14.196474074253274-13.524334611726772,34.434378305320934-15.204458276265541,35.089556592689405-13.399500248540789.414117174750572,1.140660880767427-7.1445182520456,3.255134697216818-21.29030337662698,12.611260412418233-15.800259848334463,10.450471998196917-23.130112852179082,18.897667175724564-24.44445737740898,17.734661992975816Z"/>
    <path class="cls-12" d="m64.81863780736785,375.475397583091762c4.8447265625,2.690414428710938,11.9515380859375,5.863250732421875,20.9808349609375,7.407638549804688,16.4276123046875,2.809829711914062,29.7613525390625-1.388275146484375,36.091552734375-3.876022338867188-.514892578125,5.775909423828125-1.02978515625,11.551834106445312-1.544677734375,17.327743530273438-7.3931884765625,2.3179931640625-20.0518798828125,5.122665405273438-35.2347412109375,2.5992431640625-6.714111328125-1.115890502929688-12.4117431640625-3.02276611328125-16.951904296875-4.961044311523438-1.1136474609375-6.165847778320312-2.2274169921875-12.331710815429688-3.341064453125-18.49755859375Z"/>
    <path class="cls-12" d="m181.726793264082517,375.475397583819358c-4.844726562620053,2.690414428493568-11.951538086199434,5.863250731885273-20.980834961268556,7.40763854886336-16.427612304814829,2.809829711176462-29.761352539000654-1.388275147821332-36.091552734202196-3.876022340487907.514892577866704,5.775909423850862,1.029785155731588,11.551834106491697,1.544677733598292,17.327743530342559,7.393188476456999,2.317993164394466,20.051879882581488,5.122665406173837,35.234741210819266,2.599243165645021,6.714111328175932-1.115890502628645,12.411743164198924-3.022766112724639,16.951904297098736-4.9610443107631,1.113647461213986-6.16584777827029,2.227416992740473-12.331710815329643,3.341064453954459-18.497558593599933Z"/>
    <path class="cls-8" d="m83.37747569799285,198.018790799455019c-3.547607421875-1.466552734375-7.266357421875.106109619140625-8.35498046875,2.60955810546875-1.2283935546875,2.8248291015625.7244873046875,7.22039794921875,5.0445556640625,8.254791259765625,10.055908203125,3.02716064453125,24.4686279296875,6.180328369140625,41.9493408203125,6.170013427734375,19.25830078125-.0113525390625,34.9266357421875-3.857940673828125,45.4136962890625-7.3165283203125,2.778076171875-1.319000244140625,4.0079345703125-4.52398681640625,2.98095703125-7.1082763671875-1.1419677734375-2.873687744140625-4.814697265625-4.326202392578125-7.8826904296875-2.766326904296875-9.2515869140625,3.070037841796875-23.341552734375,6.561065673828125-40.7288818359375,6.43511962890625-16.2330322265625-.117584228515625-29.46630859375-3.3453369140625-38.4219970703125-6.278350830078125Z"/>
    <path class="cls-8" d="m28.797278123609431,289.987949963263418c-2.109619140625-.936309814453125-4.4637451171875.233123779296875-5.007568359375,2.11181640625-.4854736328125,1.6771240234375.5394287109375,3.6861572265625,2.4776611328125,4.324798583984375,8.1739501953125,3.449981689453125,16.347900390625,6.899932861328125,24.5218505859375,10.34991455078125,2.1297607421875.740570068359375,4.2698974609375-.46832275390625,4.7005615234375-2.1783447265625.3280029296875-1.30218505859375-.350830078125-2.833404541015625-1.7197265625-3.668792724609375-8.32421875-3.646453857421875-16.6485595703125-7.292938232421875-24.9727783203125-10.93939208984375Z"/>
  </g>
</svg>