<?xml version="1.0" encoding="UTF-8"?>
<svg id="Layer_2" data-name="Layer 2" xmlns="http://www.w3.org/2000/svg" viewBox="0 0 243.42985 426.83803">
  <defs>
    <style>
      .cls-1 {
        fill: #fff;
      }

      .cls-2 {
        fill: #ffcb48;
        stroke-linecap: round;
        stroke-linejoin: round;
        stroke-width: 2.69019px;
      }

      .cls-2, .cls-3, .cls-4, .cls-5, .cls-6, .cls-7, .cls-8, .cls-9, .cls-10, .cls-11, .cls-12, .cls-13, .cls-14, .cls-15, .cls-16 {
        stroke: #231f20;
      }

      .cls-3 {
        fill: #23419a;
      }

      .cls-3, .cls-4, .cls-5, .cls-6, .cls-7, .cls-8, .cls-9, .cls-10, .cls-11, .cls-12, .cls-13, .cls-14, .cls-15, .cls-16 {
        stroke-miterlimit: 10;
      }

      .cls-3, .cls-4, .cls-6, .cls-7, .cls-8, .cls-11, .cls-12, .cls-16 {
        stroke-width: 2px;
      }

      .cls-4 {
        fill: #ce3927;
      }

      .cls-5 {
        fill: #fcd8b1;
      }

      .cls-5, .cls-9, .cls-10, .cls-14, .cls-15 {
        stroke-width: 3px;
      }

      .cls-6 {
        fill: #eee81b;
      }

      .cls-7 {
        fill: #273a83;
      }

      .cls-8 {
        fill: #e8e8e8;
      }

      .cls-9 {
        fill: #3d2912;
      }

      .cls-17 {
        fill: #db8aa1;
      }

      .cls-10 {
        fill: #ef4136;
      }

      .cls-11 {
        fill: #dcdbdb;
      }

      .cls-12 {
        fill: #cf6528;
      }

      .cls-13 {
        stroke-width: 2.17621px;
      }

      .cls-13, .cls-15 {
        fill: #cccccb;
      }

      .cls-14 {
        fill: #b5b5b6;
      }

      .cls-18 {
        fill: #231f20;
      }

      .cls-16 {
        fill: #1d172c;
        opacity: .53;
      }
    </style>
  </defs>
  <g id="Layer_1-2" data-name="Layer 1">
    <path class="cls-2" d="m54.84135,181.57002v-.01c-.5-1.54-.65-2.76-.69-3.27-.64.08-1.59.17-2.75.13h-.01"/>
    <path class="cls-2" d="m205.19254,163.74002l.12891-.84c.20996.03.61987.09,1.17993.12,2.3999-3.41,4.58008-6.97,6.55005-10.66v-.01001c1.27002-2.37997,2.44995-4.81998,3.53003-7.31-.56006-1.10001-1.25-2.19-2.09009-3.22998.45996-.33002,4.20996-3.12003,5.51001-8.10001v-.04001c.27002-1.01999.43994-2.12.44995-3.32001.01001-1.48999-.20996-2.84-.57007-4.06-1.42993-4.76999-5.05981-7.44-5.46997-7.72998,2.68018-2.14001,4.45996-5.01001,5.20996-8.05002.57007-2.27997.56006-4.65997-.10986-6.89001v-.03998c-.06006-.21002-.13013-.40997-.20996-.60999-2.14014-6-8.11011-8.01001-8.86011-8.25,5.30005-4.14001,6.95996-11.17004,4.28003-16.51001-2.06006-4.10999-6.43994-6.75-11.32007-6.97003,4.97998-3.08997,6.32007-9.78998,3.06006-14.44-3.29004-4.68994-10.1499-5.67999-14.73999-1.92999,3.11011-4.60999,2.86011-10.67999-.54004-14.88-3.13989-3.87-8.41992-5.46997-13.30005-4.00995.68018-5.77002-1.55981-11.43005-5.96997-14.64001-5.77002-4.20001-14.3999-3.58002-20.29004,1.91998-1.96997-6.63-7.81982-11.37-14.61987-11.89996-6.47998-.5-12.71997,2.91998-15.86011,8.69995v13.61005c-.06982-.77002-.13989-1.55005-.21997-2.32001-.23999-2.61005-.48999-5.22003-.72998-7.83002-.09985-1.01001-.19995-2.03003-.29004-3.03998-2.85986-6.06-9.07983-9.80005-15.60986-9.42004-7.08008.40002-13.17017,5.54004-14.87012,12.62-5.88989-5.50995-14.52002-6.12-20.29004-1.91998-4.40991,3.21002-6.6499,8.85999-5.95996,14.64001-4.88989-1.46002-10.15991.14001-13.30005,4.01001-3.40991,4.19-3.65991,10.26996-.5498,14.88-4.59009-3.75-11.4502-2.77002-14.73999,1.92999-3.26001,4.64996-1.92017,11.34998,3.05981,14.42999-4.87988.22998-9.26001,2.87-11.30981,6.96997-2.69019,5.35004-1.03003,12.37,4.27979,16.51001-.57983.17999-4.19995,1.41003-6.82983,4.65002-.81006,1-1.53003,2.19-2.04004,3.60999-1.53003,4.28003-.61011,9.17999,2.32007,12.97.72998.95001,1.58984,1.84,2.56982,2.62-.20996.14999-1.2998.95001-2.48999,2.35001-.82983.97-1.70996,2.23001-2.37988,3.76001-.34375.77502-.63379,1.61813-.83911,2.5293-.27637,1.2262-.4043,2.58313-.33081,3.14069.28052,2.13028,4.99609,4.02505,11.32104,4.4458-.15283,1.98727-.30591,3.97452-.45874,5.96179l37.11768,50.50241c1.72998.06,2.97998-.16998,3.30981-.23001,3.64014,2.11002,7.94019,4.17001,12.91016,5.82001,14.25,4.72,27.35986,3.82001,36.33984,2.12v1.21002c17.07007-1.47,29.88013-2.96002,35.12012-3.75,1.67993-.25,4.59985-.71002,7.8999-2.41,2.17017-1.13,3.86011-2.42001,5.01001-3.41.82007.16,7.43018,1.32001,12.77002-3.35001,4.25-3.72,4.8501-8.64999,4.96997-9.79999,2.58667-.26666,5.17334-.53336,7.76001-.80002,3.5105-4.44333,7.02075-8.88666,10.53125-13.32999Z"/>
    <path class="cls-5" d="m108.33641,178.45821c.98632,2.26358,2.18955,5.88123,2.14013,10.3949-.02175,1.98627-.28161,3.73895-.61147,5.19745,3.28985,1.01324,7.89452,2.04926,13.45222,2.14014,4.64638.07596,8.60527-.53079,11.61783-1.22293-.18892-2.06671-.25531-4.54947,0-7.33759.32404-3.53873,1.07176-6.53711,1.8344-8.86624-9.47771-.1019-18.95541-.20383-28.43311-.30573Z"/>
    <ellipse class="cls-5" cx="185.52606" cy="118.20278" rx="13.33645" ry="9.80543" transform="translate(38.55112 281.87985) rotate(-80.57965)"/>
    <ellipse class="cls-5" cx="58.23377" cy="120.23281" rx="9.80543" ry="13.33645" transform="translate(-18.89394 11.15294) rotate(-9.42035)"/>
    <path class="cls-5" d="m183.39097,118.01219c-.82001,16.94-7.71002,28.91998-10.25,33.21002-2.78003,4.69995-8.01001,13.32996-18.34003,20.63995-4.59998,3.25-16.63,11.52002-33.47998,11.01001-14.60004-.45001-24.75-7.23999-30.73004-11.23999-3.84998-2.58002-12.40997-8.42999-19.26001-19.26001-3.5-5.53998-5.73999-11.07001-7.15997-16.32001-2.46002-9.07996-2.5-17.27997-2.46997-23.12.01996-3.23999.02997-6.67999.23999-10.23999.57001-9.40997,2.5-19.67999,9.38995-29.42999,16.48004-23.31,46.93005-23.38,49.98004-23.34003,2.62.03003,31.42999.89001,49.53998,24.72003,4.21002,5.54999,7.01001,11.22998,8.85999,16.52997,3.35004,9.54004,3.65002,17.81006,3.75,21.76001.04004,1.73999.02002,3.44-.06995,5.08002Z"/>
    <path class="cls-18" d="m114.32598,133.2253c2.46684-7.60897,13.98564-6.9824,16.39501.34411-1.48607-.83199-2.82054-1.51856-4.18456-1.99678-4.23371-1.60555-8.38031-.78256-12.21045,1.65267h0Z"/>
    <path class="cls-18" d="m78.58916,96.09228c4.17906-8.16599,17.3501-9.0495,23.1467-2.22013-7.75897-2.56945-16.14518-2.22876-23.1467,2.22013h0Z"/>
    <path class="cls-18" d="m145.33135,92.91283c6.41576-6.55651,19.25457-3.48887,22.76197,4.75385-6.64582-4.75754-14.75509-6.92287-22.76197-4.75385h0Z"/>
    <g>
      <circle class="cls-1" cx="92.28334" cy="113.36212" r="13.14205"/>
      <path class="cls-18" d="m103.31157,120.50981c-6.47931,10.05546-22.16652,7.6401-25.13963-4.135-2.07163-7.56368,3.34322-15.93384,11.09734-17.13028,11.96729-2.10353,20.57813,11.24555,14.04229,21.26528h0Zm0,0c6.13915-9.53712-2.65658-21.55314-13.50233-18.73463-6.1225,1.49699-10.25436,7.85866-9.11919,14.06219,1.85208,11.05937,16.42529,14.17212,22.62152,4.67244h0Z"/>
    </g>
    <circle cx="93.39255" cy="116.23133" r="10.27285"/>
    <circle class="cls-1" cx="87.36966" cy="110.78364" r="3.16883"/>
    <path class="cls-9" d="m138.54602,159.09052c-.79666,1.28992-5.57944,9.03394-13.79999,9.83258-9.01779.8761-15.49426-7.25449-16.31-8.31085-.76584-.99173-1.68427-2.60156-3.52112-5.8212-2.30447-4.03928-4.03574-7.44781-5.17462-9.7793,1.53088.81531,3.8511,1.89093,6.84698,2.67694.36252.09512,1.04617.25354,2.00873.45724,4.01001.84863,9.02002,1.51199,14.78003,1.38516,3.96619-.08734,9.18726-.22659,15.59998-2.25327,2.67084-.84409,4.82364-1.78546,6.3306-2.51273-.86554,2.08542-2.17993,5.13342-3.93311,8.7648-1.44855,3.0004-2.17282,4.50058-2.82748,5.56061Z"/>
    <path class="cls-17" d="m137.24612,158.45984c-.26743.52246-4.13364,7.76385-12.38217,8.59872-6.02173.6095-11.94629-2.44162-15.13376-7.79617,1.03842-.33054,2.48785-.75433,4.24203-1.14648,5.1788-1.15775,9.54953-1.26523,12.30377-1.18893,4.26233.11807,7.97034.76819,10.97012,1.53287Z"/>
    <path class="cls-1" d="m138.97601,148.73157c-.19.39996-.40002.77997-.63,1.09998-.38.53003-1.62,2.09998-7.17999,3.35999-2.66998.61005-6.65997,1.47003-12.08002.77002-4.10999-.53998-7.46997-.97003-9.91998-3.67999-.15002-.16998-.34998-.39001-.57001-.66003,4.01001.87,9.02002,1.55005,14.78003,1.42004,6.25-.14001,11.54999-1.17999,15.59998-2.31Z"/>
    <g>
      <circle class="cls-1" cx="152.36085" cy="113.29863" r="13.14205"/>
      <path class="cls-18" d="m141.33257,120.44632c6.19658,9.49996,20.77163,6.3858,22.62154-4.67265,1.13456-6.20319-2.9961-12.56551-9.11941-14.06205-10.84762-2.81721-19.64094,9.19806-13.50213,18.73469h0Zm0,0c-6.53458-10.02076,2.07444-23.36902,14.04261-21.26534,7.7529,1.19751,13.16994,9.56614,11.09683,17.13061-2.97274,11.77424-18.66168,14.1906-25.13945,4.13473h0Z"/>
    </g>
    <circle cx="151.25163" cy="116.16783" r="10.27285"/>
    <circle class="cls-1" cx="157.27452" cy="110.72014" r="3.16883"/>
    <ellipse class="cls-17" cx="82.46663" cy="135.29589" rx="8.81671" ry="3.89332"/>
    <ellipse class="cls-17" cx="162.52896" cy="135.29589" rx="8.81671" ry="3.89332"/>
    <path class="cls-2" d="m182.05997,93.33742c-1.92004-.23999-6.69995-1.08997-11.17993-4.87-5.11011-4.31995-6.59009-9.73999-7.01001-11.55994-1.93005,1.68994-4.68005,2.04993-6.88013.91992-2.46997-1.28003-3.77002-4.18994-3.06995-7.02002-.92004.23999-4.90002,1.16003-9.09998-1.04993-4.04004-2.12-5.55005-5.71008-5.91003-6.63-1.02991.09998-5.77991.47998-9.98999-2.87-3.12-2.4801-4.22998-5.65002-4.57996-6.88-.34009,1.03003-1.02002,2.78003-2.37012,4.56006-.63989.86987-1.44995,1.73999-2.44995,2.54993-.10999.08997-.20996.17004-.32007.23999-5.75989,4.41003-12.75,2.76001-13.6499,2.53003-.95996,3.88-3.87,6.75989-7.3501,7.31995-2.95996.47998-5.31982-.88989-6.05994-1.37-.25989,1.05994-1.44006,5.26001-5.53992,7.93005-5.91003,3.83997-12.46008,1-12.94006.78003.03992,1.44995,0,6.52991-3.67004,11.23999-3.21997,4.12988-7.35986,5.56995-8.84998,6.02002-.18005-3.80005-.94006-28.73999,18.71008-47.39014,15.11987-14.34985,33.04993-16.16992,39.96997-16.40991.44995-.02002.85999-.03003,1.21997-.03003.12,0,.25,0,.39001-.01001,5.96997-.03003,28.42004.76001,45.25,19.19995,15.95996,17.5,15.55994,38.48999,15.38,42.80005Z"/>
    <path class="cls-15" d="m93.49613,184.91587c-3.21362.04172-8.19067.45932-13.75793,2.54138-10.74524,4.01852-17.08459,11.76736-22.70056,18.80255-4.39832,5.50983-6.85706,9.92273-10.23523,15.98566-4.2655,7.65543-8.91833,16.05292-12.13611,27.80466-1.47192,5.37561-3.0127,12.69397-3.53955,21.54089-2.17896,2.09683-5.14941,5.28424-8.02551,9.63058-3.46509,5.23648-6.66174,9.9805-7.10828,16.50955-.46399,6.78372,1.98865,15.91309,6.90454,16.98727,2.70557.59122,5.29468-1.44604,5.88538-1.91083,3.17725-2.49997,3.13025-5.89081,5.80884-13.14651,1.12366-3.04385,2.23853-5.44452,2.98096-6.95541-.64478,1.33066-1.53296,3.25433-2.47717,5.6304-1.98828,5.00345-1.75171,5.7905-1.42102,6.06387.59497.49179,1.98071-.27698,2.44592-.53503,4.91199-2.72491,8.68066-19.66183,9.91077-25.62421,2.12219-1.73196,4.56409-3.83102,7.19495-6.30179,2.45032-2.30127,4.93933-4.80811,7.42749-7.5351,10.41406-11.41406,17.33496-22.8757,21.9292-32.1944,3.21375-7.4744,6.47742-16.89569,8.62036-28.03241,1.35254-7.0293,2.02246-13.51489,2.29297-19.26114Z"/>
    <path class="cls-15" d="m156.00398,184.91587c3.21362.04172,8.19067.45932,13.75793,2.54138,10.74524,4.01852,17.08459,11.76736,22.70056,18.80255,4.39832,5.50983,6.85706,9.92273,10.23523,15.98566,4.2655,7.65543,8.91833,16.05292,12.13611,27.80466,1.47192,5.37561,3.0127,12.69397,3.53955,21.54089,2.17896,2.09683,5.14941,5.28424,8.02551,9.63058,3.46509,5.23648,6.66174,9.9805,7.10828,16.50955.46399,6.78372-1.98865,15.91309-6.90454,16.98727-2.70557.59122-5.29468-1.44604-5.88538-1.91083-3.17725-2.49997-3.13025-5.89081-5.80884-13.14651-1.12366-3.04385-2.23853-5.44452-2.98096-6.95541.64478,1.33066,1.53296,3.25433,2.47717,5.6304,1.98828,5.00345,1.75171,5.7905,1.42102,6.06387-.59497.49179-1.98071-.27698-2.44592-.53503-4.91199-2.72491-8.68066-19.66183-9.91077-25.62421-2.12219-1.73196-4.56409-3.83102-7.19495-6.30179-2.45032-2.30127-4.93933-4.80811-7.42749-7.5351-10.41406-11.41406-17.33496-22.8757-21.9292-32.1944-3.21375-7.4744-6.47742-16.89569-8.62036-28.03241-1.35254-7.0293-2.02246-13.51489-2.29297-19.26114Z"/>
    <path class="cls-10" d="m220.70283,263.99558c2.10962-.93631,4.46375.23312,5.00757,2.11182.48547,1.67712-.53943,3.68616-2.47766,4.3248-8.17395,3.44998-16.3479,6.89993-24.52185,10.34991-2.12976.74057-4.2699-.46832-4.70056-2.17834-.328-1.30219.35083-2.8334,1.71973-3.66879,8.32422-3.64645,16.64856-7.29294,24.97278-10.93939Z"/>
    <path class="cls-14" d="m220.03114,135.3017c3.40057-.0974,10.81952-.83912,16.20136-6.29569,6.24545-6.33225,5.90091-15.11408,5.51974-24.82851-.34317-8.74612-.59389-15.13727-5.51974-20.49337-5.90385-6.41958-14.47469-6.94952-17.17285-7.00845.32386,19.54201.64762,39.08404.97149,58.62602Z"/>
    <path class="cls-14" d="m23.39871,76.67568c-3.40057.0974-10.81952.83912-16.20136,6.29569-6.24545,6.33225-5.90091,15.11408-5.51974,24.82851.34317,8.74612.59389,15.13727,5.51974,20.49337,5.90385,6.41958,14.47469,6.94952,17.17285,7.00845-.32386-19.54201-.64762-39.08404-.97149-58.62602Z"/>
    <path class="cls-14" d="m175.75504,377.57778c-2.17993,6.66998-5.67993,16.02002-11.22998,26.83002-3.95996,1.48999-10.52991,3.39996-18.80994,3.20996-7.09998-.15997-12.79993-1.81-16.51001-3.20996-1.96997-22.14001-3.94006-44.29004-5.91003-66.42998-1.97998,22.13994-3.94995,44.28996-5.91992,66.42998-3.70996,1.39996-9.41003,3.04999-16.51001,3.20996-8.28003.19-14.8501-1.71997-18.81006-3.20996-5.55005-10.81-9.05005-20.16003-11.22998-26.83002-19.96057-61.07384-3.14929-118.97081-.09998-129.45,4.40356-15.133,6.41113-22.7551,7.59998-27.34998,1.67371-6.46881,3.75354-15.71402,5.36707-27.45923,26.12012.30832,52.24036.61664,78.36047.92496,2.3407,11.06299,4.52161,20.00787,6.20239,26.53427.23462.91122,1.34033,5.33087,2.99316,11.22577,1.82153,6.49683,3.04382,10.23331,4.60693,16.12421,18.00964,67.87149,2.0127,122.98543-.1001,129.45Z"/>
    <path class="cls-15" d="m221.36149,76.82001C209.39127,33.40002,169.59147,1.5,122.34147,1.5c-47.2002,0-86.97021,31.83002-98.99023,75.17999-2.42993,8.75-3.72998,17.97003-3.72998,27.49005,0,7.15997.74023,14.16998,2.14014,20.91998.69995,3.39996,1.56982,6.73999,2.60986,10.01001.66016,2.12,1.40015,4.20996,2.2002,6.26001,1.21997,3.14996,2.58984,6.20996,4.10986,9.19995,5.30005,10.44,12.33008,19.85004,20.70996,27.86005h.01001c.04004.04999.09009.08997.13013.12994l3.12988,2.85004c.06006.06.12012.10999.18018.15997v.01001c4.27979,3.72998,8.86987,7.10999,13.72998,10.10004,2.16992,1.33997,4.38989,2.59998,6.65991,3.76996,14.11011,7.29004,30.13013,11.41003,47.11011,11.41003,20.66992,0,39.91992-6.11005,56.02979-16.61005l.01001-.00995c5.87012-3.83002,11.32007-8.24005,16.28003-13.16003,3.68018-3.64001,7.08008-7.56,10.16992-11.72998,0,0,.01025,0,0-.01001.58008-.76001,1.13013-1.53003,1.67017-2.31,2.3999-3.40997,4.57983-6.97003,6.55005-10.65997v-.01001c1.27002-2.38,2.44995-4.82001,3.52979-7.31,1.38013-3.17004,2.6001-6.42004,3.66016-9.75,3.12012-9.82001,4.81006-20.27002,4.81006-31.12,0-9.47003-1.28003-18.64001-3.68994-27.35004Zm-16.71021,33.42999v.01001c-1.47998,28.42999-17.37988,53.03998-40.52002,66.66998-8.57983,5.06-18.13989,8.60004-28.33984,10.27002-.04004.01001-.07007.01001-.11011.02002-1.66992.26996-3.35986.48999-5.06006.65997-2.71997.28003-5.48999.41998-8.27979.41998-2.09009,0-4.16016-.07996-6.2002-.22998-1.81982-.14001-3.62988-.33002-5.40991-.58997-.16992-.02002-.33008-.05005-.5-.08002-8.70996-1.26001-16.95996-3.90002-24.54004-7.67999-26.86987-13.35004-45.41992-40.92004-45.78003-72.85999v-.01001c-.01001-.32001-.01001-.64001-.01001-.96002,0-44.78998,35.75-81.22998,80.29004-82.37.32007-.01001.63013-.02002.94995-.01001.40015-.02002.80005-.02002,1.2002-.02002,45.52002,0,82.42993,36.89001,82.42993,82.40002,0,1.46002-.04004,2.91998-.12012,4.35999Z"/>
    <path class="cls-15" d="m117.58939,422.04999c-1.1405,2.53757-5.46948,2.83842-14.52234,2.9809-16.38916.25792-20.3479-.44254-21.10132-2.59819-.32056-.91721-.23804-2.5945.25208-4.03212.50098-1.46953,1.32996-2.457,1.83801-2.97789-.12012-1.68861-.2887-3.45685-.51746-5.29625-.23608-1.89787-.51587-3.70686-.82446-5.42117,2.10669.56969,4.8175,1.1983,8.0094,1.67616.61108.09148,4.078.60228,7.57251.72125,6.87305.23401,13.23914-1.0686,17.57373-2.25014-.11462,3.17198-.22925,6.34395-.34387,9.51593.53931.47078,1.57117,1.50351,2.12244,3.15511.5874,1.7597.37476,3.56207-.05872,4.52641Z"/>
    <path class="cls-15" d="m128.4202,422.04999c.90747,2.1304,4.16052,3.24051,18.36658,3.28664,12.81665.04161,16.52795-.84132,17.25708-2.90393.32886-.93016.23364-2.60721-.25208-4.03212-.50098-1.46953-1.32996-2.457-1.83801-2.97789.12012-1.68861.2887-3.45685.51746-5.29625.23608-1.89787.51587-3.70686.82446-5.42117-2.10669.56969-4.8175,1.1983-8.0094,1.67616-.61108.09148-4.078.60228-7.57251.72125-6.87305.23401-13.23914-1.0686-17.57373-2.25014.11462,3.17198.22925,6.34395.34387,9.51593-.53931.47078-1.57117,1.50351-2.12244,3.15511-.60681,1.81818-.32532,3.62473.05872,4.52641Z"/>
    <path class="cls-11" d="m165.59671,288.34194c-10.37671,2.80328-24.04504,5.4216-40.1814,5.72791-20.3009.38538-37.1416-3.02847-48.97998-6.41998.21997-16.40997,1.27991-28.48999,2.30994-31.52997.83997-2.48004,2.31995-4.08002,2.31995-4.08002.70996-.76001,1.45996-1.33002,2.72998-2.10999,2.43005-1.48004,4.90015-2.59003,6.21997-3.05005,5.1001-1.75,13.1001-2.66998,19.94006-3.14996.81995-.06,1.63-.10999,2.41003-.15002,6.01001-.35999,10.62-.38,10.62-.38,0,0,4.95007-.04999,11.22998.30005.79004.03998,1.59998.08997,2.43005.14996,8,.56,17.30005,1.81,21.31995,4.58002,2.38,1.64001,3.89001,3.81,3.89001,3.81.46008.78467,1.09729,1.97092,1.68457,3.48108,1.75806,4.5206,1.68982,8.39877,1.67371,10.37619-.04358,5.32361.15857,12.89316.38318,22.44479Z"/>
    <rect class="cls-8" x="96.97158" y="253.83445" width="25.49002" height="19.17018"/>
    <rect class="cls-8" x="122.4616" y="253.83445" width="25.49002" height="19.17018"/>
    <polyline class="cls-7" points="102.49526 293.02987 103.01526 293.02987 103.01526 272.99987 99.49526 272.99987 99.49526 292.63987"/>
    <polyline class="cls-7" points="118.01526 294.09987 118.01526 272.99987 121.53526 272.99987 121.53526 294.12987"/>
    <polyline class="cls-7" points="123.76526 294.09987 123.76526 272.99987 127.27526 272.99987 127.27526 293.99987"/>
    <polyline class="cls-7" points="141.90526 292.71987 141.90526 272.99987 145.41526 272.99987 145.41526 292.20987"/>
    <rect class="cls-12" x="125.30553" y="257.04704" width="5.58253" height="9.1111" rx=".69782" ry=".69782"/>
    <rect class="cls-4" x="132.70501" y="257.04704" width="5.58253" height="9.1111" rx=".71098" ry=".71098"/>
    <rect class="cls-6" x="139.8326" y="257.04704" width="5.58253" height="6.4515" rx=".53094" ry=".53094"/>
    <circle class="cls-6" cx="111.28339" cy="260.77311" r="3.72607"/>
    <rect class="cls-12" x="100.76349" y="257.04704" width="3.73924" height="13.85098" rx="1.86962" ry="1.86962"/>
    <circle class="cls-7" cx="81.86199" cy="271.23169" r="8.22896"/>
    <circle class="cls-3" cx="81.86199" cy="271.23169" r="4.79913"/>
    <circle class="cls-7" cx="161.41956" cy="271.23169" r="8.22896"/>
    <circle class="cls-3" cx="161.41956" cy="271.23169" r="4.79913"/>
    <path class="cls-13" d="m139.22867,228.02987v15.47998c0,.05005,0,.10004-.0237.14001-.98279-.06-1.94174-.10999-2.87713-.14996-7.43526-.35004-13.29603-.30005-13.29603-.30005,0,0-5.45811.02002-12.57382.38-.92354.04004-1.88263.09003-2.85342.15002-.03541-.07001-.04726-.14001-.04726-.22003v-15.47998c0-.46997.44977-.83997.9945-.83997h29.68222c.54458,0,.99464.37.99464.83997Z"/>
    <path class="cls-8" d="m134.21524,232.61989v10.88c-6.27991-.35004-11.22998-.30005-11.22998-.30005,0,0-4.60999.02002-10.62.38v-10.95996c0-.48004.38-.87.85999-.87h20.13c.47998,0,.85999.38995.85999.87Z"/>
    <rect class="cls-3" x="115.91691" y="235.77024" width="14.74629" height="2.99353" rx=".40816" ry=".40816"/>
    <path class="cls-10" d="m63.82425,280.9855c-2.50439.065-4.69397,1.46051-5.46423,3.46579-1.0509,2.73578.61389,6.41284,4.17358,7.64767,14.44397,4.25079,34.93567,8.62747,59.72449,8.70901,25.78857.08484,47.02698-4.50919,61.77063-8.89783,3.22485-.38,5.4834-3.42029,4.95557-6.54169-.51648-3.05368-3.5282-5.17093-6.64978-4.58597-13.95337,4.4765-34.79419,9.43094-60.38208,9.32483-24.4646-.10144-44.47363-4.79245-58.12817-9.12183Z"/>
    <path class="cls-10" d="m80.37271,402.70703c-.94495.33434-1.64233,1.10367-1.75793,1.98727-.16138,1.23337.82678,2.56763,2.36951,2.82802,5.02173.92976,11.22937,1.66599,18.34387,1.6051,6.7561-.05782,12.66931-.82025,17.50317-1.75797,2.11096-.11847,3.3551-1.80452,3.1051-3.01912-.17859-.86778-1.14197-1.60236-2.3407-1.79617-4.93286,1.17032-11.41223,2.22513-19.03186,2.21657-7.22986-.00812-13.41248-.9713-18.19116-2.06371Z"/>
    <path class="cls-10" d="m165.86179,402.70703c.94495.33434,1.64233,1.10367,1.75793,1.98727.16138,1.23337-.82678,2.56763-2.36951,2.82802-5.02173.92976-11.22937,1.66599-18.34387,1.6051-6.7561-.05782-12.66931-.82025-17.50317-1.75797-2.11096-.11847-3.3551-1.80452-3.1051-3.01912.17859-.86778,1.14197-1.60236,2.3407-1.79617,4.93286,1.17032,11.41223,2.22513,19.03186,2.21657,7.22986-.00812,13.41248-.9713,18.19116-2.06371Z"/>
    <path class="cls-15" d="m64.81864,349.48303c4.84473,2.69041,11.95154,5.86325,20.98083,7.40764,16.42761,2.80983,29.76135-1.38828,36.09155-3.87602-.51489,5.77591-1.02979,11.55183-1.54468,17.32774-7.39319,2.31799-20.05188,5.12267-35.23474,2.59924-6.71411-1.11589-12.41174-3.02277-16.9519-4.96104-1.11365-6.16585-2.22742-12.33171-3.34106-18.49756Z"/>
    <path class="cls-15" d="m181.72679,349.48303c-4.84473,2.69041-11.95154,5.86325-20.98083,7.40764-16.42761,2.80983-29.76135-1.38828-36.09155-3.87602.51489,5.77591,1.02979,11.55183,1.54468,17.32774,7.39319,2.31799,20.05188,5.12267,35.23474,2.59924,6.71411-1.11589,12.41174-3.02277,16.9519-4.96104,1.11365-6.16585,2.22742-12.33171,3.34106-18.49756Z"/>
    <path class="cls-10" d="m28.79728,263.99558c-2.10962-.93631-4.46375.23312-5.00757,2.11182-.48547,1.67712.53943,3.68616,2.47766,4.3248,8.17395,3.44998,16.3479,6.89993,24.52185,10.34991,2.12976.74057,4.2699-.46832,4.70056-2.17834.328-1.30219-.35083-2.8334-1.71973-3.66879-8.32422-3.64645-16.64856-7.29294-24.97278-10.93939Z"/>
    <path class="cls-16" d="m204.32608,106.24657c0,1.46002-.04004,2.91998-.12012,4.35999v.01001c-1.47998,28.42999-17.37988,53.03998-40.5199,66.66998-10.01001,5.91003-21.37,9.75-33.51001,10.95001-2.72009.28003-5.48999.41998-8.28003.41998-2.08997,0-4.16003-.07996-6.20007-.22998-10.87988-.81-21.15991-3.71997-30.44995-8.34998-26.86987-13.35004-45.41992-40.92004-45.78003-72.86005v-.00995c-.01001-.32001-.01001-.64001-.01001-.96002,0-45.51001,36.91016-82.40002,82.44006-82.40002,45.52002,0,82.43005,36.89001,82.43005,82.40002Z"/>
  </g>
</svg>