<?xml version="1.0" encoding="UTF-8"?>
<svg id="Layer_2" data-name="Layer 2" xmlns="http://www.w3.org/2000/svg" viewBox="0 0 168.419921874999091 415.964234190378193">
  <defs>
    <style>
      .cls-1 {
        fill: #fff;
      }

      .cls-2 {
        fill: #2c9148;
      }

      .cls-2, .cls-3, .cls-4, .cls-5, .cls-6, .cls-7, .cls-8 {
        stroke: #231f20;
      }

      .cls-2, .cls-3, .cls-4, .cls-5, .cls-7, .cls-8 {
        stroke-width: 3px;
      }

      .cls-2, .cls-3, .cls-4, .cls-6, .cls-8 {
        stroke-linecap: round;
      }

      .cls-2, .cls-4, .cls-6, .cls-8 {
        stroke-linejoin: round;
      }

      .cls-9 {
        fill: #3b2115;
      }

      .cls-3 {
        fill: #268340;
      }

      .cls-3, .cls-5, .cls-7 {
        stroke-miterlimit: 10;
      }

      .cls-4 {
        fill: #266bb5;
      }

      .cls-5 {
        fill: #3d2912;
      }

      .cls-10 {
        fill: #db8aa1;
      }

      .cls-6 {
        fill: #df5026;
        stroke-width: 2.69019252061844px;
      }

      .cls-7 {
        fill: #4e2c17;
      }

      .cls-8 {
        fill: #0194c0;
      }

      .cls-11 {
        fill: #231f20;
      }
    </style>
  </defs>
  <g id="Layer_1-2" data-name="Layer 1">
    <g>
      <path class="cls-7" d="m72.026107845073057,152.982627501083698c.986320495608197,2.263580322265625,2.189552307128906,5.8812255859375,2.140129089358197,10.3948974609375-.021751403809503,1.986267089845569-.281608581538421,3.738952636720569-.611465454098834,5.197448730470569,3.289848327629443,1.013244628904431,7.894523620600012,2.049255371091931,13.452224731439856,2.14013671875,4.6463775634802.075958251951306,8.605270385740369-.530792236329944,11.617828369140625-1.222930908204944-.188919067379175-2.06671142578125-.255310058590112-4.549468994140625,0-7.33758544921875.324035644529431-3.538726806640625,1.071762084959119-6.537109375,1.834396362309235-8.866241455076306-9.477706909180597-.101898193361194-18.955406188969391-.203826904298694-28.433113098149079-.305725097658069Z"/>
      <path class="cls-7" d="m49.242954311140238,378.424942280758842c.509552001952216,5.19744873046875,1.019104003901703,10.394897460939319,1.528656005862103,15.592346191409888,3.289855957029431,1.013244628909888,7.89453125,2.049255371090112,13.452239990228918,2.14013671875,4.646362304691138.075927734378638,8.605255126951306-.530822753909888,11.617828369140625-1.22296142578125.611450195310681-5.401245117189319,1.222930908199487-10.802551269529431,1.834381103518353-16.20379638671875-9.477691650387897-.101928710941138-18.955413818358466-.203857421871362-28.43310546875-.305725097659888Z"/>
      <path class="cls-7" d="m97.534275805412108,378.424942280758842c.509552001949487,5.19744873046875,1.019104003909888,10.394897460939319,1.528656005859375,15.592346191409888,3.28985595703125,1.013244628909888,7.89453125,2.049255371090112,13.452239990231647,2.14013671875,4.646362304688409.075927734378638,8.605255126960401-.530822753909888,11.617828369140625-1.22296142578125.611450195319776-5.401245117189319,1.222930908206763-10.802551269529431,1.834381103519263-16.20379638671875-9.477691650391534-.101928710941138-18.955413818360284-.203857421871362-28.433105468750909-.305725097659888Z"/>
      <path class="cls-8" d="m137.359985351561591,380.39429778687736c-5.3900146484375,2.080017089840112-13.1700439453125,4.410034179691138-22.759887695311591,5.140014648441138-10.35009765625.779968261709655-18.9400634765625-.590026855470569-24.780029296875-1.989990234380457-.8436279296875-50.050842285159888-1.672607421875-75.07958984375-2.48681640625-75.0791015625-.8157958984375.00048828125-1.616943359375,25.127319335939319-2.4033203125,75.389099121090112-5.579833984375,1.149963378909888-12.93994140625,2.099975585939319-21.5399169921875,1.679992675790345-11.4600830078125-.559997558601026-20.7200927734375-3.330017089851026-26.97998046875-5.77001953125.8599853515625-36.130004882821595,1.7099609375-72.260009765630457,2.5699462890625-108.389953613286707.4100341796875.15997314453125.830078125.3299560546875,1.260009765625.5,10.31005859375,4.04998779296875,27.3900146484375,9.17999267578125,48.860107421875,8.68994140625,17.159912109375-.39996337890625,31.129882812499091-4.25994873046875,40.659912109374091-7.77996826171875.8499755859375-.30999755859375,1.659912109375-.6199951171875,2.43994140625-.92999267578125,1.719970703125,36.17999267578125,3.4400634765625,72.359985351566138,5.1600341796875,108.539978027345569Z"/>
      <path class="cls-2" d="m166.919921874999091,234.554331966563041c-2.719970703125,2.6300048828125-7.5299072265625,6.5999755859375-14.5399169921875,9.32000732421875-8.8800048828125,3.43994140625-16.719970703125,3.0999755859375-20.739990234375,2.64996337890625-.72998046875-11.04998779296875-1.4600830078125-22.0999755859375-2.1900634765625-33.14996337890625-.0001220703125-.001220703125-.00048828125-.0048828125-.0006103515625-.0048828125-.0062255859375.000457763671875.7066650390625,9.19573974609375,1.068603515625,14.764556884765625.5869140625,9.030914306640625.858154296875,17.961700439453125,1.2921142578125,35.460296630859375.136474609375,5.50408935546875.307373046875,12.994384765625.4658203125,21.94097900390625-11.8814697265625,2.348388671875-26.099243164061591,4.24383544921875-42.191040039061591,4.58599853515625-20.586669921875.437744140625-38.4288330078125-1.790283203125-52.5859375-4.58599853515625.0494384765625-9.218505859375.220703125-16.91943359375.382080078125-22.54779052734375.3614501953125-12.6038818359375.65283203125-22.437255859375,1.879638671875-35.30755615234375.349365234375-3.665069580078125.871337890625-8.63348388671875,1.639404296875-14.53564453125-.8800048828125,7-1.6500244140625,14.20001220703125-2.3099365234375,21.6099853515625-.35009765625,3.98004150390625-.650146484375,7.9000244140625-.920166015625,11.77001953125-2.14990234375.3599853515625-5.0198974609375.66998291015625-8.39990234375.54998779296875-2.5400390625-.0899658203125-7.070068359375-.47998046875-12.219970703125-2.27996826171875-7.860107421875-2.75-13.1800537109375-7.3800048828125-16.050048828125-10.32000732421875,8.8699951171875-19.1099853515625,17.739990234375-38.22003173828125,26.60009765625-57.33001708984375.699951171875-1.010009765625,1.869873046875-2.3399658203125,3.669921875-3.2099609375.330078125-.1500244140625.6400146484375-.280029296875.949951171875-.3900146484375,9.4000244140625-3.23004150390625,14.10009765625-4.84002685546875,15.090087890625-5.1099853515625,11.64990234375-3.19000244140625,23.909912109375-4.25,26.0499267578125-4.4300537109375,2.010009765625,1.1300048828125,6.3599853515625,3.21002197265625,12.25,3.300048828125,5.9100341796875.0899658203125,10.3299560546875-1.86004638671875,12.3800048828125-2.92999267578125,21.1199951171875,3.949951171875,36.380004882811591,7.449951171875,37.499999999999091,8.0699462890625,1.5400390625.85003662109375,2.75,1.95001220703125,2.75,1.95001220703125,1.580078125,1.42999267578125,2.530029296875,2.95001220703125,3.090087890625,4.010009765625,8.369873046875,18.72003173828125,16.72998046875,37.42999267578125,25.08984375,56.1500244140625Z"/>
      <path class="cls-7" d="m18.85690568571772,248.428485364935113c.082412719726562,1.86822509765625.24371337890625,9.72833251953125.858306884765625,13.717498779296875.747146606445312,4.849578857421875,2.005264282226562,9.967437744140625,3.92413330078125,15.32708740234375-.6890869140625.9093017578125-1.740692138671875,2.439361572265625-2.60003662109375,4.467498779296875-.17236328125.40679931640625-1.467803955078125,3.637786865234375-1.4466552734375,7.4560546875.044403076172784,8.015716552734375,5.898193359375,16.77777099609375,9.56488037109375,16.203826904296875,1.34246826171875-.21014404296875,2.182342529296875-1.638946533203125,2.4320068359375-2.063690185546875,1.370513916016534-2.33154296875.0927734375-4.5618896484375-.076446533203125-8.331207275390625-.074615478515625-1.66217041015625.047821044921875-4.036102294921875.993621826171875-6.955413818359375,1.246978759765625,1.43524169921875,1.89544677734375,2.7965087890625,2.254791259765625,3.8980712890625.87420654296875,2.6798095703125.26385498046875,4.51666259765625,1.6051025390625,5.61785888671875.6466064453125.5308837890625,1.765472412109375.9061279296875,2.636932373046875.5732421875,2.68939208984375-1.027313232421875,2.880523681640625-8.74462890625,1.190399169922784-14.44586181640625-1.245727539063409-4.2021484375-3.521362304688409-7.33575439453125-5.518218994141534-9.47772216796875.95953369140625-9.297515869140625,1.91900634765625-18.595001220703125,2.8785400390625-27.89251708984375-2.239730834961847.343841552734375-4.859771728515625.583740234375-7.78424072265625.55108642578125-4.354507446289062-.048614501953125-8.09454345703125-.6871337890625-11.02532958984375-1.41607666015625.024078369140625.6529541015625.061126708984375,1.6121826171875.112213134765625,2.770263671875Z"/>
      <path class="cls-7" d="m150.763170944507692,248.428485364935113c.124420166015625,6.753997802734375-.583740234375,11.935333251953125-.858306884765625,13.717498779296875-.74713134765625,4.849578857421875-2.0052490234375,9.967437744140625-3.92413330078125,15.32708740234375.6890869140625.9093017578125,1.740692138671875,2.439361572265625,2.60003662109375,4.467498779296875.824859619141534,1.946746826171875,1.44525146484375,4.916717529296875,1.4466552734375,7.4560546875.003692626954034,6.75921630859375-4.39044189453125,16.282135009765625-8.71124267578125,16.175079345703125-1.41217041015625-.03497314453125-2.668792724609375-1.094940185546875-3.28564453125-2.034942626953125-1.368804931639716-2.08587646484375-.10504150390625-4.2882080078125.076446533203125-8.331207275390625.074615478515625-1.66217041015625-.047821044921875-4.036102294921875-.993621826171875-6.955413818359375-1.246994018554688,1.43524169921875-1.895462036132812,2.7965087890625-2.254806518554688,3.8980712890625-.87420654296875,2.6798095703125-.26385498046875,4.51666259765625-1.6051025390625,5.61785888671875-.6466064453125.5308837890625-1.765472412109375.9061279296875-2.636932373046875.5732421875-2.68939208984375-1.027313232421875-2.880523681640625-8.74462890625-1.190399169921875-14.44586181640625,1.2457275390625-4.2021484375,3.5213623046875-7.33575439453125,5.518218994140625-9.47772216796875-.95953369140625-9.297515869140625-1.91900634765625-18.595001220703125-2.8785400390625-27.89251708984375,2.538314819336847.21441650390625,5.494491577148438.295806884765625,8.774917602539062.07476806640625,3.756378173828125-.25311279296875,7.05426025390625-.843292236328125,9.795013427734375-1.509552001953125.04833984375.833343505859375.10235595703125,1.978546142578125.12744140625,3.340057373046875Z"/>
      <path class="cls-3" d="m78.979571090990248,410.96532008172835c-.408813476561591,1.213012695308862-1.797943115233466,1.745361328130457-2.820068359375,2.07000732421875-6.800048828125,2.15997314453125-17.22998046875,1.260009765630457-18.419921875,1.149963378911707-7.27001953125-.669982910161707-9.090087890625-1.17999267578125-9.85009765625-2.699951171880457-1.030029296875-2.070007324220569.52001953125-4.74005126953125.910034179688409-5.400024414060681.339965820311591-.580017089840112.730102539061591-1.119995117189319,1.180053710936591-1.609985351558862.260009765625-3.480041503911707.530029296875-6.97003173828125.7900390625-10.460021972661707,3.289916992188409,1.02001953125,7.89990234375,2.049987792970569,13.449951171875,2.140014648441138,4.64990234375.080017089840112,8.609985351563409-.530029296880457,11.619995117188409-1.220031738279431.739990234375,4.260009765619543,1.489990234375,8.52001953125,2.22998046875,12.780029296869543.344818115234375.450988769529431,1.366561889648438,1.895385742189319.910034179686591,3.25Z"/>
      <path class="cls-3" d="m128.179519961634469,411.485333825406997c-.760009765625,1.519958496101026-2.580078125,2.029968261720569-9.849975585938409,2.699951171880457-1.1900634765625.110046386720569-11.6199951171875,1.010009765619543-18.4200439453125-1.149963378909888-.929931640625-.2900390625-2.409912109375-.840026855470569-2.8299560546875-2.070007324220569-.3900146484375-1.190002441398974.3900146484375-2.440002441398974.7698974609375-3.0400390625.1201171875-.18994140625.25-.379943847648974.380126953125-.559997558590112.3399658203125-4.449951171878638.669921875-8.889953613279431,1.010009765625-13.349975585939319,3.2900390625,1.02001953125,7.89990234375,2.049987792970569,13.4599609375,2.140014648439319,4.6400146484375.080017089840112,8.599975585938409-.530029296878638,11.609985351563409-1.220031738279431.5499267578125,3.130004882810681,1.0999755859375,6.27001953125,1.6400146484375,9.400024414060681.510009765625.52996826171875.949951171875,1.109985351558862,1.320068359375,1.75.389892578125.659973144529431,1.93994140625,3.330017089840112.909912109375,5.400024414058862Z"/>
      <path class="cls-11" d="m27.503256959279497,294.636710759194102c1.438555220216585,3.136390697269235,2.788771161318436,6.031468858489461,3.821860088563881,9.324809534638916-2.237177520204568-2.584110726411382-3.725670513899786-5.873041475028003-3.821860088563881-9.324809534638916h0Z"/>
      <path class="cls-11" d="m24.78348462041231,294.636710759194102c1.438560951063664,3.136385564601369,2.788776906001658,6.031463324659853,3.821860073022435,9.324809541096329-2.237181084480653-2.584110147432511-3.725658789317094-5.873040907048562-3.821860073022435-9.324809541096329h0Z"/>
      <path class="cls-11" d="m143.86356274541231,293.859428044350352c-.096218155692441,3.451793131642262-1.584650486635837,6.740638982704695-3.821642797499408,9.324891362686685,1.032797734832457-3.293250645621811,2.383157885650689-6.188669665294583,3.821642797499408-9.324891362686685h0Z"/>
      <path class="cls-11" d="m146.58335034306856,293.859428044350352c-.096203472488924,3.451785462058979-1.584713497185476,6.740612654688448-3.82164280989582,9.324891356533044,1.03278679360119-3.29326242955176,2.38310231946798-6.188681961129987,3.82164280989582-9.324891356533044h0Z"/>
      <path class="cls-11" d="m31.229331178029497,176.987052556069102c6.598449705862549,4.028668348055362,10.602487824221498,12.188999382824477,9.783562779536624,19.872567281150623-2.028321923576186-7.262689104953097-5.235261819389052-13.85332808944986-9.783562779536624-19.872567281150623h0Z"/>
      <path class="cls-11" d="m138.344000977835094,176.585746403725352c-4.548390874935649,6.019372990836928-7.755200452204008,12.609846409750389-9.783261220396525,19.872716114290597-.819233555914252-7.683651991390434,3.184768063025331-15.843919815553818,9.783261220396525-19.872716114290597h0Z"/>
      <path class="cls-11" d="m55.159262818654497,404.585746403727171c4.112907118948897-4.180611701849557,11.829139199938254-4.062201992859627,15.821660428071482.229208960270626-5.268377068476184-1.595983333130789-10.512310912350586-1.699805728090723-15.821660428071482-.229208960270626h0Z"/>
      <path class="cls-11" d="m106.104209107716997,404.585746403727171c4.112924764968739-4.180600901099751,11.829143318723254-4.062217269129178,15.82166043973848.229208950540851-5.268375237854343-1.595990704319775-10.512314784510636-1.699799038109632-15.82166043973848-.229208950540851h0Z"/>
      <path class="cls-4" d="m36.490310977258559,373.082806969938247c5.952392578125,2.55810546875,15.039306640625,5.628479003909888,26.465087890625,6.420166015628638,9.042724609375.626586914060681,16.7047119140625-.371398925779431,22.2994384765625-1.547790527338293-.1092529296875,1.964965820308862-.218505859375,3.929870605459655-.3277587890625,5.894836425779431-5.5809326171875,1.154418945308862-12.9384765625,2.100219726558862-21.5413818359375,1.680419921869543-11.45849609375-.559204101560681-20.7135009765625-3.325805664060681-26.973388671875-5.762268066398974l.0780029296875-6.685363769540345Z"/>
      <path class="cls-4" d="m137.133743594446969,373.827802087127566c-5.515869140625,2.447692871101026-14.6221923828125,5.649658203130457-26.240478515625909,6.017333984380457-8.861572265625.280456542970569-16.2091064453125-1.18212890625-21.3223876953125-2.633605957029431.082275390625,2.110900878898974.1646728515625,4.221862792959655.2469482421875,6.332763671869543,5.68017578125,1.30731201171875,13.66162109375,2.513244628909888,23.1822509765625,1.977783203130457,10.315185546875909-.580139160161707,18.663818359375909-2.992248535161707,24.363159179688409-5.12744140625-.0765380859375-2.18896484375-.1529541015625-4.377868652351026-.2294921875-6.566833496101026Z"/>
      <ellipse class="cls-7" cx="149.215766523511775" cy="92.727197959602563" rx="13.336451697605225" ry="9.805427357850942" transform="translate(33.315980544083942 224.753399262833739) rotate(-80.579647592262887)"/>
      <ellipse class="cls-7" cx="21.923471666826572" cy="94.757228905410102" rx="9.805427357850142" ry="13.336451697606641" transform="translate(-15.213863857717655 4.866242984151796) rotate(-9.420352405146705)"/>
      <path class="cls-7" d="m147.08067099915479,92.536605267247069c-.82000732421875,16.94000244140625-7.71002197265625,28.91998291015625-10.25,33.21002197265625-2.780029296875,4.699951171875-8.010009765625,13.3299560546875-18.340026855467841,20.63995361328125-4.5999755859375,3.25-16.6300048828125,11.52001953125-33.47998046875,11.010009765625-14.600036621092841-.45001220703125-24.75-7.239990234375-30.73004150390625-11.239990234375-3.849975585936591-2.58001708984375-12.40997314453125-8.42999267578125-19.260009765625-19.260009765625-3.5-5.539978027345569-5.739990234375-11.070007324220569-7.15997314453125-16.320007324220569-2.460021972655341-9.079956054685681-2.5-17.279968261716931-2.469970703125-23.119995117185681.019958496094659-3.239990234375.029968261719659-6.67999267578125.239990234375-10.239990234375.570007324219659-9.40997314453125,2.5-19.67999267578125,9.38995361328125-29.42999267578125,16.48004150390625-23.30999755859375,46.930053710938409-23.3800048828125,49.98004150390625-23.34002685546875,2.6199951171875.030029296875,31.429992675782159.890014648435681,49.539978027342841,24.72003173828125,4.21002197265625,5.54998779296875,7.010009765625,11.22998046875,8.8599853515625,16.52996826171875,3.35003662109375,9.5400390625,3.6500244140625,17.81005859375,3.75,21.760009765625.0400390625,1.739990234375.02001953125,3.44000244140625-.0699462890625,5.08001708984375Z"/>
      <path class="cls-11" d="m78.015708131154497,107.749686833412852c2.466627824033822-7.608891337762543,13.985611838952536-6.982435644618818,16.394883196046067.344143399634049-1.485978166749192-.831997403540299-2.820359270264817-1.518581876196549-4.184525530030442-1.996792325415299-4.233673929178622-1.605569543275124-8.38028125299752-.782483644954482-12.210357666015625,1.65264892578125h0Z"/>
      <path class="cls-11" d="m42.278769654591997,70.616691227944102c4.179393006947066-8.165991558347741,17.349947608448019-9.049520381713592,23.14688669039424-2.220125858650135-7.7589912560843-2.569438213598914-16.145249835506547-2.228732097446482-23.14688669039424,2.220125858650135h0Z"/>
      <path class="cls-11" d="m109.02097241338106,67.437247868569102c6.415874134214391-6.556420009168505,19.254643881447009-3.488948653375701,22.761982278560026,4.753870007914884-6.645931233505507-4.757671396244405-14.755049175379099-6.922844349359366-22.761982278560026-4.753870007914884h0Z"/>
      <path class="cls-6" d="m146.967864899818778,91.780330749419591c.0899658203125-1.6400146484375.1099853515625-3.34002685546875.0699462890625-5.08001708984375-.0999755859375-3.949951171875-.4000244140625-12.219970703125-3.75-21.760009765625-4.760009765625,1.22003173828125-10.260009765625,1.77001953125-16.0799560546875.59002685546875-16.360107421874091-3.33001708984375-25.830078124999091-18.40997314453125-27.739990234374091-16.969970703125-.940063476561591.7099609375.409912109375,5.04998779296875,9.14990234375,19.65997314453125-4.010009765625-.17999267578125-21.27001953125-1.3900146484375-32.849975585936591-15.1500244140625-3.929931640625-4.66998291015625-6.119995117188409-9.5-7.390014648438409-13.28997802734375-2.429931640625,2.32000732421875-5.719970703125,5.91998291015625-8.510009765625,10.91998291015625-6.079956054686591,10.8900146484375-5.599975585936591,20.9100341796875-7.029907226561591,20.8699951171875-1.119995117188409-.03997802734375-2.460083007813409-6.3299560546875-1.830078125-12.63995361328125.930053710936591-9.32000732421875,5.900024414061591-16.030029296875,8.859985351561591-19.4000244140625-2.72998046875,2.8900146484375-6.75,7.44000244140625-11,13.52001953125-5.799926757811591,8.29998779296875-6.929931640625,12.15997314453125-11.619995117186591,16.52996826171875-2.4599609375,2.280029296875-6.140014648438409,4.94000244140625-11.72998046875,6.8800048828125-.2099609375,3.55999755859375-.219970703125,7-.239990234375,10.239990234375-.030029296875,5.84002685546875.010009765625,14.0400390625,2.469970703125,23.1199951171875-2.68994140625-6.7099609375-6.159912109375-18.3199462890625-10.97998046875-39.47998046875-1.739990234375-7.6199951171875-2.319946289063409-10.6500244140625-1.839965820313409-14.97998046875,1.640014648438409-14.69000244140625,16.119995117188409-23.30999755859375,14.679931640625-25.22003173828125-.539916992186591-.719970703125-3.069946289061591-.28997802734375-11.199951171875,4.09002685546875,6.364379882813409-9.246551513673694,13.2041015625-15.17999267578125,17.984619140625-18.7252197265625C42.736541657633097,10.800350280669591,58.607635407633097-.969638733002284,77.895599274819688,1.747158141997716c3.816040039063409.537506103515625,6.888793945313409,1.518524169921875,8.942626953125,2.292999267578125,4.66943359375-1.883392333984375,8.527709960938409-2.383026123048694,11.006469726563409-2.522308349609375,16.904541015625-.949981689453125,31.330322265623181,11.392578125,38.529052734373181,17.5517578125.3662109375.31329345703125.6939697265625.60064697265625.694091796875.600738525390625,6.2899169921875,5.40997314453125,10.449951171875,10.97998046875,13,14.89996337890625-3.570068359375-2.44000244140625-7.1400146484375-4.88995361328125-10.7000732421875-7.3399658203125,2.260009765625,2.04998779296875,5.2100830078125,5.1300048828125,7.7900390625,9.40997314453125,9.4599609375,15.6300048828125,7.9000244140625,37.1199951171875-.18994140625,55.1400146484375Z"/>
      <g>
        <circle class="cls-1" cx="55.973040739446787" cy="87.886537812159077" r="13.142054048386715"/>
        <path class="cls-11" d="m67.00138012822481,95.034232731850352c-6.479698615115922,10.055427093815524-22.166283628120254,7.640131754884351-25.139779445338718-4.13498070651076-2.071477543554465-7.563705729688081,3.343237246446733-15.933940137021636,11.097443558878695-17.130326738444637,11.967304983315444-2.103441228384327,20.577806640544622,11.245627011199758,14.042335886460023,21.265307444955397h0Zm0,0c6.138765275854894-9.537245646899464-2.656522431285339-21.553102609657799-13.502341448982406-18.734635270864601-6.122598090082647,1.496988567245353-10.254467015414775,7.858522028594962-9.119249720173684,14.062192319206588,1.851999206877736,11.059570053874268,16.425177075569081,14.171940213636844,22.62159116915609,4.672442951658013h0Z"/>
      </g>
      <circle cx="57.082254451157723" cy="90.755746617368004" r="10.272845243176446"/>
      <circle class="cls-1" cx="51.059365764441736" cy="85.308055407119355" r="3.168825423186036"/>
      <path class="cls-5" d="m102.235718081750747,133.614933753076912c-.796661376953125,1.2899169921875-5.579437255859375,9.033935546875-13.79998779296875,9.83258056640625-9.017791748046875.8760986328125-15.4942626953125-7.254486083984375-16.30999755859375-8.31085205078125-.765838623046875-.991729736328125-1.68426513671875-2.6015625-3.5211181640625-5.821197509765625-2.304473876953125-4.039276123046875-4.035736083984375-7.44781494140625-5.17462158203125-9.779296875,1.5308837890625.815307617185681,3.851104736328125,1.89093017578125,6.84698486328125,2.67694091796875.362518310546875.095123291015625,1.046173095703125.2535400390625,2.00872802734375.457244873046875,4.010009765625.8486328125,9.02001953125,1.511993408203125,14.780029296875,1.385162353515625,3.9661865234375-.087341308595569,9.187255859375-.226593017578125,15.5999755859375-2.253265380859375,2.67083740234375-.844085693361194,4.823638916015625-1.78546142578125,6.330596923828125-2.512725830078125-.86553955078125,2.085418701171875-2.179931640625,5.1334228515625-3.93310546875,8.764801025390625-1.44854736328125,3.000396728515625-2.172821044921875,4.500579833984375-2.827484130859375,5.56060791015625Z"/>
      <path class="cls-10" d="m100.935821841516372,132.984257483545662c-.267425537109375.5224609375-4.133636474609375,7.76385498046875-12.382171630859375,8.598724365234375-6.021728515625.6094970703125-11.9462890625-2.441619873046875-15.133758544921875-7.796173095703125,1.038421630859375-.330535888671875,2.48785400390625-.75433349609375,4.242034912109375-1.146484375,5.178802490234375-1.157745361329944,9.549530029296875-1.265228271484375,12.30377197265625-1.188934326171875,4.2623291015625.118072509765625,7.9703369140625.7681884765625,10.970123291015625,1.532867431640625Z"/>
      <path class="cls-1" d="m102.665716676767261,123.255987276876112c-.19000244140625.39996337890625-.4000244140625.779968261716931-.6300048828125,1.0999755859375-.3800048828125.530029296875-1.6199951171875,2.0999755859375-7.17999267578125,3.3599853515625-2.66998291015625.610046386716931-6.65997314453125,1.47003173828125-12.08001708984375.77001953125-4.1099853515625-.53997802734375-7.469970703125-.970031738283069-9.91998291015625-3.679992675783069-.1500244140625-.169982910154431-.3499755859375-.390014648435681-.57000732421875-.660034179685681,4.010009765625.869995117185681,9.02001953125,1.550048828125,14.780029296875,1.420043945310681,6.25-.140014648435681,11.54998779296875-1.179992675779431,15.5999755859375-2.309997558591931Z"/>
      <g>
        <circle class="cls-1" cx="116.050547310339425" cy="87.823039689756115" r="13.142054048387617"/>
        <path class="cls-11" d="m105.022208375295122,94.970756169350352c6.196794487573243,9.499932340129817,20.771534987934501,6.385777841380332,22.621615980242495-4.67264617166984,1.13450700480189-6.203161061981518-2.996108236605323-12.565522895885806-9.119468769126797-14.062048610199781-10.84767918621128-2.817149504717236-19.640647409619305,9.197942728131238-13.502147211115698,18.734694781869621h0Zm0,0c-6.534453281243259-10.020851464627412,2.074410085676391-23.368990893839509,14.042658731511438-21.265360632860393,7.7529282805599,1.19740895051109,13.169899895063281,9.56615856154167,11.096940820333657,17.130590734281213-2.973119860382212,11.774274247789435-18.661447946658882,14.19058489658164-25.139599551845095,4.134769898579179h0Z"/>
      </g>
      <circle cx="114.941333598500478" cy="90.69224849491502" r="10.27284524317656"/>
      <circle class="cls-1" cx="120.964222285460892" cy="85.24455728493831" r="3.168825423186263"/>
      <ellipse class="cls-9" cx="46.156334169734691" cy="109.820308776763341" rx="8.81670656971346" ry="3.89331522863904"/>
      <ellipse class="cls-9" cx="126.218662273872496" cy="109.820308776763341" rx="8.816706569713233" ry="3.89331522863904"/>
    </g>
  </g>
</svg>