<?xml version="1.0" encoding="UTF-8"?>
<svg id="Layer_2" data-name="Layer 2" xmlns="http://www.w3.org/2000/svg" viewBox="0 0 168.419921874998181 415.964234190376374">
  <defs>
    <style>
      .cls-1 {
        fill: #fff;
      }

      .cls-2 {
        fill: #a36a4f;
      }

      .cls-2, .cls-3, .cls-4, .cls-5, .cls-6, .cls-7, .cls-8 {
        stroke: #231f20;
      }

      .cls-2, .cls-3, .cls-4, .cls-5, .cls-7, .cls-8 {
        stroke-width: 3px;
      }

      .cls-2, .cls-4, .cls-7 {
        stroke-miterlimit: 10;
      }

      .cls-3 {
        fill: #2c9148;
      }

      .cls-3, .cls-4, .cls-5, .cls-6, .cls-8 {
        stroke-linecap: round;
      }

      .cls-3, .cls-5, .cls-6, .cls-8 {
        stroke-linejoin: round;
      }

      .cls-4 {
        fill: #268340;
      }

      .cls-5 {
        fill: #266bb5;
      }

      .cls-6 {
        stroke-width: 2.69019252061844px;
      }

      .cls-9 {
        fill: #93484a;
      }

      .cls-7 {
        fill: #3d2912;
      }

      .cls-10 {
        fill: #db8aa1;
      }

      .cls-8 {
        fill: #0194c0;
      }

      .cls-11 {
        fill: #231f20;
      }
    </style>
  </defs>
  <g id="Layer_1-2" data-name="Layer 1">
    <g>
      <path class="cls-2" d="m72.026107845071238,152.982627501083698c.986320495609107,2.263580322265625,2.189552307128906,5.8812255859375,2.140129089359107,10.3948974609375-.021751403808594,1.986267089845569-.281608581539331,3.738952636720569-.611465454097925,5.197448730470569,3.289848327629443,1.013244628904431,7.894523620598193,2.049255371091931,13.452224731438037,2.14013671875,4.6463775634802.075958251951306,8.605270385742188-.530792236329944,11.617828369140625-1.222930908204944-.188919067379175-2.06671142578125-.255310058590112-4.549468994140625,0-7.33758544921875.32403564453125-3.538726806640625,1.071762084960938-6.537109375,1.834396362308325-8.866241455076306-9.477706909179688-.101898193361194-18.955406188968482-.203826904298694-28.433113098148169-.305725097658069Z"/>
      <path class="cls-2" d="m49.242954311139329,378.424942280758842c.509552001953125,5.19744873046875,1.019104003902612,10.394897460939319,1.528656005863013,15.592346191409888,3.289855957027612,1.013244628909888,7.89453125,2.049255371090112,13.452239990227099,2.14013671875,4.646362304691138.075927734378638,8.605255126953125-.530822753909888,11.617828369140625-1.22296142578125.6114501953125-5.401245117189319,1.222930908199487-10.802551269529431,1.834381103519263-16.20379638671875-9.477691650386987-.101928710941138-18.955413818359375-.203857421871362-28.43310546875-.305725097659888Z"/>
      <path class="cls-2" d="m97.534275805410289,378.424942280758842c.509552001949487,5.19744873046875,1.019104003909888,10.394897460939319,1.528656005859375,15.592346191409888,3.28985595703125,1.013244628909888,7.89453125,2.049255371090112,13.452239990230737,2.14013671875,4.646362304691138.075927734378638,8.60525512696222-.530822753909888,11.617828369142444-1.22296142578125.611450195319776-5.401245117189319,1.222930908206763-10.802551269529431,1.834381103519263-16.20379638671875-9.477691650392444-.101928710941138-18.955413818361194-.203857421871362-28.433105468751819-.305725097659888Z"/>
      <path class="cls-8" d="m137.359985351560681,380.39429778687736c-5.3900146484375,2.080017089840112-13.1700439453125,4.410034179691138-22.759887695310681,5.140014648441138-10.35009765625.779968261709655-18.9400634765625-.590026855470569-24.780029296875-1.989990234380457-.8436279296875-50.050842285159888-1.672607421875-75.07958984375-2.48681640625-75.0791015625-.8157958984375.00048828125-1.616943359375,25.127319335939319-2.4033203125,75.389099121090112-5.579833984375,1.149963378909888-12.93994140625,2.099975585939319-21.5399169921875,1.679992675790345-11.4600830078125-.559997558601026-20.7200927734375-3.330017089851026-26.97998046875-5.77001953125.8599853515625-36.130004882821595,1.7099609375-72.260009765630457,2.5699462890625-108.389953613286707.4100341796875.15997314453125.830078125.3299560546875,1.260009765625.5,10.31005859375,4.04998779296875,27.3900146484375,9.17999267578125,48.860107421875,8.68994140625,17.159912109375-.39996337890625,31.129882812498181-4.25994873046875,40.659912109373181-7.77996826171875.8499755859375-.30999755859375,1.659912109375-.6199951171875,2.43994140625-.92999267578125,1.719970703125,36.17999267578125,3.4400634765625,72.359985351566138,5.1600341796875,108.539978027345569Z"/>
      <path class="cls-3" d="m166.919921874998181,234.554331966563041c-2.719970703125,2.6300048828125-7.5299072265625,6.5999755859375-14.5399169921875,9.32000732421875-8.8800048828125,3.43994140625-16.719970703125,3.0999755859375-20.739990234375,2.64996337890625-.72998046875-11.04998779296875-1.4600830078125-22.0999755859375-2.1900634765625-33.14996337890625-.0001220703125-.001220703125-.00048828125-.0048828125-.0006103515625-.0048828125-.0062255859375.000457763671875.7066650390625,9.19573974609375,1.068603515625,14.764556884765625.5869140625,9.030914306640625.858154296875,17.961700439453125,1.2921142578125,35.460296630859375.136474609375,5.50408935546875.307373046875,12.994384765625.4658203125,21.94097900390625-11.8814697265625,2.348388671875-26.099243164060681,4.24383544921875-42.191040039060681,4.58599853515625-20.586669921875.437744140625-38.4288330078125-1.790283203125-52.5859375-4.58599853515625.0494384765625-9.218505859375.220703125-16.91943359375.382080078125-22.54779052734375.3614501953125-12.6038818359375.65283203125-22.437255859375,1.879638671875-35.30755615234375.349365234375-3.665069580078125.871337890625-8.63348388671875,1.639404296875-14.53564453125-.8800048828125,7-1.6500244140625,14.20001220703125-2.3099365234375,21.6099853515625-.35009765625,3.98004150390625-.650146484375,7.9000244140625-.920166015625,11.77001953125-2.14990234375.3599853515625-5.0198974609375.66998291015625-8.39990234375.54998779296875-2.5400390625-.0899658203125-7.070068359375-.47998046875-12.219970703125-2.27996826171875-7.860107421875-2.75-13.1800537109375-7.3800048828125-16.050048828125-10.32000732421875,8.8699951171875-19.1099853515625,17.739990234375-38.22003173828125,26.60009765625-57.33001708984375.699951171875-1.010009765625,1.869873046875-2.3399658203125,3.669921875-3.2099609375.330078125-.1500244140625.6400146484375-.280029296875.949951171875-.3900146484375,9.4000244140625-3.23004150390625,14.10009765625-4.84002685546875,15.090087890625-5.1099853515625,11.64990234375-3.19000244140625,23.909912109375-4.25,26.0499267578125-4.4300537109375,2.010009765625,1.1300048828125,6.3599853515625,3.21002197265625,12.25,3.300048828125,5.9100341796875.0899658203125,10.3299560546875-1.86004638671875,12.3800048828125-2.92999267578125,21.1199951171875,3.949951171875,36.380004882810681,7.449951171875,37.499999999998181,8.0699462890625,1.5400390625.85003662109375,2.75,1.95001220703125,2.75,1.95001220703125,1.580078125,1.42999267578125,2.530029296875,2.95001220703125,3.090087890625,4.010009765625,8.369873046875,18.72003173828125,16.72998046875,37.42999267578125,25.08984375,56.1500244140625Z"/>
      <path class="cls-2" d="m18.856905685715901,248.428485364935113c.082412719726562,1.86822509765625.24371337890625,9.72833251953125.858306884765625,13.717498779296875.747146606445312,4.849578857421875,2.005264282226562,9.967437744140625,3.92413330078125,15.32708740234375-.6890869140625.9093017578125-1.740692138671875,2.439361572265625-2.60003662109375,4.467498779296875-.17236328125.40679931640625-1.467803955078125,3.637786865234375-1.4466552734375,7.4560546875.044403076171875,8.015716552734375,5.898193359375,16.77777099609375,9.56488037109375,16.203826904296875,1.34246826171875-.21014404296875,2.182342529296875-1.638946533203125,2.4320068359375-2.063690185546875,1.370513916015625-2.33154296875.0927734375-4.5618896484375-.076446533203125-8.331207275390625-.074615478515625-1.66217041015625.047821044921875-4.036102294921875.993621826171875-6.955413818359375,1.246978759765625,1.43524169921875,1.89544677734375,2.7965087890625,2.254791259765625,3.8980712890625.87420654296875,2.6798095703125.26385498046875,4.51666259765625,1.6051025390625,5.61785888671875.6466064453125.5308837890625,1.765472412109375.9061279296875,2.636932373046875.5732421875,2.68939208984375-1.027313232421875,2.880523681640625-8.74462890625,1.190399169921875-14.44586181640625-1.2457275390625-4.2021484375-3.5213623046875-7.33575439453125-5.518218994140625-9.47772216796875.95953369140625-9.297515869140625,1.91900634765625-18.595001220703125,2.8785400390625-27.89251708984375-2.239730834960938.343841552734375-4.859771728515625.583740234375-7.78424072265625.55108642578125-4.354507446289062-.048614501953125-8.09454345703125-.6871337890625-11.02532958984375-1.41607666015625.024078369140625.6529541015625.061126708984375,1.6121826171875.112213134765625,2.770263671875Z"/>
      <path class="cls-2" d="m150.763170944506783,248.428485364935113c.124420166015625,6.753997802734375-.583740234375,11.935333251953125-.858306884765625,13.717498779296875-.74713134765625,4.849578857421875-2.0052490234375,9.967437744140625-3.92413330078125,15.32708740234375.6890869140625.9093017578125,1.740692138671875,2.439361572265625,2.60003662109375,4.467498779296875.824859619140625,1.946746826171875,1.44525146484375,4.916717529296875,1.4466552734375,7.4560546875.003692626953125,6.75921630859375-4.39044189453125,16.282135009765625-8.71124267578125,16.175079345703125-1.41217041015625-.03497314453125-2.668792724609375-1.094940185546875-3.28564453125-2.034942626953125-1.368804931640625-2.08587646484375-.10504150390625-4.2882080078125.076446533203125-8.331207275390625.074615478515625-1.66217041015625-.047821044921875-4.036102294921875-.993621826171875-6.955413818359375-1.246994018554688,1.43524169921875-1.895462036132812,2.7965087890625-2.254806518554688,3.8980712890625-.87420654296875,2.6798095703125-.26385498046875,4.51666259765625-1.6051025390625,5.61785888671875-.6466064453125.5308837890625-1.765472412109375.9061279296875-2.636932373046875.5732421875-2.68939208984375-1.027313232421875-2.880523681640625-8.74462890625-1.190399169921875-14.44586181640625,1.2457275390625-4.2021484375,3.5213623046875-7.33575439453125,5.518218994140625-9.47772216796875-.95953369140625-9.297515869140625-1.91900634765625-18.595001220703125-2.8785400390625-27.89251708984375,2.538314819335938.21441650390625,5.494491577148438.295806884765625,8.774917602539062.07476806640625,3.756378173828125-.25311279296875,7.05426025390625-.843292236328125,9.795013427734375-1.509552001953125.04833984375.833343505859375.10235595703125,1.978546142578125.12744140625,3.340057373046875Z"/>
      <path class="cls-4" d="m78.979571090989339,410.96532008172835c-.4088134765625,1.213012695308862-1.797943115234375,1.745361328130457-2.820068359375,2.07000732421875-6.800048828125,2.15997314453125-17.22998046875,1.260009765630457-18.419921875,1.149963378911707-7.27001953125-.669982910161707-9.090087890625-1.17999267578125-9.85009765625-2.699951171880457-1.030029296875-2.070007324220569.52001953125-4.74005126953125.9100341796875-5.400024414060681.3399658203125-.580017089840112.7301025390625-1.119995117189319,1.1800537109375-1.609985351558862.260009765625-3.480041503911707.530029296875-6.97003173828125.7900390625-10.460021972661707,3.2899169921875,1.02001953125,7.89990234375,2.049987792970569,13.449951171875,2.140014648441138,4.64990234375.080017089840112,8.6099853515625-.530029296880457,11.6199951171875-1.220031738279431.739990234375,4.260009765619543,1.489990234375,8.52001953125,2.22998046875,12.780029296869543.344818115234375.450988769529431,1.366561889648438,1.895385742189319.9100341796875,3.25Z"/>
      <path class="cls-4" d="m128.179519961633559,411.485333825406997c-.760009765625,1.519958496101026-2.580078125,2.029968261720569-9.849975585939319,2.699951171880457-1.1900634765625.110046386720569-11.6199951171875,1.010009765619543-18.4200439453125-1.149963378909888-.929931640625-.2900390625-2.409912109375-.840026855470569-2.8299560546875-2.070007324220569-.3900146484375-1.190002441398974.3900146484375-2.440002441398974.7698974609375-3.0400390625.1201171875-.18994140625.25-.379943847648974.380126953125-.559997558590112.3399658203125-4.449951171878638.669921875-8.889953613279431,1.010009765625-13.349975585939319,3.2900390625,1.02001953125,7.89990234375,2.049987792970569,13.4599609375,2.140014648439319,4.6400146484375.080017089840112,8.599975585939319-.530029296878638,11.609985351564319-1.220031738279431.5499267578125,3.130004882810681,1.0999755859375,6.27001953125,1.6400146484375,9.400024414060681.510009765625.52996826171875.949951171875,1.109985351558862,1.320068359375,1.75.389892578125.659973144529431,1.93994140625,3.330017089840112.909912109375,5.400024414058862Z"/>
      <path class="cls-11" d="m27.503260898167355,294.636710759194102c1.438571376258551,3.136380220064893,2.78874796054879,6.031455768401429,3.82186002276103,9.324809561352595-2.237183128398101-2.584116386231472-3.725671994929144-5.873023675780132-3.82186002276103-9.324809561352595h0Z"/>
      <path class="cls-11" d="m24.783473300511105,294.636710759194102c1.43854104923048,3.136382685257558,2.788810070935142,6.031460780359339,3.821860071759147,9.324809542868024-2.237145436789433-2.584109379113215-3.725663702261954-5.873055956581084-3.821860071759147-9.324809542868024h0Z"/>
      <path class="cls-11" d="m143.863551425511105,293.859428044350352c-.09622500273872,3.451807299299617-1.584615280064099,6.740639073896091-3.821642772407358,9.324891380081681,1.032840252004462-3.29324209562219,2.383154161670973-6.188660657393484,3.821642772407358-9.324891380081681h0Z"/>
      <path class="cls-11" d="m146.583339023167355,293.859428044350352c-.096211118392603,3.451776962177973-1.58469401878574,6.740640385960432-3.82164281295627,9.324891350413964,1.032817271398017-3.293264096018902,2.383131322691042-6.188681275565614,3.82164281295627-9.324891350413964h0Z"/>
      <path class="cls-11" d="m31.229335116917355,176.987052556069102c6.59846152198952,4.028660629137448,10.602467035492737,12.188998260384324,9.783562761987923,19.872567279364375-2.028329162318187-7.26268499820435-5.235288374171432-13.853307985204083-9.783562761987923-19.872567279364375h0Z"/>
      <path class="cls-11" d="m138.344020175511105,176.585746403725352c-4.548407862070235,6.019351961014763-7.755264642590191,12.609827203950772-9.783245992524826,19.872716098683668-.819327322726167-7.68365852091847,3.184764015113615-15.843918354361449,9.783245992524826-19.872716098683668h0Z"/>
      <path class="cls-11" d="m55.159266757542355,404.585746403727171c4.112916976275301-4.180610237208384,11.829130195781545-4.062199354730183,15.821660424864604.229208971601111-5.268390021639789-1.595985138559627-10.512316054369876-1.699806065809753-15.821660424864604-.229208971601111h0Z"/>
      <path class="cls-11" d="m106.104213046604855,404.585746403727171c4.112940471755792-4.180596671689273,11.8291144186569-4.06221526626905,15.821660432908175.229208984630532-5.26839317574013-1.595983917779449-10.512297535633479-1.699807111679547-15.821660432908175-.229208984630532h0Z"/>
      <path class="cls-5" d="m36.49031097725674,373.082806969938247c5.952392578125,2.55810546875,15.039306640625,5.628479003909888,26.465087890625,6.420166015628638,9.042724609375.626586914060681,16.7047119140625-.371398925779431,22.2994384765625-1.547790527338293-.1092529296875,1.964965820308862-.218505859375,3.929870605459655-.3277587890625,5.894836425779431-5.5809326171875,1.154418945308862-12.9384765625,2.100219726558862-21.5413818359375,1.680419921869543-11.45849609375-.559204101560681-20.7135009765625-3.325805664060681-26.973388671875-5.762268066398974l.0780029296875-6.685363769540345Z"/>
      <path class="cls-5" d="m137.133743594446059,373.827802087127566c-5.515869140625,2.447692871101026-14.6221923828125,5.649658203130457-26.240478515626819,6.017333984380457-8.861572265625.280456542970569-16.2091064453125-1.18212890625-21.3223876953125-2.633605957029431.082275390625,2.110900878898974.1646728515625,4.221862792959655.2469482421875,6.332763671869543,5.68017578125,1.30731201171875,13.66162109375,2.513244628909888,23.1822509765625,1.977783203130457,10.315185546876819-.580139160161707,18.663818359376819-2.992248535161707,24.363159179689319-5.12744140625-.0765380859375-2.18896484375-.1529541015625-4.377868652351026-.2294921875-6.566833496101026Z"/>
      <ellipse class="cls-2" cx="149.215766523510865" cy="92.727197959602563" rx="13.336451697605225" ry="9.805427357850942" transform="translate(33.315980544083175 224.753399262832858) rotate(-80.579647592262887)"/>
      <ellipse class="cls-2" cx="21.923471666825208" cy="94.757228905410102" rx="9.805427357850592" ry="13.336451697606565" transform="translate(-15.213863857696275 4.86624298414273) rotate(-9.420352405133027)"/>
      <path class="cls-2" d="m147.080670999153881,92.536605267247069c-.82000732421875,16.94000244140625-7.71002197265625,28.91998291015625-10.25,33.21002197265625-2.780029296875,4.699951171875-8.010009765625,13.3299560546875-18.340026855466931,20.63995361328125-4.5999755859375,3.25-16.6300048828125,11.52001953125-33.47998046875,11.010009765625-14.60003662109375-.45001220703125-24.75-7.239990234375-30.73004150390625-11.239990234375-3.8499755859375-2.58001708984375-12.40997314453125-8.42999267578125-19.260009765625-19.260009765625-3.5-5.539978027345569-5.739990234375-11.070007324220569-7.15997314453125-16.320007324220569-2.46002197265625-9.079956054685681-2.5-17.279968261716931-2.469970703125-23.119995117185681.01995849609375-3.239990234375.02996826171875-6.67999267578125.239990234375-10.239990234375.57000732421875-9.40997314453125,2.5-19.67999267578125,9.38995361328125-29.42999267578125,16.48004150390625-23.30999755859375,46.9300537109375-23.3800048828125,49.98004150390625-23.34002685546875,2.6199951171875.030029296875,31.42999267578125.890014648435681,49.539978027341931,24.72003173828125,4.21002197265625,5.54998779296875,7.010009765625,11.22998046875,8.8599853515625,16.52996826171875,3.35003662109375,9.5400390625,3.6500244140625,17.81005859375,3.75,21.760009765625.0400390625,1.739990234375.02001953125,3.44000244140625-.0699462890625,5.08001708984375Z"/>
      <path class="cls-11" d="m78.015712070042355,107.749686833412852c2.466589470202962-7.608882629549043,13.985622027017598-6.982441928468688,16.394883192013367.344143400527173-1.486008680294617-.831997404433423-2.820359266232117-1.518581877089673-4.184556043575867-1.996792326308423-4.233652553008142-1.60558765029964-8.380270688328892-.782458062591104-12.2103271484375,1.65264892578125h0Z"/>
      <path class="cls-11" d="m42.278773593479855,70.616691227944102c4.179404215105023-8.165976631338708,17.349955590496393-9.049531216081959,23.14688670990472-2.220125855079459-7.75902943717665-2.569440111983567-16.145224403033353-2.228734319880459-23.14688670990472,2.220125855079459h0Z"/>
      <path class="cls-11" d="m109.020961093479855,67.437247868569102c6.41588260966455-6.556412187903334,19.254696247115135-3.488951139552228,22.761967059490416,4.753869998528899-6.64587194388514-4.757682558762099-14.755072207934063-6.922837140029515-22.761967059490416-4.753869998528899h0Z"/>
      <path class="cls-6" d="m146.967864899817869,91.780330749419591c.0899658203125-1.6400146484375.1099853515625-3.34002685546875.0699462890625-5.08001708984375-.0999755859375-3.949951171875-.4000244140625-12.219970703125-3.75-21.760009765625-4.760009765625,1.22003173828125-10.260009765625,1.77001953125-16.0799560546875.59002685546875-16.360107421873181-3.33001708984375-25.830078124998181-18.40997314453125-27.739990234373181-16.969970703125-.9400634765625.7099609375.409912109375,5.04998779296875,9.14990234375,19.65997314453125-4.010009765625-.17999267578125-21.27001953125-1.3900146484375-32.8499755859375-15.1500244140625-3.929931640625-4.66998291015625-6.1199951171875-9.5-7.3900146484375-13.28997802734375-2.429931640625,2.32000732421875-5.719970703125,5.91998291015625-8.510009765625,10.91998291015625-6.0799560546875,10.8900146484375-5.5999755859375,20.9100341796875-7.0299072265625,20.8699951171875-1.1199951171875-.03997802734375-2.4600830078125-6.3299560546875-1.830078125-12.63995361328125.9300537109375-9.32000732421875,5.9000244140625-16.030029296875,8.8599853515625-19.4000244140625-2.72998046875,2.8900146484375-6.75,7.44000244140625-11,13.52001953125-5.7999267578125,8.29998779296875-6.929931640625,12.15997314453125-11.6199951171875,16.52996826171875-2.4599609375,2.280029296875-6.1400146484375,4.94000244140625-11.72998046875,6.8800048828125-.2099609375,3.55999755859375-.219970703125,7-.239990234375,10.239990234375-.030029296875,5.84002685546875.010009765625,14.0400390625,2.469970703125,23.1199951171875-2.68994140625-6.7099609375-6.159912109375-18.3199462890625-10.97998046875-39.47998046875-1.739990234375-7.6199951171875-2.3199462890625-10.6500244140625-1.8399658203125-14.97998046875,1.6400146484375-14.69000244140625,16.1199951171875-23.30999755859375,14.679931640625-25.22003173828125-.5399169921875-.719970703125-3.0699462890625-.28997802734375-11.199951171875,4.09002685546875,6.3643798828125-9.246551513673694,13.2041015625-15.17999267578125,17.984619140625-18.7252197265625C42.736541657632188,10.800350280669591,58.607635407632188-.969638733002284,77.895599274819688,1.747158141997716c3.8160400390625.537506103515625,6.8887939453125,1.518524169921875,8.942626953125,2.292999267578125,4.66943359375-1.883392333984375,8.5277099609375-2.383026123048694,11.0064697265625-2.522308349609375,16.904541015625-.949981689453125,31.330322265623181,11.392578125,38.529052734373181,17.5517578125.3662109375.31329345703125.6939697265625.60064697265625.694091796875.600738525390625,6.2899169921875,5.40997314453125,10.449951171875,10.97998046875,13,14.89996337890625-3.570068359375-2.44000244140625-7.1400146484375-4.88995361328125-10.7000732421875-7.3399658203125,2.260009765625,2.04998779296875,5.2100830078125,5.1300048828125,7.7900390625,9.40997314453125,9.4599609375,15.6300048828125,7.9000244140625,37.1199951171875-.18994140625,55.1400146484375Z"/>
      <g>
        <circle class="cls-1" cx="55.973040739446333" cy="87.886537812159077" r="13.142054048386399"/>
        <path class="cls-11" d="m67.001368808323605,95.034232731850352c-6.479632113236221,10.055427871451684-22.166348112128617,7.640134027991735-25.139748928771951-4.134980699524021-2.071531420977408-7.563689447237266,3.343251908057937-15.933981413269066,11.097458787744472-17.130326757020157,11.967268086875265-2.103443876407255,20.577795871613489,11.245651169301709,14.042290141027479,21.265307456544178h0Zm0,0c6.13881085588946-9.537261216262777-2.656534868439849-21.553099772960195-13.502326193427507-18.73463527372769-6.122587951087553,1.496989040288099-10.254518183915934,7.858530944275117-9.119249739447696,14.0621923089966,1.851951325068512,11.059557567903539,16.425238308698681,14.17193309175309,22.621575932875203,4.67244296473109h0Z"/>
      </g>
      <circle cx="57.082254451156587" cy="90.755746617368004" r="10.272845243176789"/>
      <circle class="cls-1" cx="51.059365764440372" cy="85.308055407119355" r="3.168825423186263"/>
      <path class="cls-7" d="m102.235718081748928,133.614933753076912c-.796661376953125,1.2899169921875-5.579437255859375,9.033935546875-13.79998779296875,9.83258056640625-9.017791748046875.8760986328125-15.4942626953125-7.254486083984375-16.30999755859375-8.31085205078125-.765838623046875-.991729736328125-1.68426513671875-2.6015625-3.5211181640625-5.821197509765625-2.304473876953125-4.039276123046875-4.035736083984375-7.44781494140625-5.17462158203125-9.779296875,1.5308837890625.815307617185681,3.851104736328125,1.89093017578125,6.84698486328125,2.67694091796875.362518310546875.095123291015625,1.046173095703125.2535400390625,2.00872802734375.457244873046875,4.010009765625.8486328125,9.02001953125,1.511993408203125,14.780029296875,1.385162353515625,3.9661865234375-.087341308595569,9.187255859375-.226593017578125,15.5999755859375-2.253265380859375,2.67083740234375-.844085693361194,4.823638916015625-1.78546142578125,6.330596923828125-2.512725830078125-.86553955078125,2.085418701171875-2.179931640625,5.1334228515625-3.93310546875,8.764801025390625-1.44854736328125,3.000396728515625-2.172821044921875,4.500579833984375-2.827484130859375,5.56060791015625Z"/>
      <path class="cls-10" d="m100.935821841514553,132.984257483545662c-.267425537109375.5224609375-4.133636474609375,7.76385498046875-12.382171630859375,8.598724365234375-6.021728515625.6094970703125-11.9462890625-2.441619873046875-15.133758544921875-7.796173095703125,1.038421630859375-.330535888671875,2.48785400390625-.75433349609375,4.242034912109375-1.146484375,5.178802490234375-1.157745361329944,9.549530029296875-1.265228271484375,12.30377197265625-1.188934326171875,4.2623291015625.118072509765625,7.9703369140625.7681884765625,10.970123291015625,1.532867431640625Z"/>
      <path class="cls-1" d="m102.665716676765442,123.255987276876112c-.19000244140625.39996337890625-.4000244140625.779968261716931-.6300048828125,1.0999755859375-.3800048828125.530029296875-1.6199951171875,2.0999755859375-7.17999267578125,3.3599853515625-2.66998291015625.610046386716931-6.65997314453125,1.47003173828125-12.08001708984375.77001953125-4.1099853515625-.53997802734375-7.469970703125-.970031738283069-9.91998291015625-3.679992675783069-.1500244140625-.169982910154431-.3499755859375-.390014648435681-.57000732421875-.660034179685681,4.010009765625.869995117185681,9.02001953125,1.550048828125,14.780029296875,1.420043945310681,6.25-.140014648435681,11.54998779296875-1.179992675779431,15.5999755859375-2.309997558591931Z"/>
      <g>
        <circle class="cls-1" cx="116.050547310338516" cy="87.823039689756115" r="13.142054048387617"/>
        <path class="cls-11" d="m105.022242831761105,94.970756169350352c6.196765166450859,9.499975851749696,20.771509112144486,6.385734143304944,22.621600693622895-4.672646166274717,1.134461335925153-6.203169942402383-2.996109759469618-12.565522999702807-9.11946877124501-14.062048597455941-10.847643016448274-2.817182324239184-19.640748889287352,9.198011093107198-13.502131922377885,18.734694763730658h0Zm0,0c-6.534523793454355-10.020797520419364,2.074379580304594-23.369006610719225,14.042612944504071-21.265360623270681,7.752896076046454,1.197405557169986,13.16995600978953,9.566163820758447,11.096956135581422,17.130590717897576-2.97310300053141,11.774240927339633-18.66147104303127,14.190613611142908-25.139569080085494,4.134769905373105h0Z"/>
      </g>
      <circle cx="114.941333598499568" cy="90.69224849491502" r="10.27284524317656"/>
      <circle class="cls-1" cx="120.964222285459527" cy="85.24455728493831" r="3.16882542318649"/>
      <ellipse class="cls-9" cx="46.156334169732872" cy="109.820308776763341" rx="8.816706569712551" ry="3.89331522863904"/>
      <ellipse class="cls-9" cx="126.21866227387136" cy="109.820308776763341" rx="8.816706569713915" ry="3.89331522863904"/>
    </g>
  </g>
</svg>