<?xml version="1.0" encoding="UTF-8"?>
<svg id="Layer_2" data-name="Layer 2" xmlns="http://www.w3.org/2000/svg" viewBox="0 0 168.419921875 415.964234190376374">
  <defs>
    <style>
      .cls-1 {
        fill: #fff;
      }

      .cls-2 {
        fill: #a36a4f;
      }

      .cls-2, .cls-3, .cls-4, .cls-5, .cls-6, .cls-7, .cls-8 {
        stroke: #231f20;
      }

      .cls-2, .cls-4, .cls-5, .cls-6, .cls-7, .cls-8 {
        stroke-width: 3px;
      }

      .cls-2, .cls-5, .cls-7 {
        stroke-miterlimit: 10;
      }

      .cls-3 {
        fill: #673614;
        stroke-width: 2.69019252061844px;
      }

      .cls-3, .cls-4, .cls-5, .cls-6, .cls-8 {
        stroke-linecap: round;
      }

      .cls-3, .cls-4, .cls-6, .cls-8 {
        stroke-linejoin: round;
      }

      .cls-4 {
        fill: #2c9148;
      }

      .cls-5 {
        fill: #268340;
      }

      .cls-6 {
        fill: #266bb5;
      }

      .cls-9 {
        fill: #93484a;
      }

      .cls-7 {
        fill: #3d2912;
      }

      .cls-10 {
        fill: #db8aa1;
      }

      .cls-8 {
        fill: #0194c0;
      }

      .cls-11 {
        fill: #231f20;
      }
    </style>
  </defs>
  <g id="Layer_1-2" data-name="Layer 1">
    <g>
      <path class="cls-2" d="m72.026107845069419,152.982627501083698c.986320495610926,2.263580322265625,2.189552307130725,5.8812255859375,2.140129089360926,10.3948974609375-.021751403810413,1.986267089845569-.281608581539331,3.738952636720569-.611465454099744,5.197448730470569,3.289848327629443,1.013244628904431,7.894523620600012,2.049255371091931,13.452224731439856,2.14013671875,4.6463775634802.075958251951306,8.605270385740369-.530792236329944,11.617828369140625-1.222930908204944-.188919067380994-2.06671142578125-.255310058590112-4.549468994140625,0-7.33758544921875.324035644529431-3.538726806640625,1.071762084959119-6.537109375,1.834396362308325-8.866241455076306-9.477706909179688-.101898193361194-18.955406188968482-.203826904298694-28.433113098149988-.305725097658069Z"/>
      <path class="cls-2" d="m49.242954311139329,378.424942280758842c.509552001951306,5.19744873046875,1.019104003900793,10.394897460939319,1.528656005861194,15.592346191409888,3.289855957029431,1.013244628909888,7.89453125,2.049255371090112,13.452239990228918,2.14013671875,4.646362304691138.075927734378638,8.605255126951306-.530822753909888,11.617828369140625-1.22296142578125.611450195310681-5.401245117189319,1.222930908199487-10.802551269529431,1.834381103519263-16.20379638671875-9.477691650388806-.101928710941138-18.955413818359375-.203857421871362-28.43310546875-.305725097659888Z"/>
      <path class="cls-2" d="m97.534275805410289,378.424942280758842c.509552001949487,5.19744873046875,1.019104003909888,10.394897460939319,1.528656005859375,15.592346191409888,3.28985595703125,1.013244628909888,7.89453125,2.049255371090112,13.452239990230737,2.14013671875,4.646362304689319.075927734378638,8.605255126960401-.530822753909888,11.617828369140625-1.22296142578125.611450195319776-5.401245117189319,1.222930908208582-10.802551269529431,1.834381103519263-16.20379638671875-9.477691650390625-.101928710941138-18.955413818359375-.203857421871362-28.43310546875-.305725097659888Z"/>
      <path class="cls-8" d="m137.359985351560681,380.39429778687736c-5.390014648441138,2.080017089840112-13.170043945310681,4.410034179691138-22.759887695310681,5.140014648441138-10.35009765625.779968261709655-18.940063476558862-.590026855470569-24.780029296869543-1.989990234380457-.843627929689319-50.050842285159888-1.672607421880457-75.07958984375-2.48681640625-75.0791015625-.815795898439319.00048828125-1.616943359380457,25.127319335939319-2.4033203125,75.389099121090112-5.579833984380457,1.149963378909888-12.93994140625,2.099975585939319-21.539916992189319,1.679992675790345-11.460083007810681-.559997558601026-20.720092773441138-3.330017089851026-26.97998046875-5.77001953125.859985351558862-36.130004882821595,1.7099609375-72.260009765630457,2.569946289058862-108.389953613286707.410034179691138.15997314453125.830078125.3299560546875,1.260009765630457.5,10.31005859375,4.04998779296875,27.390014648430224,9.17999267578125,48.860107421869543,8.68994140625,17.159912109380457-.39996337890625,31.1298828125-4.25994873046875,40.659912109369543-7.77996826171875.849975585941138-.30999755859375,1.659912109380457-.6199951171875,2.43994140625-.92999267578125,1.719970703130457,36.17999267578125,3.440063476571595,72.359985351566138,5.160034179691138,108.539978027345569Z"/>
      <path class="cls-4" d="m166.919921875,234.554331966563041c-2.719970703130457,2.6300048828125-7.529907226558862,6.5999755859375-14.539916992189319,9.32000732421875-8.880004882810681,3.43994140625-16.719970703119543,3.0999755859375-20.739990234369543,2.64996337890625-.72998046875-11.04998779296875-1.460083007821595-22.0999755859375-2.190063476571595-33.14996337890625-.000122070308862-.001220703125-.00048828125-.0048828125-.000610351558862-.0048828125-.006225585941138.000457763671875.706665039058862,9.19573974609375,1.068603515630457,14.764556884765625.5869140625,9.030914306640625.858154296869543,17.961700439453125,1.292114257808862,35.460296630859375.136474609369543,5.50408935546875.307373046869543,12.994384765625.4658203125,21.94097900390625-11.881469726558862,2.348388671875-26.099243164058862,4.24383544921875-42.191040039058862,4.58599853515625-20.586669921880457.437744140625-38.428833007810681-1.790283203125-52.5859375-4.58599853515625.049438476558862-9.218505859375.220703125-16.91943359375.382080078119543-22.54779052734375.361450195319776-12.6038818359375.65283203125-22.437255859375,1.879638671880457-35.30755615234375.349365234369543-3.665069580078125.871337890619543-8.63348388671875,1.639404296869543-14.53564453125-.880004882810681,7-1.650024414060681,14.20001220703125-2.309936523430224,21.6099853515625-.35009765625,3.98004150390625-.650146484380457,7.9000244140625-.920166015630457,11.77001953125-2.14990234375.3599853515625-5.019897460939319.66998291015625-8.39990234375.54998779296875-2.5400390625-.0899658203125-7.070068359369543-.47998046875-12.219970703119543-2.27996826171875-7.860107421880457-2.75-13.180053710939319-7.3800048828125-16.050048828130457-10.32000732421875,8.869995117191138-19.1099853515625,17.739990234380457-38.22003173828125,26.60009765625-57.33001708984375.699951171880457-1.010009765625,1.869873046880457-2.3399658203125,3.669921875-3.2099609375.330078125-.1500244140625.640014648441138-.280029296875.949951171880457-.3900146484375,9.400024414060681-3.23004150390625,14.10009765625-4.84002685546875,15.090087890619543-5.1099853515625,11.64990234375-3.19000244140625,23.909912109380457-4.25,26.049926757810681-4.4300537109375,2.010009765630457,1.1300048828125,6.359985351569776,3.21002197265625,12.25,3.300048828125,5.910034179689319.0899658203125,10.329956054689319-1.86004638671875,12.380004882819776-2.92999267578125,21.119995117180224,3.949951171875,36.380004882810681,7.449951171875,37.499999999989086,8.0699462890625,1.5400390625.85003662109375,2.75,1.95001220703125,2.75,1.95001220703125,1.580078125,1.42999267578125,2.530029296880457,2.95001220703125,3.090087890630457,4.010009765625,8.369873046869543,18.72003173828125,16.72998046875,37.42999267578125,25.08984375,56.1500244140625Z"/>
      <path class="cls-2" d="m18.856905685719539,248.428485364935113c.082412719721106,1.86822509765625.243713378900793,9.72833251953125.858306884760168,13.717498779296875.747146606450769,4.849578857421875,2.0052642822302,9.967437744140625,3.92413330078125,15.32708740234375-.689086914060681.9093017578125-1.740692138670056,2.439361572265625-2.600036621090112,4.467498779296875-.17236328125.40679931640625-1.467803955079944,3.637786865234375-1.446655273441138,7.4560546875.04440307618097,8.015716552734375,5.898193359380457,16.77777099609375,9.564880371101026,16.203826904296875,1.34246826171875-.21014404296875,2.182342529289599-1.638946533203125,2.432006835930224-2.063690185546875,1.370513916019263-2.33154296875.0927734375-4.5618896484375-.076446533201306-8.331207275390625-.074615478510168-1.66217041015625.047821044920056-4.036102294921875.993621826170056-6.955413818359375,1.246978759771082,1.43524169921875,1.895446777351026,2.7965087890625,2.254791259771082,3.8980712890625.87420654296875,2.6798095703125.26385498046875,4.51666259765625,1.605102539058862,5.61785888671875.646606445310681.5308837890625,1.765472412111194.9061279296875,2.636932373050513.5732421875,2.689392089840112-1.027313232421875,2.880523681640625-8.74462890625,1.190399169920056-14.44586181640625-1.245727539060681-4.2021484375-3.521362304689319-7.33575439453125-5.518218994140625-9.47772216796875.959533691409888-9.297515869140625,1.919006347659888-18.595001220703125,2.878540039060681-27.89251708984375-2.239730834960938.343841552734375-4.859771728510168.583740234375-7.784240722650793.55108642578125-4.354507446289062-.048614501953125-8.094543457038526-.6871337890625-11.025329589849207-1.41607666015625.024078369140625.6529541015625.061126708989832,1.6121826171875.112213134769263,2.770263671875Z"/>
      <path class="cls-2" d="m150.763170944510421,248.428485364935113c.124420166010168,6.753997802734375-.583740234380457,11.935333251953125-.858306884771082,13.717498779296875-.747131347648974,4.849578857421875-2.005249023428405,9.967437744140625-3.924133300779431,15.32708740234375.689086914060681.9093017578125,1.740692138670056,2.439361572265625,2.600036621101026,4.467498779296875.824859619138806,1.946746826171875,1.445251464838293,4.916717529296875,1.446655273428405,7.4560546875.003692626960401,6.75921630859375-4.390441894529431,16.282135009765625-8.711242675779431,16.175079345703125-1.412170410148974-.03497314453125-2.668792724609375-1.094940185546875-3.28564453125-2.034942626953125-1.368804931638806-2.08587646484375-.105041503898974-4.2882080078125.076446533199487-8.331207275390625.074615478521082-1.66217041015625-.047821044920056-4.036102294921875-.993621826170056-6.955413818359375-1.246994018549231,1.43524169921875-1.895462036129175,2.7965087890625-2.254806518549231,3.8980712890625-.874206542970569,2.6798095703125-.263854980470569,4.51666259765625-1.605102539060681,5.61785888671875-.646606445319776.5308837890625-1.765472412109375.9061279296875-2.636932373048694.5732421875-2.689392089840112-1.027313232421875-2.880523681640625-8.74462890625-1.190399169920056-14.44586181640625,1.245727539058862-4.2021484375,3.521362304680224-7.33575439453125,5.518218994138806-9.47772216796875-.959533691409888-9.297515869140625-1.919006347659888-18.595001220703125-2.878540039058862-27.89251708984375,2.538314819330481.21441650390625,5.494491577139343.295806884765625,8.774917602529968.07476806640625,3.756378173829944-.25311279296875,7.054260253909888-.843292236328125,9.795013427739832-1.509552001953125.04833984375.833343505859375.102355957029431,1.978546142578125.12744140625,3.340057373046875Z"/>
      <path class="cls-5" d="m78.979571090989339,410.96532008172835c-.408813476558862,1.213012695308862-1.797943115228918,1.745361328130457-2.820068359369543,2.07000732421875-6.800048828130457,2.15997314453125-17.22998046875,1.260009765630457-18.419921875,1.149963378911707-7.27001953125-.669982910161707-9.090087890630457-1.17999267578125-9.85009765625-2.699951171880457-1.030029296880457-2.070007324220569.52001953125-4.74005126953125.910034179680224-5.400024414060681.339965820319776-.580017089840112.730102539069776-1.119995117189319,1.180053710939319-1.609985351558862.260009765630457-3.480041503911707.530029296880457-6.97003173828125.7900390625-10.460021972661707,3.289916992191138,1.02001953125,7.89990234375,2.049987792970569,13.449951171880457,2.140014648441138,4.64990234375.080017089840112,8.609985351560681-.530029296880457,11.619995117180224-1.220031738279431.739990234380457,4.260009765619543,1.489990234380457,8.52001953125,2.22998046875,12.780029296869543.344818115239832.450988769529431,1.366561889650256,1.895385742189319.910034179689319,3.25Z"/>
      <path class="cls-5" d="m128.179519961640835,411.485333825406997c-.760009765630457,1.519958496101026-2.580078125,2.029968261720569-9.849975585941138,2.699951171880457-1.190063476569776.110046386720569-11.619995117189319,1.010009765619543-18.420043945319776-1.149963378909888-.929931640619543-.2900390625-2.409912109369543-.840026855470569-2.829956054680224-2.070007324220569-.390014648439319-1.190002441398974.390014648430224-2.440002441398974.769897460930224-3.0400390625.1201171875-.18994140625.25-.379943847648974.380126953130457-.559997558590112.339965820308862-4.449951171878638.669921875-8.889953613279431,1.010009765619543-13.349975585939319,3.2900390625,1.02001953125,7.89990234375,2.049987792970569,13.4599609375,2.140014648439319,4.640014648439319.080017089840112,8.599975585939319-.530029296878638,11.609985351569776-1.220031738279431.549926757810681,3.130004882810681,1.099975585941138,6.27001953125,1.640014648441138,9.400024414060681.510009765619543.52996826171875.949951171869543,1.109985351558862,1.320068359369543,1.75.389892578130457.659973144529431,1.93994140625,3.330017089840112.909912109380457,5.400024414058862Z"/>
      <path class="cls-11" d="m27.503279802000179,294.636710759194102c1.438471807179667,3.136403309488742,2.78880266879969,6.031482339119975,3.821860130019559,9.324809518104303-2.237248809289667-2.584060935219895-3.725652232969878-5.873037208297319-3.821860130019559-9.324809518104303h0Z"/>
      <path class="cls-11" d="m24.783431169189498,294.636710759194102c1.438694043421492,3.136353896426954,2.788846554771226,6.031435353233974,3.821860095271404,9.324809531181018-2.237042142191058-2.584157783090632-3.725675255280294-5.8730746669371-3.821860095271404-9.324809531181018h0Z"/>
      <path class="cls-11" d="m143.863631364500179,293.859428044350352c-.096325990909463,3.451773030808909-1.584731977849515,6.740589298322448-3.821642883340246,9.324891329260936,1.032718902000852-3.29328487480052,2.383008559820155-6.188707133906064,3.821642883340246-9.324891329260936h0Z"/>
      <path class="cls-11" d="m146.583357927000179,293.859428044350352c-.096186796570692,3.451822000561151-1.584721519120649,6.740582927255673-3.821642771639745,9.324891393784128,1.032793770609715-3.293236650171821,2.383138115110341-6.188658157787359,3.821642771639745-9.324891393784128h0Z"/>
      <path class="cls-11" d="m31.229354020750179,176.987052556069102c6.598417488829,4.028709924836221,10.602462470509636,12.189023123133666,9.783562787599294,19.872567284650358-2.028345041238936-7.262686062606008-5.23531366494899-13.853304252905218-9.783562787599294-19.872567284650358h0Z"/>
      <path class="cls-11" d="m138.343978044189498,176.585746403725352c-4.548358028259827,6.019396695059186-7.755156657969565,12.609852112884255-9.783245890728722,19.872716149711778-.819224914090228-7.683672290608229,3.184769006698843-15.843871889606817,9.783245890728722-19.872716149711778h0Z"/>
      <path class="cls-11" d="m55.159285661380636,404.585746403727171c4.112984087320001-4.180654256890193,11.829083304350206-4.06215835050898,15.821660420358967.229209001050549-5.268388913649687-1.595982870629086-10.512347872439932-1.699808025259699-15.821660420358967-.229209001050549h0Z"/>
      <path class="cls-11" d="m106.104231950439498,404.585746403727171c4.112934557941117-4.180638603078478,11.829177805821018-4.062170353299734,15.82166046490056.229208966551596-5.268388958109426-1.595982836130133-10.512347917030638-1.699807990760746-15.82166046490056-.229208966551596h0Z"/>
      <path class="cls-6" d="m36.490310977260378,373.082806969938247c5.952392578119543,2.55810546875,15.039306640619543,5.628479003909888,26.465087890619543,6.420166015628638,9.042724609380457.626586914060681,16.704711914069776-.371398925779431,22.299438476569776-1.547790527338293-.109252929689319,1.964965820308862-.218505859380457,3.929870605459655-.327758789069776,5.894836425779431-5.580932617180224,1.154418945308862-12.9384765625,2.100219726558862-21.541381835930224,1.680419921869543-11.45849609375-.559204101560681-20.713500976569776-3.325805664060681-26.973388671880457-5.762268066398974.026000976560681-2.228454589851026.052001953130457-4.456909179691138.078002929691138-6.685363769540345Z"/>
      <path class="cls-6" d="m137.133743594449697,373.827802087127566c-5.515869140630457,2.447692871101026-14.622192382808862,5.649658203130457-26.240478515630457,6.017333984380457-8.861572265619543.280456542970569-16.209106445308862-1.18212890625-21.322387695308862-2.633605957029431.082275390619543,2.110900878898974.164672851558862,4.221862792959655.246948242189319,6.332763671869543,5.68017578125,1.30731201171875,13.66162109375,2.513244628909888,23.182250976560681,1.977783203130457,10.315185546880457-.580139160161707,18.663818359380457-2.992248535161707,24.363159179689319-5.12744140625-.076538085939319-2.18896484375-.152954101558862-4.377868652351026-.2294921875-6.566833496101026Z"/>
      <ellipse class="cls-2" cx="149.215766523512229" cy="92.727197959602563" rx="13.336451697604856" ry="9.805427357849595" transform="translate(33.315980544129815 224.753399262874126) rotate(-80.579647592282626)"/>
      <ellipse class="cls-2" cx="21.923471666827481" cy="94.757228905410102" rx="9.805427357847453" ry="13.336451697606789" transform="translate(-15.213863857746304 4.86624298416379) rotate(-9.420352405164934)"/>
      <path class="cls-2" d="m147.080670999159338,92.536605267247069c-.82000732421875,16.94000244140625-7.710021972659888,28.91998291015625-10.25,33.21002197265625-2.780029296878638,4.699951171875-8.010009765628638,13.3299560546875-18.34002685546875,20.63995361328125-4.599975585941138,3.25-16.630004882810681,11.52001953125-33.47998046875,11.010009765625-14.600036621101026-.45001220703125-24.75-7.239990234375-30.730041503909888-11.239990234375-3.849975585941138-2.58001708984375-12.40997314453125-8.42999267578125-19.260009765621362-19.260009765625-3.5-5.539978027345569-5.739990234378638-11.070007324220569-7.159973144529431-16.320007324220569-2.460021972659888-9.079956054685681-2.5-17.279968261716931-2.469970703130457-23.119995117185681.019958496090112-3.239990234375.029968261720569-6.67999267578125.239990234380457-10.239990234375.570007324209655-9.40997314453125,2.5-19.67999267578125,9.389953613279431-29.42999267578125,16.480041503900793-23.30999755859375,46.930053710930224-23.3800048828125,49.980041503900793-23.34002685546875,2.619995117189319.030029296875,31.429992675779431.890014648435681,49.539978027349207,24.72003173828125,4.210021972650793,5.54998779296875,7.010009765621362,11.22998046875,8.859985351560681,16.52996826171875,3.350036621090112,9.5400390625,3.650024414060681,17.81005859375,3.75,21.760009765625.0400390625,1.739990234375.02001953125,3.44000244140625-.069946289060681,5.08001708984375Z"/>
      <path class="cls-11" d="m78.015730973880636,107.749686833412852c2.466550529088636-7.608894142293138,13.985654059499211-6.982414065278135,16.394883178740201.344143393358536-1.485947631870658-.831997397264786-2.820420288120658-1.518581869921036-4.184556030309977-1.996792319139786-4.233643122890498-1.605554875815869-8.380274966670186-.782509378554096-12.210327148430224,1.65264892578125h0Z"/>
      <path class="cls-11" d="m42.27879249731086,70.616691227944102c4.179337949708497-8.165941660998215,17.349945206149641-9.049564989514693,23.14682567851014-2.220125887113682-7.758939133320382-2.56944511047368-16.145222091799951-2.228732698025851-23.14682567851014,2.220125887113682h0Z"/>
      <path class="cls-11" d="m109.02097999731086,67.437247868569102c6.415929950078862-6.556418754937113,19.254582391849908-3.488954053371344,22.761967017419011,4.753870015776556-6.645841426969127-4.75766134949663-14.755061986779765-6.922845761118879-22.761967017419011-4.753870015776556h0Z"/>
      <path class="cls-3" d="m146.967864899819688,91.780330749419591c.089965820310681-1.6400146484375.109985351560681-3.34002685546875.069946289060681-5.08001708984375-.099975585939319-3.949951171875-.400024414060681-12.219970703125-3.75-21.760009765625-4.760009765619543,1.22003173828125-10.260009765619543,1.77001953125-16.079956054689319.59002685546875-16.360107421871362-3.33001708984375-25.830078124990905-18.40997314453125-27.739990234371362-16.969970703125-.940063476558862.7099609375.409912109380457,5.04998779296875,9.14990234375,19.65997314453125-4.010009765619543-.17999267578125-21.27001953125-1.3900146484375-32.849975585939319-15.1500244140625-3.929931640619543-4.66998291015625-6.119995117180224-9.5-7.390014648430224-13.28997802734375-2.429931640630457,2.32000732421875-5.719970703130457,5.91998291015625-8.510009765630457,10.91998291015625-6.079956054689319,10.8900146484375-5.599975585939319,20.9100341796875-7.029907226558862,20.8699951171875-1.119995117191138-.03997802734375-2.460083007810681-6.3299560546875-1.830078125-12.63995361328125.930053710939319-9.32000732421875,5.900024414058862-16.030029296875,8.859985351558862-19.4000244140625-2.72998046875,2.8900146484375-6.75,7.44000244140625-11,13.52001953125-5.799926757808862,8.29998779296875-6.929931640619543,12.15997314453125-11.619995117189319,16.52996826171875-2.4599609375,2.280029296875-6.140014648430224,4.94000244140625-11.72998046875,6.8800048828125-.2099609375,3.55999755859375-.219970703119543,7-.239990234369543,10.239990234375-.030029296880457,5.84002685546875.010009765619543,14.0400390625,2.469970703119543,23.1199951171875-2.68994140625-6.7099609375-6.159912109369543-18.3199462890625-10.97998046875-39.47998046875-1.739990234369543-7.6199951171875-2.319946289060681-10.6500244140625-1.839965820310681-14.97998046875,1.640014648441138-14.69000244140625,16.119995117191138-23.30999755859375,14.679931640630457-25.22003173828125-.539916992189319-.719970703125-3.069946289069776-.28997802734375-11.199951171880457,4.09002685546875,6.364379882810681-9.246551513673694,13.2041015625-15.17999267578125,17.984619140630457-18.7252197265625C42.736541657630369,10.800350280669591,58.607635407630369-.969638733002284,77.895599274819688,1.747158141997716c3.816040039060681.537506103515625,6.888793945310681,1.518524169921875,8.942626953130457,2.292999267578125,4.66943359375-1.883392333984375,8.527709960930224-2.383026123048694,11.006469726560681-2.522308349609375,16.904541015619543-.949981689453125,31.330322265619543,11.392578125,38.529052734369543,17.5517578125.3662109375.31329345703125.693969726560681.60064697265625.694091796880457.600738525390625,6.289916992180224,5.40997314453125,10.449951171869543,10.97998046875,13,14.89996337890625-3.570068359380457-2.44000244140625-7.140014648441138-4.88995361328125-10.700073242191138-7.3399658203125,2.260009765621362,2.04998779296875,5.210083007810681,5.1300048828125,7.7900390625,9.40997314453125,9.4599609375,15.6300048828125,7.900024414060681,37.1199951171875-.18994140625,55.1400146484375Z"/>
      <g>
        <circle class="cls-1" cx="55.973040739447242" cy="87.886537812159077" r="13.14205404838577"/>
        <path class="cls-11" d="m67.001326677000179,95.034232731850352c-6.479659052829447,10.055508926951006-22.166166785049427,7.640073101241796-25.139748877390957-4.134980703798647-2.071441117059294-7.563650816395239,3.343268446300499-15.933953050316632,11.097458686461323-17.130326772532499,11.967285152899422-2.103413406653999,20.577904610168844,11.245615712567087,14.042290190929634,21.265307476331145h0Zm0,0c6.13894795825945-9.537100446790646-2.656549603769236-21.553170637225776-13.502326145149709-18.734635215714661-6.122615899261291,1.496990254549019-10.254381421469589,7.858555616625381-9.119188791300985,14.062192244520702,1.851977161461036,11.059492169093573,16.425224900020112,14.172008141424158,22.621514936450694,4.672442971193959h0Z"/>
      </g>
      <circle cx="57.082254451158406" cy="90.755746617368004" r="10.272845243177697"/>
      <circle class="cls-1" cx="51.0593657644431" cy="85.308055407119355" r="3.168825423183989"/>
      <path class="cls-7" d="m102.235718081750747,133.614933753076912c-.796661376951306,1.2899169921875-5.579437255861194,9.033935546875-13.799987792970569,9.83258056640625-9.017791748039599.8760986328125-15.494262695310681-7.254486083984375-16.309997558590112-8.31085205078125-.765838623050513-.991729736328125-1.684265136720569-2.6015625-3.521118164060681-5.821197509765625-2.304473876958582-4.039276123046875-4.035736083989832-7.44781494140625-5.174621582038526-9.779296875,1.530883789069776.815307617185681,3.851104736329944,1.89093017578125,6.846984863288526,2.67694091796875.362518310541418.095123291015625,1.046173095701306.2535400390625,2.008728027340112.457244873046875,4.010009765621362.8486328125,9.02001953125,1.511993408203125,14.780029296871362,1.385162353515625,3.966186523439319-.087341308595569,9.187255859378638-.226593017578125,15.599975585939319-2.253265380859375,2.670837402349207-.844085693361194,4.823638916019263-1.78546142578125,6.330596923829944-2.512725830078125-.865539550779431,2.085418701171875-2.179931640619543,5.1334228515625-3.93310546875,8.764801025390625-1.448547363279431,3.000396728515625-2.172821044920056,4.500579833984375-2.827484130859375,5.56060791015625Z"/>
      <path class="cls-10" d="m100.93582184152001,132.984257483545662c-.267425537109375.5224609375-4.133636474609375,7.76385498046875-12.382171630859375,8.598724365234375-6.021728515630457.6094970703125-11.9462890625-2.441619873046875-15.133758544920056-7.796173095703125,1.03842163085028-.330535888671875,2.487854003898974-.75433349609375,4.24203491210028-1.146484375,5.178802490239832-1.157745361329944,9.549530029298694-1.265228271484375,12.303771972659888-1.188934326171875,4.262329101558862.118072509765625,7.970336914058862.7681884765625,10.970123291019263,1.532867431640625Z"/>
      <path class="cls-1" d="m102.665716676770899,123.255987276876112c-.190002441411707.39996337890625-.400024414071595.779968261716931-.630004882821595,1.0999755859375-.380004882808862.530029296875-1.619995117178405,2.0999755859375-7.179992675779431,3.3599853515625-2.669982910148974.610046386716931-6.659973144529431,1.47003173828125-12.080017089840112.77001953125-4.109985351558862-.53997802734375-7.469970703130457-.970031738283069-9.919982910159888-3.679992675783069-.150024414060681-.169982910154431-.349975585930224-.390014648435681-.570007324220569-.660034179685681,4.010009765630457.869995117185681,9.02001953125,1.550048828125,14.780029296880457,1.420043945310681,6.25-.140014648435681,11.549987792970569-1.179992675779431,15.599975585941138-2.309997558591931Z"/>
      <g>
        <circle class="cls-1" cx="116.050547310340335" cy="87.823039689756115" r="13.142054048385866"/>
        <path class="cls-11" d="m105.022200700439498,94.970756169350352c6.19684749336011,9.499952025260427,20.771543229360759,6.385766776424134,22.621661743251025-4.672646170827647,1.134400522489159-6.203210985220721-2.996106886441339-12.565529876463188-9.11952985156131-14.062048586232777-10.847720828089223-2.817113311732101-19.640571981208268,9.197840388509576-13.502131891689714,18.734694757060424h0Zm0,0c-6.534379502749289-10.020791970358914,2.074418151791178-23.369023889839809,14.042612940071194-21.265360603883892,7.752936517270427,1.197425674852639,13.170032705898848,9.566115342709963,11.096956099649105,17.130590694450802-2.972992906299623,11.774264059165944-18.661501344498902,14.190562120777031-25.1395690397203,4.134769909433089h0Z"/>
      </g>
      <circle cx="114.941333598502752" cy="90.69224849491502" r="10.272845243177699"/>
      <circle class="cls-1" cx="120.964222285462711" cy="85.24455728493831" r="3.168825423186718"/>
      <ellipse class="cls-9" cx="46.156334169732418" cy="109.820308776763341" rx="8.816706569712096" ry="3.89331522863904"/>
      <ellipse class="cls-9" cx="126.218662273872724" cy="109.820308776763341" rx="8.816706569711641" ry="3.89331522863904"/>
    </g>
  </g>
</svg>