<?xml version="1.0" encoding="UTF-8"?>
<svg id="Layer_2" data-name="Layer 2" xmlns="http://www.w3.org/2000/svg" viewBox="0 0 168.419921874989086 415.964234190376374">
  <defs>
    <style>
      .cls-1 {
        fill: #fff;
      }

      .cls-2 {
        fill: #ffcb48;
        stroke-width: 2.69019252061844px;
      }

      .cls-2, .cls-3, .cls-4, .cls-5, .cls-6, .cls-7, .cls-8 {
        stroke: #231f20;
      }

      .cls-2, .cls-4, .cls-5, .cls-6, .cls-8 {
        stroke-linecap: round;
      }

      .cls-2, .cls-4, .cls-6, .cls-8 {
        stroke-linejoin: round;
      }

      .cls-3 {
        fill: #a36a4f;
      }

      .cls-3, .cls-4, .cls-5, .cls-6, .cls-7, .cls-8 {
        stroke-width: 3px;
      }

      .cls-3, .cls-5, .cls-7 {
        stroke-miterlimit: 10;
      }

      .cls-4 {
        fill: #2c9148;
      }

      .cls-5 {
        fill: #268340;
      }

      .cls-6 {
        fill: #266bb5;
      }

      .cls-9 {
        fill: #93484a;
      }

      .cls-7 {
        fill: #3d2912;
      }

      .cls-10 {
        fill: #db8aa1;
      }

      .cls-8 {
        fill: #0194c0;
      }

      .cls-11 {
        fill: #231f20;
      }
    </style>
  </defs>
  <g id="Layer_1-2" data-name="Layer 1">
    <g>
      <path class="cls-3" d="m72.026107845069419,152.982627501083698c.986320495610926,2.263580322265625,2.189552307130725,5.8812255859375,2.140129089360926,10.3948974609375-.021751403810413,1.986267089845569-.28160858154115,3.738952636720569-.611465454101562,5.197448730470569,3.289848327631262,1.013244628904431,7.894523620600012,2.049255371091931,13.452224731439856,2.14013671875,4.6463775634802.075958251951306,8.605270385740369-.530792236329944,11.617828369140625-1.222930908204944-.188919067379175-2.06671142578125-.255310058590112-4.549468994140625,0-7.33758544921875.324035644529431-3.538726806640625,1.071762084960938-6.537109375,1.834396362299231-8.866241455076306-9.477706909179688-.101898193361194-18.955406188959387-.203826904298694-28.433113098139074-.305725097658069Z"/>
      <path class="cls-3" d="m49.242954311128415,378.424942280758842c.509552001960401,5.19744873046875,1.019104003911707,10.394897460939319,1.528656005870289,15.592346191409888,3.28985595703125,1.013244628909888,7.89453125,2.049255371090112,13.452239990219823,2.14013671875,4.646362304700233.075927734378638,8.605255126960401-.530822753909888,11.617828369151539-1.22296142578125.611450195308862-5.401245117189319,1.222930908188573-10.802551269529431,1.834381103508349-16.20379638671875-9.477691650379711-.101928710941138-18.955413818348461-.203857421871362-28.43310546875-.305725097659888Z"/>
      <path class="cls-3" d="m97.534275805410289,378.424942280758842c.509552001938573,5.19744873046875,1.019104003909888,10.394897460939319,1.528656005848461,15.592346191409888,3.289855957040345,1.013244628909888,7.89453125,2.049255371090112,13.452239990241651,2.14013671875,4.646362304689319.075927734378638,8.605255126958582-.530822753909888,11.617828369138806-1.22296142578125.611450195319776-5.401245117189319,1.222930908199487-10.802551269529431,1.834381103521082-16.20379638671875-9.477691650401539-.101928710941138-18.955413818361194-.203857421871362-28.43310546875-.305725097659888Z"/>
      <path class="cls-8" d="m137.359985351558862,380.39429778687736c-5.390014648439319,2.080017089840112-13.170043945319776,4.410034179691138-22.759887695308862,5.140014648441138-10.35009765625.779968261709655-18.940063476569776-.590026855470569-24.780029296880457-1.989990234380457-.843627929689319-50.050842285159888-1.672607421869543-75.07958984375-2.48681640625-75.0791015625-.815795898439319.00048828125-1.616943359369543,25.127319335939319-2.4033203125,75.389099121090112-5.579833984369543,1.149963378909888-12.93994140625,2.099975585939319-21.539916992189319,1.679992675790345-11.460083007810681-.559997558601026-20.720092773430224-3.330017089851026-26.97998046875-5.77001953125.859985351569776-36.130004882821595,1.7099609375-72.260009765630457,2.569946289069776-108.389953613286707.410034179680224.15997314453125.830078125.3299560546875,1.260009765619543.5,10.31005859375,4.04998779296875,27.390014648439319,9.17999267578125,48.860107421880457,8.68994140625,17.159912109369543-.39996337890625,31.129882812489086-4.25994873046875,40.659912109369543-7.77996826171875.849975585939319-.30999755859375,1.659912109369543-.6199951171875,2.43994140625-.92999267578125,1.719970703119543,36.17999267578125,3.440063476560681,72.359985351566138,5.160034179689319,108.539978027345569Z"/>
      <path class="cls-4" d="m166.919921874989086,234.554331966563041c-2.719970703119543,2.6300048828125-7.529907226558862,6.5999755859375-14.539916992180224,9.32000732421875-8.880004882819776,3.43994140625-16.719970703128638,3.0999755859375-20.739990234378638,2.64996337890625-.72998046875-11.04998779296875-1.460083007810681-22.0999755859375-2.190063476560681-33.14996337890625-.000122070310681-.001220703125-.00048828125-.0048828125-.000610351560681-.0048828125-.006225585939319.000457763671875.706665039060681,9.19573974609375,1.068603515621362,14.764556884765625.5869140625,9.030914306640625.858154296878638,17.961700439453125,1.292114257808862,35.460296630859375.136474609380457,5.50408935546875.307373046880457,12.994384765625.4658203125,21.94097900390625-11.881469726558862,2.348388671875-26.099243164058862,4.24383544921875-42.191040039058862,4.58599853515625-20.586669921871362.437744140625-38.428833007810681-1.790283203125-52.5859375-4.58599853515625.049438476569776-9.218505859375.220703125-16.91943359375.382080078128638-22.54779052734375.361450195310681-12.6038818359375.65283203125-22.437255859375,1.879638671871362-35.30755615234375.349365234378638-3.665069580078125.871337890628638-8.63348388671875,1.639404296878638-14.53564453125-.880004882808862,7-1.650024414058862,14.20001220703125-2.309936523439319,21.6099853515625-.35009765625,3.98004150390625-.650146484369543,7.9000244140625-.920166015619543,11.77001953125-2.14990234375.3599853515625-5.019897460941138.66998291015625-8.39990234375.54998779296875-2.5400390625-.0899658203125-7.070068359380457-.47998046875-12.219970703130457-2.27996826171875-7.860107421869543-2.75-13.180053710939319-7.3800048828125-16.050048828119543-10.32000732421875,8.869995117180224-19.1099853515625,17.739990234369543-38.22003173828125,26.60009765625-57.33001708984375.699951171869543-1.010009765625,1.869873046869543-2.3399658203125,3.669921875-3.2099609375.330078125-.1500244140625.640014648430224-.280029296875.949951171869543-.3900146484375,9.400024414060681-3.23004150390625,14.10009765625-4.84002685546875,15.090087890630457-5.1099853515625,11.64990234375-3.19000244140625,23.909912109369543-4.25,26.049926757808862-4.4300537109375,2.010009765621362,1.1300048828125,6.359985351560681,3.21002197265625,12.25,3.300048828125,5.910034179691138.0899658203125,10.329956054691138-1.86004638671875,12.380004882810681-2.92999267578125,21.119995117189319,3.949951171875,36.380004882810681,7.449951171875,37.5,8.0699462890625,1.5400390625.85003662109375,2.75,1.95001220703125,2.75,1.95001220703125,1.580078125,1.42999267578125,2.530029296869543,2.95001220703125,3.090087890619543,4.010009765625,8.369873046880457,18.72003173828125,16.72998046875,37.42999267578125,25.08984375,56.1500244140625Z"/>
      <path class="cls-3" d="m18.856905685708625,248.428485364935113c.0824127197302,1.86822509765625.243713378909888,9.72833251953125.858306884771082,13.717498779296875.747146606439856,4.849578857421875,2.005264282219287,9.967437744140625,3.924133300779431,15.32708740234375-.689086914058862.9093017578125-1.740692138670056,2.439361572265625-2.600036621099207,4.467498779296875-.17236328125.40679931640625-1.467803955070849,3.637786865234375-1.446655273430224,7.4560546875.044403076170056,8.015716552734375,5.898193359369543,16.77777099609375,9.564880371090112,16.203826904296875,1.342468261720569-.21014404296875,2.182342529298694-1.638946533203125,2.432006835939319-2.063690185546875,1.370513916010168-2.33154296875.0927734375-4.5618896484375-.076446533210401-8.331207275390625-.074615478508349-1.66217041015625.04782104493097-4.036102294921875.99362182618097-6.955413818359375,1.246978759760168,1.43524169921875,1.895446777340112,2.7965087890625,2.254791259760168,3.8980712890625.87420654296875,2.6798095703125.26385498046875,4.51666259765625,1.605102539058862,5.61785888671875.646606445319776.5308837890625,1.765472412111194.9061279296875,2.636932373050513.5732421875,2.689392089851026-1.027313232421875,2.880523681640625-8.74462890625,1.190399169920056-14.44586181640625-1.245727539060681-4.2021484375-3.521362304680224-7.33575439453125-5.518218994140625-9.47772216796875.959533691411707-9.297515869140625,1.919006347661707-18.595001220703125,2.878540039071595-27.89251708984375-2.239730834971851.343841552734375-4.859771728521082.583740234375-7.784240722659888.55108642578125-4.354507446290881-.048614501953125-8.09454345703125-.6871337890625-11.025329589840112-1.41607666015625.024078369138806.6529541015625.061126708978918,1.6121826171875.112213134758349,2.770263671875Z"/>
      <path class="cls-3" d="m150.763170944499507,248.428485364935113c.124420166019263,6.753997802734375-.583740234369543,11.935333251953125-.858306884760168,13.717498779296875-.747131347659888,4.849578857421875-2.005249023439319,9.967437744140625-3.924133300779431,15.32708740234375.689086914058862.9093017578125,1.740692138670056,2.439361572265625,2.600036621090112,4.467498779296875.824859619138806,1.946746826171875,1.445251464840112,4.916717529296875,1.446655273439319,7.4560546875.003692626949487,6.75921630859375-4.390441894529431,16.282135009765625-8.711242675779431,16.175079345703125-1.412170410159888-.03497314453125-2.668792724611194-1.094940185546875-3.28564453125-2.034942626953125-1.36880493164972-2.08587646484375-.105041503909888-4.2882080078125.076446533199487-8.331207275390625.074615478510168-1.66217041015625-.047821044920056-4.036102294921875-.993621826170056-6.955413818359375-1.246994018560144,1.43524169921875-1.895462036140088,2.7965087890625-2.254806518560144,3.8980712890625-.874206542970569,2.6798095703125-.263854980470569,4.51666259765625-1.605102539060681,5.61785888671875-.646606445308862.5308837890625-1.765472412109375.9061279296875-2.636932373048694.5732421875-2.689392089840112-1.027313232421875-2.880523681640625-8.74462890625-1.190399169920056-14.44586181640625,1.245727539058862-4.2021484375,3.521362304689319-7.33575439453125,5.518218994140625-9.47772216796875-.959533691411707-9.297515869140625-1.919006347661707-18.595001220703125-2.878540039060681-27.89251708984375,2.538314819330481.21441650390625,5.494491577150256.295806884765625,8.774917602539062.07476806640625,3.756378173829944-.25311279296875,7.054260253900793-.843292236328125,9.795013427730737-1.509552001953125.04833984375.833343505859375.102355957029431,1.978546142578125.12744140625,3.340057373046875Z"/>
      <path class="cls-5" d="m78.979571090978425,410.96532008172835c-.408813476558862,1.213012695308862-1.797943115228918,1.745361328130457-2.820068359369543,2.07000732421875-6.800048828130457,2.15997314453125-17.22998046875,1.260009765630457-18.419921875,1.149963378911707-7.27001953125-.669982910161707-9.090087890630457-1.17999267578125-9.85009765625-2.699951171880457-1.030029296880457-2.070007324220569.52001953125-4.74005126953125.910034179691138-5.400024414060681.339965820308862-.580017089840112.730102539058862-1.119995117189319,1.180053710928405-1.609985351558862.260009765630457-3.480041503911707.530029296880457-6.97003173828125.7900390625-10.460021972661707,3.289916992191138,1.02001953125,7.89990234375,2.049987792970569,13.449951171880457,2.140014648441138,4.64990234375.080017089840112,8.609985351560681-.530029296880457,11.619995117191138-1.220031738279431.739990234369543,4.260009765619543,1.489990234369543,8.52001953125,2.22998046875,12.780029296869543.344818115228918.450988769529431,1.366561889650256,1.895385742189319.910034179678405,3.25Z"/>
      <path class="cls-5" d="m128.179519961629921,411.485333825406997c-.760009765630457,1.519958496101026-2.580078125,2.029968261720569-9.849975585941138,2.699951171880457-1.190063476558862.110046386720569-11.619995117189319,1.010009765619543-18.420043945308862-1.149963378909888-.929931640630457-.2900390625-2.409912109380457-.840026855470569-2.829956054691138-2.070007324220569-.390014648439319-1.190002441398974.390014648441138-2.440002441398974.769897460941138-3.0400390625.1201171875-.18994140625.25-.379943847648974.380126953119543-.559997558590112.339965820310681-4.449951171878638.669921875-8.889953613279431,1.010009765630457-13.349975585939319,3.2900390625,1.02001953125,7.89990234375,2.049987792970569,13.4599609375,2.140014648439319,4.640014648430224.080017089840112,8.599975585939319-.530029296878638,11.609985351558862-1.220031738279431.549926757810681,3.130004882810681,1.099975585941138,6.27001953125,1.640014648441138,9.400024414060681.510009765619543.52996826171875.949951171869543,1.109985351558862,1.320068359369543,1.75.389892578130457.659973144529431,1.93994140625,3.330017089840112.909912109380457,5.400024414058862Z"/>
      <path class="cls-11" d="m27.503219147240088,294.636710759194102c1.438610290959332,3.136362061966793,2.788817473759991,6.031439220842003,3.821860013498735,9.324809567633565-2.23704206030925-2.584157819543179-3.725675173580385-5.873074703389648-3.821860013498735-9.324809567633565h0Z"/>
      <path class="cls-11" d="m24.783492584740088,294.636710759194102c1.438471807208771,3.136403309488742,2.788802668788776,6.031482339119975,3.821860130019559,9.324809518104303-2.237225112850865-2.584060554689131-3.725661193340784-5.873039204778252-3.821860130019559-9.324809518104303h0Z"/>
      <path class="cls-11" d="m143.863570709740088,293.859428044350352c-.096194383630063,3.451827989183585-1.584682644961504,6.740579354747751-3.821642798231551,9.324891376025334,1.032793796841361-3.293236632413027,2.383138141971358-6.188658140028565,3.821642798231551-9.324891376025334h0Z"/>
      <path class="cls-11" d="m146.583297272240088,293.859428044350352c-.096256007091142,3.451790638016973-1.58453126339009,6.740695795268039-3.821642765849901,9.324891373893479,1.03288672599956-3.293247548359432,2.38317020103932-6.188663164748505,3.821642765849901-9.324891373893479h0Z"/>
      <path class="cls-11" d="m31.229293365990088,176.987052556069102c6.598461068198958,4.028603705033674,10.602547079079159,12.188995442078522,9.783562805960173,19.872567255300964-2.02830580555019-7.26264541794626-5.235213730780742-13.853406386084316-9.783562805960173-19.872567255300964h0Z"/>
      <path class="cls-11" d="m138.344039459740088,176.585746403725352c-4.548499779029953,6.019309964725835-7.755301201881593,12.60979545040027-9.78324602387147,19.872716078803933-.819365728908451-7.683632085090721,3.18476517875024-15.843982690825214,9.78324602387147-19.872716078803933h0Z"/>
      <path class="cls-11" d="m55.159225006618726,404.585746403727171c4.112896855891449-4.180539086590215,11.829145533491101-4.062272181728986,15.821660445450107.229208968210514-5.26839743788878-1.595984964940726-10.512247198899786-1.6998061980903-15.821660445450107-.229208968210514h0Z"/>
      <path class="cls-11" d="m106.104171295679407,404.585746403727171c4.112931875439244-4.180543466149174,11.829141871299726-4.062266529888802,15.821660439029074.229208953960551-5.268328459309487-1.595998744140161-10.512315167179622-1.699794218200623-15.821660439029074-.229208953960551h0Z"/>
      <path class="cls-6" d="m36.490310977249464,373.082806969938247c5.952392578130457,2.55810546875,15.039306640630457,5.628479003909888,26.465087890630457,6.420166015628638,9.042724609369543.626586914060681,16.704711914058862-.371398925779431,22.299438476558862-1.547790527338293-.109252929689319,1.964965820308862-.218505859378638,3.929870605459655-.327758789058862,5.894836425779431-5.580932617191138,1.154418945308862-12.9384765625,2.100219726558862-21.541381835941138,1.680419921869543-11.45849609375-.559204101560681-20.713500976558862-3.325805664060681-26.973388671878638-5.762268066398974.026000976569776-2.228454589851026.052001953128638-4.456909179691138.078002929689319-6.685363769540345Z"/>
      <path class="cls-6" d="m137.133743594438783,373.827802087127566c-5.515869140619543,2.447692871101026-14.622192382808862,5.649658203130457-26.240478515628638,6.017333984380457-8.861572265621362.280456542970569-16.209106445310681-1.18212890625-21.322387695310681-2.633605957029431.082275390630457,2.110900878898974.164672851560681,4.221862792959655.246948242189319,6.332763671869543,5.68017578125,1.30731201171875,13.66162109375,2.513244628909888,23.182250976560681,1.977783203130457,10.315185546880457-.580139160161707,18.663818359380457-2.992248535161707,24.363159179689319-5.12744140625-.076538085939319-2.18896484375-.152954101558862-4.377868652351026-.2294921875-6.566833496101026Z"/>
      <ellipse class="cls-3" cx="149.215766523504044" cy="92.727197959602563" rx="13.336451697605302" ry="9.805427357846902" transform="translate(33.315980544115945 224.753399262859887) rotate(-80.579647592279571)"/>
      <ellipse class="cls-3" cx="21.923471666819296" cy="94.757228905410102" rx="9.805427357850144" ry="13.336451697606341" transform="translate(-15.213863857622428 4.86624298411121) rotate(-9.420352405085923)"/>
      <path class="cls-3" d="m147.080670999148424,92.536605267247069c-.82000732421875,16.94000244140625-7.710021972659888,28.91998291015625-10.25,33.21002197265625-2.780029296878638,4.699951171875-8.010009765628638,13.3299560546875-18.34002685546875,20.63995361328125-4.599975585941138,3.25-16.630004882810681,11.52001953125-33.47998046875,11.010009765625-14.600036621090112-.45001220703125-24.75-7.239990234375-30.730041503900793-11.239990234375-3.849975585939319-2.58001708984375-12.409973144540345-8.42999267578125-19.260009765630457-19.260009765625-3.5-5.539978027345569-5.739990234369543-11.070007324220569-7.159973144529431-16.320007324220569-2.460021972659888-9.079956054685681-2.5-17.279968261716931-2.469970703130457-23.119995117185681.019958496101026-3.239990234375.029968261720569-6.67999267578125.239990234380457-10.239990234375.570007324220569-9.40997314453125,2.5-19.67999267578125,9.389953613279431-29.42999267578125,16.480041503911707-23.30999755859375,46.930053710941138-23.3800048828125,49.980041503911707-23.34002685546875,2.619995117178405.030029296875,31.429992675779431.890014648435681,49.539978027338293,24.72003173828125,4.210021972661707,5.54998779296875,7.010009765621362,11.22998046875,8.859985351560681,16.52996826171875,3.350036621101026,9.5400390625,3.650024414060681,17.81005859375,3.75,21.760009765625.0400390625,1.739990234375.02001953125,3.44000244140625-.069946289060681,5.08001708984375Z"/>
      <path class="cls-11" d="m78.015670319118726,107.749686833412852c2.466646739760108-7.608871756134249,13.985600748030265-6.982458716545807,16.3948831944017.344143403346607-1.485947647530338-.831997407252857-2.820298233460562-1.518581879909107-4.1844339756517-1.996792329127857-4.23379538978952-1.605582301926916-8.380305383188897-.782457625353345-12.21044921875,1.65264892578125h0Z"/>
      <path class="cls-11" d="m42.278731842559864,70.616691227944102c4.179470480408781-8.166011601562786,17.349965975179657-9.049497442638312,23.146947741290205-2.220125823045237-7.759052400801011-2.569427410639037-16.145233218790963-2.228744412437663-23.146947741290205,2.220125823045237h0Z"/>
      <path class="cls-11" d="m109.020919342559864,67.437247868569102c6.41593739739983-6.556414475260681,19.254692887168858-3.488963137662722,22.762089100369849,4.753869974991176-6.646037604750745-4.7576236708137-14.755104325700813-6.922870246220555-22.762089100369849-4.753869974991176h0Z"/>
      <path class="cls-2" d="m146.967864899808774,91.780330749419591c.089965820319776-1.6400146484375.109985351569776-3.34002685546875.069946289069776-5.08001708984375-.099975585939319-3.949951171875-.400024414069776-12.219970703125-3.75-21.760009765625-4.760009765628638,1.22003173828125-10.260009765628638,1.77001953125-16.079956054689319.59002685546875-16.360107421880457-3.33001708984375-25.830078125-18.40997314453125-27.739990234380457-16.969970703125-.940063476558862.7099609375.409912109380457,5.04998779296875,9.14990234375,19.65997314453125-4.010009765619543-.17999267578125-21.27001953125-1.3900146484375-32.849975585930224-15.1500244140625-3.929931640628638-4.66998291015625-6.119995117189319-9.5-7.390014648439319-13.28997802734375-2.429931640630457,2.32000732421875-5.719970703130457,5.91998291015625-8.510009765630457,10.91998291015625-6.079956054680224,10.8900146484375-5.599975585930224,20.9100341796875-7.029907226558862,20.8699951171875-1.119995117191138-.03997802734375-2.460083007810681-6.3299560546875-1.830078125-12.63995361328125.930053710939319-9.32000732421875,5.900024414058862-16.030029296875,8.859985351558862-19.4000244140625-2.72998046875,2.8900146484375-6.75,7.44000244140625-11,13.52001953125-5.799926757808862,8.29998779296875-6.929931640619543,12.15997314453125-11.619995117180224,16.52996826171875-2.4599609375,2.280029296875-6.140014648439319,4.94000244140625-11.72998046875,6.8800048828125-.2099609375,3.55999755859375-.219970703128638,7-.239990234378638,10.239990234375-.030029296871362,5.84002685546875.010009765628638,14.0400390625,2.469970703128638,23.1199951171875-2.68994140625-6.7099609375-6.159912109378638-18.3199462890625-10.97998046875-39.47998046875-1.739990234378638-7.6199951171875-2.319946289069776-10.6500244140625-1.839965820319776-14.97998046875,1.640014648441138-14.69000244140625,16.119995117191138-23.30999755859375,14.679931640630457-25.22003173828125-.539916992189319-.719970703125-3.069946289060681-.28997802734375-11.199951171880457,4.09002685546875,6.364379882819776-9.246551513673694,13.2041015625-15.17999267578125,17.984619140630457-18.7252197265625C42.73654165762855,10.800350280669591,58.60763540762855-.969638733002284,77.895599274808774,1.747158141997716c3.816040039069776.537506103515625,6.888793945319776,1.518524169921875,8.942626953130457,2.292999267578125,4.66943359375-1.883392333984375,8.527709960939319-2.383026123048694,11.006469726560681-2.522308349609375,16.904541015628638-.949981689453125,31.330322265628638,11.392578125,38.529052734378638,17.5517578125.3662109375.31329345703125.693969726560681.60064697265625.694091796871362.600738525390625,6.289916992189319,5.40997314453125,10.449951171878638,10.97998046875,13,14.89996337890625-3.570068359371362-2.44000244140625-7.140014648441138-4.88995361328125-10.700073242191138-7.3399658203125,2.260009765630457,2.04998779296875,5.210083007819776,5.1300048828125,7.7900390625,9.40997314453125,9.4599609375,15.6300048828125,7.900024414069776,37.1199951171875-.18994140625,55.1400146484375Z"/>
      <g>
        <circle class="cls-1" cx="55.973040739439057" cy="87.886537812159077" r="13.142054048387656"/>
        <path class="cls-11" d="m67.001388092559864,95.034232731850352c-6.479598037840333,10.055405910126865-22.166387200570171,7.640119286883419-25.139748941141079-4.134980708136936-2.071593154409129-7.563741757341631,3.343246946071304-15.933922950503984,11.097458813381309-17.130326758120646,11.967251068879705-2.103474313797051,20.577687164959571,11.245686658225168,14.04229012775977,21.265307466257582h0Zm0,0c6.138705248829865-9.537347864215917-2.656465714309888-21.553066587282956-13.502326216481379-18.73463529480432-6.122648160428071,1.496982857092007-10.254427602789292,7.858471549649039-9.11931065304816,14.062192373503422,1.85203103657841,11.059557487255006,16.42518212683899,14.17196039528244,22.621636869529539,4.672442921300899h0Z"/>
      </g>
      <circle cx="57.082254451152494" cy="90.755746617368004" r="10.272845243175651"/>
      <circle class="cls-1" cx="51.059365764436734" cy="85.308055407119355" r="3.168825423186263"/>
      <path class="cls-7" d="m102.235718081739833,133.614933753076912c-.796661376951306,1.2899169921875-5.579437255861194,9.033935546875-13.799987792959655,9.83258056640625-9.017791748050513.8760986328125-15.494262695319776-7.254486083984375-16.309997558601026-8.31085205078125-.765838623050513-.991729736328125-1.68426513671875-2.6015625-3.521118164058862-5.821197509765625-2.304473876951306-4.039276123046875-4.035736083991651-7.44781494140625-5.17462158203125-9.779296875,1.530883789060681.815307617185681,3.851104736329944,1.89093017578125,6.84698486328125,2.67694091796875.362518310548694.095123291015625,1.046173095699487.2535400390625,2.008728027340112.457244873046875,4.010009765628638.8486328125,9.02001953125,1.511993408203125,14.780029296878638,1.385162353515625,3.966186523441138-.087341308595569,9.187255859371362-.226593017578125,15.599975585941138-2.253265380859375,2.670837402340112-.844085693361194,4.823638916008349-1.78546142578125,6.33059692381903-2.512725830078125-.865539550779431,2.085418701171875-2.179931640619543,5.1334228515625-3.93310546875,8.764801025390625-1.448547363279431,3.000396728515625-2.172821044920056,4.500579833984375-2.827484130859375,5.56060791015625Z"/>
      <path class="cls-10" d="m100.935821841509096,132.984257483545662c-.267425537109375.5224609375-4.133636474609375,7.76385498046875-12.382171630859375,8.598724365234375-6.021728515619543.6094970703125-11.9462890625-2.441619873046875-15.133758544920056-7.796173095703125,1.038421630859375-.330535888671875,2.487854003898974-.75433349609375,4.242034912109375-1.146484375,5.178802490230737-1.157745361329944,9.549530029289599-1.265228271484375,12.303771972650793-1.188934326171875,4.262329101569776.118072509765625,7.970336914069776.7681884765625,10.970123291019263,1.532867431640625Z"/>
      <path class="cls-1" d="m102.665716676759985,123.255987276876112c-.190002441409888.39996337890625-.400024414060681.779968261716931-.630004882810681,1.0999755859375-.380004882810681.530029296875-1.619995117189319,2.0999755859375-7.179992675779431,3.3599853515625-2.669982910159888.610046386716931-6.65997314453125,1.47003173828125-12.080017089851026.77001953125-4.109985351558862-.53997802734375-7.469970703119543-.970031738283069-9.919982910148974-3.679992675783069-.150024414069776-.169982910154431-.349975585941138-.390014648435681-.570007324220569-.660034179685681,4.010009765619543.869995117185681,9.02001953125,1.550048828125,14.780029296869543,1.420043945310681,6.25-.140014648435681,11.549987792970569-1.179992675779431,15.599975585941138-2.309997558591931Z"/>
      <g>
        <circle class="cls-1" cx="116.050547310332149" cy="87.823039689756115" r="13.142054048386946"/>
        <path class="cls-11" d="m105.022262115990088,94.970756169350352c6.19668284106956,9.499999678686436,20.771474994058735,6.385701510100262,22.621539644000222-4.672646161723605,1.134522149619443-6.203128899473086-2.996112632630684-12.565516122664121-9.119407690930529-14.062048608677287-10.847636344589773-2.817217877354778-19.640814997110283,9.198088122395347-13.502131953069693,18.734694770400893h0Zm0,0c-6.534596973080625-10.020862684779786,2.074384276629644-23.368963200799044,14.042612967339664-21.26536064917309,7.752915200198913,1.19739539861439,13.169880204019137,9.566206427683937,11.096956152960047,17.130590726977971-2.973213089009732,11.774217812866482-18.661440744410356,14.190665123671351-25.139569120299711,4.134769922195119h0Z"/>
      </g>
      <circle cx="114.941333598491838" cy="90.69224849491502" r="10.272845243177699"/>
      <circle class="cls-1" cx="120.964222285454525" cy="85.24455728493831" r="3.168825423185353"/>
      <ellipse class="cls-9" cx="46.156334169729689" cy="109.820308776763341" rx="8.816706569709368" ry="3.89331522863904"/>
      <ellipse class="cls-9" cx="126.218662273867267" cy="109.820308776763341" rx="8.816706569717098" ry="3.89331522863904"/>
    </g>
  </g>
</svg>