<?xml version="1.0" encoding="UTF-8"?>
<svg id="Layer_2" data-name="Layer 2" xmlns="http://www.w3.org/2000/svg" viewBox="0 0 187.024665176868439 424.331187830230192">
  <defs>
    <style>
      .cls-1 {
        fill: #fff;
      }

      .cls-2 {
        fill: #2c9148;
      }

      .cls-2, .cls-3, .cls-4, .cls-5, .cls-6, .cls-7, .cls-8 {
        stroke: #231f20;
      }

      .cls-2, .cls-3, .cls-4, .cls-5, .cls-8 {
        stroke-linecap: round;
      }

      .cls-2, .cls-3, .cls-4, .cls-6, .cls-7, .cls-8 {
        stroke-width: 3px;
      }

      .cls-2, .cls-4, .cls-5, .cls-8 {
        stroke-linejoin: round;
      }

      .cls-9 {
        fill: #3b2115;
      }

      .cls-3 {
        fill: #268340;
      }

      .cls-3, .cls-6, .cls-7 {
        stroke-miterlimit: 10;
      }

      .cls-4 {
        fill: #266bb5;
      }

      .cls-5 {
        stroke-width: 2.69019252061844px;
      }

      .cls-6 {
        fill: #3d2912;
      }

      .cls-10 {
        fill: #db8aa1;
      }

      .cls-7 {
        fill: #4e2c17;
      }

      .cls-8 {
        fill: #0194c0;
      }

      .cls-11 {
        fill: #231f20;
      }
    </style>
  </defs>
  <g id="Layer_1-2" data-name="Layer 1">
    <g>
      <path class="cls-5" d="m97.565555244684219,39.726898367216563c1.3848876953125-7.6728515625,4.8428955078125-25.291641235351562-4.500732421875-33.716354370117188-8.8919677734375-8.017440795898438-24.824951171875-3.49676513671875-28.7388916015625-2.44586181640625C30.718631416559219,12.588180715849376,15.840335518121719,62.961837942411876,9.905521064996719,83.055130178740001,4.165774971246719,102.488449270536876,1.861209541559219,120.673782522490001,1.345096260309219,136.558304006865001c4.74462890625,5.809814453125,11.3819580078125,12.480377197265625,20.4012451171875,18.274627685546875,26.9677734375,17.32476806640625,55.839111328125,14.357696533203125,65.9136962890625,12.83245849609375,1.379638671875-63.441741943359375,5.2713623046875-102.262481689453125,9.905517578125-127.938491821289062Z"/>
      <path class="cls-5" d="m94.457645088434219,32.562225515654063c-.1658935546875-8.850555419921875-.3319091796875-17.701126098632812-.497802734375-26.551681518554688,6.5888671875-2.961837768554688,16.308837890625-5.727249145507812,27.710693359375-2.732498168945312.0001220703125.000030517578125.5069580078125.146713256835938,1.028076171875.286636352539062,33.6072998046875,9.02349853515625,48.4857177734375,59.39715576171875,54.42041015625,79.490447998046875,5.7398681640625,19.433319091796875,8.0443115234375,37.61865234375,8.560546875,53.503173828125-5.8875732421875,6.11785888671875-14.7291259765625,13.82464599609375-26.965087890625,20.109039306640625-23.212158203125,11.9217529296875-45.1533203125,11.79779052734375-55.767822265625,10.998046875-2.8297119140625-45.034393310546875-5.6593017578125-90.068771362304688-8.489013671875-135.103164672851562Z"/>
      <g>
        <path class="cls-7" d="m81.328479496003638,161.349581140933878c.986320495609107,2.263580322265625,2.189552307128906,5.8812255859375,2.140129089359107,10.3948974609375-.021751403810413,1.98626708984375-.281608581539331,3.73895263671875-.611465454099744,5.19744873046875,3.289848327629443,1.01324462890625,7.894523620600012,2.04925537109375,13.452224731439856,2.14013671875,4.6463775634802.075958251953125,8.605270385740369-.530792236326306,11.617828369140625-1.222930908201306-.188919067380994-2.066711425783069-.255310058590112-4.549468994142444,0-7.337585449220569.324035644529431-3.538726806640625,1.071762084959119-6.537109375,1.834396362310144-8.866241455078125-9.477706909179688-.101898193359375-18.955406188970301-.203826904296875-28.433113098149988-.30572509765625Z"/>
        <path class="cls-7" d="m58.545325962073548,386.791895920618117c.509552001949487,5.197448730470569,1.019104003898974,10.394897460939319,1.528656005859375,15.592346191400793,3.28985595703125,1.013244628909888,7.89453125,2.049255371099207,13.452239990230737,2.14013671875,4.646362304689319.075927734378638,8.605255126949487-.530822753900793,11.617828369140625-1.22296142578125.611450195308862-5.401245117180224,1.222930908199487-10.802551269529431,1.834381103519263-16.20379638671875-9.477691650390625-.101928710930224-18.955413818359375-.203857421871362-28.43310546875-.305725097650793Z"/>
        <path class="cls-7" d="m106.836647456342689,386.791895920618117c.509552001951306,5.197448730470569,1.019104003909888,10.394897460939319,1.528656005861194,15.592346191400793,3.289855957029431,1.013244628909888,7.89453125,2.049255371099207,13.452239990228918,2.14013671875,4.646362304691138.075927734378638,8.605255126960401-.530822753900793,11.617828369140625-1.22296142578125.611450195319776-5.401245117180224,1.222930908210401-10.802551269529431,1.834381103519263-16.20379638671875-9.477691650388806-.101928710930224-18.955413818359375-.203857421871362-28.43310546875-.305725097650793Z"/>
        <path class="cls-8" d="m146.662357002493081,388.76125142672754c-5.390014648439319,2.080017089840112-13.170043945308862,4.410034179691138-22.759887695308862,5.140014648441138-10.35009765625.779968261709655-18.940063476560681-.590026855470569-24.780029296880457-1.989990234380457-.843627929680224-50.050842285159888-1.672607421869543-75.07958984375-2.48681640625-75.0791015625-.815795898430224.00048828125-1.616943359369543,25.127319335939319-2.4033203125,75.389099121090112-5.579833984369543,1.149963378909888-12.93994140625,2.099975585939319-21.539916992180224,1.679992675790345-11.460083007819776-.559997558601026-20.720092773439319-3.330017089851026-26.97998046875-5.77001953125.859985351560681-36.130004882821595,1.7099609375-72.260009765630457,2.569946289060681-108.389953613286707.410034179689319.15997314453125.830078125.3299560546875,1.260009765619543.5,10.31005859375,4.04998779296875,27.390014648439319,9.17999267578125,48.860107421880457,8.68994140625,17.159912109369543-.39996337890625,31.1298828125-4.25994873046875,40.659912109369543-7.77996826171875.849975585939319-.30999755859375,1.659912109380457-.6199951171875,2.43994140625-.92999267578125,1.719970703130457,36.17999267578125,3.440063476569776,72.359985351566138,5.160034179689319,108.539978027345569Z"/>
        <path class="cls-2" d="m176.222293525934219,242.921285606413221c-2.719970703130457,2.6300048828125-7.529907226560681,6.5999755859375-14.539916992191138,9.32000732421875-8.880004882808862,3.43994140625-16.719970703119543,3.0999755859375-20.739990234369543,2.64996337890625-.72998046875-11.04998779296875-1.460083007819776-22.0999755859375-2.190063476569776-33.14996337890625-.000122070310681-.001220703125-.00048828125-.0048828125-.000610351560681-.0048828125-.006225585939319.000457763671875.706665039060681,9.19573974609375,1.068603515630457,14.764556884765625.5869140625,9.030914306640625.858154296869543,17.961700439453125,1.292114257810681,35.460296630859375.136474609369543,5.50408935546875.307373046869543,12.994384765625.4658203125,21.94097900390625-11.881469726560681,2.348388671875-26.099243164060681,4.24383544921875-42.191040039060681,4.58599853515625-20.586669921880457.437744140625-38.428833007819776-1.790283203125-52.5859375-4.58599853515625.049438476560681-9.218505859375.220703125-16.91943359375.382080078119543-22.54779052734375.361450195310681-12.6038818359375.65283203125-22.437255859375,1.879638671880457-35.30755615234375.349365234369543-3.665069580078125.871337890619543-8.63348388671875,1.639404296869543-14.53564453125-.880004882808862,7-1.650024414058862,14.20001220703125-2.309936523439319,21.6099853515625-.35009765625,3.98004150390625-.650146484369543,7.9000244140625-.920166015619543,11.77001953125-2.14990234375.3599853515625-5.019897460941138.66998291015625-8.39990234375.54998779296875-2.5400390625-.0899658203125-7.070068359380457-.47998046875-12.219970703130457-2.27996826171875-7.860107421869543-2.75-13.180053710930224-7.3800048828125-16.050048828119543-10.32000732421875,8.869995117189319-19.1099853515625,17.739990234369543-38.22003173828125,26.60009765625-57.33001708984375.699951171869543-1.010009765625,1.869873046869543-2.3399658203125,3.669921875-3.2099609375.330078125-.1500244140625.640014648439319-.280029296875.949951171869543-.3900146484375,9.400024414069776-3.23004150390625,14.10009765625-4.84002685546875,15.090087890630457-5.1099853515625,11.64990234375-3.19000244140625,23.909912109369543-4.25,26.049926757808862-4.4300537109375,2.010009765630457,1.1300048828125,6.359985351560681,3.21002197265625,12.25,3.300048828125,5.910034179691138.0899658203125,10.329956054691138-1.86004638671875,12.380004882810681-2.92999267578125,21.119995117189319,3.949951171875,36.380004882819776,7.449951171875,37.5,8.0699462890625,1.5400390625.85003662109375,2.75,1.95001220703125,2.75,1.95001220703125,1.580078125,1.42999267578125,2.530029296880457,2.95001220703125,3.090087890630457,4.010009765625,8.369873046869543,18.72003173828125,16.72998046875,37.42999267578125,25.08984375,56.1500244140625Z"/>
        <path class="cls-7" d="m28.159277336653759,256.795439004787113c.082412719719287,1.86822509765625.243713378898974,9.72833251953125.858306884760168,13.717498779296875.74714660644895,4.849578857421875,2.005264282228381,9.967437744140625,3.924133300779431,15.32708740234375-.689086914060681.9093017578125-1.740692138670056,2.439361572265625-2.600036621090112,4.467498779296875-.17236328125.40679931640625-1.467803955079944,3.637786865234375-1.446655273439319,7.4560546875.044403076170056,8.015716552734375,5.898193359378638,16.77777099609375,9.564880371099207,16.203826904296875,1.342468261720569-.21014404296875,2.182342529289599-1.638946533203125,2.432006835930224-2.063690185546875,1.370513916019263-2.33154296875.0927734375-4.5618896484375-.076446533199487-8.331207275390625-.074615478510168-1.66217041015625.047821044920056-4.036102294921875.993621826170056-6.955413818359375,1.246978759769263,1.43524169921875,1.895446777349207,2.7965087890625,2.254791259769263,3.8980712890625.874206542970569,2.6798095703125.263854980470569,4.51666259765625,1.605102539060681,5.61785888671875.646606445308862.5308837890625,1.765472412109375.9061279296875,2.636932373048694.5732421875,2.689392089840112-1.027313232421875,2.880523681640625-8.74462890625,1.190399169920056-14.44586181640625-1.245727539058862-4.2021484375-3.521362304689319-7.33575439453125-5.518218994138806-9.47772216796875.959533691409888-9.297515869140625,1.919006347659888-18.595001220703125,2.878540039058862-27.89251708984375-2.239730834959119.343841552734375-4.859771728510168.583740234375-7.784240722648974.55108642578125-4.354507446290881-.048614501953125-8.094543457040345-.6871337890625-11.025329589851026-1.41607666015625.024078369140625.6529541015625.061126708989832,1.6121826171875.112213134771082,2.770263671875Z"/>
        <path class="cls-7" d="m160.065542595442821,256.795439004787113c.124420166010168,6.753997802734375-.583740234378638,11.935333251953125-.858306884769263,13.717498779296875-.747131347659888,4.849578857421875-2.005249023441138,9.967437744140625-3.92413330078125,15.32708740234375.689086914060681.9093017578125,1.740692138671875,2.439361572265625,2.600036621090112,4.467498779296875.824859619140625,1.946746826171875,1.445251464851026,4.916717529296875,1.446655273441138,7.4560546875.003692626949487,6.75921630859375-4.39044189453125,16.282135009765625-8.71124267578125,16.175079345703125-1.412170410159888-.03497314453125-2.668792724609375-1.094940185546875-3.28564453125-2.034942626953125-1.368804931638806-2.08587646484375-.105041503909888-4.2882080078125.076446533201306-8.331207275390625.074615478519263-1.66217041015625-.047821044920056-4.036102294921875-.993621826170056-6.955413818359375-1.24699401855105,1.43524169921875-1.895462036130994,2.7965087890625-2.25480651855105,3.8980712890625-.87420654296875,2.6798095703125-.26385498046875,4.51666259765625-1.605102539069776,5.61785888671875-.646606445308862.5308837890625-1.765472412109375.9061279296875-2.636932373039599.5732421875-2.689392089849207-1.027313232421875-2.880523681640625-8.74462890625-1.190399169929151-14.44586181640625,1.245727539069776-4.2021484375,3.521362304689319-7.33575439453125,5.51821899414972-9.47772216796875-.959533691409888-9.297515869140625-1.919006347659888-18.595001220703125-2.878540039069776-27.89251708984375,2.538314819339575.21441650390625,5.494491577150256.295806884765625,8.774917602539062.07476806640625,3.756378173829944-.25311279296875,7.054260253909888-.843292236328125,9.795013427739832-1.509552001953125.04833984375.833343505859375.10235595703125,1.978546142578125.12744140625,3.340057373046875Z"/>
        <path class="cls-3" d="m88.281942741923558,419.332273721587626c-.408813476560681,1.213012695310681-1.797943115230737,1.745361328121362-2.820068359369543,2.070007324209655-6.800048828130457,2.159973144540345-17.22998046875,1.260009765630457-18.419921875,1.149963378911707-7.27001953125-.669982910161707-9.090087890630457-1.17999267578125-9.85009765625-2.699951171871362-1.030029296880457-2.07000732421875.52001953125-4.740051269540345.910034179678405-5.400024414069776.339965820321595-.580017089840112.730102539071595-1.119995117180224,1.180053710941138-1.609985351558862.260009765630457-3.480041503911707.530029296880457-6.97003173828125.7900390625-10.460021972661707,3.289916992189319,1.02001953125,7.89990234375,2.049987792970569,13.449951171880457,2.140014648441138,4.64990234375.080017089849207,8.609985351558862-.530029296869543,11.619995117178405-1.220031738279431.739990234380457,4.260009765628638,1.489990234380457,8.52001953125,2.22998046875,12.780029296878638.344818115241651.45098876953125,1.366561889650256,1.895385742180224.910034179691138,3.25Z"/>
        <path class="cls-3" d="m137.481891612562322,419.852287465268091c-.760009765619543,1.519958496090112-2.580078125,2.029968261720569-9.849975585928405,2.699951171869543-1.190063476571595.110046386720569-11.619995117191138,1.010009765630457-18.420043945321595-1.149963378898974-.929931640619543-.2900390625-2.409912109369543-.840026855470569-2.829956054678405-2.070007324220569-.390014648441138-1.190002441409888.390014648428405-2.440002441409888.769897460928405-3.0400390625.1201171875-.18994140625.25-.379943847659888.380126953130457-.559997558601026.339965820310681-4.449951171869543.669921875-8.889953613279431,1.010009765619543-13.349975585928405,3.2900390625,1.02001953125,7.89990234375,2.049987792959655,13.4599609375,2.140014648428405,4.640014648441138.080017089851026,8.599975585941138-.530029296869543,11.609985351571595-1.220031738279431.549926757808862,3.130004882810681,1.099975585928405,6.27001953125,1.640014648428405,9.400024414060681.510009765630457.52996826171875.949951171880457,1.109985351569776,1.320068359380457,1.75.389892578119543.659973144540345,1.93994140625,3.330017089849207.909912109369543,5.400024414069776Z"/>
        <path class="cls-11" d="m36.805622081312322,303.003654652764453c1.438564443840733,3.136403121712647,2.788771515581175,6.031483490762184,3.821860137830299,9.324809515976085-2.237156716259051-2.584186032505386-3.72568108150881-5.872959967382485-3.821860137830299-9.324809515976085h0Z"/>
        <path class="cls-11" d="m34.085895518812322,303.003654652764453c1.438532461370414,3.136398379385355,2.788678448201608,6.031472316546569,3.821860032021505,9.324809555069805-2.237308014000519-2.584069714055659-3.725619311841001-5.872997226168081-3.821860032021505-9.324809555069805h0Z"/>
        <path class="cls-11" d="m153.165886206534196,302.226384285555469c-.096256007091142,3.451790638016973-1.58453126339009,6.74069579526622-3.82164276585172,9.324891373893479,1.032886726001379-3.293247548361251,2.383170201041139-6.188663164750324,3.82164276585172-9.324891373893479h0Z"/>
        <path class="cls-11" d="m155.885734839343058,302.226384285555469c-.096199595569487,3.451758249677368-1.584797323888779,6.740591946880159-3.821642794078798,9.324891359461617,1.032747749739428-3.293280675607093,2.383092378739093-6.188699417703901,3.821642794078798-9.324891359461617h0Z"/>
        <path class="cls-11" d="m40.531698601304015,185.354002237208988c6.598433961939008,4.028708337435091,10.602496856839934,12.188971174207836,9.7835627505101,19.872567301857998-2.028342557980068-7.26272926835918-5.235227137160109-13.853273005921437-9.7835627505101-19.872567301857998h0Z"/>
        <path class="cls-11" d="m147.646353142314183,184.952726602441544c-4.548367738341767,6.019318988610394-7.755221558030826,12.609878658924572-9.783230731320145,19.872716100919206-.819269104231353-7.68360624896377,3.184734700218542-15.843986563178987,9.783230731320145-19.872716100919206h0Z"/>
        <path class="cls-11" d="m64.461627940692779,412.952690297297522c4.112960447120713-4.180607381958907,11.829158843520418-4.062219126519267,15.821660447520117.229269984780331-5.268380304529273-1.596147171259872-10.51226301072893-1.699736804299391-15.821660447520117-.229269984780331h0Z"/>
        <path class="cls-11" d="m115.40658649098259,412.952690297297522c4.112960447131627-4.180607381958907,11.829158843531332-4.062219126519267,15.821660447520117.229269984780331-5.268380304529273-1.596147171259872-10.51226301072893-1.699736804299391-15.821660447520117-.229269984780331h0Z"/>
        <path class="cls-4" d="m45.792682628192779,381.449760609797522c5.952392578119543,2.55810546875,15.039306640619543,5.628479003900793,26.465087890619543,6.420166015619543,9.042724609380457.626586914071595,16.704711914071595-.371398925779431,22.299438476571595-1.547790527338293-.109252929691138,1.964965820308862-.218505859380457,3.92987060546875-.327758789071595,5.894836425779431-5.580932617178405,1.154418945308862-12.9384765625,2.100219726558862-21.541381835928405,1.680419921880457-11.45849609375-.559204101571595-20.713500976571595-3.325805664071595-26.973388671880457-5.762268066409888.026000976558862-2.228454589840112.052001953130457-4.456909179691138.078002929689319-6.68536376953125Z"/>
        <path class="cls-4" d="m146.436115245383917,382.19475572698866c-5.515869140630457,2.447692871090112-14.622192382821595,5.649658203119543-26.240478515630457,6.017333984369543-8.861572265619543.280456542970569-16.209106445310681-1.18212890625-21.322387695310681-2.633605957029431.082275390619543,2.110900878909888.164672851560681,4.22186279296875.246948242191138,6.332763671869543,5.68017578125,1.30731201171875,13.66162109375,2.513244628909888,23.182250976558862,1.977783203130457,10.315185546869543-.580139160161707,18.663818359369543-2.992248535161707,24.363159179691138-5.12744140625-.076538085941138-2.18896484375-.152954101571595-4.377868652340112-.2294921875-6.566833496090112Z"/>
        <ellipse class="cls-7" cx="158.518138174443266" cy="101.094151599452744" rx="13.336451697604632" ry="9.805427357852736" transform="translate(32.841655904069796 240.92780070455737) rotate(-80.579647592195158)"/>
        <ellipse class="cls-7" cx="31.225843317760791" cy="103.124182545260282" rx="9.80542735784835" ry="13.336451697606639" transform="translate(-16.457885687684026 6.501657714510742) rotate(-9.420352405165984)"/>
        <path class="cls-7" d="m156.383042650082643,100.903558907097249c-.820007324209655,16.94000244140625-7.710021972648974,28.91998291015625-10.25,33.21002197265625-2.780029296869543,4.699951171875-8.010009765619543,13.3299560546875-18.340026855459655,20.63995361328125-4.599975585939319,3.25-16.630004882819776,11.52001953125-33.47998046875,11.010009765625-14.600036621099207-.45001220703125-24.75-7.239990234375-30.730041503909888-11.239990234375-3.849975585939319-2.58001708984375-12.409973144529431-8.42999267578125-19.260009765630457-19.260009765625-3.5-5.53997802734375-5.739990234369543-11.07000732421875-7.159973144529431-16.32000732421875-2.460021972650793-9.0799560546875-2.5-17.27996826171875-2.469970703119543-23.1199951171875.019958496090112-3.239990234375.02996826171875-6.67999267578125.239990234369543-10.239990234375.570007324220569-9.40997314453125,2.5-19.67999267578125,9.389953613279431-29.42999267578125,16.480041503909888-23.30999755859375,46.930053710941138-23.3800048828125,49.980041503909888-23.34002685546875,2.619995117191138.030029296875,31.42999267578125.8900146484375,49.539978027340112,24.72003173828125,4.210021972659888,5.54998779296875,7.010009765630457,11.22998046875,8.859985351569776,16.52996826171875,3.350036621090112,9.5400390625,3.650024414060681,17.81005859375,3.75,21.760009765625.0400390625,1.739990234375.02001953125,3.44000244140625-.069946289069776,5.08001708984375Z"/>
        <path class="cls-11" d="m87.318070726263613,116.116670784538655c2.466621933710485-7.608928771824139,13.985604132069057-6.982481848728639,16.394883203998688.344112894583304-1.485978174709089-.831985971975882-2.820359278219257-1.518559000540336-4.18452553798852-1.996784708548148-4.233688711639843-1.605569323161035-8.380283159291139-.782502300313354-12.210357666010168,1.652671813964844h0Z"/>
        <path class="cls-11" d="m51.581180244684219,78.983633018522596c4.179341881379514-8.165928376522061,17.34992734296975-9.049520704851602,23.146825677999004-2.220125878786348-7.758995871699881-2.569413545421412-16.145267979540222-2.228730884315155-23.146825677999004,2.220125878786348h0Z"/>
        <path class="cls-11" d="m118.323367744684219,75.804189659147596c6.415878867099309-6.556414424641844,19.254590394499246-3.488919802515738,22.761967029078733,4.75387001715535-6.645873060529993-4.757656072946702-14.755061529818704-6.922784221520487-22.761967029078733-4.75387001715535h0Z"/>
        <g>
          <circle class="cls-1" cx="65.275412390381007" cy="96.253491452009257" r="13.142054048385454"/>
          <path class="cls-11" d="m76.303714424373538,103.401174522428846c-6.47965399387067,10.055530957200972-22.166295483240901,7.640058925942867-25.139748938190678-4.134980700950109-2.071472940659078-7.563737550886799,3.343186452821101-15.933930514520398,11.097458836200531-17.130296195144183,11.967264427470582-2.103499086981174,20.577908776540426,11.245633300473855,14.042290101990147,21.265276896094292h0Zm0,0c6.138919540439019-9.537184808123129-2.656593532199622-21.55305459336887-13.502326171490495-18.734635237786279-6.122567543059631,1.496978878039954-10.254473080249227,7.858590008801912-9.119188760900215,14.062192233408496,1.851881365349982,11.059509194297789,16.425242550631083,14.172009046944368,22.62151493239071,4.672443004377783h0Z"/>
        </g>
        <circle cx="66.384626102090806" cy="99.122700257218639" r="10.272845243177471"/>
        <circle class="cls-1" cx="60.361737415370953" cy="93.675009046969535" r="3.168825423186263"/>
        <path class="cls-6" d="m111.538089732683147,141.981887392927092c-.796661376949487,1.2899169921875-5.579437255859375,9.033935546875-13.799987792970569,9.83258056640625-9.017791748048694.8760986328125-15.494262695308862-7.254486083984375-16.309997558588293-8.31085205078125-.765838623050513-.991729736328125-1.684265136720569-2.6015625-3.521118164071595-5.821197509765625-2.304473876949487-4.039276123046875-4.035736083978918-7.44781494140625-5.174621582029431-9.779296875,1.530883789069776.8153076171875,3.851104736329944,1.89093017578125,6.846984863279431,2.67694091796875.362518310550513.095123291015625,1.046173095710401.2535400390625,2.008728027351026.457244873046875,4.010009765619543.8486328125,9.02001953125,1.511993408203125,14.780029296869543,1.385162353515625,3.966186523439319-.08734130859375,9.187255859380457-.226593017578125,15.599975585939319-2.253265380859375,2.670837402340112-.844085693359375,4.823638916021082-1.78546142578125,6.330596923829944-2.512725830078125-.865539550779431,2.085418701171875-2.179931640628638,5.1334228515625-3.93310546875,8.764801025390625-1.448547363279431,3.000396728515625-2.172821044918237,4.500579833984375-2.827484130859375,5.56060791015625Z"/>
        <path class="cls-10" d="m110.23819349245241,141.351211123395842c-.267425537109375.5224609375-4.133636474609375,7.76385498046875-12.382171630859375,8.598724365234375-6.021728515630457.6094970703125-11.9462890625-2.441619873046875-15.133758544929151-7.796173095703125,1.038421630859375-.330535888671875,2.487854003909888-.75433349609375,4.242034912109375-1.146484375,5.178802490239832-1.157745361328125,9.549530029300513-1.265228271484375,12.303771972659888-1.188934326171875,4.262329101560681.118072509765625,7.970336914060681.7681884765625,10.970123291019263,1.532867431640625Z"/>
        <path class="cls-1" d="m111.968088327703299,131.622940916726293c-.190002441409888.39996337890625-.400024414069776.779968261716931-.630004882819776,1.0999755859375-.380004882810681.530029296875-1.619995117180224,2.0999755859375-7.179992675779431,3.3599853515625-2.669982910150793.610046386716931-6.65997314453125,1.47003173828125-12.080017089840112.77001953125-4.109985351560681-.53997802734375-7.469970703130457-.970031738283069-9.919982910159888-3.679992675783069-.150024414060681-.169982910154431-.349975585930224-.390014648435681-.570007324220569-.660034179685681,4.010009765630457.869995117185681,9.02001953125,1.550048828125,14.780029296880457,1.420043945310681,6.25-.140014648435681,11.54998779296875-1.179992675779431,15.599975585939319-2.309997558591931Z"/>
        <g>
          <circle class="cls-1" cx="125.352918961270916" cy="96.18999332960675" r="13.142054048388314"/>
          <path class="cls-11" d="m114.324588447803762,103.337697959928846c6.196782924938816,9.49997563460056,20.771576549888778,6.38574032986071,22.62166172797879-4.672646166080085,1.134404902990354-6.203202000586316-2.996106739519746-12.565505803568158-9.119529851908737-14.062048568412138-10.847650642750523-2.817147377834772-19.640688171821239,9.197946660788148-13.502131876070052,18.734694734492223h0Zm0,0c-6.534592550890011-10.020845179507887,2.074441439710426-23.368910364872136,14.042612951840056-21.265360635969046,7.752920240640378,1.197443127330189,13.17004136208925,9.566142123581812,11.096956078119547,17.130621238489766-2.972995785819876,11.774252784478449-18.661508845711069,14.190544915261853-25.139569029959603,4.134739397479279h0Z"/>
        </g>
        <circle cx="124.243705249430604" cy="99.059202134765201" r="10.272845243174515"/>
        <circle class="cls-1" cx="130.266593936395111" cy="93.61151092478849" r="3.168825423186718"/>
        <ellipse class="cls-9" cx="55.458705820665728" cy="118.187262416613521" rx="8.816706569713006" ry="3.89331522863904"/>
        <ellipse class="cls-9" cx="135.52103392480376" cy="118.187262416613521" rx="8.816706569710277" ry="3.89331522863904"/>
      </g>
      <path class="cls-5" d="m93.895880100750219,14.236679593685039c-15.576416015625-.06805419921875-24.2271728515625,3.496612548828125-26.8760986328125,4.665283203125-.0001220703125.000030517578125-6.43310546875,2.838226318359375-11.923583984375,7.184722900390625-19.30517578125,15.282928466796875-20.9703369140625,48.7132568359375-21.095458984375,51.974517822265625,5.8721923828125-2.236602783203125,16.5125732421875-7.2593994140625,25.4521484375-18.038238525390625,4.3660888671875-5.26434326171875,7.150634765625-10.484039306640625,8.9427490234375-14.675140380859375-2.6539306640625,3.76336669921875-6.6328125,10.5970458984375-7.2440185546875,19.731201171875-.3082275390625,4.607177734375.202880859375,10.358795166015625,1.511474609375,10.53631591796875,1.4635009765625.198516845703125,2.7921142578125-6.699249267578125,7.2327880859375-15.881256103515625,2.8641357421875-5.922119140625,6.0489501953125-10.464141845703125,8.5091552734375-13.586669921875-1.4212646484375,4.83416748046875-2.728271484375,11.05023193359375-3.0059814453125,18.337371826171875-.15771484375,4.139251708984375.0440673828125,7.903167724609375.4146728515625,11.20184326171875,6.230224609375,1.489898681640625,14.6265869140625,2.726654052734375,24.4544677734375,1.992401123046875,4.474853515625-.334320068359375,8.5145263671875-1.0225830078125,12.0511474609375-1.849334716796875.805908203125-5.656036376953125,1.254638671875-12.46331787109375.684814453125-20.115478515625-.2593994140625-3.48358154296875-.698974609375-6.72662353515625-1.2396240234375-9.702728271484375,1.598388671875,1.613006591796875,3.6715087890625,3.836151123046875,5.9119873046875,6.6353759765625,1.50927734375,1.8857421875,3.9288330078125,4.90875244140625,5.980224609375,8.522613525390625,4.44287109375,7.826934814453125,4.565185546875,13.8563232421875,5.503173828125,13.757965087890625,1.0010986328125-.10498046875,1.570068359375-7.047821044921875.6878662109375-14.216552734375-.9019775390625-7.32958984375-3.1068115234375-13.156707763671875-4.9200439453125-17.05621337890625,2.8994140625,4.843017578125,6.744384765625,10.41387939453125,11.799072265625,16.139007568359375,6.3709716796875,7.215911865234375,12.802734375,12.569061279296875,18.1910400390625,16.43310546875.5260009765625-5.844146728515625.75439453125-17.249725341796875-4.5859375-29.961761474609375-2.1634521484375-5.149993896484375-6.68896484375-15.922393798828125-17.7325439453125-23.69427490234375-11.6746826171875-8.215972900390625-23.799072265625-8.268951416015625-38.7034912109375-8.334075927734375Z"/>
    </g>
  </g>
</svg>