<?xml version="1.0" encoding="UTF-8"?>
<svg id="Layer_2" data-name="Layer 2" xmlns="http://www.w3.org/2000/svg" viewBox="0 0 187.024665176868439 424.331187830224735">
  <defs>
    <style>
      .cls-1 {
        fill: #fff;
      }

      .cls-2 {
        fill: #a36a4f;
      }

      .cls-2, .cls-3, .cls-4, .cls-5, .cls-6, .cls-7, .cls-8 {
        stroke: #231f20;
      }

      .cls-2, .cls-4, .cls-5, .cls-6, .cls-7, .cls-8 {
        stroke-width: 3px;
      }

      .cls-2, .cls-5, .cls-7 {
        stroke-miterlimit: 10;
      }

      .cls-3 {
        fill: #673614;
        stroke-width: 2.69019252061844px;
      }

      .cls-3, .cls-4, .cls-5, .cls-6, .cls-8 {
        stroke-linecap: round;
      }

      .cls-3, .cls-4, .cls-6, .cls-8 {
        stroke-linejoin: round;
      }

      .cls-4 {
        fill: #2c9148;
      }

      .cls-5 {
        fill: #268340;
      }

      .cls-6 {
        fill: #266bb5;
      }

      .cls-9 {
        fill: #93484a;
      }

      .cls-7 {
        fill: #3d2912;
      }

      .cls-10 {
        fill: #db8aa1;
      }

      .cls-8 {
        fill: #0194c0;
      }

      .cls-11 {
        fill: #231f20;
      }
    </style>
  </defs>
  <g id="Layer_1-2" data-name="Layer 1">
    <g>
      <path class="cls-3" d="m97.565555244680581,39.726898367211106c1.384887695308862-7.6728515625,4.842895507808862-25.291641235351562-4.500732421871362-33.716354370117188-8.891967773439319-8.017440795898438-24.824951171878638-3.49676513671875-28.738891601569776-2.44586181640625C30.718631416559219,12.588180715843919,15.8403355181199,62.961837942406419,9.905521064989443,83.055130178734544,4.165774971239443,102.488449270531419,1.861209541559219,120.673782522484544,1.345096260309219,136.558304006859544c4.74462890625,5.809814453125,11.381958007810681,12.480377197265625,20.401245117180224,18.274627685546875,26.9677734375,17.32476806640625,55.839111328130457,14.357696533203125,65.913696289069776,12.83245849609375,1.379638671871362-63.441741943359375,5.271362304680224-102.262481689453125,9.905517578121362-127.938491821289062Z"/>
      <path class="cls-3" d="m94.457645088430581,32.562225515648606c-.165893554691138-8.850555419921875-.331909179691138-17.701126098632812-.497802734371362-26.551681518554688,6.5888671875-2.961837768554688,16.308837890621362-5.727249145507812,27.710693359371362-2.732498168945312.000122070308862.000030517578125.506958007808862.146713256835938,1.028076171878638.286636352539062,33.607299804680224,9.02349853515625,48.485717773430224,59.39715576171875,54.42041015625,79.490447998046875,5.739868164060681,19.433319091796875,8.044311523430224,37.61865234375,8.560546875,53.503173828125-5.887573242189319,6.11785888671875-14.729125976569776,13.82464599609375-26.965087890628638,20.109039306640625-23.212158203121362,11.9217529296875-45.1533203125,11.79779052734375-55.767822265621362,10.998046875-2.829711914069776-45.034393310546875-5.659301757819776-90.068771362304688-8.489013671878638-135.103164672851562Z"/>
      <g>
        <path class="cls-2" d="m81.328479496,161.349581140928422c.986320495609107,2.263580322265625,2.189552307130725,5.8812255859375,2.140129089359107,10.3948974609375-.021751403808594,1.98626708984375-.281608581539331,3.73895263671875-.611465454099744,5.19744873046875,3.289848327631262,1.01324462890625,7.894523620600012,2.04925537109375,13.452224731439856,2.14013671875,4.6463775634802.075958251953125,8.605270385740369-.530792236326306,11.617828369140625-1.222930908201306-.188919067379175-2.066711425783069-.255310058590112-4.549468994142444,0-7.337585449220569.324035644529431-3.538726806640625,1.071762084959119-6.537109375,1.834396362310144-8.866241455078125-9.477706909179688-.101898193359375-18.955406188970301-.203826904296875-28.433113098149988-.30572509765625Z"/>
        <path class="cls-2" d="m58.54532596206991,386.79189592061266c.509552001949487,5.197448730470569,1.019104003898974,10.394897460939319,1.528656005859375,15.592346191400793,3.28985595703125,1.013244628909888,7.89453125,2.049255371099207,13.452239990230737,2.14013671875,4.646362304689319.075927734378638,8.605255126949487-.530822753900793,11.617828369140625-1.22296142578125.611450195308862-5.401245117180224,1.222930908199487-10.802551269529431,1.834381103519263-16.20379638671875-9.477691650390625-.101928710930224-18.955413818359375-.203857421871362-28.43310546875-.305725097650793Z"/>
        <path class="cls-2" d="m106.83664745634087,386.79189592061266c.509552001949487,5.197448730470569,1.019104003909888,10.394897460939319,1.528656005859375,15.592346191400793,3.289855957029431,1.013244628909888,7.89453125,2.049255371099207,13.452239990228918,2.14013671875,4.646362304691138.075927734378638,8.605255126960401-.530822753900793,11.617828369140625-1.22296142578125.611450195319776-5.401245117180224,1.222930908210401-10.802551269529431,1.834381103521082-16.20379638671875-9.477691650390625-.101928710930224-18.955413818361194-.203857421871362-28.43310546875-.305725097650793Z"/>
        <path class="cls-8" d="m146.662357002489443,388.761251426722083c-5.390014648439319,2.080017089840112-13.170043945308862,4.410034179691138-22.759887695308862,5.140014648441138-10.35009765625.779968261709655-18.940063476560681-.590026855470569-24.780029296880457-1.989990234380457-.843627929680224-50.050842285159888-1.672607421869543-75.07958984375-2.48681640625-75.0791015625-.815795898430224.00048828125-1.616943359369543,25.127319335939319-2.4033203125,75.389099121090112-5.579833984369543,1.149963378909888-12.93994140625,2.099975585939319-21.539916992180224,1.679992675790345-11.460083007819776-.559997558601026-20.720092773439319-3.330017089851026-26.97998046875-5.77001953125.859985351560681-36.130004882821595,1.7099609375-72.260009765630457,2.569946289060681-108.389953613286707.410034179689319.15997314453125.830078125.3299560546875,1.260009765619543.5,10.31005859375,4.04998779296875,27.390014648439319,9.17999267578125,48.860107421880457,8.68994140625,17.159912109369543-.39996337890625,31.1298828125-4.25994873046875,40.659912109369543-7.77996826171875.849975585939319-.30999755859375,1.659912109380457-.6199951171875,2.43994140625-.92999267578125,1.719970703130457,36.17999267578125,3.440063476569776,72.359985351566138,5.160034179689319,108.539978027345569Z"/>
        <path class="cls-4" d="m176.222293525930581,242.921285606407764c-2.719970703130457,2.6300048828125-7.529907226560681,6.5999755859375-14.539916992191138,9.32000732421875-8.880004882808862,3.43994140625-16.719970703119543,3.0999755859375-20.739990234369543,2.64996337890625-.72998046875-11.04998779296875-1.460083007819776-22.0999755859375-2.190063476569776-33.14996337890625-.000122070310681-.001220703125-.00048828125-.0048828125-.000610351560681-.0048828125-.006225585939319.000457763671875.706665039060681,9.19573974609375,1.068603515630457,14.764556884765625.5869140625,9.030914306640625.858154296869543,17.961700439453125,1.292114257810681,35.460296630859375.136474609369543,5.50408935546875.307373046869543,12.994384765625.4658203125,21.94097900390625-11.881469726560681,2.348388671875-26.099243164060681,4.24383544921875-42.191040039060681,4.58599853515625-20.586669921880457.437744140625-38.428833007819776-1.790283203125-52.5859375-4.58599853515625.049438476560681-9.218505859375.220703125-16.91943359375.382080078119543-22.54779052734375.361450195310681-12.6038818359375.65283203125-22.437255859375,1.879638671880457-35.30755615234375.349365234369543-3.665069580078125.871337890619543-8.63348388671875,1.639404296869543-14.53564453125-.880004882808862,7-1.650024414058862,14.20001220703125-2.309936523439319,21.6099853515625-.35009765625,3.98004150390625-.650146484369543,7.9000244140625-.920166015619543,11.77001953125-2.14990234375.3599853515625-5.019897460941138.66998291015625-8.39990234375.54998779296875-2.5400390625-.0899658203125-7.070068359380457-.47998046875-12.219970703130457-2.27996826171875-7.860107421869543-2.75-13.180053710930224-7.3800048828125-16.050048828119543-10.32000732421875,8.869995117189319-19.1099853515625,17.739990234369543-38.22003173828125,26.60009765625-57.33001708984375.699951171869543-1.010009765625,1.869873046869543-2.3399658203125,3.669921875-3.2099609375.330078125-.1500244140625.640014648439319-.280029296875.949951171869543-.3900146484375,9.400024414069776-3.23004150390625,14.10009765625-4.84002685546875,15.090087890630457-5.1099853515625,11.64990234375-3.19000244140625,23.909912109369543-4.25,26.049926757808862-4.4300537109375,2.010009765630457,1.1300048828125,6.359985351560681,3.21002197265625,12.25,3.300048828125,5.910034179691138.0899658203125,10.329956054691138-1.86004638671875,12.380004882810681-2.92999267578125,21.119995117189319,3.949951171875,36.380004882819776,7.449951171875,37.5,8.0699462890625,1.5400390625.85003662109375,2.75,1.95001220703125,2.75,1.95001220703125,1.580078125,1.42999267578125,2.530029296880457,2.95001220703125,3.090087890630457,4.010009765625,8.369873046869543,18.72003173828125,16.72998046875,37.42999267578125,25.08984375,56.1500244140625Z"/>
        <path class="cls-2" d="m28.159277336650121,256.795439004781656c.082412719719287,1.86822509765625.243713378898974,9.72833251953125.858306884760168,13.717498779296875.74714660644895,4.849578857421875,2.0052642822302,9.967437744140625,3.924133300779431,15.32708740234375-.689086914058862.9093017578125-1.740692138670056,2.439361572265625-2.600036621090112,4.467498779296875-.17236328125.40679931640625-1.467803955079944,3.637786865234375-1.446655273439319,7.4560546875.044403076170056,8.015716552734375,5.898193359380457,16.77777099609375,9.564880371099207,16.203826904296875,1.342468261720569-.21014404296875,2.182342529289599-1.638946533203125,2.432006835930224-2.063690185546875,1.370513916019263-2.33154296875.0927734375-4.5618896484375-.076446533199487-8.331207275390625-.074615478510168-1.66217041015625.047821044920056-4.036102294921875.993621826170056-6.955413818359375,1.246978759769263,1.43524169921875,1.895446777349207,2.7965087890625,2.254791259769263,3.8980712890625.874206542970569,2.6798095703125.263854980470569,4.51666259765625,1.605102539060681,5.61785888671875.646606445308862.5308837890625,1.765472412109375.9061279296875,2.636932373050513.5732421875,2.689392089840112-1.027313232421875,2.880523681638806-8.74462890625,1.190399169918237-14.44586181640625-1.245727539058862-4.2021484375-3.521362304689319-7.33575439453125-5.518218994138806-9.47772216796875.959533691409888-9.297515869140625,1.919006347659888-18.595001220703125,2.878540039060681-27.89251708984375-2.239730834960938.343841552734375-4.859771728511987.583740234375-7.784240722650793.55108642578125-4.354507446290881-.048614501953125-8.094543457040345-.6871337890625-11.025329589849207-1.41607666015625.024078369138806.6529541015625.061126708988013,1.6121826171875.112213134769263,2.770263671875Z"/>
        <path class="cls-2" d="m160.065542595439183,256.795439004781656c.124420166010168,6.753997802734375-.583740234378638,11.935333251953125-.858306884769263,13.717498779296875-.747131347659888,4.849578857421875-2.005249023439319,9.967437744140625-3.924133300779431,15.32708740234375.689086914058862.9093017578125,1.740692138670056,2.439361572265625,2.600036621090112,4.467498779296875.824859619138806,1.946746826171875,1.445251464849207,4.916717529296875,1.446655273439319,7.4560546875.003692626949487,6.75921630859375-4.390441894529431,16.282135009765625-8.711242675779431,16.175079345703125-1.412170410159888-.03497314453125-2.668792724611194-1.094940185546875-3.28564453125-2.034942626953125-1.368804931640625-2.08587646484375-.105041503909888-4.2882080078125.076446533199487-8.331207275390625.074615478519263-1.66217041015625-.047821044920056-4.036102294921875-.993621826170056-6.955413818359375-1.24699401855105,1.43524169921875-1.895462036129175,2.7965087890625-2.25480651855105,3.8980712890625-.87420654296875,2.6798095703125-.26385498046875,4.51666259765625-1.605102539069776,5.61785888671875-.646606445308862.5308837890625-1.765472412109375.9061279296875-2.636932373039599.5732421875-2.689392089849207-1.027313232421875-2.880523681640625-8.74462890625-1.190399169929151-14.44586181640625,1.245727539069776-4.2021484375,3.521362304689319-7.33575439453125,5.51821899414972-9.47772216796875-.959533691409888-9.297515869140625-1.919006347659888-18.595001220703125-2.878540039069776-27.89251708984375,2.538314819339575.21441650390625,5.494491577150256.295806884765625,8.774917602539062.07476806640625,3.756378173829944-.25311279296875,7.054260253909888-.843292236328125,9.795013427739832-1.509552001953125.04833984375.833343505859375.10235595703125,1.978546142578125.12744140625,3.340057373046875Z"/>
        <path class="cls-5" d="m88.28194274191992,419.332273721582169c-.408813476560681,1.213012695310681-1.797943115230737,1.745361328121362-2.820068359369543,2.070007324209655-6.800048828130457,2.159973144540345-17.22998046875,1.260009765630457-18.419921875,1.149963378911707-7.27001953125-.669982910161707-9.090087890630457-1.17999267578125-9.85009765625-2.699951171871362-1.030029296880457-2.07000732421875.52001953125-4.740051269540345.910034179680224-5.400024414069776.339965820319776-.580017089840112.730102539069776-1.119995117180224,1.180053710939319-1.609985351558862.260009765630457-3.480041503911707.530029296880457-6.97003173828125.7900390625-10.460021972661707,3.289916992189319,1.02001953125,7.89990234375,2.049987792970569,13.449951171880457,2.140014648441138,4.64990234375.080017089849207,8.609985351558862-.530029296869543,11.619995117180224-1.220031738279431.739990234378638,4.260009765628638,1.489990234378638,8.52001953125,2.22998046875,12.780029296878638.344818115239832.45098876953125,1.366561889650256,1.895385742180224.910034179689319,3.25Z"/>
        <path class="cls-5" d="m137.481891612560503,419.852287465262634c-.760009765621362,1.519958496090112-2.580078125,2.029968261720569-9.849975585930224,2.699951171869543-1.190063476569776.110046386720569-11.619995117191138,1.010009765630457-18.420043945319776-1.149963378898974-.929931640621362-.2900390625-2.409912109371362-.840026855470569-2.829956054680224-2.070007324220569-.390014648441138-1.190002441409888.390014648430224-2.440002441409888.769897460930224-3.0400390625.1201171875-.18994140625.25-.379943847659888.380126953128638-.559997558601026.339965820310681-4.449951171869543.669921875-8.889953613279431,1.010009765621362-13.349975585928405,3.2900390625,1.02001953125,7.89990234375,2.049987792959655,13.4599609375,2.140014648428405,4.640014648439319.080017089851026,8.599975585939319-.530029296869543,11.609985351569776-1.220031738279431.549926757808862,3.130004882810681,1.099975585930224,6.27001953125,1.640014648430224,9.400024414060681.510009765628638.52996826171875.949951171878638,1.109985351569776,1.320068359378638,1.75.389892578121362.659973144540345,1.93994140625,3.330017089849207.909912109371362,5.400024414069776Z"/>
        <path class="cls-11" d="m36.805607501910345,303.003664399038826c1.438564443858922,3.136403121701733,2.788771515559347,6.031483490773098,3.821860137819385,9.324809515976085-2.237140062219623-2.584167023896953-3.725681032819921-5.873009267334055-3.821860137819385-9.324809515976085h0Z"/>
        <path class="cls-11" d="m34.085880939410345,303.003664399038826c1.438471807168753,3.136403309488742,2.78880266879969,6.031482339119975,3.821860130008645,9.324809518104303-2.237248809289667-2.584060935219895-3.725652232969878-5.873037208297319-3.821860130008645-9.324809518104303h0Z"/>
        <path class="cls-11" d="m153.165959064410345,302.226381684195076c-.096186796570692,3.451822000561151-1.584721519129744,6.740582927255673-3.821642771639745,9.324891393784128,1.032793770598801-3.293236650171821,2.383138115108522-6.188658157787359,3.821642771639745-9.324891393784128h0Z"/>
        <path class="cls-11" d="m155.885685626910345,302.226381684195076c-.096222639180269,3.45179567615196-1.584590717660831,6.740688828514976-3.821642831830104,9.324891341364491,1.032762665439805-3.29323772630778,2.383230821569668-6.188657937436801,3.821642831830104-9.324891341364491h0Z"/>
        <path class="cls-11" d="m40.531681720660345,185.354006195913826c6.5984610685191,4.028603705033674,10.602547078829957,12.188995442078522,9.783562805949259,19.872567255300964-2.028313352459008-7.262683914153968-5.235263153630513-13.853311699709593-9.783562805949259-19.872567255300964h0Z"/>
        <path class="cls-11" d="m147.646305744090569,184.952700043570076c-4.548317263330318,6.019394915914745-7.755166816950805,12.60985549326324-9.783245903719944,19.872716138739634-.81914321018121-7.683639761771701,3.184793261969389-15.843863300184239,9.783245903719944-19.872716138739634h0Z"/>
        <path class="cls-11" d="m64.461613361279888,412.952700043571895c4.112954896529118-4.180605097450098,11.829123829489617-4.062240329489214,15.821660455849269.229208918060976-5.268391155979771-1.595987382390376-10.512284262989851-1.699804082280025-15.821660455849269-.229208918060976h0Z"/>
        <path class="cls-11" d="m115.406559650340569,412.952700043571895c4.112896855918734-4.180539086590215,11.829145533478368-4.062272181728986,15.821660445450107.229208968210514-5.268391145411442-1.595987432539914-10.512284252710742-1.699804132429563-15.821660445450107-.229208968210514h0Z"/>
        <path class="cls-6" d="m45.792682628189141,381.449760609792065c5.952392578121362,2.55810546875,15.039306640621362,5.628479003900793,26.465087890621362,6.420166015619543,9.042724609378638.626586914071595,16.704711914069776-.371398925779431,22.299438476569776-1.547790527338293-.109252929691138,1.964965820308862-.218505859380457,3.92987060546875-.327758789069776,5.894836425779431-5.580932617180224,1.154418945308862-12.9384765625,2.100219726558862-21.541381835930224,1.680419921880457-11.45849609375-.559204101571595-20.713500976569776-3.325805664071595-26.973388671880457-5.762268066409888.026000976560681-2.228454589840112.052001953130457-4.456909179691138.078002929689319-6.68536376953125Z"/>
        <path class="cls-6" d="m146.436115245380279,382.194755726983203c-5.515869140630457,2.447692871090112-14.622192382819776,5.649658203119543-26.240478515630457,6.017333984369543-8.861572265619543.280456542970569-16.209106445310681-1.18212890625-21.322387695310681-2.633605957029431.082275390621362,2.110900878909888.164672851560681,4.22186279296875.246948242191138,6.332763671869543,5.68017578125,1.30731201171875,13.66162109375,2.513244628909888,23.182250976558862,1.977783203130457,10.315185546871362-.580139160161707,18.663818359371362-2.992248535161707,24.363159179691138-5.12744140625-.076538085941138-2.18896484375-.152954101569776-4.377868652340112-.2294921875-6.566833496090112Z"/>
        <ellipse class="cls-2" cx="158.518138174439628" cy="101.094151599447287" rx="13.336451697604632" ry="9.805427357852736" transform="translate(32.841655904072141 240.927800704549213) rotate(-80.579647592195158)"/>
        <ellipse class="cls-2" cx="31.225843317757608" cy="103.124182545254826" rx="9.805427357847003" ry="13.336451697606565" transform="translate(-16.457885687682314 6.501657714509719) rotate(-9.420352405165477)"/>
        <path class="cls-2" d="m156.383042650079005,100.903558907091792c-.820007324209655,16.94000244140625-7.710021972648974,28.91998291015625-10.25,33.21002197265625-2.780029296869543,4.699951171875-8.010009765619543,13.3299560546875-18.340026855459655,20.63995361328125-4.599975585939319,3.25-16.630004882819776,11.52001953125-33.47998046875,11.010009765625-14.600036621099207-.45001220703125-24.75-7.239990234375-30.730041503909888-11.239990234375-3.849975585939319-2.58001708984375-12.409973144529431-8.42999267578125-19.260009765630457-19.260009765625-3.5-5.53997802734375-5.739990234369543-11.07000732421875-7.159973144529431-16.32000732421875-2.460021972648974-9.0799560546875-2.5-17.27996826171875-2.469970703119543-23.1199951171875.019958496090112-3.239990234375.029968261720569-6.67999267578125.239990234369543-10.239990234375.570007324220569-9.40997314453125,2.5-19.67999267578125,9.389953613279431-29.42999267578125,16.480041503909888-23.30999755859375,46.930053710941138-23.3800048828125,49.980041503909888-23.34002685546875,2.619995117191138.030029296875,31.42999267578125.8900146484375,49.539978027340112,24.72003173828125,4.210021972659888,5.54998779296875,7.010009765630457,11.22998046875,8.859985351571595,16.52996826171875,3.350036621088293,9.5400390625,3.650024414058862,17.81005859375,3.75,21.760009765625.0400390625,1.739990234375.02001953125,3.44000244140625-.069946289071595,5.08001708984375Z"/>
        <path class="cls-11" d="m87.318058673779888,116.116640473257576c2.466667560409405-7.608908473957854,13.98562703404059-6.982416425091287,16.394883193890564.344143401593101-1.485947647010107-.831997405499351-2.820298232951245-1.518581878155601-4.184556045451245-1.996792327374351-4.233661984098944-1.605620424572408-8.38026640966018-.782406746779088-12.210327148439319,1.65264892578125h0Z"/>
        <path class="cls-11" d="m51.581120197219207,78.983644867788826c4.1794704804106-8.166011601562786,17.349965975181476-9.049497442638312,23.146947741301119-2.220125823045237-7.759052400810106-2.569427410639037-16.145233218800058-2.228744412437663-23.146947741301119,2.220125823045237h0Z"/>
        <path class="cls-11" d="m118.323307697219207,75.804201508413826c6.415890024019973-6.556414794426018,19.254703630869699-3.488951566414471,22.761967029740845,4.753870015052598-6.645875182261079-4.757700244474108-14.755078048239739-6.922832885018579-22.761967029740845-4.753870015052598h0Z"/>
        <g>
          <circle class="cls-1" cx="65.275412390377369" cy="96.2534914520038" r="13.142054048385454"/>
          <path class="cls-11" d="m76.303776447219207,103.401186371695076c-6.47973338248994,10.055356244660288-22.16633702443869,7.640227489437166-25.139748954199604-4.134980699225707-2.071597130448936-7.563672185848191,3.34322971049005-15.933948165187758,11.097336799559343-17.130326722817699,11.967351405761292-2.103500603872817,20.577820698201322,11.245621366857449,14.04241215464026,21.265307422043406h0Zm0,0c6.138705246990867-9.537347863781179-2.656465711308556-21.553066586788191-13.50232621647956-18.734635294806139-6.122581392290158,1.496979652789378-10.254560557079458,7.858497012248336-9.11931073452979,14.062192347073506,1.852087441009644,11.059612079969156,16.425117298369514,14.171914638471208,22.62163695100935,4.672442947732634h0Z"/>
        </g>
        <circle cx="66.384626102087168" cy="99.122700257213182" r="10.272845243177471"/>
        <circle class="cls-1" cx="60.361737415367315" cy="93.675009046964078" r="3.168825423186263"/>
        <path class="cls-7" d="m111.538089732679509,141.981887392921635c-.796661376949487,1.2899169921875-5.579437255859375,9.033935546875-13.79998779296875,9.83258056640625-9.017791748050513.8760986328125-15.494262695310681-7.254486083984375-16.309997558590112-8.31085205078125-.765838623050513-.991729736328125-1.684265136720569-2.6015625-3.521118164069776-5.821197509765625-2.304473876951306-4.039276123046875-4.035736083980737-7.44781494140625-5.17462158203125-9.779296875,1.530883789069776.8153076171875,3.851104736329944,1.89093017578125,6.84698486328125,2.67694091796875.362518310548694.095123291015625,1.046173095708582.2535400390625,2.008728027349207.457244873046875,4.010009765619543.8486328125,9.02001953125,1.511993408203125,14.780029296869543,1.385162353515625,3.966186523441138-.08734130859375,9.187255859380457-.226593017578125,15.599975585941138-2.253265380859375,2.670837402340112-.844085693359375,4.823638916019263-1.78546142578125,6.330596923828125-2.512725830078125-.865539550779431,2.085418701171875-2.179931640628638,5.1334228515625-3.93310546875,8.764801025390625-1.448547363279431,3.000396728515625-2.172821044918237,4.500579833984375-2.827484130859375,5.56060791015625Z"/>
        <path class="cls-10" d="m110.238193492450591,141.351211123390385c-.267425537111194.5224609375-4.133636474611194,7.76385498046875-12.382171630861194,8.598724365234375-6.021728515628638.6094970703125-11.9462890625-2.441619873046875-15.133758544929151-7.796173095703125,1.038421630859375-.330535888671875,2.487854003909888-.75433349609375,4.242034912109375-1.146484375,5.178802490239832-1.157745361328125,9.549530029300513-1.265228271484375,12.303771972659888-1.188934326171875,4.262329101560681.118072509765625,7.970336914060681.7681884765625,10.970123291021082,1.532867431640625Z"/>
        <path class="cls-1" d="m111.968088327699661,131.622940916720836c-.190002441409888.39996337890625-.400024414069776.779968261716931-.630004882819776,1.0999755859375-.380004882810681.530029296875-1.619995117180224,2.0999755859375-7.179992675779431,3.3599853515625-2.669982910150793.610046386716931-6.65997314453125,1.47003173828125-12.080017089840112.77001953125-4.109985351560681-.53997802734375-7.469970703130457-.970031738283069-9.919982910159888-3.679992675783069-.150024414060681-.169982910154431-.349975585930224-.390014648435681-.570007324220569-.660034179685681,4.010009765630457.869995117185681,9.02001953125,1.550048828125,14.780029296880457,1.420043945310681,6.25-.140014648435681,11.54998779296875-1.179992675779431,15.599975585939319-2.309997558591931Z"/>
        <g>
          <circle class="cls-1" cx="125.352918961267733" cy="96.189993329601293" r="13.142054048388001"/>
          <path class="cls-11" d="m114.324528400340569,103.337709809195076c6.196912189179784,9.499906269906205,20.771487152978807,6.385821223357198,22.621661781729927-4.672646175033151,1.134554637179463-6.203124328536433-2.99619784503011-12.565509137501067-9.119407773590865-14.062048602625509-10.847736013049143-2.817157668561777-19.640608842919391,9.197918749347082-13.502254008139062,18.73469477765866h0Zm0,0c-6.534303627640838-10.020928780588292,2.074402998328878-23.368953186634826,14.042735047480164-21.265360666742708,7.752911609390139,1.197400066886985,13.169794620918765,9.566177558872369,11.096956035778931,17.130590768425463-2.973301342830382,11.774317669251104-18.661384671859196,14.190566746250624-25.139691083259095,4.134769898317245h0Z"/>
        </g>
        <circle cx="124.243705249427421" cy="99.059202134759744" r="10.272845243175198"/>
        <circle class="cls-1" cx="130.266593936392383" cy="93.611510924783033" r="3.168825423186263"/>
        <ellipse class="cls-9" cx="55.458705820662544" cy="118.187262416608064" rx="8.816706569711641" ry="3.89331522863904"/>
        <ellipse class="cls-9" cx="135.521033924800122" cy="118.187262416608064" rx="8.816706569710277" ry="3.89331522863904"/>
      </g>
      <path class="cls-3" d="m93.895880100750219,14.236679593679582c-15.576416015630457-.06805419921875-24.227172851569776,3.496612548828125-26.876098632819776,4.665283203125-.000122070310681.000030517578125-6.43310546875,2.838226318359375-11.923583984371362,7.184722900390625-19.30517578125,15.282928466796875-20.970336914058862,48.7132568359375-21.095458984378638,51.974517822265625,5.872192382819776-2.236602783203125,16.512573242189319-7.2593994140625,25.4521484375-18.038238525390625,4.366088867189319-5.26434326171875,7.150634765628638-10.484039306640625,8.942749023439319-14.675140380859375-2.653930664060681,3.76336669921875-6.6328125,10.5970458984375-7.244018554689319,19.731201171875-.308227539060681,4.607177734375.202880859378638,10.358795166015625,1.511474609378638,10.53631591796875,1.463500976560681.198516845703125,2.792114257810681-6.699249267578125,7.232788085941138-15.881256103515625,2.864135742180224-5.922119140625,6.048950195308862-10.464141845703125,8.509155273430224-13.586669921875-1.421264648430224,4.83416748046875-2.728271484371362,11.05023193359375-3.005981445310681,18.337371826171875-.15771484375,4.139251708984375.044067382810681,7.903167724609375.414672851560681,11.20184326171875,6.230224609378638,1.489898681640625,14.626586914069776,2.726654052734375,24.454467773439319,1.992401123046875,4.474853515630457-.334320068359375,8.514526367189319-1.0225830078125,12.051147460939319-1.849334716796875.805908203121362-5.656036376953125,1.254638671871362-12.46331787109375.684814453121362-20.115478515625-.259399414060681-3.48358154296875-.698974609371362-6.72662353515625-1.239624023430224-9.702728271484375,1.598388671869543,1.613006591796875,3.671508789058862,3.836151123046875,5.911987304680224,6.6353759765625,1.50927734375,1.8857421875,3.928833007819776,4.90875244140625,5.980224609378638,8.522613525390625,4.44287109375,7.826934814453125,4.565185546871362,13.8563232421875,5.503173828121362,13.757965087890625,1.001098632819776-.10498046875,1.570068359378638-7.047821044921875.687866210939319-14.216552734375-.901977539060681-7.32958984375-3.106811523439319-13.156707763671875-4.920043945310681-17.05621337890625,2.8994140625,4.843017578125,6.744384765621362,10.41387939453125,11.799072265621362,16.139007568359375,6.370971679689319,7.215911865234375,12.802734375,12.569061279296875,18.191040039069776,16.43310546875.526000976558862-5.844146728515625.75439453125-17.249725341796875-4.5859375-29.961761474609375-2.163452148441138-5.149993896484375-6.68896484375-15.922393798828125-17.732543945319776-23.69427490234375-11.674682617180224-8.215972900390625-23.799072265621362-8.268951416015625-38.703491210930224-8.334075927734375Z"/>
    </g>
  </g>
</svg>