<?xml version="1.0" encoding="UTF-8"?>
<svg id="Layer_2" data-name="Layer 2" xmlns="http://www.w3.org/2000/svg" viewBox="0 0 187.02003 424.23922">
  <defs>
    <style>
      .long-straight .cls-1 {
        fill: #fff;
      }

      .long-straight .cls-2 {
        fill: #hairColor;
        stroke-width: 2.69019px;
      }

      .long-straight .cls-2, .long-straight .cls-3, .long-straight .cls-4, .long-straight .cls-5, .long-straight .cls-6, .long-straight .cls-7, .long-straight .cls-8, .long-straight .cls-9 {
        stroke: #231f20;
      }

      .long-straight .cls-2, .long-straight .cls-3, .long-straight .cls-5, .long-straight .cls-6, .long-straight .cls-8, .long-straight .cls-9 {
        stroke-linecap: round;
      }

      .long-straight .cls-2, .long-straight .cls-3, .long-straight .cls-6, .long-straight .cls-8, .long-straight .cls-9 {
        stroke-linejoin: round;
      }

      .long-straight .cls-3 {
        fill: #2c9148;
      }

      .long-straight .cls-3, .long-straight .cls-4, .long-straight .cls-5, .long-straight .cls-6, .long-straight .cls-7, .long-straight .cls-8 {
        stroke-width: 3px;
      }

      .long-straight .cls-4, .long-straight .cls-5, .long-straight .cls-7 {
        stroke-miterlimit: 10;
      }

      .long-straight .cls-4, .long-straight .cls-9 {
        fill: #skinColor;
      }

      .long-straight .cls-5 {
        fill: #268340;
      }

      .long-straight .cls-6 {
        fill: #266bb5;
      }

      .long-straight .cls-7 {
        fill: #3d2912;
      }

      .long-straight .cls-10 {
        fill: #db8aa1;
      }

      .long-straight .cls-8 {
        fill: #0194c0;
      }

      .long-straight .cls-9 {
        stroke-width: 3.29081px;
      }

      .long-straight .cls-11 {
        fill: #231f20;
      }
    </style>
  </defs>
  <g class="long-straight" id="Layer_1-2" data-name="Layer 1">
    <g>
      <path class="cls-2" d="m185.67493,135.91153c-6.11987,6.28998-14.95996,13.87-26.95996,20.10999-25.90991,13.47998-50.86987,12.54999-62.86987,11.21002-12.94019,1.81-43,3.98999-72.12012-13.29004-9.51001-5.63995-16.86011-12.13-22.37988-18.02997.50977-15.88,2.81982-34.07001,8.55981-53.5C17.06482,58.17154,31.02503,10.91153,64.32508,2.92154c11.03979-2.65002,21.32983-.29004,28.73975,2.45001.06396,11.31177.17065,16.7862.31738,16.78732s.33667-5.47326.57275-16.78732c6.59009-2.96002,16.31006-5.73004,27.70996-2.74005,0,0,.51001.15002,1.03003.29004,33.61011,9.01996,48.48999,59.39996,54.41992,79.48999,5.73999,19.42999,8.05005,37.62,8.56006,53.5Z"/>
      <path class="cls-4" d="m80.25051,161.25761c.98632,2.26358,2.18955,5.88123,2.14013,10.3949-.02175,1.98627-.28161,3.73895-.61147,5.19745,3.28985,1.01324,7.89452,2.04926,13.45222,2.14014,4.64638.07596,8.60527-.53079,11.61783-1.22293-.18892-2.06671-.25531-4.54947,0-7.33759.32404-3.53873,1.07176-6.53711,1.8344-8.86624-9.47771-.1019-18.95541-.20383-28.43311-.30573Z"/>
      <path class="cls-4" d="m57.46735,386.69992c.50955,5.19745,1.0191,10.3949,1.52866,15.59235,3.28986,1.01324,7.89453,2.04926,13.45224,2.14014,4.64636.07593,8.60526-.53082,11.61783-1.22296.61145-5.40125,1.22293-10.80255,1.83438-16.2038-9.47769-.10193-18.95541-.20386-28.43311-.30573Z"/>
      <path class="cls-4" d="m105.75867,386.69992c.50955,5.19745,1.0191,10.3949,1.52866,15.59235,3.28986,1.01324,7.89453,2.04926,13.45224,2.14014,4.64636.07593,8.60526-.53082,11.61783-1.22296.61145-5.40125,1.22293-10.80255,1.83438-16.2038-9.47769-.10193-18.95541-.20386-28.43311-.30573Z"/>
      <path class="cls-8" d="m145.58438,388.66928c-5.39001,2.08002-13.17004,4.41003-22.75989,5.14001-10.3501.77997-18.94006-.59003-24.78003-1.98999-.84363-50.05084-1.67261-75.07959-2.48682-75.0791-.8158.00049-1.61694,25.12732-2.40332,75.3891-5.57983,1.14996-12.93994,2.09998-21.53992,1.67999-11.46008-.56-20.72009-3.33002-26.97998-5.77002.85999-36.13,1.70996-72.26001,2.56995-108.38995.41003.15997.83008.32996,1.26001.5,10.31006,4.04999,27.39001,9.17999,48.86011,8.68994,17.15991-.39996,31.12988-4.25995,40.65991-7.77997.84998-.31,1.65991-.62,2.43994-.92999,1.71997,36.17999,3.44006,72.35999,5.16003,108.53998Z"/>
      <path class="cls-3" d="m175.14432,242.82931c-2.71997,2.63-7.52991,6.59998-14.53992,9.32001-8.88,3.43994-16.71997,3.09998-20.73999,2.64996-.72998-11.04999-1.46008-22.09998-2.19006-33.14996-.00012-.00122-.00049-.00488-.00061-.00488-.00623.00046.70667,9.19574,1.0686,14.76456.58691,9.03091.85815,17.9617,1.29211,35.4603.13647,5.50409.30737,12.99438.46582,21.94098-11.88147,2.34839-26.09924,4.24384-42.19104,4.586-20.58667.43774-38.42883-1.79028-52.58594-4.586.04944-9.21851.2207-16.91943.38208-22.54779.36145-12.60388.65283-22.43726,1.87964-35.30756.34937-3.66507.87134-8.63348,1.6394-14.53564-.88,7-1.65002,14.20001-2.30994,21.60999-.3501,3.98004-.65015,7.90002-.92017,11.77002-2.1499.35999-5.0199.66998-8.3999.54999-2.54004-.08997-7.07007-.47998-12.21997-2.27997-7.86011-2.75-13.18005-7.38-16.05005-10.32001,8.87-19.10999,17.73999-38.22003,26.6001-57.33002.69995-1.01001,1.86987-2.33997,3.66992-3.20996.33008-.15002.64001-.28003.94995-.39001,9.40002-3.23004,14.1001-4.84003,15.09009-5.10999,11.6499-3.19,23.90991-4.25,26.04993-4.43005,2.01001,1.13,6.35999,3.21002,12.25,3.30005,5.91003.08997,10.32996-1.86005,12.38-2.92999,21.12,3.94995,36.38,7.44995,37.5,8.06995,1.54004.85004,2.75,1.95001,2.75,1.95001,1.58008,1.42999,2.53003,2.95001,3.09009,4.01001,8.36987,18.72003,16.72998,37.42999,25.08984,56.15002Z"/>
      <path class="cls-9" d="m27.0813,256.70347c.08241,1.86823.24371,9.72833.85831,13.7175.74715,4.84958,2.00526,9.96744,3.92413,15.32709-.68909.9093-1.74069,2.43936-2.60004,4.4675-.17236.4068-1.4678,3.63779-1.44666,7.45605.0444,8.01572,5.89819,16.77777,9.56488,16.20383,1.34247-.21014,2.18234-1.63895,2.43201-2.06369,1.37051-2.33154.09277-4.56189-.07645-8.33121-.07462-1.66217.04782-4.0361.99362-6.95541,1.24698,1.43524,1.89545,2.79651,2.25479,3.89807.87421,2.67981.26385,4.51666,1.6051,5.61786.64661.53088,1.76547.90613,2.63693.57324,2.68939-1.02731,2.88052-8.74463,1.1904-14.44586-1.24573-4.20215-3.52136-7.33575-5.51822-9.47772.95953-9.29752,1.91901-18.595,2.87854-27.89252-2.23973.34384-4.85977.58374-7.78424.55109-4.35451-.04861-8.09454-.68713-11.02533-1.41608.02408.65295.06113,1.61218.11221,2.77026Z"/>
      <path class="cls-9" d="m158.98757,256.70347c.12442,6.754-.58374,11.93533-.85831,13.7175-.74713,4.84958-2.00525,9.96744-3.92413,15.32709.68909.9093,1.74069,2.43936,2.60004,4.4675.82486,1.94675,1.44525,4.91672,1.44666,7.45605.00369,6.75922-4.39044,16.28214-8.71124,16.17508-1.41217-.03497-2.66879-1.09494-3.28564-2.03494-1.3688-2.08588-.10504-4.28821.07645-8.33121.07462-1.66217-.04782-4.0361-.99362-6.95541-1.24699,1.43524-1.89546,2.79651-2.25481,3.89807-.87421,2.67981-.26385,4.51666-1.6051,5.61786-.64661.53088-1.76547.90613-2.63693.57324-2.68939-1.02731-2.88052-8.74463-1.1904-14.44586,1.24573-4.20215,3.52136-7.33575,5.51822-9.47772-.95953-9.29752-1.91901-18.595-2.87854-27.89252,2.53831.21442,5.49449.29581,8.77492.07477,3.75638-.25311,7.05426-.84329,9.79501-1.50955.04834.83334.10236,1.97855.12744,3.34006Z"/>
      <path class="cls-5" d="m87.20397,419.2403c-.40881,1.21301-1.79794,1.74536-2.82007,2.07001-6.80005,2.15997-17.22998,1.26001-18.41992,1.14996-7.27002-.66998-9.09009-1.17999-9.8501-2.69995-1.03003-2.07001.52002-4.74005.91003-5.40002.33997-.58002.7301-1.12,1.18005-1.60999.26001-3.48004.53003-6.97003.79004-10.46002,3.28992,1.02002,7.8999,2.04999,13.44995,2.14001,4.6499.08002,8.60999-.53003,11.62-1.22003.73999,4.26001,1.48999,8.52002,2.22998,12.78003.34482.45099,1.36656,1.89539.91003,3.25Z"/>
      <path class="cls-5" d="m136.40392,419.76031c-.76001,1.51996-2.58008,2.02997-9.84998,2.69995-1.19006.11005-11.62,1.01001-18.42004-1.14996-.92993-.29004-2.40991-.84003-2.82996-2.07001-.39001-1.19.39001-2.44.7699-3.04004.12012-.18994.25-.37994.38013-.56.33997-4.44995.66992-8.88995,1.01001-13.34998,3.29004,1.02002,7.8999,2.04999,13.45996,2.14001,4.64001.08002,8.59998-.53003,11.60999-1.22003.54993,3.13,1.09998,6.27002,1.64001,9.40002.51001.52997.94995,1.10999,1.32007,1.75.38989.65997,1.93994,3.33002.90991,5.40002Z"/>
      <path class="cls-11" d="m35.7277,302.91168c1.43853,3.13641,2.78868,6.03146,3.82186,9.32481-2.23731-2.58408-3.72563-5.87301-3.82186-9.32481h0Z"/>
      <path class="cls-11" d="m33.00785,302.91168c1.43861,3.13637,2.78882,6.03143,3.82186,9.32481-2.23705-2.58419-3.72568-5.87305-3.82186-9.32481h0Z"/>
      <path class="cls-11" d="m152.08793,302.1344c-.09624,3.45181-1.58453,6.74068-3.82164,9.32489,1.03289-3.29327,2.38317-6.18861,3.82164-9.32489h0Z"/>
      <path class="cls-11" d="m154.80778,302.1344c-.09619,3.45177-1.5848,6.74058-3.82164,9.32489,1.03275-3.2933,2.38309-6.18865,3.82164-9.32489h0Z"/>
      <path class="cls-11" d="m39.45377,185.26203c6.5984,4.02877,10.6024,12.18898,9.78356,19.87257-2.02837-7.26273-5.23528-13.85325-9.78356-19.87257h0Z"/>
      <path class="cls-11" d="m146.5684,184.86075c-4.54839,6.01933-7.75521,12.60989-9.78325,19.87272-.81919-7.68358,3.18467-15.84407,9.78325-19.87272h0Z"/>
      <path class="cls-11" d="m63.3837,412.86069c4.11291-4.18063,11.82918-4.06212,15.82166.22927-5.26837-1.59604-10.51233-1.69974-15.82166-.22927h0Z"/>
      <path class="cls-11" d="m114.32865,412.86069c4.11297-4.18059,11.82911-4.06216,15.82166.22927-5.26837-1.59604-10.51233-1.69974-15.82166-.22927h0Z"/>
      <path class="cls-6" d="m44.71471,381.35779c5.95239,2.55811,15.03931,5.62848,26.46509,6.42017,9.04272.62659,16.70471-.3714,22.29944-1.54779-.10925,1.96497-.21851,3.92987-.32776,5.89484-5.58093,1.15442-12.93848,2.10022-21.54138,1.68042-11.4585-.5592-20.7135-3.32581-26.97339-5.76227.026-2.22845.052-4.45691.078-6.68536Z"/>
      <path class="cls-6" d="m145.35814,382.10278c-5.51587,2.44769-14.62219,5.64966-26.24048,6.01733-8.86157.28046-16.20911-1.18213-21.32239-2.63361.08228,2.1109.16467,4.22186.24695,6.33276,5.68018,1.30731,13.66162,2.51324,23.18225,1.97778,10.31519-.58014,18.66382-2.99225,24.36316-5.12744-.07654-2.18896-.15295-4.37787-.22949-6.56683Z"/>
      <ellipse class="cls-4" cx="157.44017" cy="101.00218" rx="13.33645" ry="9.80543" transform="translate(32.03085 239.78745) rotate(-80.57965)"/>
      <ellipse class="cls-4" cx="30.14787" cy="103.03221" rx="9.80543" ry="13.33645" transform="translate(-16.45737 6.32398) rotate(-9.42035)"/>
      <path class="cls-4" d="m155.30507,100.81159c-.82001,16.94-7.71002,28.91998-10.25,33.21002-2.78003,4.69995-8.01001,13.32996-18.34003,20.63995-4.59998,3.25-16.63,11.52002-33.47998,11.01001-14.60004-.45001-24.75-7.23999-30.73004-11.23999-3.84998-2.58002-12.40997-8.42999-19.26001-19.26001-3.5-5.53998-5.73999-11.07001-7.15997-16.32001-2.46002-9.07996-2.5-17.27997-2.46997-23.12.01996-3.23999.02997-6.67999.23999-10.23999.57001-9.40997,2.5-19.67999,9.38995-29.42999,16.48004-23.31,46.93005-23.38,49.98004-23.34003,2.62.03003,31.42999.89001,49.53998,24.72003,4.21002,5.54999,7.01001,11.22998,8.85999,16.52997,3.35004,9.54004,3.65002,17.81006,3.75,21.76001.04004,1.73999.02002,3.44-.06995,5.08002Z"/>
      <path class="cls-11" d="m86.24015,116.02469c2.46656-7.60896,13.98544-6.98247,16.39488.34411-1.48607-.83197-2.82042-1.51855-4.18456-1.99679-4.23372-1.60552-8.38025-.78252-12.21033,1.65268h0Z"/>
      <path class="cls-11" d="m50.50321,78.89167c4.17939-8.16593,17.34985-9.04953,23.14683-2.22013-7.75895-2.56943-16.14534-2.22873-23.14683,2.22013h0Z"/>
      <path class="cls-11" d="m117.2454,75.71222c6.41587-6.55644,19.2546-3.48893,22.76197,4.75387-6.64586-4.75767-14.75507-6.92281-22.76197-4.75387h0Z"/>
      <g>
        <circle class="cls-1" cx="64.19744" cy="96.16152" r="13.14205"/>
        <path class="cls-11" d="m75.22574,103.30921c-6.47963,10.05546-22.1663,7.64012-25.13975-4.13501-2.07147-7.5637,3.34319-15.93394,11.09746-17.13027,11.96727-2.10354,20.57791,11.24565,14.04229,21.26528h0Zm0,0c6.13892-9.53717-2.6566-21.55307-13.50233-18.73464-6.12257,1.49697-10.25447,7.85859-9.11919,14.06219,1.85188,11.05951,16.42524,14.172,22.62151,4.67244h0Z"/>
      </g>
      <circle cx="65.30665" cy="99.03073" r="10.27285"/>
      <circle class="cls-1" cx="59.28376" cy="93.58304" r="3.16883"/>
      <path class="cls-7" d="m110.46012,141.88991c-.79666,1.28992-5.57944,9.03394-13.79999,9.83258-9.01779.8761-15.49426-7.25449-16.31-8.31085-.76584-.99173-1.68427-2.60156-3.52112-5.8212-2.30447-4.03928-4.03574-7.44781-5.17462-9.7793,1.53088.81531,3.8511,1.89093,6.84698,2.67694.36252.09512,1.04617.25354,2.00873.45724,4.01001.84863,9.02002,1.51199,14.78003,1.38516,3.96619-.08734,9.18726-.22659,15.59998-2.25327,2.67084-.84409,4.82364-1.78546,6.3306-2.51273-.86554,2.08542-2.17993,5.13342-3.93311,8.7648-1.44855,3.0004-2.17282,4.50058-2.82748,5.56061Z"/>
      <path class="cls-10" d="m109.16022,141.25924c-.26743.52246-4.13364,7.76385-12.38217,8.59872-6.02173.6095-11.94629-2.44162-15.13376-7.79617,1.03842-.33054,2.48785-.75433,4.24203-1.14648,5.1788-1.15775,9.54953-1.26523,12.30377-1.18893,4.26233.11807,7.97034.76819,10.97012,1.53287Z"/>
      <path class="cls-1" d="m110.89012,131.53097c-.19.39996-.40002.77997-.63,1.09998-.38.53003-1.62,2.09998-7.17999,3.35999-2.66998.61005-6.65997,1.47003-12.08002.77002-4.10999-.53998-7.46997-.97003-9.91998-3.67999-.15002-.16998-.34998-.39001-.57001-.66003,4.01001.87,9.02002,1.55005,14.78003,1.42004,6.25-.14001,11.54999-1.17999,15.59998-2.31Z"/>
      <g>
        <circle class="cls-1" cx="124.27495" cy="96.09802" r="13.14205"/>
        <path class="cls-11" d="m113.24662,103.2457c6.19667,9.49995,20.77173,6.38583,22.62154-4.67262,1.13462-6.2032-2.99603-12.56551-9.11941-14.06206-10.84764-2.8171-19.64071,9.19792-13.50213,18.73468h0Zm0,0c-6.53461-10.02081,2.07447-23.36891,14.04261-21.26533,7.75292,1.19746,13.17004,9.5661,11.09696,17.13062-2.97299,11.77425-18.66154,14.19056-25.13957,4.13471h0Z"/>
      </g>
      <circle cx="123.16573" cy="98.96723" r="10.27285"/>
      <circle class="cls-1" cx="129.18862" cy="93.51954" r="3.16883"/>
      <ellipse class="cls-10" cx="54.38073" cy="118.09529" rx="8.81671" ry="3.89332"/>
      <ellipse class="cls-10" cx="134.44306" cy="118.09529" rx="8.81671" ry="3.89332"/>
      <path class="cls-2" d="m92.81791,14.14471c-15.57642-.06805-24.22717,3.49661-26.8761,4.66528-.00012.00003-6.43311,2.83823-11.92358,7.18472-19.30518,15.28293-20.97034,48.71326-21.09546,51.97452,5.87219-2.2366,16.51257-7.2594,25.45215-18.03824,4.36609-5.26434,7.15063-10.48404,8.94275-14.67514-2.65393,3.76337-6.63281,10.59705-7.24402,19.7312-.30823,4.60718.20288,10.3588,1.51147,10.53632,1.4635.19852,2.79211-6.69925,7.23279-15.88126,2.86414-5.92212,6.04895-10.46414,8.50916-13.58667-1.42126,4.83417-2.72827,11.05023-3.00598,18.33737-.15771,4.13925.04407,7.90317.41467,11.20184,6.23022,1.4899,14.62659,2.72665,24.45447,1.9924,4.47485-.33432,8.51453-1.02258,12.05115-1.84933.80591-5.65604,1.25464-12.46332.68481-20.11548-.2594-3.48358-.69897-6.72662-1.23962-9.70273,1.59839,1.61301,3.67151,3.83615,5.91199,6.63538,1.50928,1.88574,3.92883,4.90875,5.98022,8.52261,4.44287,7.82693,4.56519,13.85632,5.50317,13.75797,1.0011-.10498,1.57007-7.04782.68787-14.21655-.90198-7.32959-3.10681-13.15671-4.92004-17.05621,2.89941,4.84302,6.74438,10.41388,11.79907,16.13901,6.37097,7.21591,12.80273,12.56906,18.19104,16.43311.526-5.84415.75439-17.24973-4.58594-29.96176-2.16345-5.14999-6.68896-15.92239-17.73254-23.69427-11.67468-8.21597-23.79907-8.26895-38.70349-8.33408Z"/>
    </g>
  </g>
</svg>