<?xml version="1.0" encoding="UTF-8"?>
<svg id="Layer_2" data-name="Layer 2" xmlns="http://www.w3.org/2000/svg" viewBox="0 0 202.551479552930687 431.748042902631823">
  <defs>
    <style>
     .long-curly .cls-1 {
        fill: #fff;
      }

     .long-curly .cls-2 {
        fill: #color;
        stroke-width: 2.69019252061844px;
      }

     .long-curly .cls-2,.long-curly .cls-3,.long-curly .cls-4,.long-curly .cls-5,.long-curly .cls-6,.long-curly .cls-7,.long-curly .cls-8,.long-curly .cls-9 {
        stroke: #231f20;
      }

     .long-curly .cls-2,.long-curly .cls-3,.long-curly .cls-5,.long-curly .cls-6,.long-curly .cls-8,.long-curly .cls-9 {
        stroke-linecap: round;
      }

     .long-curly .cls-2,.long-curly .cls-3,.long-curly .cls-6,.long-curly .cls-8,.long-curly .cls-9 {
        stroke-linejoin: round;
      }

     .long-curly .cls-3 {
        fill: #2c9148;
      }

     .long-curly .cls-3,.long-curly .cls-4,.long-curly .cls-5,.long-curly .cls-6,.long-curly .cls-7,.long-curly .cls-8 {
        stroke-width: 3px;
      }

     .long-curly .cls-4,.long-curly .cls-5,.long-curly .cls-7 {
        stroke-miterlimit: 10;
      }

     .long-curly .cls-4,.long-curly .cls-9 {
        fill: #skinColor;
      }

     .long-curly .cls-5 {
        fill: #268340;
      }

     .long-curly .cls-6 {
        fill: #266bb5;
      }

     .long-curly .cls-7 {
        fill: #3d2912;
      }

     .long-curly .cls-10 {
        fill: #db8aa1;
      }

     .long-curly .cls-8 {
        fill: #0194c0;
      }

     .long-curly .cls-9 {
        stroke-width: 3.29081475734711px;
      }

     .long-curly .cls-11 {
        fill: #231f20;
      }
    </style>
  </defs>
  <g class="long-curly" id="Layer_1-2" data-name="Layer 1">
    <g>
      <path class="cls-2" d="m195.245770398756576,132.121546372064586c5.2099609375,6.4500732421875,4.8798828125,14.630126953125.68994140625,18.570068359375-3.570068359375,3.3699951171875-8.89990234375,2.659912109375-9.8599853515625,2.52001953125-.0999755859375.8798828125-1.260009765625,9.369873046875-8.7100830078125,13.3099365234375-4.06982421875,2.1500244140625-8.0198974609375,1.8800048828125-9.7099609375,1.6600341796875-.119873046875,1.14990234375-.719970703125,6.0799560546875-4.969970703125,9.800048828125-5.3399658203125,4.669921875-11.949951171875,3.510009765625-12.77001953125,3.349853515625-1.14990234375.9901123046875-2.8399658203125,2.280029296875-5.010009765625,3.41015625-3.2999267578125,1.699951171875-6.219970703125,2.159912109375-7.89990234375,2.409912109375-5.239990234375.7900390625-18.050048828125,2.280029296875-35.1201171875,3.75v-1.2099609375c-8.97998046875,1.699951171875-22.08984375,2.599853515625-36.33984375-2.1199951171875-4.9700927734375-1.6500244140625-9.27001953125-3.7100830078125-12.91015625-5.8199462890625-.8199462890625.159912109375-7.429931640625,1.3199462890625-12.77001953125-3.35009765625-4.239990234375-3.719970703125-4.849853515625-8.64990234375-4.9599609375-9.800048828125-1.699951171875.2200927734375-5.639892578125.47998046875-9.7099609375-1.669921875-7.4599609375-3.93994140625-8.6099853515625-12.429931640625-8.719970703125-13.31005859375-.949951171875.1500244140625-6.280029296875.85009765625-9.860107421875-2.510009765625-4.18994140625-3.93994140625-4.5198974609375-12.119873046875.6900634765625-18.5699462890625-.5599365234375-.4000244140625-5.9000244140625-4.3800048828125-5.9599609375-11.469970703125-.0699462890625-7.300048828125,5.5299072265625-11.4200439453125,6.0399169921875-11.780029296875-4.8798828125-3.9100341796875-6.8099365234375-10.22998046875-4.889892578125-15.5899658203125,2.14990234375-6,8.1099853515625-8.02001953125,8.869873046875-8.260009765625-5.3099365234375-4.1400146484375-6.969970703125-11.1600341796875-4.2799072265625-16.510009765625,2.0499267578125-4.10009765625,6.4300537109375-6.739990234375,11.3099365234375-6.969970703125-4.97998046875-3.080078125-6.3199462890625-9.780029296875-3.0599365234375-14.4300537109375,3.2899169921875-4.7000732421875,10.1500244140625-5.6800537109375,14.739990234375-1.9300537109375-3.1099853515625-4.60986328125-2.8599853515625-10.68994140625.5499267578125-14.8798828125,3.14013671875-3.8701171875,8.41015625-5.469970703125,13.300048828125-4.010009765625-.68994140625-5.780029296875,1.550048828125-11.4300537109375,5.9599609375-14.6400146484375,5.77001953125-4.2000732421875,14.400146484375-3.5899658203125,20.2900390625,1.9200439453125,1.699951171875-7.080078125,7.7900390625-12.2200927734375,14.8701171875-12.6201171875,6.5299072265625-.3798828125,12.75,3.360107421875,15.60986328125,9.4200439453125.413330078125,4.3948974609375.82666015625,8.7896728515625,1.239990234375,13.1845703125v-13.6046142578125c3.14013671875-5.780029296875,9.380126953125-9.199951171875,15.860107421875-8.699951171875,6.7999267578125.530029296875,12.64990234375,5.27001953125,14.619873046875,11.9000244140625,5.89013671875-5.5,14.52001953125-6.1199951171875,20.2900390625-1.9200439453125,4.4100341796875,3.2099609375,6.6500244140625,8.8699951171875,5.969970703125,14.6400146484375,4.880126953125-1.4600830078125,10.16015625.1400146484375,13.300048828125,4.010009765625,3.4000244140625,4.2000732421875,3.6500244140625,10.27001953125.5400390625,14.8800048828125,4.5899658203125-3.75,11.449951171875-2.760009765625,14.739990234375,1.929931640625,3.260009765625,4.6500244140625,1.919921875,11.35009765625-3.06005859375,14.4400634765625,4.880126953125.219970703125,9.260009765625,2.8599853515625,11.320068359375,6.969970703125,2.679931640625,5.3399658203125,1.02001953125,12.3699951171875-4.280029296875,16.510009765625.75.239990234375,6.719970703125,2.25,8.8599853515625,8.25,1.9200439453125,5.3599853515625-.0098876953125,11.6800537109375-4.8900146484375,15.5899658203125.510009765625.360107421875,6.110107421875,4.47998046875,6.0400390625,11.7900390625-.06005859375,7.080078125-5.4000244140625,11.06005859375-5.9599609375,11.4599609375Z"/>
      <g>
        <path class="cls-4" d="m89.091886684034762,168.766436213339148c.986320495610926,2.263580322265625,2.189552307130725,5.8812255859375,2.140129089360926,10.3948974609375-.021751403810413,1.98626708984375-.28160858154115,3.73895263671875-.611465454101562,5.19744873046875,3.289848327631262,1.01324462890625,7.894523620601831,2.04925537109375,13.452224731441675,2.14013671875,4.6463775634802.075958251953125,8.60527038573855-.530792236326306,11.617828369138806-1.222930908201306-.188919067379175-2.066711425783069-.255310058590112-4.549468994142444,0-7.337585449220569.324035644529431-3.538726806640625,1.071762084960938-6.537109375,1.834396362310144-8.866241455078125-9.477706909179688-.101898193359375-18.955406188970301-.203826904296875-28.433113098149988-.30572509765625Z"/>
        <path class="cls-4" d="m66.308733150104672,394.208750993019748c.509552001949487,5.19744873046875,1.019104003900793,10.3948974609375,1.528656005859375,15.59234619140625,3.28985595703125,1.01324462890625,7.89453125,2.04925537109375,13.452239990230737,2.14013671875,4.646362304691138.075927734375,8.605255126949487-.53082275390625,11.617828369140625-1.22296142578125.611450195308862-5.4012451171875,1.222930908199487-10.80255126953125,1.834381103519263-16.20379638671875-9.477691650390625-.1019287109375-18.955413818359375-.203857421875-28.43310546875-.30572509765625Z"/>
        <path class="cls-4" d="m114.600054644375632,394.208750993019748c.509552001949487,5.19744873046875,1.019104003909888,10.3948974609375,1.528656005859375,15.59234619140625,3.289855957029431,1.01324462890625,7.89453125,2.04925537109375,13.452239990230737,2.14013671875,4.646362304689319.075927734375,8.605255126958582-.53082275390625,11.617828369138806-1.22296142578125.611450195319776-5.4012451171875,1.222930908210401-10.80255126953125,1.834381103521082-16.20379638671875-9.477691650390625-.1019287109375-18.955413818361194-.203857421875-28.43310546875-.30572509765625Z"/>
        <path class="cls-8" d="m154.425764190524205,396.17810649913099c-5.390014648439319,2.08001708984375-13.170043945308862,4.4100341796875-22.759887695308862,5.1400146484375-10.35009765625.77996826171875-18.940063476560681-.59002685546875-24.780029296880457-1.989990234375-.843627929680224-50.05084228515625-1.672607421869543-75.07958984375-2.48681640625-75.0791015625-.815795898430224.00048828125-1.616943359369543,25.1273193359375-2.4033203125,75.38909912109375-5.579833984369543,1.14996337890625-12.93994140625,2.0999755859375-21.539916992180224,1.67999267578125-11.460083007819776-.55999755859375-20.720092773439319-3.33001708984375-26.97998046875-5.77001953125.859985351560681-36.1300048828125,1.7099609375-72.260009765625,2.569946289060681-108.38995361328125.410034179689319.15997314453125.830078125.3299560546875,1.260009765619543.5,10.31005859375,4.04998779296875,27.390014648439319,9.17999267578125,48.860107421880457,8.68994140625,17.159912109369543-.39996337890625,31.1298828125-4.25994873046875,40.659912109369543-7.77996826171875.849975585939319-.30999755859375,1.659912109380457-.6199951171875,2.43994140625-.92999267578125,1.719970703130457,36.17999267578125,3.440063476569776,72.3599853515625,5.160034179689319,108.53997802734375Z"/>
        <path class="cls-3" d="m183.985700713965343,250.33814067881849c-2.719970703130457,2.6300048828125-7.529907226560681,6.5999755859375-14.539916992191138,9.32000732421875-8.880004882808862,3.43994140625-16.719970703119543,3.0999755859375-20.739990234369543,2.64996337890625-.72998046875-11.04998779296875-1.460083007819776-22.0999755859375-2.190063476569776-33.14996337890625-.000122070310681-.001220703125-.00048828125-.0048828125-.000610351560681-.0048828125-.006225585939319.000457763671875.706665039060681,9.19573974609375,1.068603515630457,14.764556884765625.5869140625,9.030914306640625.858154296869543,17.961700439453125,1.292114257810681,35.460296630859375.136474609369543,5.50408935546875.307373046869543,12.994384765625.4658203125,21.94097900390625-11.881469726560681,2.348388671875-26.099243164060681,4.24383544921875-42.191040039060681,4.58599853515625-20.586669921880457.437744140625-38.428833007819776-1.790283203125-52.5859375-4.58599853515625.049438476560681-9.218505859375.220703125-16.91943359375.382080078119543-22.54779052734375.361450195310681-12.6038818359375.65283203125-22.437255859375,1.879638671880457-35.30755615234375.349365234369543-3.665069580078125.871337890619543-8.63348388671875,1.639404296869543-14.53564453125-.880004882808862,7-1.650024414058862,14.20001220703125-2.309936523439319,21.6099853515625-.35009765625,3.98004150390625-.650146484369543,7.9000244140625-.920166015619543,11.77001953125-2.14990234375.3599853515625-5.019897460941138.66998291015625-8.39990234375.54998779296875-2.5400390625-.0899658203125-7.070068359380457-.47998046875-12.219970703130457-2.27996826171875-7.860107421869543-2.75-13.180053710930224-7.3800048828125-16.050048828119543-10.32000732421875,8.869995117189319-19.1099853515625,17.739990234369543-38.22003173828125,26.60009765625-57.33001708984375.699951171869543-1.010009765625,1.869873046869543-2.3399658203125,3.669921875-3.2099609375.330078125-.1500244140625.640014648439319-.280029296875.949951171869543-.3900146484375,9.400024414069776-3.23004150390625,14.10009765625-4.84002685546875,15.090087890630457-5.1099853515625,11.64990234375-3.19000244140625,23.909912109369543-4.25,26.049926757808862-4.4300537109375,2.010009765630457,1.1300048828125,6.359985351560681,3.21002197265625,12.25,3.300048828125,5.910034179691138.0899658203125,10.329956054691138-1.86004638671875,12.380004882810681-2.92999267578125,21.119995117189319,3.949951171875,36.380004882819776,7.449951171875,37.5,8.0699462890625,1.5400390625.85003662109375,2.75,1.95001220703125,2.75,1.95001220703125,1.580078125,1.42999267578125,2.530029296880457,2.95001220703125,3.090087890630457,4.010009765625,8.369873046869543,18.72003173828125,16.72998046875,37.42999267578125,25.08984375,56.1500244140625Z"/>
        <path class="cls-9" d="m35.922684524684882,264.212294077190563c.082412719719287,1.86822509765625.243713378900793,9.72833251953125.858306884760168,13.717498779296875.747146606450769,4.849578857421875,2.0052642822302,9.967437744140625,3.924133300779431,15.32708740234375-.689086914058862.9093017578125-1.740692138670056,2.439361572265625-2.600036621090112,4.467498779296875-.17236328125.40679931640625-1.467803955079944,3.637786865234375-1.446655273439319,7.4560546875.044403076170056,8.015716552734375,5.898193359380457,16.77777099609375,9.564880371099207,16.203826904296875,1.342468261720569-.21014404296875,2.182342529291418-1.638946533203125,2.432006835930224-2.063690185546875,1.370513916021082-2.33154296875.0927734375-4.5618896484375-.076446533199487-8.331207275390625-.074615478510168-1.66217041015625.047821044920056-4.036102294921875.993621826170056-6.955413818359375,1.246978759769263,1.43524169921875,1.895446777349207,2.7965087890625,2.254791259769263,3.8980712890625.874206542970569,2.6798095703125.263854980470569,4.51666259765625,1.605102539060681,5.61785888671875.646606445310681.5308837890625,1.765472412109375.9061279296875,2.636932373050513.5732421875,2.689392089840112-1.027313232421875,2.880523681638806-8.74462890625,1.190399169920056-14.44586181640625-1.245727539060681-4.2021484375-3.521362304691138-7.33575439453125-5.518218994140625-9.47772216796875.959533691409888-9.297515869140625,1.919006347659888-18.595001220703125,2.878540039060681-27.89251708984375-2.239730834960938.343841552734375-4.859771728510168.583740234375-7.784240722650793.55108642578125-4.354507446289062-.048614501953125-8.094543457040345-.6871337890625-11.025329589849207-1.41607666015625.024078369138806.6529541015625.061126708989832,1.6121826171875.112213134769263,2.770263671875Z"/>
        <path class="cls-9" d="m167.828949783475764,264.212294077190563c.124420166010168,6.753997802734375-.583740234380457,11.935333251953125-.858306884771082,13.717498779296875-.747131347659888,4.849578857421875-2.005249023439319,9.967437744140625-3.924133300779431,15.32708740234375.689086914060681.9093017578125,1.740692138670056,2.439361572265625,2.600036621090112,4.467498779296875.824859619138806,1.946746826171875,1.445251464849207,4.916717529296875,1.446655273439319,7.4560546875.003692626949487,6.75921630859375-4.390441894529431,16.282135009765625-8.711242675779431,16.175079345703125-1.412170410159888-.03497314453125-2.668792724611194-1.094940185546875-3.28564453125-2.034942626953125-1.368804931640625-2.08587646484375-.105041503909888-4.2882080078125.076446533199487-8.331207275390625.074615478521082-1.66217041015625-.047821044920056-4.036102294921875-.993621826170056-6.955413818359375-1.246994018549231,1.43524169921875-1.895462036129175,2.7965087890625-2.254806518549231,3.8980712890625-.874206542970569,2.6798095703125-.263854980470569,4.51666259765625-1.605102539069776,5.61785888671875-.646606445310681.5308837890625-1.765472412111194.9061279296875-2.636932373041418.5732421875-2.689392089849207-1.027313232421875-2.880523681638806-8.74462890625-1.190399169929151-14.44586181640625,1.245727539069776-4.2021484375,3.521362304689319-7.33575439453125,5.51821899414972-9.47772216796875-.959533691409888-9.297515869140625-1.919006347659888-18.595001220703125-2.878540039069776-27.89251708984375,2.538314819339575.21441650390625,5.494491577150256.295806884765625,8.774917602540881.07476806640625,3.756378173828125-.25311279296875,7.054260253909888-.843292236328125,9.795013427739832-1.509552001953125.04833984375.833343505859375.102355957029431,1.978546142578125.12744140625,3.340057373046875Z"/>
        <path class="cls-5" d="m96.045349929954682,426.749128793987438c-.408813476558862,1.2130126953125-1.797943115228918,1.745361328125-2.820068359369543,2.07000732421875-6.800048828130457,2.15997314453125-17.22998046875,1.260009765625-18.419921875,1.14996337890625-7.27001953125-.66998291015625-9.090087890630457-1.17999267578125-9.85009765625-2.699951171875-1.030029296880457-2.07000732421875.52001953125-4.74005126953125.910034179680224-5.4000244140625.339965820319776-.58001708984375.730102539069776-1.1199951171875,1.180053710939319-1.6099853515625.260009765630457-3.48004150390625.530029296880457-6.97003173828125.7900390625-10.46002197265625,3.289916992191138,1.02001953125,7.89990234375,2.04998779296875,13.449951171880457,2.1400146484375,4.64990234375.08001708984375,8.609985351560681-.530029296875,11.619995117180224-1.22003173828125.739990234380457,4.260009765625,1.489990234380457,8.52001953125,2.22998046875,12.780029296875.344818115239832.45098876953125,1.366561889650256,1.8953857421875.910034179689319,3.25Z"/>
        <path class="cls-5" d="m145.245298800595265,427.269142537667904c-.760009765619543,1.51995849609375-2.580078125,2.02996826171875-9.849975585930224,2.699951171875-1.190063476569776.11004638671875-11.619995117189319,1.010009765625-18.420043945319776-1.14996337890625-.929931640619543-.2900390625-2.409912109369543-.84002685546875-2.829956054680224-2.07000732421875-.390014648439319-1.19000244140625.390014648430224-2.44000244140625.769897460930224-3.0400390625.1201171875-.18994140625.25-.37994384765625.380126953130457-.55999755859375.339965820308862-4.449951171875.669921875-8.88995361328125,1.010009765619543-13.3499755859375,3.2900390625,1.02001953125,7.89990234375,2.04998779296875,13.4599609375,2.1400146484375,4.640014648439319.08001708984375,8.599975585939319-.530029296875,11.609985351569776-1.22003173828125.549926757810681,3.1300048828125,1.099975585930224,6.27001953125,1.640014648430224,9.4000244140625.510009765630457.52996826171875.949951171880457,1.1099853515625,1.320068359380457,1.75.389892578119543.65997314453125,1.93994140625,3.33001708984375.909912109369543,5.4000244140625Z"/>
        <path class="cls-11" d="m44.569032964220241,310.420531940745605c1.438571322019925,3.13633393985765,2.788747947341108,6.03147178794643,3.821860023337649,9.324809561392613-2.237145278757453-2.584179524195861-3.725664810774106-5.873034018939506-3.821860023337649-9.324809561392613h0Z"/>
        <path class="cls-11" d="m41.849245366563991,310.420531940745605c1.438582871269318,3.136332322570524,2.788824598015708,6.031474866260396,3.821860113219373,9.324809524681768-2.23713352030245-2.584179297326045-3.725669381108673-5.873034981274031-3.821860113219373-9.324809524681768h0Z"/>
        <path class="cls-11" d="m160.929384526720241,309.643249225901855c-.096197201179166,3.451782543828813-1.584798739650068,6.740544249892992-3.82164280633333,9.324891353033308,1.032747761992141-3.293280668995067,2.383092390986349-6.18869941140656,3.82164280633333-9.324891353033308h0Z"/>
        <path class="cls-11" d="m163.649111089220241,309.643249225901855c-.096189663920086,3.451853977483552-1.584670045020175,6.74053020417341-3.821642831831923,9.324891359410685,1.032793830252558-3.293236615616479,2.383138175695422-6.188658123544883,3.821642831831923-9.324891359410685h0Z"/>
        <path class="cls-11" d="m48.295107182970241,192.770873737620605c6.598438511218774,4.028644285970586,10.602505870367168,12.189005020616605,9.783562788663403,19.872567278249335-2.028336462692096-7.26268364198404-5.235201497882372-13.853322610473697-9.783562788663403-19.872567278249335h0Z"/>
        <path class="cls-11" d="m155.409731206407741,192.369567585276855c-4.548318960285542,6.019305284426082-7.755164009238797,12.609900613886566-9.783245934913793,19.872716120911718-.819130940060859-7.683615086400096,3.184728091797297-15.843910380190209,9.783245934913793-19.872716120911718h0Z"/>
        <path class="cls-11" d="m72.225038823595241,420.369567585276855c4.112933426054951-4.18066614410418,11.829252795147113-4.062237139285571,15.821660438034087.229270026176891-5.268372079301116-1.596105692604397-10.512286501983908-1.69982058896494-15.821660438034087-.229270026176891h0Z"/>
        <path class="cls-11" d="m123.169985112657741,420.369567585276855c4.112953764652048-4.180632638370298,11.829198822226317-4.062307115955264,15.821660428990072.229269977693548-5.268372070095211-1.596105644121053-10.512286493058127-1.699820540481596-15.821660428990072-.229269977693548h0Z"/>
        <path class="cls-6" d="m53.556089816225722,388.866615682199154c5.952392578119543,2.55810546875,15.039306640619543,5.62847900390625,26.465087890619543,6.420166015625,9.042724609380457.6265869140625,16.704711914069776-.37139892578125,22.299438476569776-1.54779052734375-.109252929689319,1.9649658203125-.218505859380457,3.92987060546875-.327758789069776,5.89483642578125-5.580932617180224,1.1544189453125-12.9384765625,2.1002197265625-21.541381835930224,1.680419921875-11.45849609375-.5592041015625-20.713500976569776-3.3258056640625-26.973388671880457-5.76226806640625.026000976560681-2.22845458984375.052001953130457-4.4569091796875.078002929691138-6.68536376953125Z"/>
        <path class="cls-6" d="m154.199522433415041,389.611610799386654c-5.515869140630457,2.44769287109375-14.622192382819776,5.649658203125-26.240478515630457,6.017333984375-8.861572265619543.28045654296875-16.209106445308862-1.18212890625-21.322387695308862-2.63360595703125.082275390619543,2.11090087890625.164672851558862,4.22186279296875.246948242189319,6.332763671875,5.68017578125,1.30731201171875,13.66162109375,2.51324462890625,23.182250976560681,1.977783203125,10.315185546869543-.58013916015625,18.663818359369543-2.99224853515625,24.363159179689319-5.12744140625-.076538085939319-2.18896484375-.152954101569776-4.37786865234375-.2294921875-6.56683349609375Z"/>
        <ellipse class="cls-4" cx="166.281545362475299" cy="108.511006671858013" rx="13.336451697604481" ry="9.805427357851839" transform="translate(32.017544579571819 254.789402174548144) rotate(-80.579647592196167)"/>
        <ellipse class="cls-4" cx="38.98925050579237" cy="110.541037617665552" rx="9.805427357847003" ry="13.336451697606565" transform="translate(-17.567153152327023 7.87236733381782) rotate(-9.420352405165477)"/>
        <path class="cls-4" d="m164.146449838115586,108.320413979502518c-.820007324209655,16.94000244140625-7.710021972650793,28.91998291015625-10.25,33.21002197265625-2.780029296871362,4.699951171875-8.010009765621362,13.3299560546875-18.340026855459655,20.63995361328125-4.599975585941138,3.25-16.630004882821595,11.52001953125-33.47998046875,11.010009765625-14.600036621101026-.45001220703125-24.75-7.239990234375-30.730041503911707-11.239990234375-3.849975585939319-2.58001708984375-12.409973144529431-8.42999267578125-19.260009765628638-19.260009765625-3.5-5.53997802734375-5.739990234371362-11.07000732421875-7.15997314453125-16.32000732421875-2.460021972648974-9.0799560546875-2.5-17.27996826171875-2.469970703119543-23.1199951171875.019958496090112-3.239990234375.029968261720569-6.67999267578125.239990234369543-10.239990234375.570007324220569-9.40997314453125,2.5-19.67999267578125,9.38995361328125-29.42999267578125,16.480041503909888-23.30999755859375,46.930053710939319-23.3800048828125,49.980041503909888-23.34002685546875,2.619995117189319.030029296875,31.429992675779431.8900146484375,49.539978027340112,24.72003173828125,4.210021972659888,5.54998779296875,7.010009765628638,11.22998046875,8.859985351569776,16.52996826171875,3.350036621090112,9.5400390625,3.650024414058862,17.81005859375,3.75,21.760009765625.0400390625,1.739990234375.02001953125,3.44000244140625-.069946289069776,5.08001708984375Z"/>
        <path class="cls-11" d="m95.081484136095241,123.53353853254248c2.466614935974576-7.608978517335345,13.985622938451343-6.982464763852477,16.394883186600055.344112884384231-1.485947639725055-.831997405868606-2.820298225662555-1.518581878524856-4.184556038162555-1.996792327743606-4.233519515899388-1.605571614691144-8.380347342736059-.782533800131205-12.2103271484375,1.652679443359375h0Z"/>
        <path class="cls-11" d="m59.344545659532741,86.400512409495605c4.179451442763821-8.166028713563719,17.349917034562168-9.049487258313093,23.146947703085971-2.220125843214191-7.759069993495359-2.569409366145919-16.145244937313691-2.228822554230646-23.146947703085971,2.220125843214191h0Z"/>
        <path class="cls-11" d="m126.086733159532741,83.221069050120605c6.415888512867241-6.556487925858164,19.254582277178997-3.488925169938739,22.761967015238042,4.753839486875222-6.645918482085108-4.757663215918001-14.755017199817303-6.922819604635151-22.761967015238042-4.753839486875222h0Z"/>
        <g>
          <circle class="cls-1" cx="73.038819578412586" cy="103.670346524414526" r="13.142054048385772"/>
          <path class="cls-11" d="m84.067201909532741,110.81802339582373c-6.479771609252566,10.055446510539696-22.166278107493781,7.640155009785303-25.139809984597377-4.134980704568079-2.071526561003338-7.563671926040115,3.343214720589458-15.933889042946248,11.09739778403673-17.130296225590428,11.967370556354581-2.103492095171532,20.577739385542372,11.245580593926206,14.042412200560648,21.265276930158507h0Zm0,0c6.13861727344738-9.537191083583821-2.656539264773528-21.553024155882667-13.502326195988644-18.734635257613263-6.122605684044174,1.497008424994419-10.254588289402818,7.858504041860215-9.119310766898707,14.062222807582657,1.852097850065547,11.059595181055556,16.425156634841187,14.171946439604653,22.621636962887351,4.672412450030606h0Z"/>
        </g>
        <circle cx="74.148033290122385" cy="106.539555329623909" r="10.272845243177697"/>
        <circle class="cls-1" cx="68.125144603402987" cy="101.091864119375714" r="3.168825423186262"/>
        <path class="cls-7" d="m119.301496920714271,149.398742465332361c-.796661376949487,1.2899169921875-5.579437255859375,9.033935546875-13.79998779296875,9.83258056640625-9.017791748050513.8760986328125-15.494262695310681-7.254486083984375-16.309997558590112-8.31085205078125-.765838623050513-.991729736328125-1.684265136720569-2.6015625-3.521118164069776-5.821197509765625-2.304473876951306-4.039276123046875-4.035736083980737-7.44781494140625-5.17462158203125-9.779296875,1.530883789069776.8153076171875,3.851104736329944,1.89093017578125,6.84698486328125,2.67694091796875.362518310548694.095123291015625,1.046173095708582.2535400390625,2.008728027349207.457244873046875,4.010009765619543.8486328125,9.02001953125,1.511993408203125,14.780029296869543,1.385162353515625,3.966186523441138-.08734130859375,9.187255859380457-.226593017578125,15.599975585941138-2.253265380859375,2.670837402340112-.844085693359375,4.823638916019263-1.78546142578125,6.330596923829944-2.512725830078125-.86553955078125,2.085418701171875-2.179931640630457,5.1334228515625-3.93310546875,8.764801025390625-1.44854736328125,3.000396728515625-2.172821044920056,4.500579833984375-2.827484130861194,5.56060791015625Z"/>
        <path class="cls-10" d="m118.001600680485353,148.768066195801111c-.267425537111194.5224609375-4.133636474611194,7.76385498046875-12.382171630861194,8.598724365234375-6.021728515628638.6094970703125-11.9462890625-2.441619873046875-15.133758544929151-7.796173095703125,1.038421630859375-.330535888671875,2.487854003909888-.75433349609375,4.242034912109375-1.146484375,5.178802490239832-1.157745361328125,9.549530029300513-1.265228271484375,12.303771972659888-1.188934326171875,4.262329101560681.118072509765625,7.970336914060681.7681884765625,10.970123291021082,1.532867431640625Z"/>
        <path class="cls-1" d="m119.731495515734423,139.039795989131562c-.190002441409888.39996337890625-.400024414069776.779968261716931-.630004882819776,1.0999755859375-.380004882808862.530029296875-1.619995117180224,2.0999755859375-7.179992675779431,3.3599853515625-2.669982910150793.610046386716931-6.659973144529431,1.47003173828125-12.080017089840112.77001953125-4.109985351560681-.53997802734375-7.469970703130457-.970031738283069-9.919982910159888-3.679992675783069-.150024414060681-.169982910154431-.349975585930224-.390014648435681-.570007324220569-.660034179685681,4.010009765630457.869995117185681,9.02001953125,1.550048828125,14.780029296880457,1.420043945310681,6.25-.140014648435681,11.549987792970569-1.179992675779431,15.599975585939319-2.309997558591931Z"/>
        <g>
          <circle class="cls-1" cx="133.116326149302495" cy="103.60684840201202" r="13.142054048388001"/>
          <path class="cls-11" d="m122.087953862657741,110.75454683332373c6.196832440204162,9.499932250751954,20.77153470583653,6.385798171535498,22.621661770223-4.672646164804974,1.13453820833638-6.203177043265896-2.996173960274973-12.565508300493093-9.119529823396078-14.062048595002125-10.847727905293141-2.817055447696475-19.640579322289341,9.19790702161481-13.502131946826921,18.734694759807098h0Zm0,0c-6.534308957998292-10.020933858455464,2.074413802614799-23.368914940976538,14.042735050392366-21.265330152495153,7.752906623371018,1.19735980965379,13.169743377920895,9.566168812683827,11.096955932571291,17.130590784368906-2.97331579058482,11.774320019438164-18.661379258255693,14.19055337206737-25.139690982963657,4.134739368126247h0Z"/>
        </g>
        <circle cx="132.007112437462183" cy="106.47605720717047" r="10.272845243175198"/>
        <circle class="cls-1" cx="138.030001124427599" cy="101.02836599719376" r="3.168825423186945"/>
        <ellipse class="cls-10" cx="63.222113008697306" cy="125.60411748901879" rx="8.816706569711641" ry="3.89331522863904"/>
        <ellipse class="cls-10" cx="143.284441112834884" cy="125.60411748901879" rx="8.816706569710277" ry="3.89331522863904"/>
      </g>
      <path class="cls-2" d="m162.815447015509562,83.645643510742957c-1.920043945310681-.239990234380457-6.699951171871362-1.089965820310681-11.179931640621362-4.869995117191138-5.110107421878638-4.319946289058862-6.590087890628638-9.739990234369543-7.010009765628638-11.559936523439319-1.930053710941138,1.68994140625-4.680053710941138,2.049926757819776-6.880126953121362.919921875-2.469970703128638-1.280029296869543-3.77001953125-4.18994140625-3.069946289069776-7.02001953125-.920043945308862.239990234380457-4.900024414058862,1.160034179689319-9.099975585930224-1.049926757810681-4.0400390625-2.119995117189319-5.550048828128638-5.710083007808862-5.910034179689319-6.630004882808862-1.029907226560681.099975585939319-5.779907226560681.47998046875-9.989990234380457-2.869995117191138-3.119995117180224-2.480102539058862-4.22998046875-5.650024414058862-4.579956054680224-6.880004882808862-.340087890628638,1.030029296869543-1.02001953125,2.780029296869543-2.3701171875,4.56005859375-.639892578128638.869873046869543-1.449951171878638,1.739990234369543-2.449951171878638,2.549926757808862-.109985351560681.089965820310681-.2099609375.170043945310681-.320068359371362.239990234380457-5.759887695319776,4.410034179680224-12.75,2.760009765619543-13.64990234375,2.530029296869543-.9599609375,3.880004882810681-3.869995117189319,6.759887695310681-7.35009765625,7.319946289060681-2.9599609375.47998046875-5.31982421875-.889892578119543-6.059936523439319-1.369995117180224-.259887695310681,1.059936523430224-1.440063476560681,5.260009765619543-5.539916992189319,7.930053710930224-5.910034179691138,3.839965820319776-12.460083007810681,1-12.940063476560681.780029296880457.039916992189319,1.449951171869543,0,6.529907226558862-3.670043945310681,11.239990234369543-3.219970703128638,4.1298828125-7.35986328125,5.569946289069776-8.849975585939319,6.02001953125-.180053710939319-3.800048828119543-.940063476560681-28.739990234369543,18.710083007810681-47.39013671875,15.119873046878638-14.349853515619543,33.049926757808862-16.169921875,39.969970703128638-16.409912109369543.449951171871362-.02001953125.859985351560681-.030029296880457,1.219970703121362-.030029296880457.119995117189319,0,.25,0,.390014648439319-.010009765619543,5.969970703119543-.030029296880457,28.420043945310681.760009765619543,45.25,19.199951171869543,15.9599609375,17.5,15.559936523439319,38.489990234380457,15.380004882810681,42.800048828130457Z"/>
    </g>
  </g>
</svg>