<?xml version="1.0" encoding="UTF-8"?>
<svg id="Layer_2" data-name="Layer 2" xmlns="http://www.w3.org/2000/svg" viewBox="0 0 187.02003 180.49654">
  <defs>
    <style>
      .long-straight-hair .cls-1 {
        fill: #hairColor;
        stroke-linecap: round;
        stroke-linejoin: round;
        stroke-width: 2.69019px;
      }

      .long-straight-hair .cls-1, .long-straight-hair .cls-2 {
        stroke: #231f20;
      }

      .long-straight-hair .cls-2 {
        fill: #skinColor;
        stroke-miterlimit: 10;
        stroke-width: 3px;
      }
    </style>
  </defs>
  <g class="long-straight-hair" id="Layer_1-2" data-name="Layer 1">
    <path class="cls-1" d="m185.67493,135.91153c-6.11987,6.28998-14.95996,13.87-26.95996,20.10999-25.90991,13.47998-50.86987,12.54999-62.86987,11.21002-12.94019,1.81-43,3.98999-72.12012-13.29004-9.51001-5.63995-16.86011-12.13-22.37988-18.02997.50977-15.88,2.81982-34.07001,8.55981-53.5C17.06482,58.17154,31.02503,10.91153,64.32508,2.92154c11.03979-2.65002,21.32983-.29004,28.73975,2.45001.06396,11.31177.17065,16.7862.31738,16.78732s.33667-5.47326.57275-16.78732c6.59009-2.96002,16.31006-5.73004,27.70996-2.74005,0,0,.51001.15002,1.03003.29004,33.61011,9.01996,48.48999,59.39996,54.41992,79.48999,5.73999,19.42999,8.05005,37.62,8.56006,53.5Z"/>
    <path class="cls-2" d="m80.25051,161.25761c.98632,2.26358,2.18955,5.88123,2.14013,10.3949-.02175,1.98627-.28161,3.73895-.61147,5.19745,3.28985,1.01324,7.89452,2.04926,13.45222,2.14014,4.64638.07596,8.60527-.53079,11.61783-1.22293-.18892-2.06671-.25531-4.54947,0-7.33759.32404-3.53873,1.07176-6.53711,1.8344-8.86624-9.47771-.1019-18.95541-.20383-28.43311-.30573Z"/>
    <ellipse class="cls-2" cx="157.44017" cy="101.00218" rx="13.33645" ry="9.80543" transform="translate(32.03085 239.78745) rotate(-80.57965)"/>
    <ellipse class="cls-2" cx="30.14787" cy="103.03221" rx="9.80543" ry="13.33645" transform="translate(-16.45737 6.32398) rotate(-9.42035)"/>
    <path class="cls-2" d="m155.30507,100.81159c-.82001,16.94-7.71002,28.91998-10.25,33.21002-2.78003,4.69995-8.01001,13.32996-18.34003,20.63995-4.59998,3.25-16.63,11.52002-33.47998,11.01001-14.60004-.45001-24.75-7.23999-30.73004-11.23999-3.84998-2.58002-12.40997-8.42999-19.26001-19.26001-3.5-5.53998-5.73999-11.07001-7.15997-16.32001-2.46002-9.07996-2.5-17.27997-2.46997-23.12.01996-3.23999.02997-6.67999.23999-10.23999.57001-9.40997,2.5-19.67999,9.38995-29.42999,16.48004-23.31,46.93005-23.38,49.98004-23.34003,2.62.03003,31.42999.89001,49.53998,24.72003,4.21002,5.54999,7.01001,11.22998,8.85999,16.52997,3.35004,9.54004,3.65002,17.81006,3.75,21.76001.04004,1.73999.02002,3.44-.06995,5.08002Z"/>
    <path class="cls-1" d="m92.81791,14.14471c-15.57642-.06805-24.22717,3.49661-26.8761,4.66528-.00012.00003-6.43311,2.83823-11.92358,7.18472-19.30518,15.28293-20.97034,48.71326-21.09546,51.97452,5.87219-2.2366,16.51257-7.2594,25.45215-18.03824,4.36609-5.26434,7.15063-10.48404,8.94275-14.67514-2.65393,3.76337-6.63281,10.59705-7.24402,19.7312-.30823,4.60718.20288,10.3588,1.51147,10.53632,1.4635.19852,2.79211-6.69925,7.23279-15.88126,2.86414-5.92212,6.04895-10.46414,8.50916-13.58667-1.42126,4.83417-2.72827,11.05023-3.00598,18.33737-.15771,4.13925.04407,7.90317.41467,11.20184,6.23022,1.4899,14.62659,2.72665,24.45447,1.9924,4.47485-.33432,8.51453-1.02258,12.05115-1.84933.80591-5.65604,1.25464-12.46332.68481-20.11548-.2594-3.48358-.69897-6.72662-1.23962-9.70273,1.59839,1.61301,3.67151,3.83615,5.91199,6.63538,1.50928,1.88574,3.92883,4.90875,5.98022,8.52261,4.44287,7.82693,4.56519,13.85632,5.50317,13.75797,1.0011-.10498,1.57007-7.04782.68787-14.21655-.90198-7.32959-3.10681-13.15671-4.92004-17.05621,2.89941,4.84302,6.74438,10.41388,11.79907,16.13901,6.37097,7.21591,12.80273,12.56906,18.19104,16.43311.526-5.84415.75439-17.24973-4.58594-29.96176-2.16345-5.14999-6.68896-15.92239-17.73254-23.69427-11.67468-8.21597-23.79907-8.26895-38.70349-8.33408Z"/>
  </g>
</svg>