<?xml version="1.0" encoding="UTF-8"?>
<svg id="Layer_2" data-name="Layer 2" xmlns="http://www.w3.org/2000/svg" viewBox="0 0 150.12946 172.22156">
  <defs>
    <style>
      .short-straight-hair .cls-1 {
        fill: #color;
        stroke-linecap: round;
        stroke-linejoin: round;
        stroke-width: 2.69019px;
      }

      .short-straight-hair .cls-1, .short-straight-hair .cls-2 {
        stroke: #231f20;
      }

      .short-straight-hair .cls-2 {
        fill: #skinColor;
        stroke-miterlimit: 10;
        stroke-width: 3px;
      }
    </style>
  </defs>
  <g class="short-straight-hair" id="Layer_1-2" data-name="Layer 1">
    <path class="cls-2" d="m61.52122,152.98263c.98632,2.26358,2.18955,5.88123,2.14013,10.3949-.02175,1.98627-.28161,3.73895-.61147,5.19745,3.28985,1.01324,7.89452,2.04926,13.45222,2.14014,4.64638.07596,8.60527-.53079,11.61783-1.22293-.18892-2.06671-.25531-4.54947,0-7.33759.32404-3.53873,1.07176-6.53711,1.8344-8.86624-9.47771-.1019-18.95541-.20383-28.43311-.30573Z"/>
    <ellipse class="cls-2" cx="138.71088" cy="92.7272" rx="13.33645" ry="9.80543" transform="translate(24.53049 214.39018) rotate(-80.57965)"/>
    <ellipse class="cls-2" cx="11.41858" cy="94.75723" rx="9.80543" ry="13.33645" transform="translate(-15.35553 3.14684) rotate(-9.42035)"/>
    <path class="cls-2" d="m136.57578,92.53661c-.82001,16.94-7.71002,28.91998-10.25,33.21002-2.78003,4.69995-8.01001,13.32996-18.34003,20.63995-4.59998,3.25-16.63,11.52002-33.47998,11.01001-14.60004-.45001-24.75-7.23999-30.73004-11.23999-3.84998-2.58002-12.40997-8.42999-19.26001-19.26001-3.5-5.53998-5.73999-11.07001-7.15997-16.32001-2.46002-9.07996-2.5-17.27997-2.46997-23.12.01996-3.23999.02997-6.67999.23999-10.23999.57001-9.40997,2.5-19.67999,9.38995-29.42999,16.48004-23.31,46.93005-23.38,49.98004-23.34003,2.62.03003,31.42999.89001,49.53998,24.72003,4.21002,5.54999,7.01001,11.22998,8.85999,16.52997,3.35004,9.54004,3.65002,17.81006,3.75,21.76001.04004,1.73999.02002,3.44-.06995,5.08002Z"/>
    <path class="cls-1" d="m136.46298,91.78033c.08997-1.64001.10999-3.34003.06995-5.08002-.09998-3.94995-.40002-12.21997-3.75-21.76001-4.76001,1.22003-10.26001,1.77002-16.07996.59003-16.36011-3.33002-25.83008-18.40997-27.73999-16.96997-.94006.70996.40991,5.04999,9.1499,19.65997-4.01001-.17999-21.27002-1.39001-32.84998-15.15002-3.92993-4.66998-6.12-9.5-7.39001-13.28998-2.42993,2.32001-5.71997,5.91998-8.51001,10.91998-6.07996,10.89001-5.59998,20.91003-7.02991,20.87-1.12-.03998-2.46008-6.32996-1.83008-12.63995.93005-9.32001,5.90002-16.03003,8.85999-19.40002-2.72998,2.89001-6.75,7.44-11,13.52002-5.79993,8.29999-6.92993,12.15997-11.62,16.52997-2.45996,2.28003-6.14001,4.94-11.72998,6.88-.20996,3.56-.21997,7-.23999,10.23999-.03003,5.84003.01001,14.04004,2.46997,23.12-2.68994-6.70996-6.15991-18.31995-10.97998-39.47998-1.73999-7.62-2.31995-10.65002-1.83997-14.97998,1.64001-14.69,16.12-23.31,14.67993-25.22003-.53992-.71997-3.06995-.28998-11.19995,4.09003,6.36438-9.24655,13.2041-15.17999,17.98462-18.72522C32.23165,10.80035,48.10275-.96964,67.39071,1.74716c3.81604.53751,6.88879,1.51852,8.94263,2.293,4.66943-1.88339,8.52771-2.38303,11.00647-2.52231,16.90454-.94998,31.33032,11.39258,38.52905,17.55176.36621.31329.69397.60065.69409.60074,6.28992,5.40997,10.44995,10.97998,13,14.89996-3.57007-2.44-7.14001-4.88995-10.70007-7.33997,2.26001,2.04999,5.21008,5.13,7.79004,9.40997,9.45996,15.63,7.90002,37.12-.18994,55.14001Z"/>
  </g>
</svg>