<?xml version="1.0" encoding="UTF-8"?>
<svg id="Layer_2" data-name="Layer 2" xmlns="http://www.w3.org/2000/svg" viewBox="0 0 168.419921875 422.456064544800029">
  <defs>
    <style>
      .short-curly .cls-1 {
        fill: #fff;
      }

      .short-curly .cls-2 {
        fill: #color;
        stroke-width: 2.69019252061844px;
      }

      .short-curly .cls-2, .short-curly .cls-3, .short-curly .cls-4, .short-curly .cls-5, .short-curly .cls-6, .short-curly .cls-7, .short-curly .cls-8, .short-curly .cls-9 {
        stroke: #231f20;
      }

      .short-curly .cls-2, .short-curly .cls-3, .short-curly .cls-5, .short-curly .cls-6, .short-curly .cls-8, .short-curly .cls-9 {
        stroke-linecap: round;
      }

      .short-curly .cls-2, .short-curlycolor .cls-3, .short-curly .cls-6, .short-curly .cls-8, .short-curly .cls-9 {
        stroke-linejoin: round;
      }

      .short-curly .cls-3 {
        fill: #2c9148;
      }

      .short-curly .cls-3, .short-curly .cls-4, .short-curly .cls-5, .short-curly .cls-6, .short-curly .cls-7, .short-curly .cls-8 {
        stroke-width: 3px;
      }

      .short-curly .cls-4, .short-curly .cls-5, .short-curly .cls-7 {
        stroke-miterlimit: 10;
      }

      .short-curly .cls-4, .short-curly .cls-9 {
        fill: #skinColor;
      }

      .short-curly .cls-5 {
        fill: #268340;
      }

      .short-curly .cls-6 {
        fill: #266bb5;
      }

      .short-curly .cls-7 {
        fill: #3d2912;
      }

      .short-curly .cls-10 {
        fill: #db8aa1;
      }

      .short-curly .cls-8 {
        fill: #0194c0;
      }

      .short-curly .cls-9 {
        stroke-width: 3.29081475734711px;
      }

      .short-curly .cls-11 {
        fill: #231f20;
      }
    </style>
  </defs>
  <g class="short-curly" id="Layer_1-2" data-name="Layer 1">
    <g>
      <path class="cls-4" d="m72.026107845069419,159.474457855507353c.986320495610926,2.263580322265625,2.189552307130725,5.8812255859375,2.140129089360926,10.3948974609375-.021751403810413,1.98626708984375-.281608581539331,3.73895263671875-.611465454099744,5.19744873046875,3.289848327629443,1.01324462890625,7.894523620600012,2.04925537109375,13.452224731439856,2.14013671875,4.6463775634802.075958251953125,8.605270385740369-.530792236328125,11.617828369140625-1.222930908203125-.188919067380994-2.06671142578125-.255310058590112-4.549468994140625,0-7.33758544921875.324035644529431-3.538726806638806,1.071762084959119-6.537109375,1.834396362308325-8.866241455078125-9.477706909179688-.101898193359375-18.955406188968482-.203826904296875-28.433113098149988-.30572509765625Z"/>
      <path class="cls-4" d="m49.242954311139329,384.916772635187954c.509552001951306,5.19744873046875,1.019104003900793,10.3948974609375,1.528656005861194,15.59234619140625,3.289855957029431,1.01324462890625,7.89453125,2.04925537109375,13.452239990228918,2.14013671875,4.646362304691138.075927734375,8.605255126951306-.53082275390625,11.617828369140625-1.22296142578125.611450195310681-5.4012451171875,1.222930908199487-10.80255126953125,1.834381103519263-16.20379638671875-9.477691650388806-.1019287109375-18.955413818359375-.203857421875-28.43310546875-.30572509765625Z"/>
      <path class="cls-4" d="m97.534275805410289,384.916772635187954c.509552001949487,5.19744873046875,1.019104003909888,10.3948974609375,1.528656005859375,15.59234619140625,3.28985595703125,1.01324462890625,7.89453125,2.04925537109375,13.452239990230737,2.14013671875,4.646362304689319.075927734375,8.605255126960401-.53082275390625,11.617828369140625-1.22296142578125.611450195319776-5.4012451171875,1.222930908208582-10.80255126953125,1.834381103519263-16.20379638671875-9.477691650390625-.1019287109375-18.955413818359375-.203857421875-28.43310546875-.30572509765625Z"/>
      <path class="cls-8" d="m137.359985351560681,386.886128141299196c-5.390014648441138,2.08001708984375-13.170043945310681,4.4100341796875-22.759887695310681,5.1400146484375-10.35009765625.77996826171875-18.940063476569776-.59002685546875-24.780029296880457-1.989990234375-.843627929689319-50.05084228515625-1.672607421869543-75.07958984375-2.48681640625-75.0791015625-.815795898439319.00048828125-1.616943359369543,25.1273193359375-2.4033203125,75.38909912109375-5.579833984369543,1.14996337890625-12.93994140625,2.0999755859375-21.539916992189319,1.67999267578125-11.460083007810681-.55999755859375-20.720092773430224-3.33001708984375-26.97998046875-5.77001953125.859985351569776-36.1300048828125,1.7099609375-72.260009765625,2.569946289069776-108.38995361328125.410034179680224.15997314453125.830078125.3299560546875,1.260009765619543.5,10.31005859375,4.04998779296875,27.390014648441138,9.17999267578125,48.860107421880457,8.68994140625,17.159912109369543-.39996337890625,31.1298828125-4.25994873046875,40.659912109369543-7.77996826171875.849975585941138-.30999755859375,1.659912109380457-.6199951171875,2.43994140625-.92999267578125,1.719970703130457,36.17999267578125,3.440063476560681,72.3599853515625,5.160034179691138,108.53997802734375Z"/>
      <path class="cls-3" d="m166.919921875,241.046162320986696c-2.719970703130457,2.6300048828125-7.529907226569776,6.5999755859375-14.539916992189319,9.32000732421875-8.880004882810681,3.43994140625-16.719970703130457,3.0999755859375-20.739990234380457,2.64996337890625-.72998046875-11.04998779296875-1.460083007810681-22.0999755859375-2.190063476560681-33.14996337890625-.000122070308862-.001220703125-.00048828125-.0048828125-.000610351558862-.0048828125-.006225585941138.000457763671875.706665039058862,9.19573974609375,1.068603515619543,14.764556884765625.5869140625,9.030914306640625.858154296880457,17.961700439453125,1.292114257819776,35.460296630859375.136474609369543,5.50408935546875.307373046869543,12.994384765625.4658203125,21.94097900390625-11.881469726569776,2.348388671875-26.099243164069776,4.24383544921875-42.191040039069776,4.58599853515625-20.586669921869543.437744140625-38.428833007810681-1.790283203125-52.5859375-4.58599853515625.049438476569776-9.218505859375.220703125-16.91943359375.382080078130457-22.54779052734375.361450195308862-12.6038818359375.65283203125-22.437255859375,1.879638671869543-35.30755615234375.349365234380457-3.665069580078125.871337890630457-8.63348388671875,1.639404296880457-14.53564453125-.880004882810681,7-1.650024414060681,14.20001220703125-2.309936523441138,21.6099853515625-.35009765625,3.98004150390625-.650146484369543,7.9000244140625-.920166015619543,11.77001953125-2.14990234375.3599853515625-5.019897460939319.66998291015625-8.39990234375.54998779296875-2.5400390625-.0899658203125-7.070068359380457-.47998046875-12.219970703130457-2.27996826171875-7.860107421869543-2.75-13.180053710939319-7.3800048828125-16.050048828119543-10.32000732421875,8.869995117180224-19.1099853515625,17.739990234369543-38.22003173828125,26.60009765625-57.33001708984375.699951171869543-1.010009765625,1.869873046869543-2.3399658203125,3.669921875-3.2099609375.330078125-.1500244140625.640014648430224-.280029296875.949951171869543-.3900146484375,9.400024414060681-3.23004150390625,14.10009765625-4.84002685546875,15.090087890630457-5.1099853515625,11.64990234375-3.19000244140625,23.909912109369543-4.25,26.049926757810681-4.4300537109375,2.010009765619543,1.1300048828125,6.359985351558862,3.21002197265625,12.25,3.300048828125,5.910034179689319.0899658203125,10.329956054689319-1.86004638671875,12.380004882808862-2.92999267578125,21.119995117191138,3.949951171875,36.380004882810681,7.449951171875,37.5,8.0699462890625,1.5400390625.85003662109375,2.75,1.95001220703125,2.75,1.95001220703125,1.580078125,1.42999267578125,2.530029296880457,2.95001220703125,3.090087890630457,4.010009765625,8.369873046869543,18.72003173828125,16.72998046875,37.42999267578125,25.08984375,56.1500244140625Z"/>
      <path class="cls-9" d="m18.856905685710444,254.920315719358769c.0824127197302,1.86822509765625.243713378909888,9.72833251953125.858306884769263,13.717498779296875.747146606439856,4.849578857421875,2.0052642822302,9.967437744140625,3.92413330078125,15.32708740234375-.689086914060681.9093017578125-1.740692138670056,2.439361572265625-2.600036621090112,4.467498779296875-.17236328125.40679931640625-1.467803955079944,3.637786865234375-1.446655273441138,7.4560546875.044403076170056,8.015716552734375,5.898193359369543,16.77777099609375,9.564880371090112,16.203826904296875,1.342468261720569-.21014404296875,2.182342529300513-1.638946533203125,2.432006835941138-2.063690185546875,1.370513916019263-2.33154296875.0927734375-4.5618896484375-.076446533201306-8.331207275390625-.074615478519263-1.66217041015625.047821044920056-4.036102294921875.993621826170056-6.955413818359375,1.246978759771082,1.43524169921875,1.895446777340112,2.7965087890625,2.254791259771082,3.8980712890625.874206542959655,2.6798095703125.263854980459655,4.51666259765625,1.605102539058862,5.61785888671875.646606445310681.5308837890625,1.765472412111194.9061279296875,2.636932373039599.5732421875,2.689392089851026-1.027313232421875,2.880523681651539-8.74462890625,1.19039916993097-14.44586181640625-1.245727539069776-4.2021484375-3.521362304689319-7.33575439453125-5.518218994140625-9.47772216796875.959533691400793-9.297515869140625,1.919006347650793-18.595001220703125,2.878540039060681-27.89251708984375-2.239730834960938.343841552734375-4.859771728519263.583740234375-7.784240722659888.55108642578125-4.354507446290881-.048614501953125-8.094543457029431-.6871337890625-11.025329589840112-1.41607666015625.024078369140625.6529541015625.061126708980737,1.6121826171875.112213134760168,2.770263671875Z"/>
      <path class="cls-9" d="m150.763170944499507,254.920315719358769c.124420166021082,6.753997802734375-.583740234369543,11.935333251953125-.858306884760168,13.717498779296875-.747131347659888,4.849578857421875-2.005249023439319,9.967437744140625-3.924133300779431,15.32708740234375.689086914060681.9093017578125,1.740692138670056,2.439361572265625,2.600036621090112,4.467498779296875.824859619140625,1.946746826171875,1.445251464840112,4.916717529296875,1.446655273439319,7.4560546875.003692626951306,6.75921630859375-4.390441894529431,16.282135009765625-8.711242675779431,16.175079345703125-1.412170410159888-.03497314453125-2.668792724609375-1.094940185546875-3.28564453125-2.034942626953125-1.368804931638806-2.08587646484375-.105041503909888-4.2882080078125.076446533199487-8.331207275390625.074615478510168-1.66217041015625-.047821044920056-4.036102294921875-.993621826170056-6.955413818359375-1.246994018558325,1.43524169921875-1.895462036140088,2.7965087890625-2.254806518558325,3.8980712890625-.874206542970569,2.6798095703125-.263854980470569,4.51666259765625-1.605102539060681,5.61785888671875-.646606445310681.5308837890625-1.765472412109375.9061279296875-2.636932373050513.5732421875-2.689392089840112-1.027313232421875-2.880523681638806-8.74462890625-1.190399169920056-14.44586181640625,1.245727539060681-4.2021484375,3.521362304691138-7.33575439453125,5.518218994140625-9.47772216796875-.959533691400793-9.297515869140625-1.919006347650793-18.595001220703125-2.878540039060681-27.89251708984375,2.538314819341394.21441650390625,5.494491577150256.295806884765625,8.774917602540881.07476806640625,3.756378173829944-.25311279296875,7.054260253898974-.843292236328125,9.795013427728918-1.509552001953125.04833984375.833343505859375.10235595703125,1.978546142578125.12744140625,3.340057373046875Z"/>
      <path class="cls-5" d="m78.979571090989339,417.457150436155644c-.408813476569776,1.2130126953125-1.797943115239832,1.745361328125-2.820068359378638,2.07000732421875-6.800048828121362,2.15997314453125-17.22998046875,1.260009765625-18.419921875,1.14996337890625-7.27001953125-.66998291015625-9.090087890621362-1.17999267578125-9.85009765625-2.699951171875-1.030029296871362-2.07000732421875.52001953125-4.74005126953125.910034179689319-5.4000244140625.339965820310681-.58001708984375.730102539060681-1.1199951171875,1.180053710939319-1.6099853515625.260009765621362-3.48004150390625.530029296871362-6.97003173828125.7900390625-10.46002197265625,3.289916992180224,1.02001953125,7.89990234375,2.04998779296875,13.449951171871362,2.1400146484375,4.64990234375.08001708984375,8.609985351558862-.530029296875,11.619995117189319-1.22003173828125.739990234369543,4.260009765625,1.489990234369543,8.52001953125,2.22998046875,12.780029296875.344818115230737.45098876953125,1.366561889650256,1.8953857421875.910034179689319,3.25Z"/>
      <path class="cls-5" d="m128.179519961629921,417.977164179836109c-.760009765630457,1.51995849609375-2.580078125,2.02996826171875-9.849975585939319,2.699951171875-1.190063476560681.11004638671875-11.619995117191138,1.010009765625-18.420043945310681-1.14996337890625-.929931640630457-.2900390625-2.409912109380457-.84002685546875-2.829956054689319-2.07000732421875-.390014648441138-1.19000244140625.390014648439319-2.44000244140625.769897460939319-3.0400390625.1201171875-.18994140625.25-.37994384765625.380126953119543-.55999755859375.339965820319776-4.449951171875.669921875-8.88995361328125,1.010009765630457-13.3499755859375,3.2900390625,1.02001953125,7.89990234375,2.04998779296875,13.4599609375,2.1400146484375,4.640014648439319.08001708984375,8.599975585939319-.530029296875,11.609985351560681-1.22003173828125.549926757808862,3.1300048828125,1.099975585939319,6.27001953125,1.640014648439319,9.4000244140625.510009765619543.52996826171875.949951171869543,1.1099853515625,1.320068359369543,1.75.389892578130457.65997314453125,1.93994140625,3.33001708984375.909912109380457,5.4000244140625Z"/>
      <path class="cls-11" d="m27.503274680719187,301.12855358291381c1.438548398204148,3.136354470287188,2.788724968453607,6.031493923095695,3.821860085503431,9.324809535564782-2.237232288052837-2.584182049733499-3.725650899841639-5.873001887124701-3.821860085503431-9.324809535564782h0Z"/>
      <path class="cls-11" d="m24.783487083062937,301.12855358291381c1.438571322019925,3.13633393985765,2.788747947341108,6.03147178794643,3.821860023337649,9.324809561392613-2.237145278757453-2.584179524195861-3.725664810774106-5.873034018939506-3.821860023337649-9.324809561392613h0Z"/>
      <path class="cls-11" d="m143.863565208062937,300.35127086807006c-.09620872382402,3.451801256682302-1.584695435998583,6.740592691092388-3.821642825201707,9.324891343985655,1.032817283643453-3.293264089408694,2.383131334936479-6.188681269268272,3.821642825201707-9.324891343985655h0Z"/>
      <path class="cls-11" d="m146.583352805719187,300.35127086807006c-.096208723820382,3.451801256682302-1.584695436002221,6.740592691092388-3.821642825201707,9.324891343985655,1.032740751852543-3.293261308770525,2.383119657963107-6.188682544805488,3.821642825201707-9.324891343985655h0Z"/>
      <path class="cls-11" d="m31.229348899469187,183.47889537978881c6.598438614593761,4.02864698429039,10.602474838558919,12.188997149656643,9.783562755734238,19.872567281347074-2.028340203096377-7.262702892869129-5.235226175844218-13.853275269071673-9.783562755734238-19.872567281347074h0Z"/>
      <path class="cls-11" d="m138.343972922906687,183.07758922744506c-4.548344048016588,6.019301229345729-7.75518001292221,12.609901967738551-9.783246016193516,19.872716088262678-.819217443686284-7.683614952804419,3.184750527858341-15.843968038574531,9.783246016193516-19.872716088262678h0Z"/>
      <path class="cls-11" d="m55.159280540094187,411.07758922744506c4.112896926135363-4.180673381632005,11.829204628764273-4.062245661159977,15.821660389923636.229269988991291-5.268323477852391-1.596086990432013-10.512338681413894-1.699829428653175-15.821660389923636-.229269988991291h0Z"/>
      <path class="cls-11" d="m106.104226829156687,411.07758922744506c4.112869621192658-4.180644418434895,11.82922914001756-4.062258100424515,15.821660380352114.229270020710828-5.268370918180153-1.596103390011194-10.512318266970397-1.699822513521212-15.821660380352114-.229270020710828h0Z"/>
      <path class="cls-6" d="m36.490310977249464,379.574637324367359c5.952392578130457,2.55810546875,15.039306640630457,5.62847900390625,26.465087890630457,6.420166015625,9.042724609369543.6265869140625,16.704711914060681-.37139892578125,22.299438476560681-1.54779052734375-.109252929691138,1.9649658203125-.218505859371362,3.92987060546875-.327758789060681,5.89483642578125-5.580932617189319,1.1544189453125-12.9384765625,2.1002197265625-21.541381835939319,1.680419921875-11.45849609375-.5592041015625-20.713500976560681-3.3258056640625-26.973388671871362-5.76226806640625l.078002929680224-6.68536376953125Z"/>
      <path class="cls-6" d="m137.133743594440602,380.319632441554859c-5.515869140621362,2.44769287109375-14.622192382810681,5.649658203125-26.240478515621362,6.017333984375-8.861572265628638.28045654296875-16.209106445319776-1.18212890625-21.322387695319776-2.63360595703125.082275390630457,2.11090087890625.164672851569776,4.22186279296875.246948242191138,6.332763671875,5.68017578125,1.30731201171875,13.66162109375,2.51324462890625,23.182250976558862,1.977783203125,10.315185546880457-.58013916015625,18.663818359380457-2.99224853515625,24.363159179691138-5.12744140625-.076538085941138-2.18896484375-.152954101560681-4.37786865234375-.2294921875-6.56683349609375Z"/>
      <ellipse class="cls-4" cx="149.215766523507227" cy="99.219028314026673" rx="13.336451697605375" ry="9.805427357854455" transform="translate(26.911698473150125 230.182670204098827) rotate(-80.579647592265943)"/>
      <ellipse class="cls-4" cx="21.923471666822934" cy="101.249059259834667" rx="9.805427357852087" ry="13.336451697608428" transform="translate(-16.276423270596808 4.95379126759326) rotate(-9.420352405151176)"/>
      <path class="cls-4" d="m147.080670999150243,99.028435621670724c-.820007324220569,16.940002441404431-7.710021972650793,28.919982910154431-10.25,33.210021972654431-2.780029296869543,4.699951171875-8.010009765619543,13.329956054689319-18.340026855470569,20.639953613283069-4.599975585930224,3.25-16.630004882808862,11.52001953125-33.47998046875,11.010009765625-14.600036621090112-.45001220703125-24.75-7.239990234375-30.730041503898974-11.239990234375-3.849975585941138-2.58001708984375-12.40997314453125-8.42999267578125-19.260009765630457-19.260009765625-3.5-5.53997802734375-5.739990234369543-11.07000732421875-7.159973144529431-16.32000732421875-2.460021972659888-9.079956054689319-2.5-17.27996826171875-2.469970703121362-23.119995117189319.019958496090112-3.239990234375.029968261711474-6.679992675779431.239990234371362-10.239990234375.57000732421875-9.409973144529431,2.5-19.679992675779431,9.389953613279431-29.429992675779431,16.480041503909888-23.309997558595569,46.930053710939319-23.3800048828125,49.980041503909888-23.340026855470569,2.619995117189319.030029296875,31.429992675779431.890014648439319,49.539978027340112,24.720031738283069,4.210021972659888,5.549987792966931,7.010009765630457,11.22998046875,8.859985351560681,16.529968261716931,3.350036621099207,9.5400390625,3.650024414069776,17.81005859375,3.75,21.760009765625.0400390625,1.739990234375.02001953125,3.440002441408069-.069946289060681,5.080017089845569Z"/>
      <path class="cls-11" d="m78.015725852594187,114.241560174710685c2.466571280550852-7.608971703348288,13.985559528875456-6.982482639099544,16.394883155522621.344112889884855-1.486008643803871-.83199741136923-2.820359229741371-1.51858188402548-4.184556007085121-1.99679233324423-4.233669194378308-1.605573078915768-8.380294475866322-.782534104617298-12.2103271484375,1.652679443359375h0Z"/>
      <path class="cls-11" d="m42.278787376031687,77.10853405166381c4.179307638911268-8.165988403567098,17.349961476338649-9.049523571969985,23.146886648757572-2.220125872067001-7.758976033079307-2.569434194147107-16.145289721069275-2.228793964986835-23.146886648757572,2.220125872067001h0Z"/>
      <path class="cls-11" d="m109.020974876031687,73.92909069228881c6.415850694536857-6.556482649706595,19.254645949718906-3.488927425902148,22.761967022877798,4.753839493607302-6.645896390673443-4.757644186847756-14.755044088826253-6.922825499641476-22.761967022877798-4.753839493607302h0Z"/>
      <g>
        <circle class="cls-1" cx="55.973040739439966" cy="94.378368166583186" r="13.142054048387724"/>
        <path class="cls-11" d="m67.001382590875437,101.526045037991935c-6.479710919160425,10.055447823560826-22.166249992231315,7.640155158851485-25.139809964213782-4.134980707009163-2.071384690960258-7.563711563356264,3.343222158136996-15.933929582193741,11.09745887374811-17.130296179786455,11.967318785853422-2.103497156316735,20.577824958487327,11.245613586022955,14.042351090465672,21.265276886795618h0Zm0,0c6.138769718107142-9.537268417667292-2.656489183551457-21.552991440354162-13.502326208832528-18.734635286520643-6.122580326516982,1.497017269934076-10.25451493948276,7.858535698287596-9.119249735424091,14.062222823662523,1.851981208217694,11.059536313179706,16.42520387343211,14.171971269719506,22.62157594425662,4.672412462858119h0Z"/>
      </g>
      <circle cx="57.082254451152949" cy="97.247576971791659" r="10.272845243174968"/>
      <circle class="cls-1" cx="51.059365764437644" cy="91.799885761543919" r="3.168825423186262"/>
      <path class="cls-7" d="m102.235718081750747,140.106764107500567c-.796661376960401,1.2899169921875-5.579437255861194,9.033935546875-13.799987792970569,9.83258056640625-9.017791748050513.8760986328125-15.494262695310681-7.254486083984375-16.309997558599207-8.31085205078125-.765838623041418-.991729736328125-1.684265136711474-2.6015625-3.521118164060681-5.821197509765625-2.304473876949487-4.039276123046875-4.035736083980737-7.44781494140625-5.174621582029431-9.779296875,1.530883789058862.8153076171875,3.851104736329944,1.89093017578125,6.846984863279431,2.67694091796875.362518310550513.095123291015625,1.046173095710401.2535400390625,2.008728027349207.457244873046875,4.010009765621362.8486328125,9.02001953125,1.511993408203125,14.780029296871362,1.385162353515625,3.966186523439319-.08734130859375,9.187255859378638-.226593017578125,15.599975585939319-2.253265380859375,2.670837402340112-.844085693359375,4.823638916010168-1.78546142578125,6.330596923829944-2.512725830078125-.865539550779431,2.085418701171875-2.179931640630457,5.1334228515625-3.93310546875,8.764801025390625-1.448547363279431,3.000396728515625-2.172821044929151,4.500579833984375-2.827484130859375,5.56060791015625Z"/>
      <path class="cls-10" d="m100.935821841510915,139.476087837969317c-.267425537111194.5224609375-4.133636474611194,7.76385498046875-12.382171630861194,8.598724365234375-6.021728515619543.6094970703125-11.9462890625-2.441619873046875-15.133758544920056-7.796173095703125,1.038421630861194-.330535888671875,2.487854003909888-.75433349609375,4.242034912111194-1.146484375,5.178802490239832-1.157745361328125,9.549530029298694-1.265228271484375,12.303771972659888-1.188934326171875,4.262329101558862.118072509765625,7.970336914058862.7681884765625,10.970123291010168,1.532867431640625Z"/>
      <path class="cls-1" d="m102.665716676759985,129.747817631299768c-.190002441400793.39996337890625-.400024414060681.779968261716931-.630004882810681,1.0999755859375-.380004882808862.530029296875-1.619995117189319,2.0999755859375-7.179992675779431,3.3599853515625-2.669982910159888.610046386716931-6.659973144529431,1.47003173828125-12.080017089840112.77001953125-4.109985351569776-.53997802734375-7.469970703130457-.970031738283069-9.919982910159888-3.679992675783069-.150024414060681-.169982910154431-.349975585939319-.390014648435681-.570007324220569-.660034179685681,4.010009765630457.869995117185681,9.02001953125,1.550048828125,14.780029296880457,1.420043945310681,6.25-.140014648435681,11.549987792959655-1.179992675779431,15.599975585930224-2.309997558591931Z"/>
      <g>
        <circle class="cls-1" cx="116.050547310337606" cy="94.31487004417977" r="13.142054048387752"/>
        <path class="cls-11" d="m105.022195579156687,101.462568475491935c6.196750520342903,9.499925235510091,20.771585067099295,6.38579933404435,22.62160073744235-4.672646160484874,1.134580839703631-6.203188746043452-2.996098602394341-12.565507972569321-9.119468814953507-14.062048591757048-10.847644487241269-2.817125126812243-19.640585171224302,9.197974264168806-13.502131922488843,18.734694752241921h0Zm0,0c-6.534450397173714-10.02087721326825,2.074429646781937-23.368934206691847,14.042674001544583-21.265330139749494,7.752940216772913,1.197350814543825,13.169861610094813,9.566176662541693,11.096956053233953,17.130590749862677-2.973161667128807,11.774293231415868-18.661437687784201,14.190551075218536-25.139630054778536,4.134739389886818h0Z"/>
      </g>
      <circle cx="114.941333598497749" cy="97.18407884933913" r="10.272845243174515"/>
      <circle class="cls-1" cx="120.96422228545498" cy="91.736387639361965" r="3.168825423185126"/>
      <ellipse class="cls-10" cx="46.156334169729689" cy="116.312139131186541" rx="8.816706569709368" ry="3.893315228639494"/>
      <ellipse class="cls-10" cx="126.21866227387045" cy="116.312139131186541" rx="8.816706569709368" ry="3.893315228639494"/>
      <path class="cls-2" d="m147.253064035618081,98.199175504884806c.084289550779431-1.63916015625.111755371090112-3.333740234371362.069946289060681-5.080078125-.27862548828125-11.641845703121362-3.536743164060681-21.518798828121362-7.134826660150793-29.083618164060681-1.448486328130457.254516601560681-3.173156738279431.341064453119543-5.047668457029431-.019653320310681-7.637878417970569-1.469848632819776-11.285095214851026-9.120239257819776-11.824035644540345-10.296508789069776-1.367736816400793,1.203125-4.762145996090112,3.854248046880457-9.85986328125,4.5859375-7.132446289060681,1.023681640630457-12.442260742180224-2.450317382808862-13.703552246090112-3.326049804680224-6.773864746090112,7.329223632810681-16.950317382810681,8.862426757810681-23.700073242189319,4.509887695310681-6.470825195310681-4.172607421880457-7.28985595703125-12.140869140630457-7.390014648430224-13.289916992189319.459167480459655,6.642700195308862-4.439819335941138,11.2509765625-8.510009765630457,10.919921875-2.917114257810681-.2373046875-5.713989257810681-3.03662109375-6.772827148439319-6.83935546875-.46875,2.124389648439319-1.843811035150793,6.976196289058862-6.102722167970569,11.32373046875-5.284606933590112,5.39453125-11.582702636709655,6.5146484375-13.617004394529431,6.790893554689319.232177734378638,1.11328125.771728515628638,4.425048828119543-.917175292970569,8.025512695310681-2.080383300779431,4.43505859375-6.039611816400793,6.105224609378638-6.940246582029431,6.459228515628638.198608398439319,2.910034179680224.207580566409888,6.374267578121362-.239990234371362,10.239990234371362-.306457519529431,2.646484375-.775817871099207,5.040405273439319-1.303833007808862,7.14794921875-.725524902351026-.184448242191138-8.449584960941138-2.288452148441138-11.235717773441138-9.85986328125-1.951416015628638-5.303100585941138-.265930175779431-9.987548828121362.22930908203125-11.235717773441138-3.890319824220569-2.607421875-5.616333007810681-7.244873046869543-4.356689453130457-11.235595703119543,1.398315429689319-4.430053710939319,5.821838378909888-5.991088867189319,6.316955566409888-6.15673828125-3.488647460939319-4.399291992189319-3.848022460939319-10.30078125-1.043029785159888-14.480224609380457,3.051208496099207-4.546264648430224,8.465759277349207-4.997314453119543,9.171936035159888-5.044555664058862-2.619018554689319-1.219482421871362-3.580017089840112-4.38671875-2.29296875-6.649780273441138,1.150634765630457-2.023193359369543,3.864135742189319-2.912353515619543,6.191101074220569-1.834350585930224-1.877624511720569-4.114135742189319-.618041992191138-8.8662109375,2.751586914058862-11.235717773439319,2.749450683601026-1.933471679689319,6.53564453125-2.021728515630457,9.630554199220569-.229248046880457-.805114746090112-4.173217773430224,1.323059082029431-8.203735351558862,4.815307617189319-9.630615234369543,2.674682617191138-1.0927734375,5.84405517578125-.533447265630457,8.254760742191138,1.375854492189319-.425476074220569-3.032104492189319,1.120483398430224-5.936279296878638,3.668762207029431-7.108276367189319,3.037292480470569-1.39697265625,6.963439941400793-.0869140625,8.71337890625,3.210205078119543.077392578119543-.285522460930224,1.986389160150793-6.921875,7.796203613279431-8.484130859369543,5.404418945310681-1.453247070310681,11.94970703125,2.0849609375,14.252807617191138,8.790649414060681-.094604492191138-4.100708007810681,2.38427734375-7.546630859371362,5.466918945308862-8.33203125,3.978210449220569-1.013549804691138,9.11407470703125,2.365234375,9.630554199220569,8.025512695308862,1.68505859375-3.84716796875,5.869689941400793-5.956298828119543,9.859924316400793-5.044677734369543,4.192199707029431.957763671869543,7.099853515628638,5.00537109375,6.649658203128638,9.4013671875.279296875-.214111328130457,5.401977539060681-4.009765625,11.00634765625-1.83447265625,4.746215820310681,1.842163085939319,7.751403808590112,7.15673828125,6.922119140621362,12.813842773439319,3.359191894529431-1.199951171878638,6.833984375.036987304680224,8.211669921878638,2.54931640625,1.345581054691138,2.453857421871362.159240722650793,5.1552734375,0,5.503173828121362,2.72198486328125-.881713867191138,5.576904296871362.57666015625,6.420349121090112,2.980834960939319.925170898441138,2.637084960939319-.769836425779431,5.841918945310681-3.847961425779431,6.537353515619543,3.25341796875-2.096069335930224,7.38623046875-1.144287109369543,9.121887207029431,1.488159179691138,1.932678222659888,2.93115234375.728576660159888,7.696411132808862-3.238159179689319,9.50146484375,3.236999511720569.609008789058862,5.793701171880457,3.117431640628638,6.448364257819776,6.320190429689319.673095703119543,3.293212890619543-.793334960939319,6.691650390619543-3.668823242189319,8.484008789060681.364807128909888,1.246215820308862,1.018615722659888,4.103271484378638.14080810546875,7.562744140628638-.939758300779431,3.703857421871362-3.101135253909888,5.993530273430224-4.038879394529431,6.883178710930224.789916992180224.95361328125,1.888000488279431,2.615234375,2.063659667970569,4.815307617191138.315002441398974,3.945068359378638-2.4658203125,7.9931640625-7.018798828130457,10.0849609375Z"/>
    </g>
  </g>
</svg>