<?xml version="1.0" encoding="UTF-8"?>
<svg id="Layer_2" data-name="Layer 2" xmlns="http://www.w3.org/2000/svg" viewBox="0 0 168.419921875 415.964234190378193">
  <defs>
    <style>
      .cls-1 {
        fill: #fff;
      }

      .cls-2 {
        fill: #haircolor;
        stroke-width: 2.69019252061844px;
      }

      .cls-2, .cls-3, .cls-4, .cls-5, .cls-6, .cls-7, .cls-8, .cls-9 {
        stroke: #231f20;
      }

      .cls-2, .cls-3, .cls-5, .cls-6, .cls-8, .cls-9 {
        stroke-linecap: round;
      }

      .cls-2, .cls-3, .cls-6, .cls-8, .cls-9 {
        stroke-linejoin: round;
      }

      .cls-3 {
        fill: #2c9148;
      }

      .cls-3, .cls-4, .cls-5, .cls-6, .cls-7, .cls-8 {
        stroke-width: 3px;
      }

      .cls-4, .cls-5, .cls-7 {
        stroke-miterlimit: 10;
      }

      .cls-4, .cls-9 {
        fill: #fcd8b1;
      }

      .cls-5 {
        fill: #268340;
      }

      .cls-6 {
        fill: #266bb5;
      }

      .cls-7 {
        fill: #3d2912;
      }

      .cls-10 {
        fill: #db8aa1;
      }

      .cls-8 {
        fill: #0194c0;
      }

      .cls-9 {
        stroke-width: 3.29081475734711px;
      }

      .cls-11 {
        fill: #231f20;
      }
    </style>
  </defs>
  <g id="Layer_1-2" data-name="Layer 1">
    <g>
      <path class="cls-4" d="m72.026107845073057,152.982627501083698c.986320495609107,2.263580322265625,2.189552307128906,5.8812255859375,2.140129089359107,10.3948974609375-.021751403810413,1.98626708984375-.281608581539331,3.73895263671875-.611465454099744,5.19744873046875,3.289848327629443,1.01324462890625,7.894523620600012,2.04925537109375,13.452224731439856,2.14013671875,4.6463775634802.075958251953125,8.605270385740369-.530792236328125,11.617828369140625-1.222930908203125-.188919067379175-2.06671142578125-.255310058590112-4.549468994140625,0-7.33758544921875.324035644529431-3.538726806640625,1.071762084959119-6.537109375,1.834396362308325-8.866241455078125-9.477706909179688-.101898193359375-18.955406188968482-.203826904296875-28.433113098148169-.30572509765625Z"/>
      <path class="cls-4" d="m49.242954311141148,378.424942280764299c.509552001951306,5.19744873046875,1.019104003900793,10.3948974609375,1.528656005861194,15.59234619140625,3.289855957029431,1.01324462890625,7.89453125,2.04925537109375,13.452239990228918,2.14013671875,4.646362304691138.075927734375,8.605255126951306-.53082275390625,11.617828369140625-1.22296142578125.611450195310681-5.4012451171875,1.222930908199487-10.80255126953125,1.834381103519263-16.20379638671875-9.477691650388806-.1019287109375-18.955413818359375-.203857421875-28.43310546875-.30572509765625Z"/>
      <path class="cls-4" d="m97.534275805412108,378.424942280764299c.509552001949487,5.19744873046875,1.019104003909888,10.3948974609375,1.528656005859375,15.59234619140625,3.28985595703125,1.01324462890625,7.89453125,2.04925537109375,13.452239990230737,2.14013671875,4.646362304689319.075927734375,8.605255126960401-.53082275390625,11.617828369140625-1.22296142578125.611450195319776-5.4012451171875,1.222930908208582-10.80255126953125,1.834381103519263-16.20379638671875-9.477691650390625-.1019287109375-18.955413818359375-.203857421875-28.43310546875-.30572509765625Z"/>
      <path class="cls-8" d="m137.3599853515625,380.394297786875541c-5.3900146484375,2.08001708984375-13.1700439453125,4.4100341796875-22.7598876953125,5.1400146484375-10.35009765625.77996826171875-18.9400634765625-.59002685546875-24.780029296875-1.989990234375-.8436279296875-50.05084228515625-1.672607421875-75.07958984375-2.48681640625-75.0791015625-.8157958984375.00048828125-1.616943359375,25.1273193359375-2.4033203125,75.38909912109375-5.579833984375,1.14996337890625-12.93994140625,2.0999755859375-21.5399169921875,1.67999267578125-11.4600830078125-.55999755859375-20.7200927734375-3.33001708984375-26.97998046875-5.77001953125.8599853515625-36.1300048828125,1.7099609375-72.260009765625,2.5699462890625-108.38995361328125.4100341796875.15997314453125.830078125.3299560546875,1.260009765625.5,10.31005859375,4.04998779296875,27.3900146484375,9.17999267578125,48.860107421875,8.68994140625,17.159912109375-.39996337890625,31.1298828125-4.25994873046875,40.659912109375-7.77996826171875.8499755859375-.30999755859375,1.659912109375-.6199951171875,2.43994140625-.92999267578125,1.719970703125,36.17999267578125,3.4400634765625,72.3599853515625,5.1600341796875,108.53997802734375Z"/>
      <path class="cls-3" d="m166.919921875,234.554331966563041c-2.719970703125,2.6300048828125-7.5299072265625,6.5999755859375-14.5399169921875,9.32000732421875-8.8800048828125,3.43994140625-16.719970703125,3.0999755859375-20.739990234375,2.64996337890625-.72998046875-11.04998779296875-1.4600830078125-22.0999755859375-2.1900634765625-33.14996337890625-.0001220703125-.001220703125-.00048828125-.0048828125-.0006103515625-.0048828125-.0062255859375.000457763671875.7066650390625,9.19573974609375,1.068603515625,14.764556884765625.5869140625,9.030914306640625.858154296875,17.961700439453125,1.2921142578125,35.460296630859375.136474609375,5.50408935546875.307373046875,12.994384765625.4658203125,21.94097900390625-11.8814697265625,2.348388671875-26.0992431640625,4.24383544921875-42.1910400390625,4.58599853515625-20.586669921875.437744140625-38.4288330078125-1.790283203125-52.5859375-4.58599853515625.0494384765625-9.218505859375.220703125-16.91943359375.382080078125-22.54779052734375.3614501953125-12.6038818359375.65283203125-22.437255859375,1.879638671875-35.30755615234375.349365234375-3.665069580078125.871337890625-8.63348388671875,1.639404296875-14.53564453125-.8800048828125,7-1.6500244140625,14.20001220703125-2.3099365234375,21.6099853515625-.35009765625,3.98004150390625-.650146484375,7.9000244140625-.920166015625,11.77001953125-2.14990234375.3599853515625-5.0198974609375.66998291015625-8.39990234375.54998779296875-2.5400390625-.0899658203125-7.070068359375-.47998046875-12.219970703125-2.27996826171875-7.860107421875-2.75-13.1800537109375-7.3800048828125-16.050048828125-10.32000732421875,8.8699951171875-19.1099853515625,17.739990234375-38.22003173828125,26.60009765625-57.33001708984375.699951171875-1.010009765625,1.869873046875-2.3399658203125,3.669921875-3.2099609375.330078125-.1500244140625.6400146484375-.280029296875.949951171875-.3900146484375,9.4000244140625-3.23004150390625,14.10009765625-4.84002685546875,15.090087890625-5.1099853515625,11.64990234375-3.19000244140625,23.909912109375-4.25,26.0499267578125-4.4300537109375,2.010009765625,1.1300048828125,6.3599853515625,3.21002197265625,12.25,3.300048828125,5.9100341796875.0899658203125,10.3299560546875-1.86004638671875,12.3800048828125-2.92999267578125,21.1199951171875,3.949951171875,36.3800048828125,7.449951171875,37.5,8.0699462890625,1.5400390625.85003662109375,2.75,1.95001220703125,2.75,1.95001220703125,1.580078125,1.42999267578125,2.530029296875,2.95001220703125,3.090087890625,4.010009765625,8.369873046875,18.72003173828125,16.72998046875,37.42999267578125,25.08984375,56.1500244140625Z"/>
      <path class="cls-9" d="m18.85690568571772,248.428485364935113c.082412719726562,1.86822509765625.24371337890625,9.72833251953125.858306884765625,13.717498779296875.747146606445312,4.849578857421875,2.005264282226562,9.967437744140625,3.92413330078125,15.32708740234375-.6890869140625.9093017578125-1.740692138671875,2.439361572265625-2.60003662109375,4.467498779296875-.17236328125.40679931640625-1.467803955078125,3.637786865234375-1.4466552734375,7.4560546875.044403076171875,8.015716552734375,5.898193359375,16.77777099609375,9.56488037109375,16.203826904296875,1.34246826171875-.21014404296875,2.182342529296875-1.638946533203125,2.4320068359375-2.063690185546875,1.370513916015625-2.33154296875.0927734375-4.5618896484375-.076446533203125-8.331207275390625-.074615478515625-1.66217041015625.047821044921875-4.036102294921875.993621826171875-6.955413818359375,1.246978759765625,1.43524169921875,1.89544677734375,2.7965087890625,2.254791259765625,3.8980712890625.87420654296875,2.6798095703125.26385498046875,4.51666259765625,1.6051025390625,5.61785888671875.6466064453125.5308837890625,1.765472412109375.9061279296875,2.636932373046875.5732421875,2.68939208984375-1.027313232421875,2.880523681640625-8.74462890625,1.190399169921875-14.44586181640625-1.2457275390625-4.2021484375-3.5213623046875-7.33575439453125-5.518218994140625-9.47772216796875.95953369140625-9.297515869140625,1.91900634765625-18.595001220703125,2.8785400390625-27.89251708984375-2.239730834960938.343841552734375-4.859771728515625.583740234375-7.78424072265625.55108642578125-4.354507446289062-.048614501953125-8.09454345703125-.6871337890625-11.02532958984375-1.41607666015625.024078369140625.6529541015625.061126708984375,1.6121826171875.112213134765625,2.770263671875Z"/>
      <path class="cls-9" d="m150.763170944506783,248.428485364935113c.124420166015625,6.753997802734375-.583740234375,11.935333251953125-.858306884765625,13.717498779296875-.74713134765625,4.849578857421875-2.0052490234375,9.967437744140625-3.92413330078125,15.32708740234375.6890869140625.9093017578125,1.740692138671875,2.439361572265625,2.60003662109375,4.467498779296875.824859619140625,1.946746826171875,1.44525146484375,4.916717529296875,1.4466552734375,7.4560546875.003692626953125,6.75921630859375-4.39044189453125,16.282135009765625-8.71124267578125,16.175079345703125-1.41217041015625-.03497314453125-2.668792724609375-1.094940185546875-3.28564453125-2.034942626953125-1.368804931640625-2.08587646484375-.10504150390625-4.2882080078125.076446533203125-8.331207275390625.074615478515625-1.66217041015625-.047821044921875-4.036102294921875-.993621826171875-6.955413818359375-1.246994018554688,1.43524169921875-1.895462036132812,2.7965087890625-2.254806518554688,3.8980712890625-.87420654296875,2.6798095703125-.26385498046875,4.51666259765625-1.6051025390625,5.61785888671875-.6466064453125.5308837890625-1.765472412109375.9061279296875-2.636932373046875.5732421875-2.68939208984375-1.027313232421875-2.880523681640625-8.74462890625-1.190399169921875-14.44586181640625,1.2457275390625-4.2021484375,3.5213623046875-7.33575439453125,5.518218994140625-9.47772216796875-.95953369140625-9.297515869140625-1.91900634765625-18.595001220703125-2.8785400390625-27.89251708984375,2.538314819335938.21441650390625,5.494491577148438.295806884765625,8.774917602539062.07476806640625,3.756378173828125-.25311279296875,7.05426025390625-.843292236328125,9.795013427734375-1.509552001953125.04833984375.833343505859375.10235595703125,1.978546142578125.12744140625,3.340057373046875Z"/>
      <path class="cls-5" d="m78.979571090991158,410.965320081731988c-.4088134765625,1.2130126953125-1.797943115234375,1.745361328125-2.820068359375,2.07000732421875-6.800048828125,2.15997314453125-17.22998046875,1.260009765625-18.419921875,1.14996337890625-7.27001953125-.66998291015625-9.090087890625-1.17999267578125-9.85009765625-2.699951171875-1.030029296875-2.07000732421875.52001953125-4.74005126953125.9100341796875-5.4000244140625.3399658203125-.58001708984375.7301025390625-1.1199951171875,1.1800537109375-1.6099853515625.260009765625-3.48004150390625.530029296875-6.97003173828125.7900390625-10.46002197265625,3.2899169921875,1.02001953125,7.89990234375,2.04998779296875,13.449951171875,2.1400146484375,4.64990234375.08001708984375,8.6099853515625-.530029296875,11.6199951171875-1.22003173828125.739990234375,4.260009765625,1.489990234375,8.52001953125,2.22998046875,12.780029296875.344818115234375.45098876953125,1.366561889648438,1.8953857421875.9100341796875,3.25Z"/>
      <path class="cls-5" d="m128.179519961633559,411.485333825412454c-.760009765625,1.51995849609375-2.580078125,2.02996826171875-9.8499755859375,2.699951171875-1.1900634765625.11004638671875-11.6199951171875,1.010009765625-18.4200439453125-1.14996337890625-.929931640625-.2900390625-2.409912109375-.84002685546875-2.8299560546875-2.07000732421875-.3900146484375-1.19000244140625.3900146484375-2.44000244140625.7698974609375-3.0400390625.1201171875-.18994140625.25-.37994384765625.380126953125-.55999755859375.3399658203125-4.449951171875.669921875-8.88995361328125,1.010009765625-13.3499755859375,3.2900390625,1.02001953125,7.89990234375,2.04998779296875,13.4599609375,2.1400146484375,4.6400146484375.08001708984375,8.5999755859375-.530029296875,11.6099853515625-1.22003173828125.5499267578125,3.1300048828125,1.0999755859375,6.27001953125,1.6400146484375,9.4000244140625.510009765625.52996826171875.949951171875,1.1099853515625,1.320068359375,1.75.389892578125.65997314453125,1.93994140625,3.33001708984375.909912109375,5.4000244140625Z"/>
      <path class="cls-11" d="m27.503250430383559,294.636701012912454c1.438564443840733,3.136403121712647,2.788771515577537,6.031483490764003,3.82186013782848,9.324809515976085-2.23715671626087-2.584186032503567-3.725681081506991-5.872959967380666-3.82186013782848-9.324809515976085h0Z"/>
      <path class="cls-11" d="m24.783523867883559,294.636701012912454c1.438532461363138,3.136398379385355,2.788678448199789,6.031472316548388,3.821860032021505,9.324809555071624-2.237308014007795-2.584069714057478-3.72561931184282-5.872997226168081-3.821860032021505-9.324809555071624h0Z"/>
      <path class="cls-11" d="m143.863514555601796,293.859430645703469c-.096256007089323,3.451790638016973-1.584531263393728,6.740695795268039-3.821642765853539,9.324891373893479,1.032886725997741-3.293247548359432,2.383170201042958-6.188663164748505,3.821642765853539-9.324891373893479h0Z"/>
      <path class="cls-11" d="m146.583363188414296,293.859430645703469c-.096199595571306,3.451758249677368-1.584797323892417,6.740591946880159-3.821642794087893,9.324891359461617,1.032747749746704-3.293280675605274,2.383092378740912-6.188699417703901,3.821642794087893-9.324891359461617h0Z"/>
      <path class="cls-11" d="m31.229326950366158,176.987048597357898c6.598433961942646,4.028708337436001,10.602496856845391,12.188971174207836,9.783562750511919,19.872567301858908-2.02834255797643-7.26272926836009-5.235227137152833-13.853273005922347-9.783562750511919-19.872567301858908h0Z"/>
      <path class="cls-11" d="m138.343981491381783,176.585772962591363c-4.548367738338129,6.019318988611303-7.755221558034464,12.609878658924572-9.783230731318326,19.872716100919206-.819269104227715-7.683606248964679,3.184734700218542-15.843986563178078,9.783230731318326-19.872716100919206h0Z"/>
      <path class="cls-11" d="m55.159256289758559,404.585736657443704c4.112960447122532-4.180607381957088,11.829158843525875-4.062219126515629,15.821660447520117.229269984787607-5.268380304529273-1.59614717126351-10.51226301072893-1.69973680430121-15.821660447520117-.229269984787607h0Z"/>
      <path class="cls-11" d="m106.104214840053828,404.585736657443704c4.112960447122532-4.180607381957088,11.829158843525875-4.062219126515629,15.821660447520117.229269984787607-5.268380304529273-1.59614717126351-10.51226301072893-1.69973680430121-15.821660447520117-.229269984787607h0Z"/>
      <path class="cls-6" d="m36.490310977258559,373.082806969943704c5.952392578125,2.55810546875,15.039306640625,5.62847900390625,26.465087890625,6.420166015625,9.042724609375.6265869140625,16.7047119140625-.37139892578125,22.2994384765625-1.54779052734375-.1092529296875,1.9649658203125-.218505859375,3.92987060546875-.3277587890625,5.89483642578125-5.5809326171875,1.1544189453125-12.9384765625,2.1002197265625-21.5413818359375,1.680419921875-11.45849609375-.5592041015625-20.7135009765625-3.3258056640625-26.973388671875-5.76226806640625l.0780029296875-6.68536376953125Z"/>
      <path class="cls-6" d="m137.133743594446059,373.827802087131204c-5.515869140625,2.44769287109375-14.6221923828125,5.649658203125-26.240478515625,6.017333984375-8.861572265625.28045654296875-16.2091064453125-1.18212890625-21.3223876953125-2.63360595703125.082275390625,2.11090087890625.1646728515625,4.22186279296875.2469482421875,6.332763671875,5.68017578125,1.30731201171875,13.66162109375,2.51324462890625,23.1822509765625,1.977783203125,10.315185546875-.58013916015625,18.663818359375-2.99224853515625,24.3631591796875-5.12744140625-.0765380859375-2.18896484375-.1529541015625-4.37786865234375-.2294921875-6.56683349609375Z"/>
      <ellipse class="cls-4" cx="149.215766523512684" cy="92.72719795960279" rx="13.3364516976059" ry="9.805427357850904" transform="translate(33.31598054410513 224.753399262852952) rotate(-80.57964759227184)"/>
      <ellipse class="cls-4" cx="21.923471666826572" cy="94.757228905410329" rx="9.805427357850256" ry="13.336451697606417" transform="translate(-15.213863857724959 4.866242984154795) rotate(-9.420352405151332)"/>
      <path class="cls-4" d="m147.0806709991557,92.536605267246159c-.82000732421875,16.94000244140625-7.71002197265625,28.91998291015625-10.25,33.21002197265625-2.780029296875,4.699951171875-8.010009765625,13.329956054688409-18.34002685546875,20.639953613282159-4.5999755859375,3.25-16.6300048828125,11.52001953125-33.47998046875,11.010009765625-14.60003662109375-.45001220703125-24.75-7.239990234375-30.73004150390625-11.239990234375-3.8499755859375-2.58001708984375-12.40997314453125-8.42999267578125-19.260009765625-19.260009765625909-3.5-5.53997802734375-5.739990234375-11.07000732421875-7.15997314453125-16.32000732421875-2.46002197265625-9.0799560546875-2.5-17.27996826171875-2.469970703125-23.1199951171875.01995849609375-3.239990234375.02996826171875-6.67999267578125.239990234375-10.239990234375.57000732421875-9.40997314453125,2.5-19.67999267578125,9.38995361328125-29.42999267578125,16.48004150390625-23.30999755859375,46.9300537109375-23.3800048828125,49.98004150390625-23.34002685546875,2.6199951171875.030029296875,31.42999267578125.8900146484375,49.53997802734375,24.72003173828125,4.21002197265625,5.54998779296875,7.010009765625,11.22998046875,8.8599853515625,16.52996826171875,3.35003662109375,9.5400390625,3.6500244140625,17.81005859375,3.75,21.760009765625.0400390625,1.739990234375.02001953125,3.44000244140625-.0699462890625,5.08001708984375Z"/>
      <path class="cls-11" d="m78.015699075327575,107.749717144687565c2.466621933710485-7.60892877182232,13.985604132076332-6.98248184872773,16.394883204005964.344112894584214-1.485978174709089-.831985971975882-2.820359278224714-1.518559000541245-4.184525537990339-1.996784708549058-4.233688711641662-1.605569323161035-8.38028315928932-.782502300312444-12.210357666015625,1.652671813964844h0Z"/>
      <path class="cls-11" d="m42.27880859375,70.616679378672416c4.179341881379514-8.165928376521151,17.349927342966112-9.049520704850693,23.146825678002642-2.220125878787258-7.758995871699881-2.569413545421412-16.145267979540222-2.228730884314245-23.146825678002642,2.220125878787258h0Z"/>
      <path class="cls-11" d="m109.02099609375,67.437236019297416c6.415878867104766-6.556414424642753,19.254590394504703-3.488919802515738,22.761967029080552,4.753870017154441-6.645873060531812-4.757656072945792-14.755061529824161-6.922784221519578-22.761967029080552-4.753870017154441h0Z"/>
      <path class="cls-2" d="m146.967864899819688,91.780330749419591c.0899658203125-1.6400146484375.1099853515625-3.34002685546875.0699462890625-5.08001708984375-.0999755859375-3.949951171875-.4000244140625-12.219970703125-3.75-21.760009765625-4.760009765625,1.22003173828125-10.260009765625,1.77001953125-16.0799560546875.59002685546875-16.360107421875-3.33001708984375-25.830078125-18.40997314453125-27.739990234375-16.969970703125-.9400634765625.7099609375.409912109375,5.04998779296875,9.14990234375,19.65997314453125-4.010009765625-.17999267578125-21.27001953125-1.3900146484375-32.8499755859375-15.1500244140625-3.929931640625-4.66998291015625-6.1199951171875-9.5-7.3900146484375-13.28997802734375-2.429931640625,2.32000732421875-5.719970703125,5.91998291015625-8.510009765625,10.91998291015625-6.0799560546875,10.8900146484375-5.5999755859375,20.9100341796875-7.0299072265625,20.8699951171875-1.1199951171875-.03997802734375-2.4600830078125-6.3299560546875-1.830078125-12.63995361328125.9300537109375-9.32000732421875,5.9000244140625-16.030029296875,8.8599853515625-19.4000244140625-2.72998046875,2.8900146484375-6.75,7.44000244140625-11,13.52001953125-5.7999267578125,8.29998779296875-6.929931640625,12.15997314453125-11.6199951171875,16.52996826171875-2.4599609375,2.280029296875-6.1400146484375,4.94000244140625-11.72998046875,6.8800048828125-.2099609375,3.55999755859375-.219970703125,7-.239990234375,10.239990234375-.030029296875,5.84002685546875.010009765625,14.0400390625,2.469970703125,23.1199951171875-2.68994140625-6.7099609375-6.159912109375-18.3199462890625-10.97998046875-39.47998046875-1.739990234375-7.6199951171875-2.3199462890625-10.6500244140625-1.8399658203125-14.97998046875,1.6400146484375-14.69000244140625,16.1199951171875-23.30999755859375,14.679931640625-25.22003173828125-.5399169921875-.719970703125-3.0699462890625-.28997802734375-11.199951171875,4.09002685546875,6.3643798828125-9.246551513672784,13.2041015625-15.17999267578125,17.984619140625-18.7252197265625C42.736541657632188,10.800350280669591,58.607635407632188-.969638733002284,77.895599274819688,1.747158141997716c3.8160400390625.537506103515625,6.8887939453125,1.518524169921875,8.942626953125,2.292999267578125,4.66943359375-1.883392333984375,8.5277099609375-2.383026123047784,11.0064697265625-2.522308349609375,16.904541015625-.949981689453125,31.330322265625,11.392578125,38.529052734375,17.5517578125.3662109375.31329345703125.6939697265625.60064697265625.694091796875.600738525390625,6.2899169921875,5.40997314453125,10.449951171875,10.97998046875,13,14.89996337890625-3.570068359375-2.44000244140625-7.1400146484375-4.88995361328125-10.7000732421875-7.3399658203125,2.260009765625,2.04998779296875,5.2100830078125,5.1300048828125,7.7900390625,9.40997314453125,9.4599609375,15.6300048828125,7.9000244140625,37.1199951171875-.18994140625,55.1400146484375Z"/>
      <g>
        <circle class="cls-1" cx="55.973040739446787" cy="87.886537812159077" r="13.142054048387344"/>
        <path class="cls-11" d="m67.0013427734375,95.034220882578666c-6.47965399387067,10.055530957201881-22.166295483240901,7.640058925942867-25.139748938188859-4.134980700951019-2.07147294065544-7.563737550886799,3.343186452819282-15.933930514519488,11.097458836200531-17.130296195142364,11.96726442747422-2.103499086982083,20.577908776538607,11.245633300472036,14.042290101988328,21.265276896093383h0Zm0,0c6.138919540448114-9.537184808124039-2.656593532195984-21.55305459336796-13.502326171485038-18.734635237787188-6.122567543065088,1.496978878041773-10.254473080254684,7.858590008802821-9.119188760900215,14.062192233409405,1.851881365351801,11.059509194298698,16.425242550631083,14.172009046945277,22.621514932385253,4.672443004377783h0Z"/>
      </g>
      <circle cx="57.082254451157496" cy="90.755746617368231" r="10.272845243176221"/>
      <circle class="cls-1" cx="51.059365764441281" cy="85.308055407120264" r="3.168825423185808"/>
      <path class="cls-7" d="m102.235718081750747,133.614933753076912c-.796661376953125,1.2899169921875-5.579437255859375,9.033935546875-13.79998779296875,9.83258056640625-9.017791748046875.8760986328125-15.4942626953125-7.254486083984375-16.30999755859375-8.31085205078125-.765838623046875-.991729736328125-1.68426513671875-2.6015625-3.5211181640625-5.821197509765625-2.304473876953125-4.039276123047784-4.035736083984375-7.44781494140625-5.17462158203125-9.779296875,1.5308837890625.815307617186591,3.851104736328125,1.890930175780341,6.84698486328125,2.67694091796875.362518310546875.095123291014716,1.046173095703125.253540039061591,2.00872802734375.457244873046875,4.010009765625.8486328125,9.02001953125,1.511993408203125,14.780029296875,1.385162353514716,3.9661865234375-.08734130859375,9.187255859375-.226593017578125,15.5999755859375-2.253265380859375,2.67083740234375-.844085693359375,4.823638916015625-1.785461425780341,6.330596923828125-2.512725830077216-.86553955078125,2.085418701171875-2.179931640625,5.133422851561591-3.93310546875,8.764801025389716-1.44854736328125,3.000396728516534-2.172821044921875,4.500579833985284-2.827484130859375,5.560607910157159Z"/>
      <path class="cls-10" d="m100.935821841516372,132.984257483544752c-.267425537109375.522460937500909-4.133636474609375,7.763854980469659-12.382171630859375,8.598724365235284-6.021728515625.6094970703125-11.9462890625-2.441619873046875-15.133758544921875-7.796173095703125,1.038421630859375-.330535888671875,2.48785400390625-.754333496094659,4.242034912109375-1.146484375,5.178802490234375-1.157745361329034,9.549530029296875-1.265228271485284,12.30377197265625-1.188934326171875,4.2623291015625.118072509764716,7.9703369140625.768188476561591,10.970123291015625,1.532867431639716Z"/>
      <path class="cls-1" d="m102.665716676767261,123.255987276875203c-.19000244140625.39996337890625-.4000244140625.779968261717841-.6300048828125,1.0999755859375-.3800048828125.530029296875-1.6199951171875,2.0999755859375-7.17999267578125,3.3599853515625-2.66998291015625.610046386717841-6.65997314453125,1.47003173828125-12.08001708984375.77001953125-4.1099853515625-.53997802734375-7.469970703125-.970031738282159-9.91998291015625-3.679992675782159-.1500244140625-.169982910155341-.3499755859375-.390014648436591-.57000732421875-.660034179686591,4.010009765625.869995117186591,9.02001953125,1.550048828125,14.780029296875,1.420043945311591,6.25-.140014648436591,11.54998779296875-1.179992675780341,15.5999755859375-2.309997558592841Z"/>
      <g>
        <circle class="cls-1" cx="116.050547310339425" cy="87.823039689756342" r="13.14205404838745"/>
        <path class="cls-11" d="m105.022216796875,94.970744320078666c6.196782924940635,9.49997563459965,20.771576549881502,6.385740329861619,22.62166172797879-4.672646166080995,1.134404902990354-6.203202000584497-2.996106739527022-12.565505803567248-9.119529851916013-14.062048568411228-10.847650642748704-2.817147377836591-19.64068817181942,9.197946660788148-13.502131876062776,18.734694734492223h0Zm0,0c-6.534592550890011-10.020845179506978,2.074441439706789-23.368910364873045,14.042612951838237-21.265360635969046,7.752920240638559,1.197443127329279,13.170041362087431,9.566142123581812,11.096956078115909,17.130621238490676-2.972995785816238,11.77425278447754-18.661508845711069,14.190544915260944-25.139569029954146,4.13473939747837h0Z"/>
      </g>
      <circle cx="114.941333598500478" cy="90.692248494915248" r="10.272845243175993"/>
      <circle class="cls-1" cx="120.964222285460892" cy="85.244557284938082" r="3.168825423185922"/>
      <ellipse class="cls-10" cx="46.156334169734691" cy="109.820308776763341" rx="8.816706569712551" ry="3.893315228639949"/>
      <ellipse class="cls-10" cx="126.218662273871814" cy="109.820308776763341" rx="8.816706569712551" ry="3.893315228639949"/>
    </g>
  </g>
</svg>