<?xml version="1.0" encoding="UTF-8"?>
<svg id="Layer_2" data-name="Layer 2" xmlns="http://www.w3.org/2000/svg" viewBox="0 0 142.86983 302.30784">
  <defs>
    <style>
      .cls-1, .cls-2 {
        fill: #fff;
      }

      .cls-1, .cls-3, .cls-4 {
        stroke: #231f20;
      }

      .cls-1, .cls-3, .cls-4, .cls-5 {
        stroke-miterlimit: 10;
        stroke-width: 3px;
      }

      .cls-3 {
        fill: #49b749;
      }

      .cls-4 {
        fill: #3b9645;
      }

      .cls-5 {
        fill: none;
        stroke: #000;
        stroke-linecap: round;
      }
    </style>
  </defs>
  <g id="Layer_1-2" data-name="Layer 1">
    <g>
      <path class="cls-5" d="m60.0502,169.60749c-6.78456,2.80769-16.913,7.99237-26.78206,17.4235-7.29092,6.96738-12.13835,14.0526-15.27162,19.51777"/>
      <path class="cls-5" d="m76.81811,169.60749c6.39225,3.66564,15.3882,9.83592,23.8854,19.70127,6.52981,7.58121,10.75815,15.0144,13.4771,20.79744"/>
      <path class="cls-4" d="m114.66901,210.01433c2.26956.74223,4.05726.75943,5.25433.64514,2.40119-.22925,3.23972-1.06531,5.45075-.79174.89934.11128,2.64902.32774,3.73879,1.75415.69288.90692,1.25451,2.48031.62129,3.64775-.49767.9175-1.57936,1.19452-3.72241,1.71105-1.78917.43123-3.29583.58977-4.30989.65495.79152,1.9362,1.77723,3.17885,2.53286,3.95674,1.18834,1.22336,1.94607,1.43977,2.6073,2.69838.19384.36897.9338,1.83001.52782,3.63384-.06605.29345-.58917,2.61785-2.42101,3.2551-1.82336.63432-4.01372-.72638-5.01103-2.24634-1.07251-1.63454-.34883-2.81843-1.43503-5.5631-.51483-1.30089-1.16677-2.27146-1.6308-2.88201-1.39167.87785-2.0523,1.82557-2.39788,2.55083-.41816.87759-.32341,1.32118-.89208,2.24076-.36779.59476-.95479,1.54397-2.06373,1.89262-1.10835.34845-2.36998-.0188-3.16401-.73025-1.7263-1.54674-.93596-4.44572-.83463-4.81738.53401-1.95873,1.76369-2.76653,3.15291-4.32602,1.27986-1.43673,2.87715-3.71574,3.99647-7.28447Z"/>
      <path class="cls-4" d="m18.4262,206.42014c.7753,2.25848,1.83885,3.6955,2.65141,4.58195,1.6299,1.77811,2.80242,1.94348,3.91646,3.87283.45314.78477,1.33474,2.31153.8531,4.04077-.30623,1.09946-1.22343,2.49579-2.53668,2.69395-1.0321.15573-1.905-.54059-3.60862-1.93957-1.42229-1.16797-2.45673-2.27483-3.11982-3.04481-1.06821,1.79842-1.4659,3.33388-1.63135,4.40566-.2602,1.68554.0237,2.42065-.58226,3.70678-.17764.37704-.89773,1.84798-2.5819,2.61097-.27398.12412-2.44419,1.10733-4.05661.02945-1.60497-1.07288-1.83899-3.64084-1.22696-5.35267.65814-1.84089,2.03903-1.97677,3.57485-4.49754.72793-1.19477,1.10963-2.29991,1.31725-3.03815-1.53919-.58162-2.6936-.53774-3.48063-.37649-.95234.19512-1.24924.53805-2.32579.63837-.69627.06489-1.80751.16843-2.75399-.50646-.94597-.67454-1.41315-1.90268-1.32386-2.96507.1941-2.30973,2.98387-3.42593,3.34153-3.56902,1.88494-.75417,3.27061-.25961,5.35229-.0907,1.91782.15561,4.6991.05699,8.22159-1.20026Z"/>
      <path class="cls-3" d="m43.25463,41.63866c-5.56311-7.717-11.12634-15.43399-16.68945-23.15099.61707-2.81506.91394-5.17998,1.07007-6.87898.41187-4.48189-.03223-5.67242-.30579-6.26752-.27832-.60548-1.73962-3.55157-4.58594-3.82166-2.87549-.27284-4.88879,2.40134-5.03638,2.60359-1.77856,2.43826-.27869,4.22491-1.84265,5.95691-1.95007,2.15956-4.90552.28256-7.59375,2.55894-1.60364,1.35788-2.75024,3.88547-2.07129,5.75394.99268,2.7319,6.03113,3.31503,9.20618,3.68248,2.72314.31517,4.98267.16869,6.44446,0,5.67712,7.8253,11.35437,15.65071,17.03162,23.476,1.45752-1.30423,2.91528-2.60847,4.37292-3.91272Z"/>
      <path class="cls-3" d="m100.00587,41.63866c5.56311-7.717,11.12634-15.43399,16.68945-23.15099-.61707-2.81506-.91394-5.17998-1.07007-6.87898-.41187-4.48189.03223-5.67242.30579-6.26752.27832-.60548,1.73962-3.55157,4.58594-3.82166,2.87549-.27284,4.88879,2.40134,5.03638,2.60359,1.77856,2.43826.27869,4.22491,1.84265,5.95691,1.95007,2.15956,4.90552.28256,7.59375,2.55894,1.60364,1.35788,2.75024,3.88547,2.07129,5.75394-.99268,2.7319-6.03113,3.31503-9.20618,3.68248-2.72314.31517-4.98267.16869-6.44446,0-5.67712,7.8253-11.35437,15.65071-17.03162,23.476-1.45752-1.30423-2.91528-2.60847-4.37292-3.91272Z"/>
      <path class="cls-3" d="m40.40905,255.03538c2.75159,11.77069,5.50318,23.54141,8.25478,35.3121-2.74893-.00143-7.08949.32959-11.92357,2.293-2.201.89395-6.0958,2.47589-5.96178,4.12738.15052,1.85483,5.47754,3.04904,9.17197,3.21021,2.85178.12439,8.62902-.19763,15.55415-4.94269l-2.25478-29.91083c-4.28025-3.36307-8.56051-6.7261-12.84076-10.08917Z"/>
      <path class="cls-3" d="m91.43387,256.3422c-2.75159,11.77069-5.50318,23.54141-8.25478,35.3121,2.74893-.00143,7.08949.32959,11.92357,2.293,2.07307.84201,6.15138,2.55914,5.96178,4.12738-.23016,1.90372-6.68053,2.95645-11.62355,2.69318-5.89214-.31381-10.43338-2.53961-13.07006-4.12738l2.22228-30.20911c4.28025-3.36307,8.56051-6.7261,12.84076-10.08917Z"/>
      <path class="cls-3" d="m58.25618,131.58953c4.34714,14.89816,3.36151,26.87206,2.293,33.47771-1.9634,12.13797-6.66609,21.35477-9.63058,27.05731-6.35503,12.22464-9.17752,11.93536-12.84077,20.63696-2.00098,4.75308-8.55623,20.32428-1.83439,34.3949,7.06717,14.79349,27.50392,25.19287,43.60335,18.50113,15.01098-6.23935,18.69933-24.19797,19.22467-26.75592,2.20326-10.72772-.73621-19.8222-2.46235-25.16275-3.19642-9.88947-6.22008-10.64313-11.2973-22.07214-1.75467-3.94983-6.3348-14.4726-7.66567-27.89371-.69303-6.9888-.94247-19.17526,3.99857-34.01788-7.79618.61147-15.59236,1.22293-23.38854,1.8344Z"/>
      <path class="cls-4" d="m42.03667,255.48736c-.11401-.76701-2.12305-16.1255,9.79907-25.84049,6.81665-5.55472,17.69849-8.86572,27.51599-4.12738,10.07056,4.86045,15.83582,16.65294,13.61462,28.72753-1.75049,2.56078-7.43347,10.1515-17.66101,12.83265-11.67273,3.05999-24.59851-1.49834-33.26868-11.5923Z"/>
      <ellipse class="cls-3" cx="72.87303" cy="84.20538" rx="66.38217" ry="55.50522"/>
      <circle class="cls-1" cx="30.81936" cy="69.80609" r="23.82466"/>
      <circle class="cls-1" cx="117.11578" cy="70.38993" r="24.25405"/>
      <path d="m14.74069,87.38645c-1.27214-8.66894,1.82885-17.1901,8.16888-21.63056,8.88295-6.22147,23.31288-3.864,31.49269,7.24581-.16398,1.59824-.57817,4.01567-1.75951,6.69161-3.00593,6.80894-9.68613,12.3633-17.72556,13.72301-7.25612,1.22725-13.04454-1.39809-15.1521-2.50232-2.24216-1.17476-3.90981-2.50961-5.0244-3.52756Z"/>
      <path d="m93.00977,73.05873c4.68246-7.5794,12.92808-11.9768,21.30311-11.25858,9.83403.84334,15.29369,8.3495,15.80307,9.07487,5.46576,7.78344,3.62046,16.17098,3.31449,17.45763-6.60953,5.96088-15.92518,7.8911-24.25729,5.0068-8.78156-3.03989-15.08338-10.94752-16.16337-20.28072Z"/>
      <path class="cls-2" d="m123.12873,71.74863c-1.34307-.56536-3.24698-.32664-4.07733.90329-1.06266,1.574.01642,4.20327,1.91888,5.02501,1.41918.61299,3.428.27692,4.23024-1.05721.97916-1.62834-.22888-4.09532-2.07178-4.8711Z"/>
      <path class="cls-2" d="m42.32824,67.48253c-1.3193-.55535-3.1895-.32085-4.00515.8873-1.04385,1.54613.01613,4.12886,1.88491,4.93605,1.39406.60213,3.36731.27202,4.15535-1.03849.96182-1.59951-.22483-4.02281-2.0351-4.78486Z"/>
      <path d="m54.52908,105.8815c4.08824,6.49278,11.13444,10.17124,18.6785,9.19552,3.59072-.37024,7.19175-1.36706,10.22523-3.38702,3.06176-2.00984,5.66891-4.80875,7.78417-8.10149-.96997,3.80585-3.22993,7.36185-6.38863,9.98116-9.8359,8.05976-26.72206,5.52482-30.29928-7.68817h0Z"/>
      <path class="cls-3" d="m52.46404,229.15352c2.79858,1.47661,8.04041,3.76665,14.98352,4.05436,8.34802.34592,14.66064-2.38911,17.56274-3.87609.65601.53824,1.40576,1.23572,2.15698,2.11813.75977.89252,1.33337,1.75377,1.76208,2.49413-2.35913,1.76345-9.84338,6.89002-20.71753,6.90715-10.81189.01704-18.28113-5.02747-20.65723-6.78116.6311-.82933,1.40332-1.7405,2.33801-2.67157.89514-.89175,1.77063-1.63372,2.57141-2.24495Z"/>
      <path class="cls-3" d="m43.75285,241.07263c2.07593,1.69853,12.37463,9.76351,27.00476,8.33608,11.2959-1.10212,18.6792-7.22939,21.14478-9.47339.34143.98077.66504,2.08826.92627,3.31315.15784.73987.27673,1.44666.36548,2.11372-2.11169,2.37979-9.26685,9.83604-21.08423,11.69282-16.51453,2.59482-28.39551-7.9046-29.97375-9.34723.10242-.77864.24048-1.60297.42419-2.46534.33093-1.55299.75049-2.94724,1.1925-4.16982Z"/>
      <circle class="cls-1" cx="73.33901" cy="45.92987" r="11.21695"/>
      <path d="m63.53831,51.38527c.72373-4.06118,3.37849-7.40466,6.87172-8.44298,4.89432-1.45478,10.98749,1.74847,12.98502,7.92916-.31141.68934-.85664,1.70726-1.78301,2.72631-2.35716,2.59296-6.1683,4.07806-9.96138,3.48726-3.42352-.53323-5.61742-2.56833-6.39411-3.37556-.82629-.85879-1.37216-1.70346-1.71824-2.32418Z"/>
      <path class="cls-2" d="m78.82521,46.60724c-.50644-.44463-1.37663-.6186-1.92095-.20059-.6966.53495-.60809,1.84638.10622,2.48536.53286.47666,1.46332.62329,2.01056.15545.66792-.57102.49908-1.83012-.19583-2.44022Z"/>
    </g>
  </g>
</svg>