<svg width="80" height="80" viewBox="0 0 80 80" fill="none" xmlns="http://www.w3.org/2000/svg">
<path d="M13.3335 47.4166H17.0835L19.0002 41.9166H27.6668L29.6668 47.4166H33.3335L25.2502 25.9166H21.4168L13.3335 47.4166ZM20.0835 38.8333L23.2502 29.9166H23.4168L26.5835 38.8333H20.0835ZM46.6668 32.9999V27.3333C48.5002 26.5555 50.3752 25.9721 52.2918 25.5833C54.2085 25.1944 56.2224 24.9999 58.3335 24.9999C59.7779 24.9999 61.1946 25.111 62.5835 25.3333C63.9724 25.5555 65.3335 25.8333 66.6668 26.1666V31.4999C65.3335 30.9999 63.9863 30.6249 62.6252 30.3749C61.2641 30.1249 59.8335 29.9999 58.3335 29.9999C56.2224 29.9999 54.1946 30.2638 52.2502 30.7916C50.3057 31.3194 48.4446 32.0555 46.6668 32.9999ZM46.6668 51.3332V45.6666C48.5002 44.8888 50.3752 44.3055 52.2918 43.9166C54.2085 43.5277 56.2224 43.3333 58.3335 43.3333C59.7779 43.3333 61.1946 43.4444 62.5835 43.6666C63.9724 43.8888 65.3335 44.1666 66.6668 44.4999V49.8332C65.3335 49.3332 63.9863 48.9582 62.6252 48.7082C61.2641 48.4582 59.8335 48.3332 58.3335 48.3332C56.2224 48.3332 54.1946 48.5832 52.2502 49.0832C50.3057 49.5832 48.4446 50.3332 46.6668 51.3332ZM46.6668 42.1666V36.4999C48.5002 35.7221 50.3752 35.1388 52.2918 34.7499C54.2085 34.361 56.2224 34.1666 58.3335 34.1666C59.7779 34.1666 61.1946 34.2777 62.5835 34.4999C63.9724 34.7221 65.3335 34.9999 66.6668 35.3333V40.6666C65.3335 40.1666 63.9863 39.7916 62.6252 39.5416C61.2641 39.2916 59.8335 39.1666 58.3335 39.1666C56.2224 39.1666 54.1946 39.4305 52.2502 39.9583C50.3057 40.486 48.4446 41.2221 46.6668 42.1666ZM21.6668 53.3332C24.2779 53.3332 26.8196 53.6249 29.2918 54.2082C31.7641 54.7916 34.2224 55.6666 36.6668 56.8332V23.9999C34.3891 22.6666 31.9724 21.6666 29.4168 20.9999C26.8613 20.3333 24.2779 19.9999 21.6668 19.9999C19.6668 19.9999 17.6807 20.1944 15.7085 20.5833C13.7363 20.9721 11.8335 21.5555 10.0002 22.3333V55.3332C11.9446 54.6666 13.8752 54.1666 15.7918 53.8332C17.7085 53.4999 19.6668 53.3332 21.6668 53.3332ZM43.3335 56.8332C45.7779 55.6666 48.2363 54.7916 50.7085 54.2082C53.1807 53.6249 55.7224 53.3332 58.3335 53.3332C60.3335 53.3332 62.2918 53.4999 64.2085 53.8332C66.1252 54.1666 68.0557 54.6666 70.0002 55.3332V22.3333C68.1668 21.5555 66.2641 20.9721 64.2918 20.5833C62.3196 20.1944 60.3335 19.9999 58.3335 19.9999C55.7224 19.9999 53.1391 20.3333 50.5835 20.9999C48.0279 21.6666 45.6113 22.6666 43.3335 23.9999V56.8332ZM40.0002 66.6666C37.3335 64.5555 34.4446 62.9166 31.3335 61.7499C28.2224 60.5832 25.0002 59.9999 21.6668 59.9999C19.3335 59.9999 17.0418 60.3055 14.7918 60.9166C12.5418 61.5277 10.3891 62.3888 8.3335 63.4999C7.16683 64.111 6.04183 64.0832 4.9585 63.4166C3.87516 62.7499 3.3335 61.7777 3.3335 60.4999V20.3333C3.3335 19.7221 3.48627 19.1388 3.79183 18.5833C4.09738 18.0277 4.55572 17.611 5.16683 17.3333C7.72238 15.9999 10.3891 14.9999 13.1668 14.3333C15.9446 13.6666 18.7779 13.3333 21.6668 13.3333C24.8891 13.3333 28.0418 13.7499 31.1252 14.5833C34.2085 15.4166 37.1668 16.6666 40.0002 18.3333C42.8335 16.6666 45.7918 15.4166 48.8752 14.5833C51.9585 13.7499 55.1113 13.3333 58.3335 13.3333C61.2224 13.3333 64.0557 13.6666 66.8335 14.3333C69.6113 14.9999 72.2779 15.9999 74.8335 17.3333C75.4446 17.611 75.9029 18.0277 76.2085 18.5833C76.5141 19.1388 76.6668 19.7221 76.6668 20.3333V60.4999C76.6668 61.7777 76.1252 62.7499 75.0418 63.4166C73.9585 64.0832 72.8335 64.111 71.6668 63.4999C69.6113 62.3888 67.4585 61.5277 65.2085 60.9166C62.9585 60.3055 60.6668 59.9999 58.3335 59.9999C55.0002 59.9999 51.7779 60.5832 48.6668 61.7499C45.5557 62.9166 42.6668 64.5555 40.0002 66.6666Z" fill="white"/>
</svg>
