<?xml version="1.0" encoding="UTF-8"?>
<svg id="Layer_1" data-name="Layer 1" xmlns="http://www.w3.org/2000/svg" viewBox="0 0 187.37171 424.39851">
  <defs>
    <style>
      .cls-1, .cls-2 {
        fill: #fff;
      }

      .cls-1, .cls-3, .cls-4, .cls-5, .cls-6, .cls-7, .cls-8, .cls-9, .cls-10, .cls-11, .cls-12, .cls-13 {
        stroke: #231f20;
      }

      .cls-1, .cls-3, .cls-4, .cls-5, .cls-6, .cls-8, .cls-9, .cls-10 {
        stroke-miterlimit: 10;
      }

      .cls-1, .cls-3, .cls-5, .cls-6, .cls-7, .cls-8, .cls-9, .cls-10, .cls-11, .cls-13 {
        stroke-width: 3px;
      }

      .cls-3, .cls-8, .cls-14 {
        fill: #db8aa1;
      }

      .cls-4 {
        fill: #199747;
        stroke-width: 2px;
      }

      .cls-5, .cls-12 {
        fill: #fcd8b1;
      }

      .cls-6, .cls-11 {
        fill: #0194c0;
      }

      .cls-7 {
        fill: #266bb5;
      }

      .cls-7, .cls-8, .cls-11, .cls-12, .cls-13 {
        stroke-linecap: round;
      }

      .cls-7, .cls-11, .cls-12, .cls-13 {
        stroke-linejoin: round;
      }

      .cls-9, .cls-13 {
        fill: #df5026;
      }

      .cls-10 {
        fill: #3d2912;
      }

      .cls-12 {
        stroke-width: 3.29081px;
      }

      .cls-15 {
        fill: #231f20;
      }
    </style>
  </defs>
  <path class="cls-9" d="m92.31996,12.64548c.37207-.72903,2.19727-4.04501.91724-6.72614-2.89404-6.06165-19.74243-4.86139-28.73889-2.44586C30.891,12.49698,16.01271,62.87064,10.07789,82.96393c-5.73975,19.43332-8.04431,37.61865-8.56042,53.50317,4.74463,5.80981,11.38196,12.48038,20.40125,18.27463,26.96777,17.32477,55.83911,14.3577,65.9137,12.83246-2.32373-103.44342-.01672-146.10355,4.48755-154.92871Z"/>
  <path class="cls-9" d="m95.04933,12.64548c-.37634-.73718-2.19568-4.04816-.91711-6.72614,2.89404-6.06165,19.74243-4.86139,28.73877-2.44586,33.6073,9.0235,48.48572,59.39716,54.42041,79.49045,5.73987,19.43332,8.04431,37.61865,8.56055,53.50317-5.88757,6.11786-14.72913,13.82465-26.96509,20.10904-23.21216,11.92175-45.15332,11.79779-55.76782,10.99805-.32275-103.36407-3.56006-146.09424-8.0697-154.92871Z"/>
  <path class="cls-5" d="m81.31071,163.41691c.98632,2.26358,2.18955,5.88123,2.14013,10.3949-.02175,1.98627-.28161,3.73895-.61147,5.19745,3.28985,1.01324,7.89452,2.04926,13.45222,2.14014,4.64638.07596,8.60527-.53079,11.61783-1.22293-.18892-2.06671-.25531-4.54947,0-7.33759.32404-3.53873,1.07176-6.53711,1.8344-8.86624-9.47771-.1019-18.95541-.20383-28.43311-.30573Z"/>
  <path class="cls-4" d="m47.11926,38.62227c2.01935-3.77994,10.94221-19.45718,30.36193-26.09882,17.22498-5.89102,31.87518-.9684,36.58938.69421,19.42874,6.85213,28.94717,21.86737,31.53252,26.28516-6.84908-4.54773-23.46326-14.24564-46.78957-15.05409-26.06203-.90327-44.88543,9.83156-51.69426,14.17354Z"/>
  <ellipse class="cls-5" cx="154.84512" cy="92.75165" rx="13.33645" ry="9.80543" transform="translate(37.99983 230.32729) rotate(-80.57965)"/>
  <ellipse class="cls-5" cx="35.55284" cy="96.78168" rx="9.80542" ry="13.33644" transform="translate(-15.36139 7.12434) rotate(-9.42034)"/>
  <path class="cls-5" d="m156.71003,100.56105c-.82001,16.94-7.71002,28.91998-10.25,33.21002-2.78003,4.69995-8.01001,13.32996-18.34003,20.63995-4.59998,3.25-16.63,11.52002-33.47998,11.01001-14.60004-.45001-24.75-7.23999-30.73004-11.23999-3.84998-2.58002-12.40997-8.42999-19.26001-19.26001-3.5-5.53998-5.73999-11.07001-7.15997-16.32001-2.46002-9.07996-2.5-17.27997-2.46997-23.12.01996-3.23999.02997-6.67999.23999-10.23999.57001-9.40997,2.5-19.67999,9.38995-29.42999,16.48004-23.31,46.93005-23.38,49.98004-23.34003,2.62.03003,31.42999.89001,49.53998,24.72003,4.21002,5.54999,7.01001,11.22998,8.85999,16.52997,3.35004,9.54004,3.65002,17.81006,3.75,21.76001.04004,1.73999.02002,3.44-.06995,5.08002Z"/>
  <path class="cls-15" d="m87.64506,115.77417c2.46662-7.60893,13.9856-6.98248,16.39488.34411-1.48598-.83199-2.82036-1.51856-4.18453-1.99678-4.23369-1.60557-8.38028-.7825-12.21036,1.65267h0Z"/>
  <g>
    <circle class="cls-2" cx="65.6024" cy="95.91099" r="13.14205"/>
    <path class="cls-15" d="m76.6307,103.05867c-6.47965,10.05553-22.1663,7.64006-25.13975-4.13498-2.07147-7.56374,3.34319-15.93393,11.09746-17.1303,11.96726-2.1035,20.57791,11.24563,14.04229,21.26528h0Zm0,0c6.13892-9.53718-2.65659-21.55305-13.50233-18.73464-6.12257,1.49698-10.25447,7.85859-9.11919,14.06219,1.85188,11.05951,16.42524,14.17201,22.62151,4.67244h0Z"/>
  </g>
  <circle cx="66.71161" cy="98.7802" r="10.27285"/>
  <path class="cls-10" d="m111.86507,141.63938c-.79666,1.28992-5.57944,9.03394-13.79999,9.83258-9.01779.8761-15.49426-7.25449-16.31-8.31085-.76584-.99173-1.68427-2.60156-3.52112-5.8212-2.30447-4.03928-4.03574-7.44781-5.17462-9.7793,1.53088.81531,3.8511,1.89093,6.84698,2.67694.36252.09512,1.04617.25354,2.00873.45724,4.01001.84863,9.02002,1.51199,14.78003,1.38516,3.96619-.08734,9.18726-.22659,15.59998-2.25327,2.67084-.84409,4.82364-1.78546,6.3306-2.51273-.86554,2.08542-2.17993,5.13342-3.93311,8.7648-1.44855,3.0004-2.17282,4.50058-2.82748,5.56061Z"/>
  <path class="cls-14" d="m110.56518,141.00871c-.26743.52246-4.13364,7.76385-12.38217,8.59872-6.02173.6095-11.94629-2.44162-15.13376-7.79617,1.03842-.33054,2.48785-.75433,4.24203-1.14648,5.1788-1.15775,9.54953-1.26523,12.30377-1.18893,4.26233.11807,7.97034.76819,10.97012,1.53287Z"/>
  <path d="m52.54319,93.83565c-1.4386-.48505-3.18298-1.20578-5.0509-2.293-1.8396-1.07077-3.30981-2.21234-4.43311-3.21017.88708.26071,2.37439.57571,4.20386.38217,2.12195-.22452,3.68274-1.02515,4.50952-1.52866-4.8241-1.46088-5.85693-2.00385-5.80896-2.21658.06921-.30685,2.32776.33609,5.50952,0,4.28223-.45233,6.95483-2.33139,7.26123-1.83438.29639.48083-2.36865,1.97479-4.28662,5.19745-1.22681,2.06122-1.69958,4.07635-1.90454,5.50317Z"/>
  <path class="cls-2" d="m112.29507,131.28044c-.19.39996-.40002.77997-.63,1.09998-.38.53003-1.62,2.09998-7.17999,3.35999-2.66998.61005-6.65997,1.47003-12.08002.77002-4.10999-.53998-7.46997-.97003-9.91998-3.67999-.15002-.16998-.34998-.39001-.57001-.66003,4.01001.87,9.02002,1.55005,14.78003,1.42004,6.25-.14001,11.54999-1.17999,15.59998-2.31Z"/>
  <g>
    <circle class="cls-2" cx="125.6799" cy="95.84749" r="13.14205"/>
    <path class="cls-15" d="m114.65162,102.99518c6.19663,9.50005,20.7715,6.3857,22.62154-4.67265,1.13453-6.20308-2.99614-12.56551-9.11941-14.06205-10.84763-2.81714-19.64083,9.19807-13.50213,18.73469h0Zm0,0c-6.53462-10.02086,2.07443-23.36889,14.04261-21.26533,7.75285,1.1974,13.16991,9.5662,11.09696,17.13059-2.97319,11.77423-18.66146,14.19068-25.13957,4.13474h0Z"/>
  </g>
  <circle class="cls-2" cx="60.46597" cy="92.10912" r="3.16883"/>
  <circle cx="124.57069" cy="98.7167" r="10.27285"/>
  <ellipse class="cls-14" cx="55.78569" cy="117.84476" rx="8.81671" ry="3.89332"/>
  <ellipse class="cls-14" cx="135.84802" cy="117.84476" rx="8.81671" ry="3.89332"/>
  <path class="cls-13" d="m94.53016,17.53311c-15.57642-.06805-24.22717,3.49661-26.8761,4.66528-.00012.00003-6.43311,2.83823-11.92358,7.18472-19.30518,15.28293-20.97034,48.71326-21.09546,51.97452h0c5.87219-2.2366,16.51257-7.2594,25.45215-18.03824,4.36609-5.26434,7.15063-10.48404,8.94275-14.67514-2.65393,3.76337-6.63281,10.59705-7.24402,19.7312-.30823,4.60718.20288,10.3588,1.51147,10.53632,1.4635.19852,2.79211-6.69925,7.23279-15.88126,2.86414-5.92212,6.04895-10.46414,8.50916-13.58667-1.42126,4.83417-2.72827,11.05023-3.00598,18.33737-.15771,4.13925.04407,7.90317.41467,11.20184,6.23022,1.4899,14.62659,2.72665,24.45447,1.9924,4.47485-.33432,8.51453-1.02258,12.05115-1.84933.80591-5.65604,1.25464-12.46332.68481-20.11548-.2594-3.48358-.69897-6.72662-1.23962-9.70273,1.59839,1.61301,3.67151,3.83615,5.91199,6.63538,1.50928,1.88574,3.92883,4.90875,5.98022,8.52261,4.44287,7.82693,4.56519,13.85632,5.50317,13.75797,1.0011-.10498,1.57007-7.04782.68787-14.21655-.90198-7.32959-3.10681-13.15671-4.92004-17.05621,2.89941,4.84302,6.74438,10.41388,11.79907,16.13901,6.37097,7.21591,12.80273,12.56906,18.19104,16.43311h0c.526-5.84415.75439-17.24973-4.58594-29.96176-2.16345-5.14999-6.68896-15.92239-17.73254-23.69427-11.67468-8.21597-23.79907-8.26895-38.70349-8.33408Z"/>
  <path class="cls-5" d="m58.52756,386.85922c.50955,5.19745,1.0191,10.3949,1.52866,15.59235,3.28986,1.01324,7.89453,2.04926,13.45224,2.14014,4.64636.07593,8.60526-.53082,11.61783-1.22296.61145-5.40125,1.22293-10.80255,1.83438-16.2038-9.47769-.10193-18.95541-.20386-28.43311-.30573Z"/>
  <path class="cls-5" d="m106.81888,386.85922c.50955,5.19745,1.0191,10.3949,1.52866,15.59235,3.28986,1.01324,7.89453,2.04926,13.45224,2.14014,4.64636.07593,8.60526-.53082,11.61783-1.22296.61145-5.40125,1.22293-10.80255,1.83438-16.2038-9.47769-.10193-18.95541-.20386-28.43311-.30573Z"/>
  <circle class="cls-2" cx="130.37083" cy="92.04562" r="3.16883"/>
  <path class="cls-8" d="m176.20765,244.98785c-2.7251,2.63489-7.52808,6.60065-14.54089,9.31885-8.88342,3.44324-16.72522,3.10638-20.73938,2.65082-.73022-11.04926-1.46033-22.09845-2.19055-33.14767.12024,23.37924.24036,46.75845.3606,70.13766H49.2975c.46277-23.45563.92566-46.91132,1.38843-70.36694-.87805,6.9953-1.65503,14.20032-2.30859,21.60693-.35095,3.97681-.65649,7.90082-.91992,11.77002-2.15466.362-5.026.67151-8.40247.55127-2.53992-.09045-7.06592-.48468-12.21619-2.28491-7.86694-2.74982-13.18359-7.37946-16.0509-10.31848,8.86621-19.10828,17.73254-38.21655,26.59875-57.32483.69873-1.01163,1.86328-2.34079,3.6687-3.21021.32446-.15625.6427-.2847.95032-.39047,9.39465-3.23035,14.09412-4.83923,15.0918-5.11237,11.64539-3.18823,23.90295-4.24869,26.04272-4.4259,2.01379,1.12729,6.36206,3.20807,12.25916,3.29819,5.91003.09033,10.32764-1.8653,12.37439-2.93253,21.12305,3.94794,36.37622,7.45221,37.49817,8.07263,1.53918.8511,2.75146,1.94901,2.75159,1.94907,1.578,1.42896,2.5354,2.95059,3.09558,4.01273,8.36292,18.71539,16.72571,37.43076,25.08862,56.14615Z"/>
  <path class="cls-11" d="m66.38999,213.29069h58.08997c.44189,3.03708,1.36279,7.00714,3.3623,11.31207,3.48718,7.50809,8.49878,12.25357,11.59888,14.75046,5.97632,49.87607,11.95251,99.75217,17.92883,149.62827-7.77832,3.01331-19.27747,6.41187-33.4895,6.98322-9.78394.39331-18.21851-.65924-24.77808-1.98615-.84888-21.77106-1.69788-43.54218-2.54675-65.31323-.78137,21.87299-1.56262,43.74597-2.34399,65.61896-6.08459,1.0838-13.35291,1.85352-21.54138,1.68042-15.98633-.33795-29.0116-4.13251-37.89905-7.59467,4.83264-49.64642,9.66516-99.29285,14.4978-148.93924,3.38232-2.96167,7.78369-7.49884,11.6178-13.91083,2.70007-4.51541,4.40393-8.76511,5.50317-12.22928Z"/>
  <path class="cls-12" d="m28.1415,258.86278c.02948,2.38739.00946,8.20767.85831,13.7175.74713,4.84958,2.00525,9.96744,3.92413,15.32709-.68909.9093-1.74069,2.43936-2.60004,4.4675-.17236.4068-1.4678,3.63779-1.44666,7.45605.0444,8.01572,5.89819,16.77777,9.56488,16.20383,1.34247-.21014,2.18234-1.63895,2.43201-2.06369,1.37051-2.33154.09277-4.56189-.07645-8.33121-.07462-1.66217.04782-4.0361.99362-6.95541,1.24698,1.43524,1.89545,2.79651,2.25479,3.89807.87421,2.67981.26385,4.51666,1.6051,5.61786.64661.53088,1.76547.90613,2.63693.57324,2.68939-1.02731,2.88052-8.74463,1.1904-14.44586-1.24573-4.20215-3.52136-7.33575-5.51822-9.47772.95953-9.29752,1.91901-18.595,2.87854-27.89252-2.35461.51904-5.54852.98038-9.32779.83521-3.84802-.14783-7.04691-.87616-9.37668-1.59109-.00452.63834-.00653,1.55701.00711,2.66116Z"/>
  <path class="cls-12" d="m161.04775,258.86278c.13846,6.38644-.49963,11.38931-.85831,13.7175-.74713,4.84958-2.00525,9.96744-3.92413,15.32709.68909.9093,1.74069,2.43936,2.60004,4.4675.82486,1.94675,1.44525,4.91672,1.44666,7.45605.00369,6.75922-4.39044,16.28214-8.71124,16.17508-1.41217-.03497-2.66879-1.09494-3.28564-2.03494-1.3688-2.08588-.10504-4.28821.07645-8.33121.07462-1.66217-.04782-4.0361-.99362-6.95541-1.24698,1.43524-1.89545,2.79651-2.25479,3.89807-.87421,2.67981-.26385,4.51666-1.6051,5.61786-.64661.53088-1.76547.90613-2.63693.57324-2.68939-1.02731-2.88052-8.74463-1.1904-14.44586,1.24573-4.20215,3.52136-7.33575,5.51822-9.47772-.95953-9.29752-1.91901-18.595-2.87854-27.89252,2.43591.38025,5.58353.64719,9.22928.39008,3.7634-.26541,6.92902-1.00967,9.33121-1.75797.05072.81726.10794,1.93936.13687,3.27316Z"/>
  <path class="cls-6" d="m65.68372,177.20893c3.50867-.57852,7.01733-1.15707,10.526-1.7356,2.5433,12.71582,5.08664,25.43164,7.62994,38.14746-.38248,2.63101-2.26016,4.71878-4.586,5.19745-2.94864.60684-6.21805-1.4549-7.03186-4.89172-2.17935-12.2392-4.35873-24.47839-6.53809-36.71759Z"/>
  <path class="cls-15" d="m118.65035,75.46168c6.41588-6.55641,19.25459-3.48892,22.76197,4.75387-6.64587-4.75766-14.75506-6.92278-22.76197-4.75387h0Z"/>
  <path class="cls-15" d="m51.90817,78.64113c4.17934-8.16593,17.34993-9.04952,23.14683-2.22013-7.759-2.56941-16.14527-2.22873-23.14683,2.22013h0Z"/>
  <path class="cls-6" d="m125.70331,177.75278c-3.79773-.64899-7.59543-1.29797-11.39316-1.94696-2.36508,12.60498-4.73019,25.20999-7.09528,37.81497.38248,2.63101,2.26016,4.71881,4.586,5.19745,2.94864.60681,6.21805-1.45493,7.03183-4.89172,2.29019-12.05792,4.58041-24.11581,6.87061-36.17374Z"/>
  <path class="cls-7" d="m77.86781,227.37231h34.88062v22.08679c-2.99231,6.73273-9.53406,11.17841-16.76599,11.39093-7.81836.2298-15.07654-4.52795-18.11462-11.92358v-21.55414Z"/>
  <path class="cls-3" d="m88.26417,419.3996c-.41003,1.22998-1.89001,1.77997-2.82007,2.07001-6.80005,2.15997-17.22998,1.26001-18.41992,1.14996-7.27002-.66998-9.09009-1.17999-9.8501-2.69995-1.03003-2.07001.52002-4.74005.91003-5.40002.33997-.58002.7301-1.12,1.18005-1.60999.26001-3.48004.53003-6.97003.79004-10.46002,3.28992,1.02002,7.8999,2.04999,13.44995,2.14001,4.6499.08002,8.60999-.53003,11.62-1.22003.73999,4.26001,1.48999,8.52002,2.22998,12.78003.05994.07001.09998.14001.15002.20996.37988.60004,1.15991,1.85004.76001,3.04004Z"/>
  <path class="cls-3" d="m137.46412,419.91962c-.76001,1.51996-2.58008,2.02997-9.84998,2.69995-1.19006.11005-11.62,1.01001-18.42004-1.14996-.92993-.29004-2.40991-.84003-2.82996-2.07001-.39001-1.19.39001-2.44.7699-3.04004.12012-.18994.25-.37994.38013-.56.33997-4.44995.66992-8.88995,1.01001-13.34998,3.29004,1.02002,7.8999,2.04999,13.45996,2.14001,4.64001.08002,8.59998-.53003,11.60999-1.22003.54993,3.13,1.09998,6.27002,1.64001,9.40002.51001.52997.94995,1.10999,1.32007,1.75.38989.65997,1.93994,3.33002.90991,5.40002Z"/>
  <circle class="cls-1" cx="79.03009" cy="216.38176" r="5.28971"/>
  <circle class="cls-1" cx="112.74841" cy="216.38176" r="5.28971"/>
  <path d="m139.95985,94.65698c1.4386-.48505,3.18298-1.20578,5.0509-2.293,1.8396-1.07077,3.30981-2.21234,4.43311-3.21017-.88708.26071-2.37439.57571-4.20386.38217-2.12195-.22452-3.68274-1.02515-4.50952-1.52866,4.8241-1.46088,5.85693-2.00385,5.80896-2.21658-.06921-.30685-2.32776.33609-5.50952,0-4.28223-.45233-6.95483-2.33139-7.26123-1.83438-.29639.48083,2.36865,1.97479,4.28662,5.19745,1.22681,2.06122,1.69958,4.07635,1.90454,5.50317Z"/>
  <path class="cls-15" d="m36.78785,305.07098c1.43856,3.1364,2.78877,6.03148,3.82186,9.32481-2.23716-2.58419-3.72568-5.87296-3.82186-9.32481h0Z"/>
  <path class="cls-15" d="m34.06813,305.07098c1.43853,3.1364,2.78868,6.03147,3.82186,9.32481-2.23731-2.58407-3.72562-5.873-3.82186-9.32481h0Z"/>
  <path class="cls-15" d="m153.14812,304.29371c-.09626,3.45179-1.58453,6.7407-3.82164,9.32489,1.03289-3.29325,2.38317-6.18866,3.82164-9.32489h0Z"/>
  <path class="cls-15" d="m155.86797,304.29371c-.0962,3.45176-1.5848,6.74059-3.82164,9.32489,1.03275-3.29328,2.38309-6.1887,3.82164-9.32489h0Z"/>
  <g>
    <path class="cls-14" d="m40.51393,187.42133c1.74988,1.6022,4.02112,4.05209,5.96179,7.49045,2.79651,4.95453,3.57788,9.60706,3.82166,12.38217"/>
    <path class="cls-15" d="m40.51394,187.42131c6.5984,4.02873,10.60247,12.18898,9.78356,19.87257-2.02833-7.26266-5.23528-13.8533-9.78356-19.87257h0Z"/>
  </g>
  <g>
    <path class="cls-14" d="m147.6286,187.02004c-1.74988,1.6022-4.02112,4.05209-5.96179,7.49045-2.79651,4.95453-3.57788,9.60706-3.82166,12.38217"/>
    <path class="cls-15" d="m147.6286,187.02004c-4.54838,6.01932-7.75522,12.6099-9.78325,19.87272-.81927-7.68361,3.18476-15.84398,9.78325-19.87272h0Z"/>
  </g>
  <path class="cls-15" d="m64.44386,413.02002c4.11296-4.18061,11.82916-4.06222,15.82166.22927-5.26838-1.59615-10.51226-1.69974-15.82166-.22927h0Z"/>
  <path class="cls-15" d="m115.38882,413.02002c4.11296-4.18061,11.82916-4.06222,15.82166.22927-5.26838-1.59615-10.51226-1.69974-15.82166-.22927h0Z"/>
  <path class="cls-7" d="m46.03543,272.65004c11.46014,4.16797,29.6546,9.19894,52.34473,8.94327,18.78635-.21167,34.16663-3.97424,44.74231-7.46478.29245,2.83383.58493,5.66769.87738,8.50153-10.12283,3.76239-25.92255,8.24643-45.61969,8.3645-23.80173.14267-42.41516-6.155-53.11893-10.71704.25806-2.54248.51614-5.08499.7742-7.62747Z"/>
  <path class="cls-7" d="m35.41221,381.78477c8.45203,3.52588,21.11377,7.56012,36.82776,8.15247,8.57043.32306,16.11633-.45056,22.29944-1.54779-.10925,1.96497-.21851,3.92987-.32776,5.89484-6.08459,1.0838-13.35291,1.85352-21.54138,1.68042-15.98633-.33795-29.0116-4.13251-37.89905-7.59467.21362-2.19507.42737-4.3902.64099-6.58527Z"/>
  <path class="cls-7" d="m156.58701,382.44712c-7.71484,3.43817-20.40076,7.83514-36.40918,7.83228-8.37769-.00153-15.60876-1.20764-21.32239-2.63361.08228,2.1109.16467,4.22186.24695,6.33276,6.31714,1.25061,14.17383,2.21039,23.18225,1.97778,14.84595-.38336,26.90613-3.85254,35.08533-6.97485-.26099-2.1781-.52197-4.35626-.78296-6.53436Z"/>
</svg>