<?xml version="1.0" encoding="UTF-8"?>
<svg id="Layer_2" data-name="Layer 2" xmlns="http://www.w3.org/2000/svg" viewBox="0 0 187.024665176868439 424.243606961796104">
  <defs>
    <style>
      .cls-1, .cls-2 {
        fill: #fff;
      }

      .cls-1, .cls-3, .cls-4, .cls-5, .cls-6, .cls-7, .cls-8, .cls-9, .cls-10, .cls-11, .cls-12 {
        stroke: #231f20;
      }

      .cls-1, .cls-3, .cls-5, .cls-6, .cls-7, .cls-9, .cls-10 {
        stroke-miterlimit: 10;
      }

      .cls-1, .cls-3, .cls-6, .cls-7, .cls-8, .cls-9, .cls-10, .cls-11 {
        stroke-width: 3px;
      }

      .cls-3, .cls-9, .cls-13 {
        fill: #db8aa1;
      }

      .cls-4 {
        fill: #673614;
        stroke-width: 2.69019252061844px;
      }

      .cls-4, .cls-8, .cls-9, .cls-11, .cls-12 {
        stroke-linecap: round;
      }

      .cls-4, .cls-8, .cls-11, .cls-12 {
        stroke-linejoin: round;
      }

      .cls-5 {
        fill: #199747;
        stroke-width: 2px;
      }

      .cls-6, .cls-12 {
        fill: #fcd8b1;
      }

      .cls-7, .cls-11 {
        fill: #0194c0;
      }

      .cls-8 {
        fill: #266bb5;
      }

      .cls-10 {
        fill: #3d2912;
      }

      .cls-12 {
        stroke-width: 3.29081475734711px;
      }

      .cls-14 {
        fill: #231f20;
      }
    </style>
  </defs>
  <g id="Layer_1-2" data-name="Layer 1">
    <g>
      <path class="cls-4" d="m92.147586494684219,12.490572980102115c.3720703125-.729034423828125,2.197265625-4.045013427734375.917236328125-6.72613525390625-2.89404296875-6.0616455078125-19.742431640625-4.86138916015625-28.7388916015625-2.44586181640625C30.718631416559219,12.342074444945865,15.840335518121719,62.715731671508365,9.905521064996719,82.80902390783649,4.165774971246719,102.242342999633365,1.861209541559219,120.42767625158649,1.345096260309219,136.31219773596149c4.74462890625,5.809814453125,11.3819580078125,12.480377197266534,20.4012451171875,18.274627685547784,26.9677734375,17.32476806640625,55.839111328125,14.357696533203125,65.9136962890625,12.83245849609375-2.32373046875-103.443420410157159-.0167236328125-146.103546142579034,4.487548828125-154.928710937500909Z"/>
      <path class="cls-4" d="m94.876956611871719,12.490572980102115c-.3763427734375-.7371826171875-2.1956787109375-4.04815673828125-.9171142578125-6.72613525390625,2.89404296875-6.0616455078125,19.742431640625-4.86138916015625,28.73876953125-2.44586181640625,33.6072998046875,9.02349853515625,48.4857177734375,59.39715576171875,54.42041015625,79.490447998046875,5.7398681640625,19.433319091796875,8.0443115234375,37.61865234375,8.560546875,53.503173828125-5.8875732421875,6.117858886719659-14.7291259765625,13.824645996094659-26.965087890625,20.109039306641534-23.212158203125,11.9217529296875-45.1533203125,11.79779052734375-55.767822265625,10.998046875-.32275390625-103.364074707032159-3.56005859375-146.094238281250909-8.0697021484375-154.928710937500909Z"/>
      <path class="cls-6" d="m81.138339417186216,163.262006060071144c.986320495609107,2.263580322265625,2.189552307128906,5.8812255859375,2.140129089359107,10.3948974609375-.021751403810413,1.98626708984375-.281608581539331,3.73895263671875-.611465454099744,5.19744873046875,3.289848327629443,1.01324462890625,7.894523620600012,2.04925537109375,13.452224731439856,2.14013671875,4.6463775634802.075958251953125,8.605270385740369-.530792236328125,11.617828369140625-1.222930908203125-.188919067380994-2.06671142578125-.255310058590112-4.549468994140625,0-7.33758544921875.324035644529431-3.538726806640625,1.071762084959119-6.537109375,1.834396362308325-8.866241455078125-9.477706909179688-.101898193359375-18.955406188968482-.203826904296875-28.433113098148169-.30572509765625Z"/>
      <path class="cls-5" d="m46.946889075365107,38.467364673289921c2.019348144529431-3.779937744140625,10.942207336431238-19.457183837890625,30.361930847169788-26.09881591796875,17.224983215330212-5.891021728515625,31.875175476079676-.968399047851562,36.58937835694087.6942138671875,19.42874145506903,6.852127075194403,28.947174072260168,21.86737060546875,31.53251647948855,26.28515625-6.849075317388269-4.5477294921875-23.463256835939319-14.245635986328125-46.789566040039062-15.054092407226562-26.062026977539062-.903274536132812-44.885429382329676,9.831558227539062-51.694259643560144,14.173538208007812Z"/>
      <ellipse class="cls-6" cx="154.672750547889336" cy="92.596743029170284" rx="13.336451697606128" ry="9.805427357850942" transform="translate(38.008480701898165 230.027688317928124) rotate(-80.579647592270319)"/>
      <ellipse class="cls-6" cx="35.380466133356094" cy="96.626772931274218" rx="9.805422891198107" ry="13.336444950500903" transform="translate(-15.338361767315696 7.094035190782762) rotate(-9.420338059490428)"/>
      <path class="cls-6" d="m156.537655023532352,100.40615033681388c-.82000732421875,16.94000244140625-7.71002197265625,28.91998291015625-10.25,33.21002197265625-2.780029296875,4.699951171875-8.010009765625,13.3299560546875-18.34002685546875,20.63995361328125-4.5999755859375,3.25-16.6300048828125,11.52001953125-33.47998046875,11.010009765625-14.60003662109375-.45001220703125-24.75-7.239990234375-30.73004150390625-11.239990234375-3.8499755859375-2.58001708984375-12.40997314453125-8.42999267578125-19.260009765625-19.260009765625909-3.5-5.53997802734375-5.739990234375-11.07000732421875-7.15997314453125-16.320007324217841-2.46002197265625-9.0799560546875-2.5-17.27996826171875-2.469970703125-23.1199951171875.01995849609375-3.239990234375.02996826171875-6.67999267578125.239990234375-10.239990234375.57000732421875-9.40997314453125,2.5-19.67999267578125,9.38995361328125-29.42999267578125,16.48004150390625-23.30999755859375,46.9300537109375-23.3800048828125,49.98004150390625-23.34002685546875,2.6199951171875.030029296875,31.42999267578125.8900146484375,49.53997802734375,24.72003173828125,4.21002197265625,5.54998779296875,7.010009765625,11.22998046875,8.8599853515625,16.52996826171875,3.35003662109375,9.5400390625,3.6500244140625,17.81005859375,3.75,21.760009765625.0400390625,1.739990234375.02001953125,3.44000244140625-.0699462890625,5.08001708984375Z"/>
      <path class="cls-14" d="m87.472683099704227,115.619262214255286c2.466621933710485-7.60892877182232,13.985604132076332-6.98248184872773,16.394883204005964.344112894584214-1.485978174709089-.831985971976792-2.820359278224714-1.518559000540336-4.184525537990339-1.996784708549058-4.233688711641662-1.605569323161035-8.38028315928932-.782502300312444-12.210357666015625,1.652671813964844h0Z"/>
      <g>
        <circle class="cls-2" cx="65.43002476382344" cy="95.756082881727025" r="13.14205404838706"/>
        <path class="cls-14" d="m76.458326797814152,102.903765952146387c-6.47965399387067,10.055530957201881-22.166295483240901,7.640058925943777-25.139748938188859-4.134980700951019-2.07147294065544-7.563737550886799,3.343186452819282-15.933930514519488,11.097458836200531-17.130296195142364,11.96726442747422-2.103499086982083,20.577908776538607,11.245633300472036,14.042290101988328,21.265276896093383h0Zm0,0c6.138919540448114-9.537184808124039-2.656593532195984-21.55305459336796-13.502326171485038-18.734635237787188-6.122567543065088,1.496978878041773-10.254473080254684,7.858590008802821-9.119188760900215,14.062192233409405,1.851881365351801,11.059509194298698,16.425242550631083,14.172009046945277,22.621514932385253,4.672443004377783h0Z"/>
      </g>
      <circle cx="66.539238475533693" cy="98.625291686935952" r="10.272845243176448"/>
      <path class="cls-10" d="m111.692702106127399,141.484478822642814c-.796661376953125,1.289916992189319-5.579437255859375,9.033935546875909-13.79998779296875,9.832580566407159-9.017791748046875.8760986328125-15.4942626953125-7.254486083984375-16.30999755859375-8.31085205078125-.765838623046875-.991729736329034-1.68426513671875-2.601562500000909-3.5211181640625-5.821197509767444-2.304473876953125-4.039276123045056-4.035736083984375-7.447814941405341-5.17462158203125-9.779296875,1.5308837890625.815307617188409,3.851104736328125,1.890930175782159,6.84698486328125,2.676940917969659.362518310546875.095123291015625,1.046173095703125.2535400390625,2.00872802734375.457244873046875,4.010009765625.8486328125,9.02001953125,1.511993408203125,14.780029296875,1.385162353515625,3.9661865234375-.08734130859375,9.187255859375-.226593017577216,15.5999755859375-2.253265380859375,2.67083740234375-.844085693359375,4.823638916015625-1.78546142578125,6.330596923828125-2.512725830078125-.86553955078125,2.085418701171875-2.179931640625,5.1334228515625-3.93310546875,8.764801025390625-1.44854736328125,3.000396728514716-2.172821044921875,4.500579833984375-2.827484130859375,5.56060791015625Z"/>
      <path class="cls-13" d="m110.392805865893024,140.853802553111564c-.267425537109375.5224609375-4.133636474609375,7.763854980470569-12.382171630859375,8.598724365235284-6.021728515625.6094970703125-11.9462890625-2.441619873046875-15.133758544921875-7.796173095704034,1.038421630859375-.330535888671875,2.48785400390625-.75433349609375,4.242034912109375-1.146484375,5.178802490234375-1.157745361328125,9.549530029296875-1.265228271484375,12.30377197265625-1.188934326171875,4.2623291015625.118072509765625,7.9703369140625.7681884765625,10.970123291015625,1.532867431640625Z"/>
      <path d="m52.37081419095739,93.680750363350853c-1.438598632790672-.485046386783324-3.18298339838293-1.205780029439666-5.050903320208818-2.292999267804589-1.839599609327706-1.070770263754639-3.309814453026775-2.212341308742907-4.4331054686063-3.210174560746964.887084960926586.260711669962802,2.374389648412034.575714111435445,4.203857421858629.38217163104855,2.121948242196595-.224517822170128,3.682739257857975-1.025146484209472,4.509521484442303-1.528656005655648-4.824096679622016-1.460876465061119-5.856933593659051-2.003845215107503-5.808959960837456-2.216583252215059.069213867202052-.306854248043237,2.327758789047948.336090087995217,5.509521484375.000000000247383,4.282226562520009-.452331542775937,6.954833984480501-2.331390380546509,7.261230468831855-1.834381103189116.296386718728172.480834960950233-2.368652343837311,1.974792480362339-4.286621093982831,5.197448730275937-1.226806640717768,2.06121826166418-1.699584961121218,4.076354980392352-1.904541015872383,5.503173828039507Z"/>
      <path class="cls-2" d="m112.122700701143913,131.125532346442014c-.19000244140625.399963378907159-.4000244140625.77996826171875-.6300048828125,1.0999755859375-.3800048828125.530029296875-1.6199951171875,2.0999755859375-7.17999267578125,3.3599853515625-2.66998291015625.61004638671875-6.65997314453125,1.470031738282159-12.08001708984375.77001953125-4.1099853515625-.539978027342841-7.469970703125-.97003173828125-9.91998291015625-3.67999267578125-.1500244140625-.16998291015625-.3499755859375-.390014648436591-.57000732421875-.660034179686591,4.010009765625.869995117186591,9.02001953125,1.550048828125,14.780029296875,1.420043945311591,6.25-.140014648436591,11.54998779296875-1.17999267578125,15.5999755859375-2.30999755859375Z"/>
      <g>
        <circle class="cls-2" cx="125.507531334716077" cy="95.692584759324291" r="13.142054048387799"/>
        <path class="cls-14" d="m114.479251533746719,102.84027390783649c6.196625057666097,9.500047751106649,20.771499147838767,6.385697546870688,22.621539641037089-4.672646157318923,1.134527740570775-6.203080797336042-2.996140874975026-12.565511394978785-9.119407700291049-14.062048588838479-10.84762633358514-2.817140530502002-19.640831663475183,9.198067591023573-13.50213194074604,18.734694746157402h0Zm0,0c-6.5346186782117-10.020861920626885,2.074432609326323-23.368892614648757,14.042612971294147-21.265330134844589,7.752848451564205,1.197395176727696,13.169909944346728,9.566195120248267,11.096956100644093,17.130590744638539-2.973192631998245,11.774232207375462-18.661458245705944,14.190682511464729-25.13956907193824,4.13473939020605h0Z"/>
      </g>
      <circle class="cls-2" cx="60.293600554748082" cy="91.954217497730724" r="3.168825423186149"/>
      <circle cx="124.398317622876675" cy="98.561793564482969" r="10.272845243176675"/>
      <ellipse class="cls-13" cx="55.613318194111343" cy="117.689853846331289" rx="8.816706569712551" ry="3.893315228640631"/>
      <ellipse class="cls-13" cx="135.675646298248466" cy="117.689853846331289" rx="8.816706569712551" ry="3.893315228640631"/>
      <path class="cls-4" d="m94.357791572809219,17.378207257445865c-15.576416015625-.06805419921875-24.2271728515625,3.496612548828125-26.8760986328125,4.665283203125-.0001220703125.000030517578125-6.43310546875,2.838226318360284-11.923583984375,7.184722900390625-19.30517578125,15.282928466796875-20.9703369140625,48.7132568359375-21.095458984375,51.974517822265625h0c5.8721923828125-2.236602783203125,16.5125732421875-7.2593994140625,25.4521484375-18.038238525390625,4.3660888671875-5.26434326171875,7.150634765625-10.484039306640625,8.9427490234375-14.675140380859375-2.6539306640625,3.76336669921875-6.6328125,10.5970458984375-7.2440185546875,19.731201171875-.3082275390625,4.607177734375.202880859375,10.358795166015625,1.511474609375,10.53631591796875,1.4635009765625.198516845703125,2.7921142578125-6.699249267578125,7.2327880859375-15.881256103514716,2.8641357421875-5.922119140625,6.0489501953125-10.464141845704034,8.5091552734375-13.586669921875-1.4212646484375,4.834167480467841-2.728271484375,11.050231933592841-3.0059814453125,18.337371826170966-.15771484375,4.139251708984375.0440673828125,7.903167724609375.4146728515625,11.20184326171875,6.230224609375,1.489898681640625,14.6265869140625,2.726654052735284,24.4544677734375,1.992401123046875,4.474853515625-.334320068359375,8.5145263671875-1.022583007811591,12.0511474609375-1.849334716796875.805908203125-5.656036376953125,1.254638671875-12.46331787109375.684814453125-20.115478515625-.2593994140625-3.48358154296875-.698974609375-6.72662353515625-1.2396240234375-9.702728271484375,1.598388671875,1.613006591796875,3.6715087890625,3.836151123046875,5.9119873046875,6.6353759765625,1.50927734375,1.8857421875,3.9288330078125,4.908752441407159,5.980224609375,8.522613525390625,4.44287109375,7.826934814453125,4.565185546875,13.8563232421875,5.503173828125,13.757965087891534,1.0010986328125-.10498046875,1.570068359375-7.047821044922784.6878662109375-14.216552734375-.9019775390625-7.32958984375-3.1068115234375-13.156707763672784-4.9200439453125-17.056213378907159,2.8994140625,4.843017578125,6.744384765625,10.413879394532159,11.799072265625,16.139007568359375,6.3709716796875,7.215911865234375,12.802734375,12.569061279297784,18.1910400390625,16.43310546875h0c.5260009765625-5.844146728515625.75439453125-17.249725341796875-4.5859375-29.961761474609375-2.1634521484375-5.149993896484375-6.68896484375-15.922393798828125-17.7325439453125-23.694274902342841-11.6746826171875-8.215972900391534-23.799072265625-8.268951416016534-38.7034912109375-8.334075927735284Z"/>
      <path class="cls-6" d="m58.355185883254308,386.704320839751745c.509552001951306,5.19744873046875,1.019104003900793,10.3948974609375,1.528656005861194,15.59234619140625,3.289855957029431,1.01324462890625,7.89453125,2.04925537109375,13.452239990228918,2.14013671875,4.646362304691138.075927734375,8.605255126951306-.53082275390625,11.617828369140625-1.22296142578125.611450195310681-5.4012451171875,1.222930908199487-10.80255126953125,1.834381103519263-16.20379638671875-9.477691650388806-.1019287109375-18.955413818359375-.203857421875-28.43310546875-.30572509765625Z"/>
      <path class="cls-6" d="m106.646507377525268,386.704320839751745c.509552001949487,5.19744873046875,1.019104003909888,10.3948974609375,1.528656005859375,15.59234619140625,3.28985595703125,1.01324462890625,7.89453125,2.04925537109375,13.452239990230737,2.14013671875,4.646362304689319.075927734375,8.605255126960401-.53082275390625,11.617828369140625-1.22296142578125.611450195319776-5.4012451171875,1.222930908208582-10.80255126953125,1.834381103519263-16.20379638671875-9.477691650390625-.1019287109375-18.955413818359375-.203857421875-28.43310546875-.30572509765625Z"/>
      <circle class="cls-2" cx="130.198457075767692" cy="91.890719375548315" r="3.168825423185922"/>
      <path class="cls-9" d="m176.035281807184219,244.8329496890874c-2.72509765625,2.6348876953125-7.528076171875,6.60064697265625-14.5408935546875,9.31884765625-8.8834228515625,3.4432373046875-16.7252197265625,3.10638427734375-20.7393798828125,2.65081787109375-.730224609375-11.04925537109375-1.4603271484375-22.09844970703125-2.1905517578125-33.147674560546875.1202392578125,23.379241943359375.2403564453125,46.758453369140625.360595703125,70.137664794921875H49.125125557184219c.4627685546875-23.45562744140625.9256591796875-46.91131591796875,1.388427734375-70.366943359375-.8780517578125,6.99530029296875-1.655029296875,14.2003173828125-2.30859375,21.60693359375-.3509521484375,3.976806640625-.656494140625,7.90081787109375-.919921875,11.77001953125-2.1546630859375.36199951171875-5.0260009765625.6715087890625-8.4024658203125.55126953125-2.5399169921875-.0904541015625-7.06591796875-.48468017578125-12.2161865234375-2.284912109375-7.866943359375-2.74981689453125-13.18359375-7.37945556640625-16.0509033203125-10.3184814453125,8.8662109375-19.1082763671875,17.7325439453125-38.216552734375,26.5987548828125-57.3248291015625.69873046875-1.011627197265625,1.86328125-2.340789794921875,3.668701171875-3.210205078125.324462890625-.15625.6427001953125-.284698486328125.9503173828125-.390472412109375,9.3946533203125-3.2303466796875,14.0941162109375-4.8392333984375,15.091796875-5.11236572265625,11.6453857421875-3.188232421875,23.9029541015625-4.248687744140625,26.042724609375-4.4259033203125,2.0137939453125,1.127288818359375,6.362060546875,3.20806884765625,12.2591552734375,3.298187255859375,5.9100341796875.09033203125,10.32763671875-1.86529541015625,12.3743896484375-2.932525634765625,21.123046875,3.94793701171875,36.376220703125,7.45220947265625,37.4981689453125,8.0726318359375,1.5391845703125.851104736328125,2.75146484375,1.949005126953125,2.7515869140625,1.949066162109375,1.5780029296875,1.428955078125,2.535400390625,2.950592041015625,3.0955810546875,4.012725830078125,8.3629150390625,18.71539306640625,16.7257080078125,37.430755615234375,25.088623046875,56.146148681640625Z"/>
      <path class="cls-11" d="m66.217619117389404,213.135784947153297h58.0899658203125c.44189453125,3.037078857421875,1.36279296875,7.00714111328125,3.3623046875,11.31207275390625,3.4871826171875,7.508087158203125,8.498779296875,12.253570556640625,11.598876953125,14.750457763671875,5.976318359375,49.876068115234375,11.9525146484375,99.752166748046875,17.9288330078125,149.628265380859375-7.7783203125,3.0133056640625-19.2774658203125,6.411865234375-33.489501953125,6.98321533203125-9.783935546875.393310546875-18.218505859375-.65924072265625-24.778076171875-1.98614501953125-.848876953125-21.77105712890625-1.6978759765625-43.54217529296875-2.5467529296875-65.313232421875-.7813720703125,21.87298583984375-1.5626220703125,43.7459716796875-2.343994140625,65.61895751953125-6.0845947265625,1.08380126953125-13.3529052734375,1.853515625-21.5413818359375,1.680419921875-15.986328125-.33795166015625-29.0115966796875-4.13250732421875-37.8990478515625-7.59466552734375,4.8326416015625-49.64642333984375,9.6651611328125-99.2928466796875,14.497802734375-148.939239501953125,3.38232421875-2.961669921875,7.78369140625-7.49884033203125,11.6177978515625-13.91082763671875,2.7000732421875-4.515411376953125,4.4039306640625-8.765106201171875,5.503173828125-12.229278564453125Z"/>
      <path class="cls-12" d="m27.969132347052437,258.70787535724412c.02947998046875,2.38739013671875.00946044921875,8.207672119140625.858306884765625,13.717498779296875.74713134765625,4.849578857421875,2.0052490234375,9.967437744140625,3.92413330078125,15.32708740234375-.6890869140625.9093017578125-1.740692138671875,2.439361572265625-2.60003662109375,4.467498779296875-.17236328125.40679931640625-1.467803955078125,3.637786865234375-1.4466552734375,7.4560546875.044403076171875,8.015716552734375,5.898193359375,16.77777099609375,9.56488037109375,16.203826904296875,1.34246826171875-.21014404296875,2.182342529296875-1.638946533203125,2.4320068359375-2.063690185546875,1.370513916015625-2.33154296875.0927734375-4.5618896484375-.076446533203125-8.331207275390625-.074615478515625-1.66217041015625.047821044921875-4.036102294921875.993621826171875-6.955413818359375,1.246978759765625,1.43524169921875,1.89544677734375,2.7965087890625,2.254791259765625,3.8980712890625.87420654296875,2.6798095703125.26385498046875,4.51666259765625,1.6051025390625,5.61785888671875.6466064453125.5308837890625,1.765472412109375.9061279296875,2.636932373046875.5732421875,2.68939208984375-1.027313232421875,2.880523681640625-8.74462890625,1.190399169921875-14.44586181640625-1.2457275390625-4.2021484375-3.5213623046875-7.33575439453125-5.518218994140625-9.47772216796875.95953369140625-9.297515869140625,1.91900634765625-18.595001220703125,2.8785400390625-27.89251708984375-2.3546142578125.51904296875-5.54852294921875.980377197265625-9.327789306640625.835205078125-3.8480224609375-.1478271484375-7.046905517578125-.87615966796875-9.376678466796875-1.591094970703125-.0045166015625.638336181640625-.00653076171875,1.5570068359375.007110595703125,2.661163330078125Z"/>
      <path class="cls-12" d="m160.875382347052437,258.70787535724412c.138458251953125,6.386444091796875-.4996337890625,11.389312744140625-.858306884765625,13.717498779296875-.74713134765625,4.849578857421875-2.0052490234375,9.967437744140625-3.92413330078125,15.32708740234375.6890869140625.9093017578125,1.740692138671875,2.439361572265625,2.60003662109375,4.467498779296875.824859619140625,1.946746826171875,1.44525146484375,4.916717529296875,1.4466552734375,7.4560546875.003692626953125,6.75921630859375-4.39044189453125,16.282135009765625-8.71124267578125,16.175079345703125-1.41217041015625-.03497314453125-2.668792724609375-1.094940185546875-3.28564453125-2.034942626953125-1.368804931640625-2.08587646484375-.10504150390625-4.2882080078125.076446533203125-8.331207275390625.074615478515625-1.66217041015625-.047821044921875-4.036102294921875-.993621826171875-6.955413818359375-1.246978759765625,1.43524169921875-1.89544677734375,2.7965087890625-2.254791259765625,3.8980712890625-.87420654296875,2.6798095703125-.26385498046875,4.51666259765625-1.6051025390625,5.61785888671875-.6466064453125.5308837890625-1.765472412109375.9061279296875-2.636932373046875.5732421875-2.68939208984375-1.027313232421875-2.880523681640625-8.74462890625-1.190399169921875-14.44586181640625,1.2457275390625-4.2021484375,3.5213623046875-7.33575439453125,5.518218994140625-9.47772216796875-.95953369140625-9.297515869140625-1.91900634765625-18.595001220703125-2.8785400390625-27.89251708984375,2.4359130859375.3802490234375,5.583526611328125.647186279296875,9.229278564453125.39007568359375,3.763397216796875-.265411376953125,6.92901611328125-1.009674072265625,9.331207275390625-1.757965087890625.05072021484375.8172607421875.107940673828125,1.939361572265625.136871337890625,3.273162841796875Z"/>
      <path class="cls-7" d="m65.511344330516295,177.05402176748612c3.508666992189319-.578521728515625,7.017333984378638-1.157073974609375,10.526000976569776-1.735595703125,2.543304443348461,12.7158203125,5.086639404289599,25.431640625,7.629943847648974,38.1474609375-.382476806640625,2.631011962890625-2.260162353510168,4.718780517579944-4.585998535148974,5.19744873046875-2.948638916021082.606842041015625-6.218048095710401-1.45489501953125-7.031860351569776-4.8917236328125-2.179351806640625-12.23919677734375-4.358734130861194-24.4783935546875-6.5380859375-36.71759033203125Z"/>
      <path class="cls-14" d="m118.477980118126652,75.306781088865137c6.415878867104766-6.556414424642753,19.254590394504703-3.488919802515738,22.761967029080552,4.753870017154441-6.645873060533631-4.757656072945792-14.755061529824161-6.922784221519578-22.761967029080552-4.753870017154441h0Z"/>
      <path class="cls-14" d="m51.735792618126652,78.486224448240137c4.179341881379514-8.165928376521151,17.349927342966112-9.049520704850693,23.146825678002642-2.220125878787258-7.758995871699881-2.569413545421412-16.145267979540222-2.228730884315155-23.146825678002642,2.220125878787258h0Z"/>
      <path class="cls-7" d="m125.530936615676183,177.597875527251745c-3.797729492191138-.64898681640625-7.595428466800513-1.297973632811591-11.393157958991651-1.94696044921875-2.365081787098461,12.60498046875-4.730194091789599,25.209991455078125-7.095275878898974,37.814971923828125.382476806640625,2.631011962890625,2.260162353510168,4.71881103515625,4.585998535148974,5.19744873046875,2.948638916021082.6068115234375,6.218048095710401-1.454925537109375,7.031829833991651-4.8917236328125,2.290191650388806-12.05792236328125,4.580413818359375-24.115814208984375,6.87060546875-36.173736572265625Z"/>
      <path class="cls-8" d="m77.695438057184219,227.21741013830615h34.880615234375v22.0867919921875c-2.9923095703125,6.73272705078125-9.5340576171875,11.17840576171875-16.7659912109375,11.39093017578125-7.818359375.22979736328125-15.0765380859375-4.5279541015625-18.1146240234375-11.923583984375v-21.55413818359375Z"/>
      <path class="cls-3" d="m88.091800361871719,419.2446928531499c-.4100341796875,1.22998046875-1.8900146484375,1.77996826171875-2.820068359375,2.07000732421875-6.800048828125,2.15997314453125-17.22998046875,1.260009765625-18.419921875,1.14996337890625-7.27001953125-.66998291015625-9.090087890625-1.17999267578125-9.85009765625-2.699951171875-1.030029296875-2.07000732421875.52001953125-4.74005126953125.9100341796875-5.4000244140625.3399658203125-.58001708984375.7301025390625-1.1199951171875,1.1800537109375-1.6099853515625.260009765625-3.48004150390625.530029296875-6.97003173828125.7900390625-10.46002197265625,3.2899169921875,1.02001953125,7.89990234375,2.04998779296875,13.449951171875,2.1400146484375,4.64990234375.08001708984375,8.6099853515625-.530029296875,11.6199951171875-1.22003173828125.739990234375,4.260009765625,1.489990234375,8.52001953125,2.22998046875,12.780029296875.0599365234375.07000732421875.0999755859375.1400146484375.1500244140625.2099609375.3798828125.60003662109375,1.159912109375,1.85003662109375.760009765625,3.0400390625Z"/>
      <path class="cls-3" d="m137.291751533746719,419.7647123843999c-.760009765625,1.51995849609375-2.580078125,2.02996826171875-9.8499755859375,2.699951171875-1.1900634765625.11004638671875-11.6199951171875,1.010009765625-18.4200439453125-1.14996337890625-.929931640625-.2900390625-2.409912109375-.84002685546875-2.8299560546875-2.07000732421875-.3900146484375-1.19000244140625.3900146484375-2.44000244140625.7698974609375-3.0400390625.1201171875-.18994140625.25-.37994384765625.380126953125-.55999755859375.3399658203125-4.449951171875.669921875-8.88995361328125,1.010009765625-13.3499755859375,3.2900390625,1.02001953125,7.89990234375,2.04998779296875,13.4599609375,2.1400146484375,4.6400146484375.08001708984375,8.5999755859375-.530029296875,11.6099853515625-1.22003173828125.5499267578125,3.1300048828125,1.0999755859375,6.27001953125,1.6400146484375,9.4000244140625.510009765625.52996826171875.949951171875,1.1099853515625,1.320068359375,1.75.389892578125.65997314453125,1.93994140625,3.33001708984375.909912109375,5.4000244140625Z"/>
      <circle class="cls-1" cx="78.857714549835237" cy="216.226861068029393" r="5.289710156368755"/>
      <circle class="cls-1" cx="112.576041596144933" cy="216.226861068029393" r="5.289710156369438"/>
      <path d="m139.787479072809219,94.50207810705615c1.4385986328125-.485046386719659,3.1829833984375-1.205780029297784,5.0509033203125-2.292999267579034,1.839599609375-1.070770263670966,3.309814453125-2.21234130859375,4.43310546875-3.210174560545966-.8870849609375.260711669920966-2.3743896484375.575714111327216-4.203857421875.382171630858466-2.1219482421875-.224517822265625-3.6827392578125-1.025146484375-4.509521484375-1.528656005858466,4.8240966796875-1.460876464844659,5.85693359375-2.003845214844659,5.8089599609375-2.216583251954034-.0692138671875-.306854248045966-2.3277587890625.336090087890625-5.509521484375,0-4.2822265625-.45233154296875-6.954833984375-2.331390380859375-7.26123046875-1.834381103515625-.29638671875.4808349609375,2.36865234375,1.974792480469659,4.28662109375,5.197448730469659,1.226806640625,2.061218261717841,1.6995849609375,4.076354980467841,1.904541015625,5.503173828125Z"/>
      <path class="cls-14" d="m36.615482002496719,304.9160795718999c1.438564443840733,3.136403121712647,2.788771515577537,6.031483490762184,3.82186013782848,9.324809515976085-2.23715671626087-2.584186032505386-3.725681081506991-5.872959967382485-3.82186013782848-9.324809515976085h0Z"/>
      <path class="cls-14" d="m33.895755439996719,304.9160795718999c1.438532461363138,3.136398379385355,2.788678448199789,6.031472316546569,3.821860032023324,9.324809555069805-2.237308014009614-2.584069714055659-3.725619311844639-5.872997226168081-3.821860032023324-9.324809555069805h0Z"/>
      <path class="cls-14" d="m152.975746127714956,304.138809204690915c-.096256007089323,3.451790638016973-1.584531263393728,6.74069579526622-3.821642765853539,9.324891373893479,1.032886725997741-3.293247548361251,2.383170201042958-6.188663164750324,3.821642765853539-9.324891373893479h0Z"/>
      <path class="cls-14" d="m155.695594760527456,304.138809204690915c-.096199595571306,3.451758249677368-1.584797323892417,6.740591946880159-3.821642794087893,9.324891359461617,1.032747749746704-3.293280675607093,2.383092378740912-6.188699417703901,3.821642794087893-9.324891359461617h0Z"/>
      <g>
        <path class="cls-13" d="m40.341556221246719,187.2664213687749c1.7498779296875,1.602203369140625,4.0211181640625,4.052093505859375,5.9617919921875,7.490447998046875,2.7965087890625,4.95452880859375,3.577880859375,9.6070556640625,3.8216552734375,12.382171630859375"/>
        <path class="cls-14" d="m40.341568870489937,187.26640807208787c6.598399735268686,4.028725906281579,10.602467415543288,12.188976677958635,9.783562749875273,19.872567307080317-2.028333340687823-7.262662076022025-5.235278184931303-13.853297732755891-9.783562749875273-19.872567307080317h0Z"/>
      </g>
      <g>
        <path class="cls-13" d="m147.456223786139162,186.865139514084149c-1.74987792976026,1.602203369064227-4.021118164244399,4.052093505681114-5.961791992524013,7.490447997781303-2.796508789286236,4.954528808466421-3.5778808598061,9.60705566390061-3.821655273994111,12.382171630684752"/>
        <path class="cls-14" d="m147.456223411505562,186.865132437323155c-4.54837780554044,6.019317635514199-7.755223038828262,12.609898952850017-9.783245976997932,19.872716103815947-.819265923862986-7.683605037502275,3.184763801402369-15.843978778764722,9.783245976997932-19.872716103815947h0Z"/>
      </g>
      <path class="cls-14" d="m64.271487861871719,412.86511521643115c4.112960447122532-4.180607381957088,11.829158843525875-4.062219126517448,15.821660447520117.229269984785788-5.268380304529273-1.596147171261691-10.51226301072893-1.69973680430121-15.821660447520117-.229269984785788h0Z"/>
      <path class="cls-14" d="m115.216446412166988,412.86511521643115c4.112960447122532-4.180607381957088,11.829158843525875-4.062219126517448,15.821660447520117.229269984785788-5.268380304529273-1.596147171261691-10.51226301072893-1.69973680430121-15.821660447520117-.229269984785788h0Z"/>
      <path class="cls-8" d="m45.863053245489937,272.495137320134745c11.46014404296875,4.16796875,29.65460205078125,9.198944091796875,52.3447265625,8.943267822265625,18.786346435546875-.211669921875,34.1666259765625-3.9742431640625,44.7423095703125-7.46478271484375.292449951171875,2.833831787109375.584930419921875,5.667694091796875.87738037109375,8.50152587890625-10.122833251953125,3.76239013671875-25.92254638671875,8.246429443359375-45.61968994140625,8.364501953125-23.801727294921875.142669677734375-42.4151611328125-6.154998779296875-53.118927001953125-10.717041015625.258056640625-2.54248046875.516143798828125-5.084991455078125.774200439453125-7.627471923828125Z"/>
      <path class="cls-8" d="m35.239835914264404,381.629864536997047c8.4520263671875,3.52587890625,21.11376953125,7.56011962890625,36.8277587890625,8.1524658203125,8.5704345703125.32305908203125,16.1163330078125-.4505615234375,22.2994384765625-1.54779052734375-.1092529296875,1.9649658203125-.218505859375,3.92987060546875-.3277587890625,5.89483642578125-6.0845947265625,1.08380126953125-13.3529052734375,1.853515625-21.5413818359375,1.680419921875-15.986328125-.33795166015625-29.0115966796875-4.13250732421875-37.8990478515625-7.59466552734375.213623046875-2.195068359375.4273681640625-4.39019775390625.6409912109375-6.58526611328125Z"/>
      <path class="cls-8" d="m156.414640601764404,382.292218052622047c-7.71484375,3.43817138671875-20.4007568359375,7.83514404296875-36.4091796875,7.832275390625-8.377685546875-.00152587890625-15.6087646484375-1.2076416015625-21.3223876953125-2.63360595703125.082275390625,2.11090087890625.1646728515625,4.22186279296875.2469482421875,6.332763671875,6.317138671875,1.2506103515625,14.173828125,2.21038818359375,23.1822509765625,1.977783203125,14.845947265625-.38336181640625,26.9061279296875-3.8525390625,35.0853271484375-6.974853515625-.260986328125-2.1781005859375-.52197265625-4.35626220703125-.782958984375-6.53436279296875Z"/>
    </g>
  </g>
</svg>