<svg width="265" height="600" viewBox="0 0 265 600" fill="none" xmlns="http://www.w3.org/2000/svg">
<g clip-path="url(#clip0_403_117)">
<path d="M130.519 17.8777C131.045 16.847 133.625 12.159 131.816 8.36852C127.724 -0.201231 103.904 1.49565 91.1855 4.91065C43.6726 17.6678 22.6382 88.8843 14.2478 117.292C6.13311 144.766 2.875 170.475 2.14534 192.932C8.85313 201.146 18.2368 210.577 30.9879 218.769C69.114 243.262 109.931 239.067 124.174 236.911C120.889 90.6658 124.151 30.3544 130.519 17.8777Z" fill="#DF5026" stroke="#231F20" stroke-width="3" stroke-miterlimit="10"/>
<path d="M134.377 17.8777C133.845 16.8355 131.273 12.1546 133.081 8.36852C137.172 -0.201231 160.992 1.49565 173.711 4.91065C221.224 17.6678 242.258 88.8843 250.648 117.292C258.763 144.766 262.021 170.475 262.751 192.932C254.427 201.582 241.928 212.477 224.629 221.362C191.812 238.216 160.793 238.041 145.786 236.911C145.33 90.778 140.753 30.3676 134.377 17.8777Z" fill="#DF5026" stroke="#231F20" stroke-width="3" stroke-miterlimit="10"/>
<path d="M114.954 231.033C116.349 234.233 118.05 239.348 117.98 245.729C117.949 248.537 117.582 251.015 117.115 253.077C121.767 254.51 128.276 255.974 136.134 256.103C142.703 256.21 148.3 255.352 152.559 254.374C152.292 251.452 152.198 247.942 152.559 244C153.017 238.997 154.074 234.758 155.152 231.465C141.753 231.321 128.354 231.177 114.954 231.033Z" fill="#FCD8B1" stroke="#231F20" stroke-width="3" stroke-miterlimit="10"/>
<path d="M66.6156 54.6028C69.4705 49.2588 82.0853 27.0949 109.54 17.7052C133.892 9.37665 154.604 16.3361 161.269 18.6866C188.737 28.3739 202.194 49.602 205.849 55.8477C196.166 49.4183 172.677 35.7077 139.699 34.5647C102.854 33.2877 76.2417 48.4642 66.6156 54.6028Z" fill="#199747" stroke="#231F20" stroke-width="2" stroke-miterlimit="10"/>
<path d="M232.59 133.398C234.295 123.125 229.554 113.782 222.001 112.529C214.448 111.276 206.943 118.587 205.239 128.86C203.535 139.133 208.276 148.476 215.829 149.729C223.381 150.983 230.886 143.671 232.59 133.398Z" fill="#FCD8B1" stroke="#231F20" stroke-width="3" stroke-miterlimit="10"/>
<path d="M53.3494 155.427C60.9023 154.174 65.6434 144.83 63.939 134.558C62.2346 124.285 54.7302 116.973 47.1773 118.226C39.6245 119.479 34.8834 128.823 36.5878 139.095C38.2921 149.368 45.7966 156.68 53.3494 155.427Z" fill="#FCD8B1" stroke="#231F20" stroke-width="3" stroke-miterlimit="10"/>
<path d="M221.551 142.17C220.392 166.119 210.651 183.056 207.06 189.121C203.13 195.765 195.736 207.966 181.132 218.301C174.628 222.896 157.621 234.588 133.799 233.866C113.158 233.23 98.8081 223.631 90.3537 217.976C84.9108 214.328 72.809 206.058 63.1246 190.747C58.1764 182.914 55.0096 175.096 53.0021 167.674C49.5242 154.837 49.4677 143.244 49.5101 134.988C49.5383 130.407 49.5525 125.544 49.8494 120.511C50.6553 107.207 53.3838 92.6879 63.1246 78.9037C86.4235 45.9488 129.473 45.8498 133.785 45.9063C137.489 45.9488 178.219 47.1646 203.823 80.8546C209.775 88.701 213.733 96.7312 216.349 104.224C221.085 117.712 221.509 129.403 221.65 134.988C221.707 137.448 221.678 139.851 221.551 142.17Z" fill="#FCD8B1" stroke="#231F20" stroke-width="3" stroke-miterlimit="10"/>
<path d="M123.91 163.677C127.397 152.92 143.682 153.806 147.088 164.164C144.987 162.988 143.101 162.017 141.172 161.341C135.187 159.071 129.324 160.235 123.91 163.677Z" fill="#231F20"/>
<path d="M92.7464 154.176C103.008 154.176 111.326 145.857 111.326 135.596C111.326 125.335 103.008 117.016 92.7464 117.016C82.4851 117.016 74.1666 125.335 74.1666 135.596C74.1666 145.857 82.4851 154.176 92.7464 154.176Z" fill="white"/>
<path d="M108.338 145.701C99.1771 159.917 76.9999 156.502 72.7961 139.855C69.8676 129.162 77.5226 117.328 88.4853 115.637C105.404 112.663 117.578 131.535 108.338 145.701ZM108.338 145.701C117.017 132.218 104.582 115.23 89.2487 119.215C80.5928 121.331 74.7513 130.325 76.3563 139.095C78.9744 154.731 99.5778 159.131 108.338 145.701Z" fill="#231F20"/>
<path d="M94.3146 154.175C102.336 154.175 108.838 147.673 108.838 139.652C108.838 131.631 102.336 125.128 94.3146 125.128C86.2935 125.128 79.7912 131.631 79.7912 139.652C79.7912 147.673 86.2935 154.175 94.3146 154.175Z" fill="black"/>
<path d="M158.151 200.245C157.025 202.069 150.263 213.017 138.641 214.146C125.892 215.385 116.736 203.89 115.583 202.396C114.5 200.994 113.201 198.718 110.604 194.167C107.347 188.456 104.899 183.637 103.289 180.341C105.453 181.494 108.733 183.014 112.969 184.125C113.481 184.26 114.448 184.484 115.809 184.772C121.478 185.972 128.561 186.91 136.704 186.73C142.311 186.607 149.693 186.41 158.759 183.545C162.535 182.351 165.578 181.02 167.709 179.992C166.485 182.94 164.627 187.25 162.148 192.384C160.1 196.625 159.077 198.746 158.151 200.245Z" fill="#3D2912" stroke="#231F20" stroke-width="3" stroke-miterlimit="10"/>
<path d="M156.313 199.353C155.935 200.092 150.469 210.329 138.808 211.51C130.294 212.371 121.919 208.058 117.412 200.488C118.88 200.02 120.929 199.421 123.409 198.867C130.731 197.23 136.91 197.078 140.804 197.186C146.83 197.353 152.072 198.272 156.313 199.353Z" fill="#DB8AA1"/>
<path d="M74.2837 132.661C72.2499 131.976 69.7838 130.957 67.143 129.42C64.5422 127.906 62.4637 126.292 60.8756 124.881C62.1297 125.25 64.2324 125.695 66.8188 125.422C69.8188 125.104 72.0254 123.972 73.1943 123.26C66.3741 121.195 64.9139 120.427 64.9817 120.127C65.0796 119.693 68.2727 120.602 72.7709 120.127C78.825 119.487 82.6034 116.831 83.0366 117.533C83.4556 118.213 79.6879 120.325 76.9763 124.881C75.2419 127.795 74.5735 130.644 74.2837 132.661Z" fill="black"/>
<path d="M158.759 185.6C158.49 186.165 158.193 186.702 157.868 187.155C157.331 187.904 155.578 190.124 147.717 191.905C143.943 192.767 138.302 193.983 130.639 192.994C124.829 192.23 120.078 191.622 116.615 187.791C116.402 187.551 116.12 187.24 115.809 186.858C121.478 188.088 128.561 189.049 136.704 188.865C145.54 188.667 153.033 187.197 158.759 185.6Z" fill="white"/>
<path d="M177.682 154.086C187.943 154.086 196.262 145.767 196.262 135.506C196.262 125.245 187.943 116.926 177.682 116.926C167.421 116.926 159.102 125.245 159.102 135.506C159.102 145.767 167.421 154.086 177.682 154.086Z" fill="white"/>
<path d="M162.091 145.611C170.851 159.042 191.457 154.639 194.072 139.005C195.676 130.235 189.836 121.24 181.179 119.125C165.843 115.142 153.412 132.129 162.091 145.611ZM162.091 145.611C152.852 131.444 165.023 112.573 181.943 115.547C192.904 117.24 200.563 129.071 197.632 139.766C193.429 156.412 171.249 159.828 162.091 145.611Z" fill="#231F20"/>
<path d="M85.4847 134.701C87.9589 134.701 89.9647 132.695 89.9647 130.221C89.9647 127.746 87.9589 125.741 85.4847 125.741C83.0105 125.741 81.0047 127.746 81.0047 130.221C81.0047 132.695 83.0105 134.701 85.4847 134.701Z" fill="white"/>
<path d="M176.114 154.086C184.135 154.086 190.637 147.584 190.637 139.562C190.637 131.541 184.135 125.039 176.114 125.039C168.093 125.039 161.59 131.541 161.59 139.562C161.59 147.584 168.093 154.086 176.114 154.086Z" fill="black"/>
<path d="M78.8679 172.109C85.752 172.109 91.3327 169.645 91.3327 166.605C91.3327 163.565 85.752 161.101 78.8679 161.101C71.9838 161.101 66.4031 163.565 66.4031 166.605C66.4031 169.645 71.9838 172.109 78.8679 172.109Z" fill="#DB8AA1"/>
<path d="M192.057 172.109C198.941 172.109 204.522 169.645 204.522 166.605C204.522 163.565 198.941 161.101 192.057 161.101C185.173 161.101 179.592 163.565 179.592 166.605C179.592 169.645 185.173 172.109 192.057 172.109Z" fill="#DB8AA1"/>
<path d="M133.643 24.7875C111.622 24.6913 99.3919 29.7309 95.647 31.3831C95.6468 31.3831 86.5521 35.3957 78.7898 41.5406C51.4968 63.1471 49.1427 110.41 48.9658 115.02C57.2677 111.858 72.3107 104.757 84.9492 89.5186C91.1218 82.076 95.0585 74.6966 97.5921 68.7714C93.8401 74.0919 88.2149 83.7531 87.3508 96.6666C86.915 103.18 87.6376 111.312 89.4876 111.563C91.5567 111.843 93.435 102.091 99.7131 89.1102C103.762 80.7377 108.265 74.3163 111.743 69.9018C109.734 76.7362 107.886 85.5242 107.493 95.8265C107.27 101.678 107.556 107 108.08 111.663C116.888 113.77 128.758 115.518 142.652 114.48C148.979 114.007 154.69 113.034 159.69 111.866C160.829 103.869 161.464 94.2454 160.658 83.427C160.291 78.502 159.67 73.9171 158.906 69.7096C161.165 71.99 164.096 75.133 167.264 79.0905C169.397 81.7565 172.818 86.0303 175.718 91.1395C182 102.205 182.172 110.729 183.499 110.59C184.914 110.442 185.718 100.626 184.471 90.4911C183.196 80.1288 180.079 71.8906 177.515 66.3777C181.614 73.2245 187.05 81.1004 194.196 89.1944C203.203 99.396 212.296 106.964 219.914 112.427C220.658 104.165 220.981 88.0399 213.431 70.0681C210.372 62.7872 203.974 47.5576 188.361 36.5699C171.856 24.9545 154.715 24.8796 133.643 24.7875Z" fill="#DF5026" stroke="#231F20" stroke-width="3" stroke-linecap="round" stroke-linejoin="round"/>
<path d="M82.7443 546.928C83.4646 554.276 84.185 561.624 84.9054 568.972C89.5565 570.405 96.0664 571.869 103.924 571.998C110.493 572.105 116.09 571.247 120.349 570.269C121.213 562.633 122.078 554.997 122.942 547.36C109.543 547.216 96.1435 547.072 82.7443 546.928Z" fill="#FCD8B1" stroke="#231F20" stroke-width="3" stroke-miterlimit="10"/>
<path d="M151.017 546.928C151.737 554.276 152.458 561.624 153.178 568.972C157.829 570.405 164.339 571.869 172.196 571.998C178.765 572.105 184.362 571.247 188.621 570.269C189.486 562.633 190.35 554.997 191.215 547.36C177.815 547.216 164.416 547.072 151.017 546.928Z" fill="#FCD8B1" stroke="#231F20" stroke-width="3" stroke-miterlimit="10"/>
<path d="M184.314 134.611C186.788 134.611 188.794 132.605 188.794 130.131C188.794 127.657 186.788 125.651 184.314 125.651C181.84 125.651 179.834 127.657 179.834 130.131C179.834 132.605 181.84 134.611 184.314 134.611Z" fill="white"/>
<path d="M249.116 346.355C245.264 350.081 238.473 355.687 228.559 359.53C216 364.398 204.913 363.922 199.238 363.278C198.206 347.657 197.174 332.036 196.141 316.415C196.311 349.467 196.481 382.52 196.651 415.573H69.6951C70.3494 382.412 71.0038 349.251 71.658 316.091C70.4167 325.98 69.3182 336.167 68.3942 346.638C67.8981 352.26 67.4661 357.808 67.0937 363.278C64.0475 363.79 59.9881 364.227 55.2146 364.057C51.6237 363.929 45.225 363.372 37.9437 360.827C26.8217 356.939 19.3052 350.394 15.2515 346.239C27.7863 319.224 40.3212 292.21 52.8559 265.195C53.8437 263.765 55.4901 261.886 58.0426 260.657C58.5013 260.436 58.9512 260.254 59.3861 260.105C72.6679 255.538 79.3119 253.263 80.7224 252.877C97.1862 248.369 114.516 246.87 117.541 246.62C120.388 248.213 126.535 251.155 134.872 251.282C143.228 251.41 149.473 248.645 152.367 247.137C182.23 252.718 203.794 257.672 205.38 258.549C207.556 259.753 209.27 261.305 209.27 261.305C211.501 263.325 212.855 265.476 213.647 266.978C225.47 293.437 237.293 319.896 249.116 346.355Z" fill="#DB8AA1" stroke="#231F20" stroke-width="3" stroke-miterlimit="10" stroke-linecap="round"/>
<path d="M93.8599 301.543H175.985C176.61 305.837 177.912 311.449 180.739 317.536C185.669 328.15 192.754 334.859 197.137 338.389C205.586 408.902 214.035 479.415 222.484 549.929C211.488 554.189 195.23 558.993 175.138 559.801C161.306 560.357 149.381 558.869 140.108 556.993C138.907 526.214 137.707 495.435 136.507 464.656C135.402 495.579 134.298 526.502 133.193 557.425C124.591 558.958 114.315 560.046 102.739 559.801C80.1378 559.323 61.7231 553.959 49.1584 549.064C55.9906 478.876 62.8226 408.687 69.6548 338.499C74.4366 334.312 80.6592 327.897 86.0797 318.832C89.897 312.449 92.3058 306.44 93.8599 301.543Z" fill="#0194C0" stroke="#231F20" stroke-width="3" stroke-linecap="round" stroke-linejoin="round"/>
<path d="M39.7855 365.971C39.8272 369.346 39.7989 377.575 40.9989 385.365C42.0552 392.221 43.8339 399.456 46.5467 407.033C45.5725 408.319 44.0858 410.482 42.8709 413.349C42.6272 413.925 40.7958 418.492 40.8256 423.891C40.8884 435.223 49.1643 447.61 54.3481 446.799C56.2461 446.502 57.4335 444.482 57.7864 443.881C59.724 440.585 57.9176 437.432 57.6783 432.103C57.5729 429.753 57.746 426.397 59.0831 422.27C60.846 424.299 61.7628 426.223 62.2708 427.781C63.5068 431.569 62.6439 434.166 64.5401 435.723C65.4542 436.474 67.036 437.004 68.2681 436.533C72.0702 435.081 72.3405 424.171 69.951 416.11C68.1899 410.17 64.9726 405.739 62.1496 402.711C63.5061 389.567 64.8626 376.422 66.2191 363.278C62.8903 364.011 58.3748 364.664 53.0318 364.458C47.5916 364.249 43.0691 363.22 39.7754 362.209C39.769 363.111 39.7662 364.41 39.7855 365.971Z" fill="#FCD8B1" stroke="#231F20" stroke-width="3.29081" stroke-linecap="round" stroke-linejoin="round"/>
<path d="M227.684 365.971C227.879 375 226.977 382.073 226.47 385.365C225.414 392.221 223.635 399.456 220.922 407.033C221.897 408.319 223.383 410.482 224.598 413.349C225.765 416.102 226.642 420.301 226.644 423.891C226.649 433.447 220.437 446.91 214.328 446.758C212.331 446.709 210.555 445.21 209.683 443.881C207.748 440.933 209.534 437.819 209.791 432.103C209.896 429.753 209.723 426.397 208.386 422.27C206.623 424.299 205.706 426.223 205.198 427.781C203.962 431.569 204.825 434.166 202.929 435.723C202.015 436.474 200.433 437.004 199.201 436.533C195.399 435.081 195.129 424.171 197.518 416.11C199.279 410.17 202.497 405.739 205.32 402.711C203.963 389.567 202.607 376.422 201.25 363.278C204.694 363.815 209.144 364.193 214.298 363.829C219.619 363.454 224.094 362.402 227.49 361.344C227.562 362.499 227.643 364.086 227.684 365.971Z" fill="#FCD8B1" stroke="#231F20" stroke-width="3.29081" stroke-linecap="round" stroke-linejoin="round"/>
<path d="M92.8614 250.532C97.8218 249.714 102.782 248.896 107.743 248.078C111.338 266.055 114.934 284.033 118.53 302.01C117.989 305.729 115.334 308.681 112.046 309.358C107.877 310.216 103.255 307.301 102.105 302.442C99.0236 285.139 95.9425 267.835 92.8614 250.532Z" fill="#0194C0" stroke="#231F20" stroke-width="3" stroke-miterlimit="10"/>
<path d="M167.744 106.685C176.814 97.416 194.965 101.753 199.924 113.406C190.528 106.68 179.064 103.619 167.744 106.685Z" fill="#231F20"/>
<path d="M73.386 111.18C79.2946 99.6354 97.9147 98.3862 106.11 108.041C95.1408 104.409 83.2846 104.89 73.386 111.18Z" fill="#231F20"/>
<path d="M177.715 251.301C172.346 250.383 166.977 249.466 161.608 248.548C158.264 266.369 154.92 284.189 151.577 302.01C152.117 305.729 154.772 308.681 158.06 309.358C162.229 310.216 166.851 307.301 168.002 302.442C171.239 285.395 174.477 268.348 177.715 251.301Z" fill="#0194C0" stroke="#231F20" stroke-width="3" stroke-miterlimit="10"/>
<path d="M110.087 321.451H159.4V352.677C155.169 362.195 145.921 368.48 135.697 368.781C124.643 369.106 114.382 362.379 110.087 351.924L110.087 321.451Z" fill="#266BB5" stroke="#231F20" stroke-width="3" stroke-linecap="round" stroke-linejoin="round"/>
<path d="M124.785 592.933C124.205 594.671 122.113 595.449 120.798 595.859C111.184 598.913 96.4388 597.64 94.7565 597.485C84.4784 596.538 81.9052 595.817 80.8307 593.668C79.3745 590.741 81.5659 586.966 82.1173 586.033C82.598 585.213 83.1495 584.45 83.7856 583.757C84.1532 578.837 84.535 573.903 84.9026 568.969C89.5537 570.411 96.0712 571.867 103.918 571.995C110.492 572.108 116.09 571.245 120.346 570.27C121.392 576.293 122.452 582.315 123.498 588.338C123.583 588.437 123.64 588.536 123.71 588.635C124.247 589.483 125.35 591.25 124.785 592.933Z" fill="#DB8AA1" stroke="#231F20" stroke-width="3" stroke-miterlimit="10"/>
<path d="M194.342 593.668C193.268 595.817 190.694 596.538 180.416 597.485C178.734 597.64 163.989 598.913 154.375 595.859C153.06 595.449 150.968 594.671 150.374 592.933C149.823 591.25 150.925 589.483 151.462 588.635C151.632 588.366 151.816 588.098 152 587.843C152.48 581.552 152.947 575.275 153.428 568.969C158.079 570.411 164.596 571.867 172.457 571.995C179.017 572.108 184.615 571.245 188.871 570.27C189.648 574.695 190.426 579.134 191.189 583.559C191.91 584.309 192.532 585.129 193.056 586.033C193.607 586.966 195.798 590.741 194.342 593.668Z" fill="#DB8AA1" stroke="#231F20" stroke-width="3" stroke-miterlimit="10"/>
<path d="M111.73 313.391C115.86 313.391 119.208 310.043 119.208 305.913C119.208 301.783 115.86 298.435 111.73 298.435C107.6 298.435 104.252 301.783 104.252 305.913C104.252 310.043 107.6 313.391 111.73 313.391Z" fill="white" stroke="#231F20" stroke-width="3" stroke-miterlimit="10"/>
<path d="M159.4 313.391C163.53 313.391 166.878 310.043 166.878 305.913C166.878 301.783 163.53 298.435 159.4 298.435C155.27 298.435 151.921 301.783 151.921 305.913C151.921 310.043 155.27 313.391 159.4 313.391Z" fill="white" stroke="#231F20" stroke-width="3" stroke-miterlimit="10"/>
<path d="M197.87 133.823C199.904 133.137 202.37 132.118 205.011 130.581C207.612 129.067 209.691 127.453 211.279 126.042C210.024 126.411 207.922 126.856 205.335 126.583C202.335 126.265 200.129 125.133 198.96 124.422C205.78 122.356 207.24 121.589 207.172 121.288C207.075 120.854 203.882 121.763 199.383 121.288C193.329 120.648 189.551 117.992 189.118 118.694C188.699 119.374 192.466 121.486 195.178 126.042C196.912 128.957 197.581 131.805 197.87 133.823Z" fill="black"/>
<path d="M52.0094 431.299C54.0432 435.733 55.9521 439.826 57.4126 444.482C54.2498 440.828 52.1454 436.179 52.0094 431.299Z" fill="#231F20"/>
<path d="M48.1643 431.299C50.1981 435.733 52.1069 439.826 53.5676 444.482C50.4045 440.829 48.3004 436.179 48.1643 431.299Z" fill="#231F20"/>
<path d="M216.516 430.2C216.379 435.08 214.275 439.73 211.113 443.383C212.573 438.728 214.482 434.634 216.516 430.2Z" fill="#231F20"/>
<path d="M220.361 430.2C220.225 435.08 218.12 439.73 214.958 443.383C216.418 438.727 218.327 434.634 220.361 430.2Z" fill="#231F20"/>
<path d="M57.2772 264.97C59.7511 267.235 62.9621 270.698 65.7058 275.559C69.6594 282.564 70.764 289.142 71.1087 293.065" fill="#DB8AA1"/>
<path d="M57.2772 264.97C66.6058 270.665 72.2666 282.202 71.1089 293.065C68.2413 282.797 63.7074 273.48 57.2772 264.97Z" fill="#231F20"/>
<path d="M208.712 264.402C206.238 266.667 203.027 270.131 200.284 274.992C196.33 281.997 195.225 288.574 194.881 292.498" fill="#DB8AA1"/>
<path d="M208.712 264.402C202.282 272.912 197.748 282.23 194.881 292.498C193.723 281.635 199.383 270.098 208.712 264.402Z" fill="#231F20"/>
<path d="M91.1085 583.913C96.9233 578.003 107.832 578.17 113.477 584.238C106.028 581.981 98.6148 581.835 91.1085 583.913Z" fill="#231F20"/>
<path d="M163.133 583.913C168.948 578.003 179.856 578.17 185.501 584.238C178.053 581.981 170.639 581.835 163.133 583.913Z" fill="#231F20"/>
<path d="M65.0833 385.463C81.2853 391.356 107.008 398.469 139.086 398.107C165.646 397.808 187.39 392.488 202.342 387.554C202.755 391.56 203.169 395.566 203.582 399.573C189.271 404.892 166.934 411.231 139.086 411.398C105.436 411.6 79.1214 402.696 63.9888 396.247C64.3536 392.652 64.7185 389.058 65.0833 385.463Z" fill="#266BB5" stroke="#231F20" stroke-width="3" stroke-linecap="round" stroke-linejoin="round"/>
<path d="M50.0646 539.754C62.0138 544.739 79.9145 550.442 102.13 551.28C114.247 551.737 124.915 550.643 133.657 549.092C133.502 551.87 133.348 554.648 133.193 557.426C124.591 558.958 114.315 560.046 102.739 559.801C80.1378 559.324 61.7231 553.959 49.1584 549.064C49.4604 545.961 49.7626 542.857 50.0646 539.754Z" fill="#266BB5" stroke="#231F20" stroke-width="3" stroke-linecap="round" stroke-linejoin="round"/>
<path d="M221.377 540.69C210.47 545.551 192.535 551.767 169.903 551.763C158.059 551.761 147.836 550.056 139.758 548.04C139.875 551.024 139.991 554.009 140.108 556.993C149.039 558.761 160.146 560.118 172.882 559.789C193.871 559.247 210.921 554.343 222.484 549.928C222.115 546.849 221.746 543.77 221.377 540.69Z" fill="#266BB5" stroke="#231F20" stroke-width="3" stroke-linecap="round" stroke-linejoin="round"/>
</g>
<defs>
<clipPath id="clip0_403_117">
<rect width="264.9" height="600" fill="white"/>
</clipPath>
</defs>
</svg>
