<?xml version="1.0" encoding="UTF-8"?>
<svg id="Layer_2" data-name="Layer 2" xmlns="http://www.w3.org/2000/svg" viewBox="0 0 549.24281 713.04745">
  <defs>
    <style>
      .cls-1 {
        fill: none;
        stroke: #fff;
        stroke-dasharray: 0 0 5 5;
      }
    </style>
  </defs>
  <g id="Layer_1-2" data-name="Layer 1">
    <path class="cls-1" d="m515.97279.51c21.25,54.64996,32.77002,113.23999,32.77002,174.16998,0,277.78998-239.47998,506.71997-547.94995,537.87"/>
    <path class="cls-1" d="m441.81287.51c1.31006,2.72998,2.58997,5.46997,3.83997,8.21997l.46008-.21002c.67993,1.51001,1.35986,3.02002,2.02991,4.53003l-.45996.20001c1.32996,3.02997,2.63,6.07001,3.89001,9.12l.45996-.19c.63,1.52002,1.26001,3.04999,1.87,4.58997l-.46997.18005c1.22998,3.06995,2.42004,6.14996,3.56995,9.23999l.46997-.17004c.58008,1.55005,1.15015,3.10004,1.70007,4.66003l-.47009.16998c1.12012,3.10999,2.20007,6.23004,3.24011,9.35999l.46997-.15997c.52002,1.57001,1.03992,3.14001,1.53992,4.71997l-.47998.15002c1,3.14001,1.97009,6.29999,2.90015,9.47003l.47998-.14001c.45996,1.58997.90991,3.17999,1.35986,4.76996l-.47998.13c.89014,3.18005,1.73999,6.38,2.55005,9.58002l.47998-.12c.41003,1.59998.80005,3.20001,1.18994,4.81l-.48999.10999c.77002,3.21002,1.5,6.42999,2.20007,9.66003l.47998-.10004c.34998,1.62.69006,3.24005,1.01001,4.86005l-.48999.09998c.65002,3.22998,1.27002,6.46997,1.83997,9.72998l.48999-.08997c.29004,1.63.56006,3.25.83008,4.89001l-.5.07996c.53003,3.25,1.03003,6.52002,1.47998,9.79999l.48999-.06995c.22998,1.63995.43994,3.27997.65002,4.92999l-.5.06c.41003,3.26001.77991,6.53998,1.09998,9.82001l.5-.05005c.15991,1.65002.32007,3.29004.45996,4.94l-.5.05005c.29004,3.28998.54004,6.58997.73999,9.89996l.5-.02997c.1001,1.63995.19006,3.27997.28003,4.92999l-.5.01996c.16003,3.29004.28003,6.59003.36011,9.89001l.5-.01001c.04993,1.66003.07983,3.31.09985,4.97003l-.5.01001c.02002,1.64996.03003,3.31.03003,4.96997s-.01001,3.32001-.03003,4.97998h.5c-.02002,1.66003-.04993,3.32001-.09985,4.97003l-.5-.01001c-.08008,3.31-.20007,6.60004-.36011,9.89001l.5.02997c-.08997,1.64001-.17993,3.29004-.28003,4.93005l-.5-.03003c-.19995,3.31-.44995,6.60999-.73999,9.90002l.5.03998c-.13989,1.65002-.30005,3.29999-.45996,4.94l-.5-.04999c-.32007,3.28998-.68994,6.56-1.09998,9.82996l.5.06c-.21008,1.64001-.42004,3.28003-.65002,4.92004l-.48999-.07001c-.44995,3.27997-.94995,6.54999-1.47998,9.81l.5.08002c-.27002,1.63-.54004,3.25995-.83008,4.88995l-.48999-.08997c-.56995,3.25-1.18994,6.5-1.83997,9.72998l.48999.10004c-.31995,1.62-.66003,3.23999-1.01001,4.85999l-.47998-.10999c-.70007,3.22998-1.43005,6.44995-2.20007,9.65997l.48999.12c-.38989,1.59998-.77991,3.21002-1.18994,4.81l-.47998-.12c-.81006,3.20001-1.65991,6.39001-2.55005,9.57001l.47998.14001c-.44995,1.58997-.8999,3.17999-1.35986,4.76001l-.47998-.14001c-.93005,3.16998-1.90015,6.32996-2.90015,9.47998l.47998.15002c-.5,1.57001-1.0199,3.13995-1.53992,4.70996l-.46997-.14996c-1.04004,3.13-2.12,6.25-3.24011,9.35999l.47009.16998c-.54993,1.54999-1.12,3.10999-1.70007,4.66003l-.46997-.17999c-1.1499,3.08997-2.33997,6.16998-3.56995,9.23999l.46997.19c-.60999,1.52997-1.23999,3.06-1.87,4.58997l-.45996-.19c-1.26001,3.04999-2.56006,6.09003-3.89001,9.11005l.45996.19995c-.67004,1.52002-1.34998,3.03003-2.02991,4.53003l-.46008-.20001c-1.35999,3-2.76001,5.98999-4.20007,8.96002l.45007.21997c-.70996,1.48999-1.44006,2.97003-2.18005,4.45001l-.43994-.22003c-1.46997,2.96002-2.97998,5.90002-4.52002,8.83002l.44995.23004c-.7699,1.45996-1.54993,2.91998-2.32983,4.37994l-.44006-.23999c-1.56995,2.90002-3.17004,5.79004-4.80005,8.66003l.44006.25c-.82007,1.42999-1.65002,2.87-2.47998,4.29999l-.43005-.26001c-1.66003,2.85999-3.35999,5.69-5.08997,8.52002l.42993.26001c-.85999,1.39996-1.72998,2.81-2.60999,4.19995l-.42004-.25995c-1.76001,2.78998-3.53992,5.56995-5.35986,8.32996l.41992.28003c-.90991,1.38-1.83008,2.76001-2.75,4.14001l-.41992-.28003c-1.84009,2.72998-3.71008,5.45001-5.61011,8.15002l.41003.28998c-.95007,1.34998-1.91003,2.69-2.87,4.03998l-.41003-.29999c-1.93005,2.67999-3.89001,5.35004-5.88,8l.40002.29999c-.98999,1.32001-1.98999,2.64001-3,3.95001l-.40002-.29999c-2,2.60999-4.03003,5.21002-6.08997,7.77997l.39001.32001c-1.03003,1.29004-2.07007,2.57001-3.12,3.86005l-.39001-.32001c-2.09009,2.56-4.19995,5.10999-6.3501,7.63l.38013.32996c-1.07007,1.25-2.14001,2.5-3.21997,3.75l-.38013-.32996c-2.1499,2.48999-4.33997,4.95996-6.54993,7.41998l.37.33002c-1.10999,1.22998-2.21997,2.45996-3.34009,3.67999l-.36987-.34003c-2.22998,2.42999-4.48999,4.84003-6.77002,7.23999l.35999.34003c-1.14001,1.20001-2.28003,2.38-3.43005,3.57001l-.35999-.35004c-2.29993,2.37-4.63,4.71002-6.97998,7.04004l.34998.35999c-1.16992,1.16998-2.35999,2.33002-3.55005,3.48999l-.34985-.35999c-2.3501,2.29004-4.73999,4.57007-7.15015,6.83008l.3501.36987c-1.20996,1.12012-2.42004,2.25-3.63,3.37012l-.33997-.37012c-2.43005,2.23999-4.88013,4.45996-7.36011,6.66003l.33008.38c-1.23999,1.09998-2.47998,2.18994-3.72998,3.28003l-.33008-.38c-2.47998,2.17004-4.97998,4.30994-7.5,6.44006l.32007.37988c-1.26001,1.06006-2.53003,2.12012-3.80005,3.18005l-.32007-.39001c-2.54993,2.10999-5.11987,4.19995-7.70996,6.28003l.31006.38989c-1.29004,1.03003-2.58008,2.05005-3.88,3.07007l-.30994-.40002c-2.59009,2.04004-5.20007,4.05005-7.83008,6.05005l.30005.40002c-1.32007,1-2.64001,1.98999-3.96997,2.97998l-.30005-.40002c-2.65002,1.96997-5.32007,3.93005-8.01001,5.87l.29004.40002c-1.33008.95996-2.67004,1.92004-4.02002,2.87l-.29004-.41003c-2.68994,1.90002-5.3999,3.79004-8.13,5.65002l.28003.41992c-1.37.93005-2.73999,1.86011-4.12,2.78003l-.28003-.40991c-2.73999,1.82996-5.5,3.6499-8.27002,5.44995l.27002.41992c-1.39001.90015-2.77002,1.79004-4.15991,2.67017l-.27002-.42017c-2.79004,1.77002-5.59009,3.52002-8.41003,5.26001l.25989.42004c-1.40991.87-2.82983,1.7301-4.25,2.58997l-.25-.42993c-2.81982,1.69995-5.65991,3.39001-8.5199,5.05005l.25.42993c-1.42004.83008-2.84998,1.66003-4.29004,2.47998l-.25-.43994c-2.85999,1.63989-5.73999,3.26001-8.64001,4.85999l.23999.44006c-1.44995.79993-2.90991,1.58984-4.36987,2.38989l-.23999-.43994c-2.89014,1.56006-5.80005,3.10999-8.7301,4.63989l.2301.44006c-1.46008.77002-2.93018,1.52002-4.40015,2.28003l-.22998-.45007c-2.93994,1.51001-5.88989,3-8.85999,4.46008l.22009.44995c-1.48999.74011-2.97998,1.47009-4.47998,2.19006l-.22009-.44995c-2.95007,1.42993-5.93005,2.84985-8.92004,4.23999l.20996.44995c-1.48999.69995-2.98999,1.38989-4.48999,2.07996l-.20996-.44995c-3.01001,1.37-6.03003,2.72998-9.05994,4.05994l.19995.45996c-1.5199.67004-3.03992,1.33008-4.55994,1.9801l-.19995-.46008c-3.02002,1.31006-6.05005,2.59009-9.1001,3.8501l.18994.45996c-1.52991.63-3.05994,1.26001-4.58984,1.88l-.19006-.46008c-3.05994,1.23999-6.14001,2.46008-9.2301,3.67004l.18005.46008c-1.53992.59998-3.07996,1.19995-4.63,1.78992l-.17993-.46997c-3.07007,1.17004-6.16003,2.31995-9.26001,3.45007l.16992.46997c-1.54993.55994-3.10986,1.12988-4.65991,1.67993l-.17004-.46997c-3.12,1.10999-6.25,2.19995-9.39001,3.27002l.16003.47998c-1.55994.53003-3.13,1.06006-4.70007,1.58008l-.1499-.47009c-3.12012,1.04004-6.26001,2.05994-9.40002,3.05994l.15002.47009c-1.58008.5-3.15002,1-4.72998,1.48999l-.15015-.47998c-3.15991.97998-6.32983,1.93994-9.5199,2.88l.15002.47998c-1.59009.46997-3.17004.92993-4.76001,1.39001l-.14001-.49011c-3.16003.91016-6.33997,1.80005-9.52002,2.67017l.13.48999c-1.59009.42993-3.18994.85986-4.79004,1.27991l-.12988-.47998c-3.19006.84998-6.40015,1.68005-9.62012,2.48999l.12012.47998c-1.6001.41003-3.20007.80005-4.81006,1.19006l-.12-.47998c-3.20007.78003-6.40002,1.53992-9.62,2.28003l.10999.48999c-1.60999.36987-3.22009.72998-4.82996,1.08984l-.11011-.48999c-3.22998.72009-6.46997,1.42004-9.71997,2.1001l.1001.48999c-1.61011.33997-3.2301.66992-4.86011,1l-.09998-.48999c-3.21997.6499-6.45007,1.28003-9.70007,1.88989l.1001.49011c-1.63.29993-3.25.59998-4.88.90002l-.08997-.48999c-.1001.02002-.20007.03992-.30005.04993"/>
    <path class="cls-1" d="m370.14283.51c.18005.32996.34998.65997.52002.98999l.45007-.22003c.72998,1.42999,1.45996,2.86005,2.17993,4.30005l-.44995.20996c1.42993,2.87,2.82996,5.75,4.19995,8.65002l.44995-.20001c.69006,1.46002,1.36011,2.90997,2.03003,4.38l-.45996.19c1.33997,2.91998,2.63,5.84998,3.8999,8.79999l.46008-.19c.63,1.47998,1.25,2.95001,1.85999,4.42999l-.45996.17999c1.21997,2.97003,2.40991,5.94,3.56995,8.92999l.46008-.16998c.57996,1.48999,1.1499,2.98999,1.70996,4.48999l-.46997.17004c1.10986,3,2.18994,6.00995,3.22998,9.03998l.47998-.15997c.52002,1.51996,1.03003,3.03998,1.53003,4.54999l-.46997.14996c1,3.04004,1.95996,6.09003,2.88989,9.15002l.47998-.14001c.46008,1.53003.92004,3.07001,1.36011,4.60999l-.47998.12c.88989,3.07001,1.73999,6.16003,2.54993,9.25l.48999-.12c.40002,1.54004.79993,3.09003,1.18005,4.64001l-.47998.12c.77002,3.09003,1.5,6.20001,2.18994,9.32001l.48999-.09998c.34009,1.56.67993,3.13,1.01001,4.69l-.48999.09998c.6499,3.12,1.26001,6.25,1.83008,9.39001l.48999-.09003c.28992,1.58002.56995,3.15002.82983,4.72003l-.48999.07996c.53003,3.14001,1.02002,6.30005,1.47009,9.46002l.5-.06c.21997,1.58002.44006,3.16003.64001,4.75l-.5.06c.40991,3.15002.78003,6.31,1.10999,9.48999l.48999-.04999c.17004,1.58002.31995,3.16998.46997,4.77002l-.5.03998c.28003,3.17999.53003,6.35999.74011,9.56l.48999-.02997c.10986,1.57996.19995,3.16998.27991,4.75995l-.5.02002c.16003,3.17999.29004,6.35999.37,9.54999l.5-.00995c.04004,1.58997.07007,3.18994.09009,4.79999h-.5c.02002,1.59998.02991,3.20001.02991,4.79999,0,1.60999-.00989,3.21002-.02991,4.81h.5c-.02002,1.59998-.05005,3.20001-.09009,4.79999l-.5-.01001c-.07996,3.19-.20996,6.37-.37,9.55005l.5.01996c-.07996,1.59003-.17004,3.17999-.27991,4.76001l-.48999-.02997c-.21008,3.19995-.46008,6.37994-.74011,9.56l.5.03998c-.15002,1.58997-.29993,3.17999-.46997,4.77002l-.48999-.05005c-.32996,3.17004-.70007,6.33002-1.10999,9.49005l.5.06c-.19995,1.57996-.42004,3.16998-.64001,4.75l-.5-.07001c-.45007,3.16998-.94006,6.32001-1.47009,9.46997l.48999.08002c-.2699,1.57001-.53992,3.14001-.82983,4.71002l-.48999-.08002c-.57007,3.14001-1.18018,6.27002-1.83008,9.39001l.48999.09998c-.33008,1.56-.66992,3.13-1.01001,4.69l-.48999-.09998c-.68994,3.12-1.41992,6.21997-2.18994,9.31995l.47998.11005c-.38013,1.54999-.78003,3.09998-1.18005,4.64996l-.48999-.12c-.80994,3.09003-1.66003,6.16998-2.54993,9.23999l.47998.13c-.44006,1.54004-.90002,3.07001-1.36011,4.61005l-.47998-.14001c-.92993,3.06-1.88989,6.10999-2.88989,9.14996l.46997.14001c-.5,1.52002-1.01001,3.03998-1.53003,4.54999l-.47998-.14996c-1.04004,3.02997-2.12012,6.03998-3.22998,9.03998l.46997.16003c-.56006,1.5-1.13,3-1.70996,4.5l-.46008-.17004c-1.16003,2.98999-2.34998,5.96002-3.56995,8.92004l.45996.17999c-.60999,1.47998-1.22998,2.95996-1.85999,4.42999l-.46008-.17999c-1.2699,2.94995-2.55994,5.88-3.8999,8.79999l.45996.19c-.66992,1.45996-1.33997,2.91998-2.03003,4.38l-.44995-.20001c-1.37,2.89001-2.77002,5.77997-4.19995,8.65002l.44995.20996c-.71997,1.42999-1.44995,2.87-2.17993,4.29999l-.45007-.21997c-1.46997,2.85999-2.96997,5.70001-4.51001,8.52997l.44006.22003c-.77002,1.40997-1.54004,2.82001-2.33008,4.22998l-.43994-.22998c-1.56006,2.79999-3.16003,5.58002-4.79004,8.35999l.42993.22998c-.81995,1.39001-1.63989,2.78003-2.46997,4.16003l-.43994-.25c-1.66003,2.76001-3.35999,5.5-5.08008,8.21997l.42004.25c-.85999,1.36005-1.72998,2.71002-2.60999,4.06l-.41992-.25c-1.75,2.69-3.54004,5.38-5.3501,8.04004l.41003.26996c-.91003,1.33002-1.81995,2.67004-2.75,3.99005l-.41003-.27002c-1.83997,2.64001-3.70996,5.27002-5.62,7.87l.41003.28003c-.94995,1.29999-1.90002,2.59998-2.87,3.89996l-.41003-.27997c-1.91992,2.57996-3.88,5.15997-5.87,7.70996l.40002.29004c-1,1.27997-2,2.54999-3.01001,3.81995l-.39001-.28998c-2,2.52002-4.03992,5.02002-6.09998,7.51001l.39001.29999c-1.03003,1.25-2.06995,2.48999-3.10999,3.72998l-.39001-.29999c-2.08997,2.47003-4.21008,4.92999-6.35999,7.37l.37988.31c-1.05994,1.21002-2.13989,2.42004-3.20996,3.62l-.37988-.31995c-2.16016,2.40997-4.34009,4.78998-6.56006,7.15997l.37.33002c-1.09998,1.17999-2.22009,2.37-3.33997,3.54999l-.37012-.33002c-2.22998,2.35004-4.48999,4.67004-6.77002,6.98999l.36011.33002c-1.14001,1.15002-2.28003,2.29999-3.42993,3.44l-.36011-.33997c-2.30005,2.28998-4.62,4.54999-6.96997,6.79999l.34998.34998c-1.18005,1.12-2.35999,2.23999-3.54993,3.35999l-.3501-.33997c-2.35999,2.20996-4.73999,4.40997-7.1499,6.58997l.33997.36005c-1.20007,1.08997-2.41003,2.16998-3.63,3.25l-.34009-.35004c-2.42993,2.16003-4.87988,4.29999-7.35986,6.42999l.32996.35999c-1.2301,1.06006-2.4801,2.12012-3.7301,3.17004l-.31995-.35999c-2.47998,2.07996-4.97998,4.1499-7.50989,6.20996l.32983.37c-1.2699,1.02002-2.53992,2.05005-3.80994,3.06995l-.31995-.37988c-2.55005,2.04004-5.12012,4.05994-7.70996,6.05994l.30994.38c-1.29004.98999-2.57996,1.96997-3.88,2.95996l-.30005-.37988c-2.58997,1.95996-5.19995,3.90991-7.83997,5.82996l.30994.39001c-1.31995.95996-2.6499,1.91992-3.96997,2.87988l-.30005-.38989c-2.6499,1.90991-5.31982,3.79004-8.0199,5.65991l.29993.40015c-1.33997.91992-2.67993,1.84985-4.03003,2.7699l-.28992-.40002c-2.69006,1.84009-5.40002,3.66003-8.13,5.45996l.28003.40015c-1.36011.8999-2.73999,1.78992-4.11011,2.67993l-.27991-.40002c-2.73999,1.78003-5.5,3.53003-8.28003,5.27002l.27002.41003c-1.38.85999-2.77002,1.71997-4.16003,2.56995l-.27002-.40002c-2.78003,1.71008-5.57996,3.40002-8.40991,5.07007l.27002.40991c-1.42004.84009-2.83008,1.67004-4.25,2.5l-.26001-.40991c-2.82007,1.64001-5.66003,3.26001-8.52002,4.87l.25.42004c-1.42004.79993-2.8501,1.58997-4.28003,2.37988l-.25-.40991c-2.87,1.57996-5.75,3.13989-8.6499,4.68994l.23999.42004c-1.45007.77002-2.91016,1.53992-4.37012,2.29993l-.23999-.41992c-2.88989,1.51001-5.80005,3.01001-8.72998,4.47998l.22998.42993c-1.45996.73999-2.91992,1.47009-4.38989,2.20007l-.2301-.43005c-2.94006,1.45007-5.90002,2.89014-8.87,4.30005l.21997.43994c-1.48999.70007-2.97998,1.41003-4.46997,2.11011l-.21997-.44006c-2.95996,1.39001-5.92993,2.75-8.91992,4.09998l.20996.43005c-1.5.68005-3,1.34998-4.5,2.01001l-.20996-.44006c-3,1.33008-6.03003,2.64001-9.06006,3.92004l.19995.45007c-1.52002.63989-3.04004,1.27991-4.56006,1.90991l-.19995-.43994c-3.02002,1.26001-6.05005,2.48999-9.09998,3.70996l.19006.44995c-1.52002.61011-3.05005,1.20996-4.59009,1.81006l-.17993-.44995c-3.07007,1.19995-6.14001,2.37988-9.23999,3.54993l.17993.45007c-1.54004.56995-3.07996,1.1499-4.63,1.71997l-.18005-.44995c-3.06995,1.12988-6.15991,2.23999-9.26001,3.32983l.17017.45007c-1.55005.54993-3.1001,1.08997-4.66016,1.62l-.16992-.44995c-3.10999,1.06995-6.23999,2.12988-9.38,3.15991l.16003.46008c-1.57007.50989-3.13,1.0199-4.69995,1.52991l-.16016-.45996c-3.11987,1-6.25,1.98999-9.3999,2.94995l.1499.46008c-1.56995.47998-3.1499.95996-4.72998,1.44006l-.1499-.47009c-3.16003.95007-6.33008,1.88-9.51001,2.78003l.13989.46997c-1.57983.45007-3.16992.89001-4.76001,1.33997l-.13989-.46997c-1.34009.37-2.67993.73999-4.02002,1.1001"/>
    <path class="cls-1" d="m273.77283.51c.09009.12.17993.22998.27002.34998l.41992-.21997c.88013,1.16998,1.76001,2.34998,2.62012,3.52997l-.43005.22003c1.73999,2.37,3.44006,4.75,5.10999,7.13995l.43005-.20996c.83997,1.19995,1.66003,2.39996,2.47998,3.60999l-.43005.21002c1.63013,2.40997,3.23999,4.82996,4.81006,7.25995l.43994-.19995c.79004,1.21997,1.57007,2.44995,2.34009,3.66998l-.44995.20001c1.54993,2.45996,3.05994,4.92999,4.52991,7.40997l.45007-.17999c.73999,1.23999,1.46997,2.47998,2.18994,3.72998l-.45996.17999c1.43994,2.5,2.84998,5.01001,4.21997,7.53003l.45996-.17999c.67993,1.27002,1.36011,2.53998,2.03003,3.81l-.45996.16998c1.33997,2.53003,2.63989,5.08002,3.90991,7.64001l.45996-.16003c.63013,1.28003,1.26001,2.57001,1.87012,3.86005l-.46997.14996c1.22998,2.58002,2.42993,5.16003,3.57996,7.76001l.46997-.14996c.57996,1.29999,1.15002,2.60999,1.71008,3.90997l-.47009.14001c1.12,2.60999,2.20007,5.22998,3.25,7.85999l.47009-.13c.52991,1.31,1.03992,2.63,1.53992,3.95001l-.46997.13c1,2.64001,1.96997,5.28998,2.90002,7.95001l.47998-.12c.46997,1.33997.91992,2.66998,1.37,4.00995l-.4801.11005c.89014,2.66998,1.73999,5.34998,2.55005,8.03998l.48999-.10999c.41003,1.34998.80005,2.69,1.19006,4.03998l-.49011.09998c.77002,2.69,1.51001,5.39001,2.20007,8.10004l.48999-.08002c.34998,1.35004.69006,2.71002,1.02002,4.07001l-.5.09003c.66003,2.70996,1.27002,5.42999,1.83997,8.15997l.5-.07001c.29004,1.37.56006,2.72998.83008,4.10004l-.5.06995c.54004,2.73004,1.03003,5.48004,1.47998,8.23004l.5-.06c.21997,1.37.43994,2.75.63989,4.13l-.48999.04999c.41016,2.73999.77002,5.48999,1.1001,8.25l.5-.04004c.16992,1.38.32007,2.76001.46997,4.14001l-.5.04004c.28003,2.75995.53003,5.52997.73999,8.31l.5-.03003c.1001,1.38.18994,2.76001.27002,4.14001l-.5.02002c.16992,2.75995.29004,5.52997.37,8.29999l.5-.01001c.03992,1.39001.06995,2.77997.08997,4.16998l-.5.01001c.02002,1.39001.03003,2.78003.03003,4.16998,0,1.40002-.01001,2.79004-.03003,4.17999l.5.01001c-.02002,1.39001-.05005,2.78003-.08997,4.17004l-.5-.01001c-.07996,2.76996-.20007,5.53998-.37,8.29999l.5.02002c-.08008,1.38-.16992,2.75995-.27002,4.13995l-.5-.02997c-.20996,2.77997-.45996,5.54999-.73999,8.31l.5.03998c-.1499,1.38-.30005,2.76001-.46997,4.14001l-.5-.03998c-.33008,2.75995-.68994,5.5-1.1001,8.25l.48999.04999c-.19995,1.38-.41992,2.75-.63989,4.13l-.5-.06c-.44995,2.75-.93994,5.5-1.47998,8.22998l.5.07001c-.27002,1.37-.54004,2.72998-.83008,4.09998l-.5-.07001c-.56995,2.73004-1.17993,5.45001-1.83997,8.16003l.5.08002c-.32996,1.37-.67004,2.72998-1.02002,4.07996l-.48999-.08997c-.69006,2.71997-1.43005,5.41998-2.20007,8.10999l.49011.09998c-.39001,1.35004-.78003,2.69-1.19006,4.04004l-.48999-.10999c-.81006,2.68994-1.65991,5.37-2.55005,8.03998l.4801.10999c-.45007,1.34003-.90002,2.66998-1.37,4l-.47998-.10999c-.93005,2.65997-1.90002,5.31-2.90002,7.95001l.46997.12c-.5,1.32001-1.01001,2.64001-1.53992,3.95996l-.47009-.13c-1.04993,2.63-2.13,5.25-3.25,7.86005l.47009.13995c-.56006,1.30005-1.13013,2.61005-1.71008,3.91003l-.46997-.15002c-1.15002,2.60004-2.34998,5.17999-3.57996,7.76001l.46997.15002c-.61011,1.28998-1.23999,2.57001-1.87012,3.85999l-.45996-.15997c-1.27002,2.56-2.56995,5.09998-3.90991,7.63995l.45996.17004c-.66992,1.26996-1.3501,2.53998-2.03003,3.81l-.45996-.17999c-1.37,2.51996-2.78003,5.02997-4.21997,7.51996l.45996.19c-.71997,1.23999-1.44995,2.48999-2.18994,3.72998l-.45007-.17999c-1.46997,2.48004-2.97998,4.95001-4.52991,7.41003l.44995.19c-.77002,1.22998-1.55005,2.45996-2.34009,3.67999l-.43994-.20001c-1.57007,2.42999-3.17993,4.84998-4.81006,7.26001l.43005.21002c-.81995,1.20996-1.65002,2.40997-2.47998,3.60999l-.43005-.21002c-1.66992,2.39001-3.37,4.77002-5.10999,7.14001l.43005.21997c-.86011,1.18005-1.73999,2.36005-2.62012,3.53003l-.41992-.22003c-1.76001,2.34003-3.55005,4.67004-5.38,6.99005l.42004.22998c-.91003,1.15997-1.83008,2.32001-2.76001,3.47998l-.42004-.23999c-1.83997,2.29999-3.71997,4.58002-5.63,6.84998l.41003.24005c-.95007,1.13-1.91003,2.25995-2.88,3.38l-.40002-.24005c-1.94006,2.25-3.90002,4.49005-5.90002,6.71002l.40002.25c-1,1.10999-2,2.22003-3.01001,3.32001l-.40002-.25c-2.01001,2.19-4.04993,4.35999-6.11987,6.52997l.3999.26001c-1.04004,1.08002-2.07996,2.16003-3.13,3.23999l-.39001-.26996c-2.09998,2.14996-4.21997,4.28998-6.37988,6.40997l.37988.27002c-1.05994,1.06-2.13989,2.09998-3.21997,3.14996l-.38-.26996c-2.17004,2.08997-4.35999,4.15997-6.57996,6.21997l.37.28003c-1.10999,1.02997-2.2301,2.06-3.34998,3.08997l-.37012-.28998c-2.23999,2.03998-4.5,4.07001-6.79993,6.08002l.37.28998c-1.15002,1-2.29004,1.98999-3.44995,2.98999l-.36011-.28998c-2.29993,1.97998-4.63989,3.95001-7,5.90997l.36011.30005c-1.18005.96997-2.37012,1.94995-3.56006,2.91998l-.34998-.29999c-2.37,1.92999-4.76001,3.83997-7.18005,5.73999l.34009.29999c-1.20007.95001-2.42004,1.89001-3.64014,2.83002l-.33984-.31c-2.43005,1.88-4.89014,3.75-7.38013,5.59998l.33008.31c-1.23999.91998-2.48999,1.84003-3.73999,2.76001l-.33008-.32001c-2.48999,1.81-4.98999,3.60999-7.53003,5.40002l.33008.32001c-1.27002.88995-2.54004,1.77997-3.82007,2.66998l-.31995-.33002c-2.55994,1.77002-5.14001,3.53003-7.73999,5.27002l.30994.32996c-1.28992.86005-2.57996,1.72003-3.88989,2.57001l-.31006-.32996c-2.58997,1.70996-5.20996,3.39996-7.84998,5.07996l.29993.33002c-1.31995.84003-2.6499,1.66998-3.97998,2.5l-.29993-.33002c-2.66003,1.65002-5.33997,3.28998-8.04004,4.9201l.29004.33984c-1.33997.81006-2.69006,1.61011-4.04004,2.41016l-.28992-.34009c-2.70007,1.59009-5.42004,3.16992-8.16016,4.73999l.29004.34009c-1.37988.78992-2.75,1.56995-4.12988,2.33984l-.28003-.34985c-2.75,1.54993-5.52002,3.06995-8.31006,4.57996l.27002.35999c-1.38.75-2.78003,1.48999-4.16992,2.23999l-.27002-.35999c-2.79004,1.48999-5.61011,2.95996-8.44006,4.41003l.27002.35999c-1.42004.72998-2.83997,1.44995-4.27002,2.17004l-.26001-.36011c-2.82996,1.43005-5.67004,2.84009-8.53992,4.23999l.25.36011c-1.43005.69995-2.86011,1.38989-4.30005,2.07996l-.25-.37c-2.87,1.38-5.77002,2.73999-8.67993,4.07996l.23999.37c-1.45007.67004-2.91016,1.34009-4.38013,2l-.23999-.37c-2.8999,1.31995-5.81995,2.62-8.76001,3.90002l.23999.37c-1.46997.64001-2.93994,1.28003-4.41992,1.91003l-.22998-.37012c-2.94995,1.26001-5.91003,2.51001-8.90002,3.74011l.22998.38c-1.5.62-2.98999,1.22998-4.48999,1.83997l-.22009-.38c-2.96997,1.19995-5.94995,2.39001-8.94995,3.56006l.20996.37988c-1.5.58008-3.01001,1.16003-4.51001,1.73999l-.20996-.37988c-3.02002,1.1499-6.04993,2.29004-9.09998,3.40991l.21008.38013c-1.52002.55994-3.05005,1.11987-4.58008,1.66992l-.19995-.39001c-3.03003,1.09998-6.07007,2.17004-9.13,3.22998l.19006.39001c-1.11011.38-2.22009.76001-3.34009,1.15002"/>
    <path class="cls-1" d="m201.41285.51c.28003.28998.55994.58997.83997.88995l-.40991.22003c1.91992,2.03998,3.79993,4.08997,5.6499,6.14996l.42004-.20996c.94006,1.03998,1.85999,2.08002,2.78003,3.12l-.42004.21002c1.83008,2.08997,3.63,4.17999,5.39001,6.28998l.43005-.20001c.87988,1.06,1.76001,2.12,2.62988,3.17999l-.42993.19c1.73999,2.13,3.44995,4.28003,5.12,6.42999l.44006-.19c.83997,1.08002,1.66992,2.16003,2.48999,3.24005l-.44006.18994c1.65002,2.17004,3.26001,4.35004,4.83997,6.54004l.44006-.17999c.78992,1.08997,1.56995,2.20001,2.34998,3.29999l-.44995.16998c1.55005,2.22003,3.06995,4.44,4.55005,6.66998l.44995-.16998c.73999,1.12,1.46997,2.23999,2.19995,3.35999l-.45996.17004c1.44995,2.23999,2.85999,4.5,4.22998,6.76001l.45996-.15002c.68994,1.13,1.37012,2.27002,2.05005,3.41998l-.45996.15002c1.33997,2.27997,2.6499,4.57001,3.91992,6.88l.45996-.15002c.64014,1.15002,1.26001,2.31,1.88013,3.47003l-.47009.13995c1.24011,2.31,2.44006,4.64001,3.59998,6.97003l.46997-.13c.58008,1.16998,1.15015,2.34003,1.72009,3.52002l-.4801.12c1.13013,2.34998,2.21008,4.70996,3.26001,7.07001l.4801-.12c.52991,1.18994,1.03992,2.37,1.54993,3.56l-.47998.12c1.01001,2.37,1.97998,4.75,2.91003,7.14996l.48999-.10999c.46008,1.20001.92004,2.40002,1.37,3.59998l-.47998.10004c.89001,2.39996,1.75,4.81,2.56006,7.22998l.48999-.09998c.40991,1.20996.80994,2.41998,1.19995,3.63995l-.48999.08002c.77002,2.42999,1.51001,4.85999,2.20996,7.29004l.48999-.08002c.3501,1.22998.68994,2.45001,1.02002,3.66998l-.5.08002c.66003,2.44,1.27002,4.89001,1.8501,7.33997l.5-.06995c.28992,1.22998.55994,2.45996.82983,3.68994l-.5.06006c.54004,2.45996,1.03003,4.92999,1.48999,7.39996l.5-.04999c.22009,1.23999.44006,2.47998.65015,3.71997l-.5.04004c.40991,2.46997.78003,4.94,1.10986,7.41998l.5-.03998c.16016,1.23999.32007,2.48999.46008,3.72998l-.5.03003c.28992,2.48999.53992,4.97998.75,7.47998l.5-.03003c.09998,1.23999.19006,2.48004.27002,3.73004l-.5.00995c.17004,2.49005.28992,4.98004.37,7.47003l.51001-.01001c.04004,1.25.06995,2.5.08997,3.75l-.5.01001c.02002,1.25.03003,2.5.03003,3.75s-.01001,2.51001-.03003,3.76001h.5c-.02002,1.25-.04993,2.5-.08997,3.75l-.51001-.01001c-.08008,2.5-.19995,4.98999-.37,7.46997l.5.02002c-.07996,1.23999-.17004,2.47998-.27002,3.72003l-.5-.02002c-.21008,2.48999-.46008,4.97998-.75,7.46997l.5.03003c-.14001,1.25-.29993,2.48999-.46008,3.72998l-.5-.03998c-.32983,2.47998-.69995,4.95001-1.10986,7.41998l.5.04004c-.21008,1.23999-.43005,2.47998-.65015,3.71997l-.5-.04999c-.45996,2.46997-.94995,4.94-1.48999,7.39996l.5.06c-.2699,1.23004-.53992,2.46002-.82983,3.69l-.5-.06995c-.58008,2.45996-1.19006,4.90997-1.8501,7.33997l.5.08002c-.33008,1.21997-.66992,2.45001-1.02002,3.66998l-.48999-.08002c-.69995,2.44-1.43994,4.87-2.20996,7.29004l.48999.08997c-.39001,1.21002-.79004,2.42004-1.19995,3.63l-.48999-.08997c-.81006,2.40997-1.67004,4.82001-2.56006,7.21997l.47998.10004c-.44995,1.20996-.90991,2.40997-1.37,3.59998l-.48999-.09998c-.93005,2.38995-1.90002,4.76996-2.91003,7.14996l.47998.10999c-.51001,1.19-1.02002,2.38-1.54993,3.56l-.4801-.12c-1.04993,2.37-2.12988,4.72003-3.26001,7.07001l.4801.12c-.56995,1.17999-1.14001,2.35004-1.72009,3.52002l-.46997-.13c-1.15991,2.33002-2.35986,4.65997-3.59998,6.97003l.47009.14996c-.62012,1.15002-1.23999,2.31-1.88013,3.46002l-.45996-.14001c-1.27002,2.29999-2.57996,4.59003-3.91992,6.87l.45996.16003c-.67993,1.13995-1.36011,2.27997-2.05005,3.41998l-.45996-.16003c-1.37,2.27002-2.78003,4.52002-4.22998,6.77002l.45996.15997c-.72998,1.12006-1.45996,2.24005-2.19995,3.36005l-.44995-.17004c-1.4801,2.23004-3,4.46002-4.55005,6.67004l.44995.16998c-.78003,1.10999-1.56006,2.21002-2.34998,3.31l-.44006-.17999c-1.57996,2.19-3.18994,4.35999-4.83997,6.52997l.44006.19c-.82007,1.08002-1.65002,2.16003-2.48999,3.24005l-.44006-.19c-1.67004,2.15997-3.38,4.29999-5.12,6.42999l.42993.20001c-.86987,1.06-1.75,2.10999-2.62988,3.16998l-.43005-.20001c-1.76001,2.10999-3.55994,4.21002-5.39001,6.28998l.42004.21002c-.92004,1.03998-1.83997,2.08002-2.78003,3.12l-.42004-.21002c-1.84998,2.06-3.72998,4.12006-5.6499,6.15002l.40991.22003c-.94995,1.01996-1.91992,2.03998-2.88989,3.04999l-.41016-.22003c-1.93994,2.02002-3.91992,4.03003-5.91992,6.03003l.40002.22998c-1,1-2.01001,1.98999-3.03003,2.97998l-.39001-.21997c-2.02002,1.96997-4.06995,3.91998-6.1499,5.87l.3999.23999c-1.04004.97003-2.08997,1.94-3.13989,2.91003l-.40015-.24005c-2.09985,1.93005-4.23999,3.85004-6.3999,5.76001l.38989.25c-1.07983.94-2.15991,1.89001-3.25,2.83002l-.37988-.25c-2.17004,1.88-4.37012,3.75-6.6001,5.59998l.37012.25c-1.11011.93005-2.23999,1.86005-3.37012,2.78003l-.36987-.26001c-2.23999,1.84003-4.52002,3.66003-6.82007,5.46002l.35999.26001c-1.14001.89996-2.29993,1.79999-3.45996,2.69l-.35999-.26001c-2.31006,1.78998-4.66003,3.56-7.03003,5.32001l.35999.26996c-1.19006.88-2.38,1.75-3.57996,2.63l-.3501-.27002c-2.37988,1.73004-4.78003,3.45001-7.19995,5.15002l.34009.28003c-1.21008.84998-2.43005,1.69995-3.66016,2.54999l-.33984-.28003c-2.44006,1.69-4.92017,3.36005-7.41016,5.03003l.33008.27997c-1.25.83002-2.5,1.65002-3.76001,2.48004l-.33008-.29004c-2.48999,1.64001-5.00989,3.25-7.55994,4.86005l.32996.28998c-1.27002.79999-2.54993,1.59998-3.83984,2.39996l-.32007-.28998c-2.57007,1.59003-5.16003,3.16998-7.77002,4.72998l.32007.30005c-1.30005.76996-2.6001,1.53998-3.91016,2.31l-.30994-.29004c-2.60999,1.53003-5.23999,3.05005-7.89001,4.56l.30005.30005c-1.33008.75-2.66003,1.5-4,2.25l-.30005-.30005c-2.66992,1.49005-5.35999,2.96002-8.06995,4.42999l.28992.30005c-1.34985.72998-2.69995,1.44995-4.04993,2.16998l-.29993-.31c-2.71008,1.42999-5.44006,2.85999-8.19006,4.26001l.27991.32001c-1.36987.69995-2.76001,1.39996-4.13989,2.09998l-.28003-.32001c-2.77002,1.39001-5.55005,2.76001-8.34998,4.12l.27991.32001c-1.3999.67999-2.78992,1.35004-4.19995,2.02002l-.27002-.32001c-2.80005,1.33002-5.61987,2.65997-8.46997,3.96002l.27002.32996c-1.41992.65002-2.8501,1.29999-4.28003,1.95001l-.26001-.32001c-2.84998,1.28003-5.70996,2.54999-8.58997,3.81l.26001.32001c-1.44006.63-2.88,1.25-4.31995,1.87l-.25-.33002c-2.89014,1.24005-5.79004,2.46002-8.72009,3.67004l.25.32996c-1.46997.59998-2.93005,1.20007-4.41003,1.80005l-.23999-.32996c-2.21997.8999-4.44995,1.78992-6.69995,2.67993"/>
    <path class="cls-1" d="m134.70277.51c.75.73999,1.49011,1.47998,2.2301,2.22998l.41003-.22003c.97998.98004,1.93994,1.97003,2.8999,2.95001l-.41992.21002c1.91992,1.97998,3.81006,3.96002,5.65991,5.96002l.42004-.20001c.93005,1,1.84998,2.01001,2.77002,3.01996l-.42004.20001c1.83008,2.02002,3.63013,4.04999,5.40002,6.09003l.42004-.19c.88989,1.02002,1.76001,2.03998,2.62988,3.07001l-.42993.19c1.73999,2.06,3.44995,4.13,5.13,6.21997l.43005-.19c.83997,1.04999,1.66992,2.10004,2.5,3.15002l-.44006.17999c1.64001,2.08997,3.25,4.20001,4.82996,6.32001l.45007-.16998c.78992,1.06,1.56995,2.12994,2.33997,3.19995l-.43994.17004c1.55005,2.13995,3.06006,4.28998,4.54004,6.44995l.44995-.15997c.73999,1.08002,1.47998,2.15997,2.19995,3.25l-.44995.15997c1.43994,2.17004,2.84998,4.35004,4.22998,6.55005l.45996-.15002c.69006,1.09998,1.37012,2.20001,2.04004,3.31l-.45996.14001c1.33997,2.20996,2.6499,4.42999,3.91992,6.65997l.46997-.14001c.63013,1.12006,1.26001,2.24005,1.88013,3.36005l-.46997.13c1.22998,2.23999,2.42993,4.5,3.58984,6.75995l.47009-.12994c.58997,1.12994,1.16003,2.25995,1.71997,3.39996l-.46997.12c1.12,2.28003,2.20996,4.56,3.25989,6.84003l.47009-.10999c.52991,1.14996,1.03992,2.28998,1.54993,3.44l-.47998.12c1.01001,2.28998,1.97998,4.59998,2.92004,6.91998l.47998-.10999c.47009,1.15997.93005,2.32001,1.37,3.48999l-.47998.09998c.89001,2.32001,1.75,4.65002,2.57007,6.98999l.48999-.08997c.3999,1.16998.79993,2.33997,1.18994,3.51996l-.48999.08002c.78003,2.35004,1.51001,4.70001,2.20996,7.06l.48999-.07996c.3501,1.18994.69006,2.37,1.02002,3.54999l-.48999.07996c.65002,2.36005,1.27002,4.73004,1.8501,7.10004l.48999-.06c.28992,1.19.56995,2.38.82996,3.57001l-.49011.06c.53003,2.38,1.03003,4.76996,1.4801,7.15997l.5-.04999c.22998,1.20001.44006,2.40002.65002,3.59998l-.5.05005c.40991,2.37994.78003,4.76996,1.10999,7.16998l.5-.03003c.17004,1.20001.31995,2.40002.46997,3.61005l-.5.02997c.28992,2.40002.53003,4.81.73999,7.22998l.5-.01996c.10999,1.20001.20007,2.39996.28003,3.59998l-.5.02002c.16003,2.39996.27991,4.81.37,7.22998l.5-.01001c.04004,1.21002.07007,2.42004.08997,3.63h-.5c.02002,1.21002.03003,2.42999.03003,3.64001s-.01001,2.41998-.03003,3.63l.5.01001c-.0199,1.20996-.04993,2.41998-.08997,3.63l-.5-.01001c-.09009,2.41998-.20996,4.82001-.37,7.22998l.5.02002c-.07996,1.20001-.17004,2.39996-.28003,3.59998l-.5-.01996c-.20996,2.40997-.45007,4.82996-.73999,7.22998l.5.02997c-.15002,1.21002-.29993,2.41003-.46997,3.61005l-.5-.04004c-.32996,2.40002-.70007,4.79999-1.10999,7.17999l.5.05005c-.20996,1.19995-.42004,2.39996-.65002,3.59998l-.5-.04999c-.45007,2.39001-.95007,4.77997-1.4801,7.15997l.49011.06c-.26001,1.19-.54004,2.38-.82996,3.57001l-.48999-.07001c-.58008,2.38-1.20007,4.75-1.8501,7.10999l.48999.07001c-.32996,1.19-.66992,2.37-1.02002,3.56l-.48999-.07996c-.69995,2.35999-1.42993,4.70996-2.20996,7.06l.48999.07996c-.39001,1.18005-.79004,2.35004-1.18994,3.52002l-.48999-.08997c-.82007,2.33997-1.68005,4.66998-2.57007,6.98999l.47998.09998c-.43994,1.16003-.8999,2.33002-1.37,3.47998l-.47998-.09998c-.94006,2.32001-1.91003,4.63-2.92004,6.91998l.47998.11005c-.51001,1.14996-1.02002,2.29999-1.54993,3.44995l-.47009-.12c-1.04993,2.29004-2.13989,4.57001-3.25989,6.84003l.46997.13c-.55994,1.13-1.13,2.26996-1.71997,3.39996l-.47009-.13c-1.15991,2.26001-2.35986,4.51001-3.58984,6.76001l.46997.13c-.62012,1.12-1.25,2.23999-1.88013,3.35999l-.46997-.13995c-1.27002,2.22998-2.57996,4.44995-3.91992,6.65997l.45996.14001c-.66992,1.10999-1.34998,2.21002-2.04004,3.31l-.45996-.15002c-1.38,2.19-2.79004,4.38-4.22998,6.55005l.44995.15997c-.71997,1.09003-1.45996,2.16998-2.19995,3.25l-.44995-.15997c-1.47998,2.15997-2.98999,4.31-4.54004,6.44995l.43994.17004c-.77002,1.06995-1.55005,2.13995-2.33997,3.19995l-.45007-.16998c-1.57996,2.12-3.18994,4.22003-4.82996,6.32001l.44006.17999c-.83008,1.04999-1.66003,2.10004-2.5,3.14001l-.43005-.17999c-1.68005,2.07996-3.39001,4.15997-5.13,6.21997l.42993.19c-.86987,1.03003-1.73999,2.04999-2.62988,3.07001l-.42004-.19c-1.7699,2.03998-3.56995,4.07001-5.40002,6.09003l.42004.19995c-.92004,1.01001-1.83997,2.02002-2.77002,3.02002l-.42004-.20001c-1.84985,2-3.73999,3.98004-5.65991,5.96002l.41992.21002c-.95996.97998-1.91992,1.96997-2.8999,2.94995l-.41003-.21997c-1.94006,1.96002-3.91003,3.90997-5.92004,5.84003l.41003.21997c-1.01001.96997-2.01001,1.92999-3.03003,2.89001l-.40002-.22003c-2.02002,1.91003-4.06995,3.81-6.13989,5.69l.38989.23004c-1.04004.94-2.08997,1.87994-3.13989,2.81995l-.39014-.22998c-2.10986,1.87-4.23999,3.72998-6.3999,5.57001l.38.23999c-1.06995.91998-2.16003,1.83002-3.24011,2.73999l-.37988-.23999c-2.18005,1.82001-4.38,3.63-6.61011,5.41998l.38013.25c-1.12012.89001-2.23999,1.79004-3.37012,2.68005l-.36987-.25c-2.25,1.77997-4.53003,3.53998-6.83008,5.28998l.37.25c-1.15002.88-2.29993,1.73999-3.45996,2.60999l-.35999-.26001c-2.32007,1.73004-4.66003,3.45001-7.03003,5.15002l.34998.26001c-1.18005.84998-2.37,1.70001-3.56995,2.54999l-.36011-.26001c-2.36987,1.66998-4.7699,3.34003-7.19995,4.98999l.34009.26001c-1.21008.83002-2.43005,1.65002-3.65015,2.47003l-.33984-.27002c-2.45007,1.64001-4.92004,3.26001-7.42004,4.87l.33997.27002c-1.25.79999-2.5,1.59998-3.76001,2.39996l-.32996-.26996c-2.5,1.57996-5.02002,3.13995-7.55994,4.69995l.31982.28003c-1.2699.77002-2.54993,1.54999-3.82983,2.32001l-.32007-.28003c-2.57007,1.54004-5.16003,3.07001-7.77002,4.58002l.31006.28998c-1.30005.75-2.6001,1.49005-3.91003,2.24005l-.30994-.29004c-2.61011,1.48999-5.23999,2.96002-7.89014,4.41998l.31006.29004c-1.33008.72998-2.66992,1.45001-4,2.17999l-.31006-.29999c-2.66992,1.45001-5.35986,2.88-8.06995,4.28998l.28992.29999c-1.33984.70001-2.68994,1.40002-4.04993,2.09003l-.28992-.29999c-2.71008,1.38995-5.44006,2.76996-8.20007,4.13l.28992.31c-.13989.06995-.2699.13-.40991.19995"/>
    <path class="cls-1" d="m57.65284.51c.5.38,1.01001.76996,1.51001,1.14996l.35999-.20996c1.05005.81,2.09009,1.62,3.13,2.42999l-.37.20996c2.08008,1.64001,4.14001,3.29004,6.16992,4.95001l.38013-.20001c1.01001.83002,2.02002,1.66003,3.02002,2.5l-.38013.20001c2,1.66998,3.97998,3.35004,5.92004,5.04999l.39001-.19995c.97998.84998,1.94995,1.70996,2.91003,2.56l-.39001.19995c1.93994,1.71002,3.83997,3.44,5.70996,5.18005l.40002-.19c.93005.87,1.85999,1.73999,2.78003,2.62l-.39001.17999c1.83997,1.76001,3.65991,3.51996,5.44995,5.28998l.40002-.17999c.90002.89001,1.79004,1.78003,2.67004,2.67999l-.40002.17999c1.76001,1.79004,3.48999,3.59003,5.20007,5.40002l.40991-.16998c.8501.90997,1.68994,1.81,2.53003,2.72998l-.41003.16998c1.67004,1.83002,3.31995,3.66003,4.94006,5.51001l.41992-.15997c.81006.92999,1.61011,1.85999,2.40002,2.78998l-.42004.15997c1.58008,1.86005,3.13013,3.73004,4.65002,5.61005l.43005-.15002c.76001.94,1.52002,1.89001,2.26001,2.83002l-.43005.14996c1.5,1.90002,2.96008,3.81,4.38,5.73004l.43994-.15002c.71008.96002,1.42004,1.92999,2.12012,2.89001l-.44006.14001c1.39001,1.92999,2.75,3.87,4.07996,5.81l.44006-.13c.66003.97998,1.31995,1.94995,1.96997,2.94l-.44995.13c1.29993,1.95996,2.55994,3.92999,3.77991,5.89996l.45007-.12c.60999.98999,1.21997,1.97998,1.80994,2.97998l-.44995.12c1.18994,1.98004,2.3501,3.98004,3.46997,5.99005l.44995-.12c.56006,1.00995,1.11011,2.00995,1.66016,3.01996l-.46008.10999c1.07996,2.02002,2.13,4.04004,3.14001,6.07001l.45996-.09998c.51001,1.02002,1,2.03998,1.48999,3.06l-.45996.09003c.96997,2.03998,1.91003,4.08997,2.81006,6.14996l.45996-.09998c.45996,1.02997.8999,2.06,1.33008,3.09998l-.47009.08002c.85999,2.06,1.69006,4.13,2.47998,6.21002l.47009-.08002c.38989,1.03998.77002,2.08002,1.1499,3.12l-.46997.07001c.73999,2.07996,1.44995,4.16998,2.13,6.26996l.46997-.06995c.33997,1.04999.66003,2.09998.9801,3.14996l-.4801.06c.64001,2.10004,1.2301,4.20001,1.79004,6.31l.46997-.06c.28003,1.06.54993,2.10999.80994,3.16998l-.47998.05005c.51001,2.10999.98999,4.22998,1.43005,6.35999l.47998-.04999c.22009,1.07001.43005,2.13.62,3.20001l-.47998.02997c.40002,2.12.76001,4.23999,1.07007,6.37l.48999-.02997c.15991,1.06995.30994,2.13995.43994,3.19995l-.47998.03003c.28003,2.14001.52002,4.27002.71997,6.41998l.47998-.01996c.1001,1.06.19006,2.12994.27002,3.19995l-.48999.01001c.16003,2.13.28003,4.27002.35999,6.41003h.49011c.03992,1.06995.06982,2.13995.08984,3.21997h-.48999c.02002,1.08002.03003,2.15002.03003,3.22998,0,1.07001-.01001,2.15002-.03003,3.22003l.48999.01001c-.02002,1.07001-.04993,2.14996-.08984,3.21997l-.49011-.01001c-.07996,2.14001-.19995,4.28003-.35999,6.41003l.48999.01996c-.07996,1.06006-.16992,2.13-.27002,3.19l-.47998-.01996c-.19995,2.14996-.43994,4.28998-.71997,6.41998l.47998.03003c-.13,1.06995-.28003,2.13995-.43994,3.19995l-.48999-.02997c-.31006,2.13-.67004,4.25-1.07007,6.37l.47998.03998c-.18994,1.06-.3999,2.13-.62,3.19l-.47998-.03998c-.44006,2.12-.92004,4.23999-1.43005,6.34998l.47998.04999c-.26001,1.06006-.52991,2.12006-.80994,3.17004l-.46997-.04999c-.55994,2.09998-1.15002,4.20996-1.79004,6.29999l.4801.07001c-.32007,1.04999-.64014,2.09998-.9801,3.14996l-.46997-.07001c-.68005,2.09003-1.39001,4.17999-2.13,6.26001l.46997.08002c-.37988,1.03998-.76001,2.08002-1.1499,3.10999l-.47009-.08002c-.78992,2.08002-1.62,4.15002-2.47998,6.21002l.47009.09003c-.43018,1.02997-.87012,2.06-1.33008,3.08997l-.45996-.08997c-.90002,2.04999-1.84009,4.09998-2.81006,6.13995l.45996.10004c-.48999,1.01996-.97998,2.03998-1.48999,3.04999l-.45996-.09998c-1.01001,2.02997-2.06006,4.06-3.14001,6.06995l.46008.11005c-.55005,1.01001-1.1001,2.01996-1.66016,3.01996l-.44995-.10999c-1.11987,2-2.28003,4-3.46997,5.98999l.44995.12c-.58997.99005-1.19995,1.99005-1.80994,2.97003l-.45007-.12c-1.21997,1.97998-2.47998,3.95001-3.77991,5.90997l.44995.13c-.65002.97998-1.30994,1.96002-1.96997,2.94l-.44006-.14001c-1.32996,1.95001-2.68994,3.88-4.07996,5.81l.44006.14001c-.70007.97003-1.41003,1.92999-2.12012,2.89001l-.43994-.14001c-1.41992,1.91003-2.88,3.82001-4.38,5.72003l.43005.14996c-.73999.95001-1.5,1.89001-2.26001,2.84003l-.43005-.16003c-1.5199,1.88-3.06995,3.76001-4.65002,5.62l.42004.16003c-.78992.92999-1.59998,1.85999-2.40002,2.77997l-.41992-.15997c-1.62012,1.84998-3.27002,3.69-4.94006,5.52002l.41003.16998c-.84009.90997-1.67993,1.82001-2.53003,2.71997l-.40991-.16998c-1.71008,1.81-3.44006,3.60999-5.20007,5.41003l.40002.16998c-.88.89996-1.77002,1.78998-2.67004,2.69l-.40002-.17999c-1.79004,1.76996-3.60999,3.52997-5.44995,5.27997l.39001.19c-.92004.87-1.84998,1.73999-2.78003,2.60999l-.40002-.19c-1.87,1.74005-3.77002,3.47003-5.70996,5.19l.39001.19c-.96008.86005-1.93005,1.71002-2.91003,2.57001l-.39001-.20001c-1.94006,1.69-3.92004,3.37006-5.92004,5.04004l.38013.20996c-1,.83002-2.01001,1.67004-3.02002,2.5l-.38013-.20996c-2.02991,1.65997-4.08984,3.31-6.16992,4.95001l.37.20996c-1.03992.82001-2.07996,1.63-3.13,2.42999l-.35999-.20996c-2.09998,1.62-4.21997,3.21997-6.37,4.81l.35999.21997c-1.06995.79004-2.16003,1.59003-3.23999,2.38l-.35999-.21997c-2.16992,1.57996-4.35999,3.13995-6.58008,4.69l.3501.22998c-1.1001.77002-2.20996,1.53998-3.33008,2.31l-.34998-.22998c-2.22998,1.52997-4.48999,3.06-6.7699,4.57001l.33984.22998c-1.13989.75-2.28992,1.51001-3.44995,2.26001l-.32996-.23004c-2.29004,1.48004-4.60999,2.96002-6.95007,4.42004l.33008.23999c-1.16003.72998-2.34009,1.45996-3.52002,2.19l-.33008-.23999c-2.35986,1.44995-4.73999,2.88995-7.1499,4.32001l.32996.23999c-1.19995.70996-2.41003,1.41998-3.62,2.13l-.32007-.24005c-2.40991,1.40002-4.83984,2.79004-7.28992,4.17004l.31995.23999c-.1499.08002-.28992.15997-.43994.23999"/>
    <path class="cls-1" d="m2.97279,13.59996l-.09985.16998c1.16992.65002,2.32983,1.30005,3.47998,1.97003l.09985-.17999c.58008.33002,1.16016.65997,1.7301,1l-.09998.16998c1.1499.67999,2.29004,1.35999,3.42993,2.03998l.1001-.16998c.57996.35004,1.1499.69,1.70996,1.04004l-.1001.17999c1.14014.69995,2.26001,1.39996,3.38013,2.12l.10986-.17004c.56006.36005,1.12012.72003,1.68005,1.08002l-.10999.16998c1.12.72003,2.22998,1.46002,3.33008,2.20001l.11987-.16998c.55005.38,1.1001.75,1.65015,1.13l-.11011.15997c1.1001.76001,2.18994,1.52002,3.28003,2.29004l.10999-.17004c.53992.39001,1.07996.77002,1.62,1.16003l-.12.15997c1.08997.79004,2.17004,1.58002,3.22998,2.37l.12-.15997c.54004.40002,1.07007.79999,1.6001,1.21002l-.12012.15997c1.06006.79999,2.11011,1.62,3.15002,2.44l.13-.15997c.52002.40997,1.04004.81995,1.56006,1.23999l-.13013.15997c1.05005.83002,2.08008,1.67999,3.11011,2.53003l.13-.16003c.50989.42999,1.0199.85999,1.52991,1.29004l-.12988.14996c1.02002.85999,2.02002,1.73004,3.02002,2.60004l.13989-.15002,1.5,1.32001-.13989.15997c1,.88,1.98999,1.78003,2.96997,2.69l.12988-.14996c.48999.44995.9801.89996,1.47009,1.35999l-.14001.15002c.96997.90997,1.92993,1.82996,2.88,2.75995l.14001-.14996c.47998.46997.94995.94,1.42993,1.40997l-.13989.14001c.93994.94,1.87988,1.89001,2.80994,2.84998l.14001-.13995c.45996.46997.91992.94995,1.38,1.44l-.14001.13995c.91992.96002,1.83008,1.94,2.71997,2.92004l.15002-.14001c.45007.48999.90002.98999,1.34998,1.48999l-.1499.13c.88989.98999,1.77002,1.98999,2.63989,3l.15002-.13c.44006.5.87,1,1.29993,1.51001l-.15991.13c.87,1.01996,1.71997,2.04999,2.56006,3.07996l.15991-.12c.42004.51001.84009,1.03003,1.26001,1.55005l-.15991.13c.82996,1.03998,1.6499,2.08997,2.44995,3.13995l.15991-.12c.41016.53003.81006,1.06,1.21008,1.60004l-.16003.12c.80005,1.07001,1.59009,2.14996,2.37,3.22998l.16003-.12c.39001.53998.78003,1.08997,1.15991,1.63l-.16992.12c.77002,1.08997,1.52002,2.19,2.26001,3.28998l.16992-.10999c.37012.54999.73999,1.10999,1.11011,1.66998l-.17004.11005c.72998,1.10999,1.45007,2.23999,2.16003,3.37l.16992-.11005c.3501.56.70007,1.13,1.05005,1.70001l-.16992.10004c.68994,1.13995,1.37988,2.28998,2.04993,3.44l.17004-.10004c.33997.58002.66992,1.15002,1,1.72998l-.18005.10004c.66003,1.15997,1.29993,2.33002,1.93005,3.5l.17993-.09003c.32007.58002.63,1.17004.93994,1.76001l-.17993.10004c.62,1.17999,1.22998,2.37,1.82007,3.56l.17993-.09003c.29004.59998.59009,1.20001.88,1.79999l-.18005.09003c.57007,1.20001,1.14014,2.40997,1.69006,3.62l.18005-.09003c.28003.61005.54993,1.22003.81995,1.83002l-.19006.09003c.54004,1.21997,1.06006,2.44,1.57007,3.67999l.18994-.08002c.25.62.5,1.22998.75,1.84998l-.18994.08002c.48999,1.23999.96997,2.47998,1.43994,3.72998l.19006-.06995c.22998.62994.45996,1.25.68005,1.87994l-.19006.07001c.45007,1.25.89001,2.51001,1.30994,3.78003l.19006-.06c.21008.63.41003,1.26001.60999,1.89996l-.18994.06c.40991,1.27002.79993,2.55005,1.16992,3.83002l.18994-.06c.19006.64001.37012,1.28003.55005,1.92999l-.18994.04999c.34998,1.29004.69995,2.57001,1.02002,3.87006l.19995-.05005c.16003.64001.32007,1.29004.47998,1.94l-.19995.05005c.31006,1.28998.60999,2.58997.88,3.89996l.19995-.03998c.14001.64996.28003,1.29999.41003,1.95996l-.19995.04004c.26001,1.29999.51001,2.60999.73999,3.92999l.19995-.03998c.10999.65997.21997,1.31995.33008,1.97998l-.20007.02997c.21997,1.31.41003,2.63.58997,3.96002l.19995-.03003c.09009.66003.18005,1.33002.26001,1.99005l-.19995.01996c.17004,1.32001.32007,2.65002.44995,3.97003l.20007-.02002c.05994.66998.13,1.33002.18005,2l-.20007.01001c.12,1.33002.22009,2.66998.29993,4l.20007-.01001c.04004.66003.07996,1.33002.10999,1.98999l-.19995.01001c.07007,1.33002.12,2.66003.1499,4l.20007-.01001c.02002.67004.03003,1.34003.03992,2.01001h-.19995c.01001.66998.01001,1.34003.01001,2.01001s0,1.34003-.01001,2.01001h.19995c-.00989.66998-.0199,1.33997-.03992,2.01001l-.20007-.01001c-.02991,1.33997-.07983,2.66998-.1499,4l.19995.01001c-.03003.65997-.06995,1.32996-.10999,1.98999l-.20007-.01001c-.07983,1.33002-.17993,2.66998-.29993,4l.20007.01001c-.05005.66998-.12012,1.33002-.18005,2l-.20007-.02002c-.12988,1.32001-.27991,2.65002-.44995,3.97003l.19995.01996c-.07996.66003-.16992,1.33002-.26001,1.98999l-.19995-.02997c-.17993,1.32001-.37,2.64001-.58997,3.96002l.20007.02997c-.11011.66003-.22009,1.32001-.33008,1.97998l-.19995-.03998c-.22998,1.31-.47998,2.62-.73999,3.92999l.19995.04004c-.13.65997-.27002,1.31-.41003,1.95996l-.19995-.03998c-.27002,1.29999-.56995,2.59998-.88,3.89996l.19995.05005c-.15991.64996-.31995,1.28998-.47998,1.94l-.19995-.05005c-.32007,1.29004-.67004,2.58002-1.02002,3.87l.18994.05005c-.17993.64996-.35999,1.28998-.55005,1.92999l-.18994-.06c-.37,1.27997-.76001,2.56-1.16992,3.82996l.18994.06c-.19995.63-.3999,1.27002-.60999,1.90002l-.19006-.06c-.41992,1.26001-.85986,2.52002-1.30994,3.78003l.19006.06995c-.22009.63-.45007,1.25-.68005,1.88l-.19006-.07001c-.46997,1.25-.94995,2.49005-1.43994,3.73004l.18994.08002c-.25.62-.5,1.22998-.75,1.84998l-.18994-.08002c-.51001,1.23004-1.03003,2.46002-1.57007,3.67999l.19006.08002c-.27002.62-.53992,1.22998-.81995,1.83002l-.18005-.08002c-.54993,1.21002-1.12,2.41998-1.69006,3.62l.18005.09003c-.28992.59998-.58997,1.19995-.88,1.79999l-.17993-.09003c-.59009,1.19-1.20007,2.38-1.82007,3.56l.17993.10004c-.30994.58997-.61987,1.17999-.93994,1.76001l-.17993-.09003c-.63013,1.16998-1.27002,2.34003-1.93005,3.48999l.18005.10004c-.33008.58997-.66003,1.15997-1,1.73999l-.17004-.10004c-.67004,1.15002-1.35999,2.30005-2.04993,3.44l.16992.10004c-.34998.57001-.69995,1.13995-1.05005,1.70001l-.16992-.11005c-.70996,1.13-1.43005,2.25-2.16003,3.37l.17004.11005c-.37012.56-.73999,1.12-1.11011,1.66998l-.16992-.10999c-.73999,1.09998-1.48999,2.19995-2.26001,3.28998l.16992.12c-.37988.53998-.7699,1.09003-1.15991,1.63l-.16003-.12c-.77991,1.08002-1.56995,2.15997-2.37,3.22998l.16003.12c-.40002.53003-.79993,1.07001-1.21008,1.60004l-.15991-.13c-.80005,1.06-1.62,2.10999-2.44995,3.14996l.15991.12c-.41992.53003-.83997,1.05005-1.26001,1.56006l-.15991-.12006c-.84009,1.03003-1.69006,2.06-2.56006,3.08002l.15991.13c-.42993.51001-.85986,1.01001-1.29993,1.51001l-.15002-.13c-.86987,1.01001-1.75,2.01001-2.63989,3l.1499.13c-.44995.5-.8999.98999-1.34998,1.48999l-.15002-.14001c-.88989.98004-1.80005,1.96002-2.71997,2.92004l.14001.13995c-.46008.48004-.92004.96002-1.38,1.44l-.14001-.13995c-.93005.95996-1.87,1.89996-2.80994,2.84998l.13989.14001c-.47998.46997-.94995.94-1.42993,1.40997l-.14001-.14996c-.95007.92999-1.91003,1.84998-2.88,2.75995l.14001.15002c-.48999.46002-.9801.90997-1.47009,1.35999l-.12988-.14996c-.97998.90997-1.96997,1.79999-2.96997,2.69l.13989.14996c-.5.45001-1,.89001-1.5,1.33002l-.13989-.15002c-1,.87-2,1.73999-3.02002,2.60004l.12988.14996c-.51001.42999-1.02002.86005-1.52991,1.29004l-.13-.16003c-1.03003.85004-2.06006,1.70001-3.11011,2.53003l.13013.15997c-.52002.41998-1.04004.83002-1.56006,1.23999l-.13-.15997c-1.03992.82001-2.08997,1.64001-3.15002,2.44l.12012.15997c-.53003.41003-1.06006.81-1.6001,1.21002l-.12-.15997c-1.05994.78998-2.14001,1.57996-3.22998,2.37l.12.15997c-.54004.39001-1.08008.77002-1.62,1.15997l-.10999-.16998c-1.09009.77002-2.17993,1.53003-3.28003,2.28003l.11011.16998c-.55005.38-1.1001.75-1.65015,1.13l-.11987-.16998c-1.1001.73999-2.21008,1.47998-3.33008,2.19995l.10999.17004-1.68005,1.07996-.10986-.16998c-1.12012.72003-2.23999,1.41998-3.38013,2.12l.1001.17004c-.56006.34998-1.13.69995-1.70996,1.04999l-.1001-.17004c-1.13989.68005-2.28003,1.36005-3.42993,2.04004l.09998.16998c-.56995.33002-1.15002.66998-1.7301,1l-.09985-.17999c-1.15015.66998-2.31006,1.32001-3.47998,1.96997l.09985.17004c-.58984.32996-1.16992.64996-1.76001.96997l-.09985-.17999c-.11011.06-.21008.12-.32007.16998"/>
  </g>
</svg>