<?xml version="1.0" encoding="UTF-8"?>
<svg id="Layer_2" data-name="Layer 2" xmlns="http://www.w3.org/2000/svg" viewBox="0 0 168.41992 415.96423">
  <defs>
    <style>
      .cls-1 {
        fill: #fff;
      }

      .cls-2 {
        fill: #2c9148;
      }

      .cls-2, .cls-3, .cls-4, .cls-5, .cls-6, .cls-7, .cls-8, .cls-9 {
        stroke: #231f20;
      }

      .cls-2, .cls-3, .cls-4, .cls-5, .cls-7, .cls-8 {
        stroke-width: 3px;
      }

      .cls-2, .cls-4, .cls-5, .cls-6, .cls-8, .cls-9 {
        stroke-linecap: round;
      }

      .cls-2, .cls-5, .cls-6, .cls-8, .cls-9 {
        stroke-linejoin: round;
      }

      .cls-3, .cls-4, .cls-7 {
        stroke-miterlimit: 10;
      }

      .cls-3, .cls-9 {
        fill: #fcd8b1;
      }

      .cls-4 {
        fill: #268340;
      }

      .cls-5 {
        fill: #266bb5;
      }

      .cls-6 {
        fill: #df5026;
        stroke-width: 2.69019px;
      }

      .cls-7 {
        fill: #3d2912;
      }

      .cls-10 {
        fill: #db8aa1;
      }

      .cls-8 {
        fill: #0194c0;
      }

      .cls-9 {
        stroke-width: 3.29081px;
      }

      .cls-11 {
        fill: #231f20;
      }
    </style>
  </defs>
  <g id="Layer_1-2" data-name="Layer 1">
    <g>
      <path class="cls-3" d="m72.02611,152.98263c.98632,2.26358,2.18955,5.88123,2.14013,10.3949-.02175,1.98627-.28161,3.73895-.61147,5.19745,3.28985,1.01324,7.89452,2.04926,13.45222,2.14014,4.64638.07596,8.60527-.53079,11.61783-1.22293-.18892-2.06671-.25531-4.54947,0-7.33759.32404-3.53873,1.07176-6.53711,1.8344-8.86624-9.47771-.1019-18.95541-.20383-28.43311-.30573Z"/>
      <path class="cls-3" d="m49.24295,378.42494c.50955,5.19745,1.0191,10.3949,1.52866,15.59235,3.28986,1.01324,7.89453,2.04926,13.45224,2.14014,4.64636.07593,8.60526-.53082,11.61783-1.22296.61145-5.40125,1.22293-10.80255,1.83438-16.2038-9.47769-.10193-18.95541-.20386-28.43311-.30573Z"/>
      <path class="cls-3" d="m97.53428,378.42494c.50955,5.19745,1.0191,10.3949,1.52866,15.59235,3.28986,1.01324,7.89453,2.04926,13.45224,2.14014,4.64636.07593,8.60526-.53082,11.61783-1.22296.61145-5.40125,1.22293-10.80255,1.83438-16.2038-9.47769-.10193-18.95541-.20386-28.43311-.30573Z"/>
      <path class="cls-8" d="m137.35999,380.3943c-5.39001,2.08002-13.17004,4.41003-22.75989,5.14001-10.3501.77997-18.94006-.59003-24.78003-1.98999-.84363-50.05084-1.67261-75.07959-2.48682-75.0791-.8158.00049-1.61694,25.12732-2.40332,75.3891-5.57983,1.14996-12.93994,2.09998-21.53992,1.67999-11.46008-.56-20.72009-3.33002-26.97998-5.77002.85999-36.13,1.70996-72.26001,2.56995-108.38995.41003.15997.83008.32996,1.26001.5,10.31006,4.04999,27.39001,9.17999,48.86011,8.68994,17.15991-.39996,31.12988-4.25995,40.65991-7.77997.84998-.31,1.65991-.62,2.43994-.92999,1.71997,36.17999,3.44006,72.35999,5.16003,108.53998Z"/>
      <path class="cls-2" d="m166.91992,234.55433c-2.71997,2.63-7.52991,6.59998-14.53992,9.32001-8.88,3.43994-16.71997,3.09998-20.73999,2.64996-.72998-11.04999-1.46008-22.09998-2.19006-33.14996-.00012-.00122-.00049-.00488-.00061-.00488-.00623.00046.70667,9.19574,1.0686,14.76456.58691,9.03091.85815,17.9617,1.29211,35.4603.13647,5.50409.30737,12.99438.46582,21.94098-11.88147,2.34839-26.09924,4.24384-42.19104,4.586-20.58667.43774-38.42883-1.79028-52.58594-4.586.04944-9.21851.2207-16.91943.38208-22.54779.36145-12.60388.65283-22.43726,1.87964-35.30756.34937-3.66507.87134-8.63348,1.6394-14.53564-.88,7-1.65002,14.20001-2.30994,21.60999-.3501,3.98004-.65015,7.90002-.92017,11.77002-2.1499.35999-5.0199.66998-8.3999.54999-2.54004-.08997-7.07007-.47998-12.21997-2.27997-7.86011-2.75-13.18005-7.38-16.05005-10.32001,8.87-19.10999,17.73999-38.22003,26.6001-57.33002.69995-1.01001,1.86987-2.33997,3.66992-3.20996.33008-.15002.64001-.28003.94995-.39001,9.40002-3.23004,14.1001-4.84003,15.09009-5.10999,11.6499-3.19,23.90991-4.25,26.04993-4.43005,2.01001,1.13,6.35999,3.21002,12.25,3.30005,5.91003.08997,10.32996-1.86005,12.38-2.92999,21.12,3.94995,36.38,7.44995,37.5,8.06995,1.54004.85004,2.75,1.95001,2.75,1.95001,1.58008,1.42999,2.53003,2.95001,3.09009,4.01001,8.36987,18.72003,16.72998,37.42999,25.08984,56.15002Z"/>
      <path class="cls-9" d="m18.85691,248.42849c.08241,1.86823.24371,9.72833.85831,13.7175.74715,4.84958,2.00526,9.96744,3.92413,15.32709-.68909.9093-1.74069,2.43936-2.60004,4.4675-.17236.4068-1.4678,3.63779-1.44666,7.45605.0444,8.01572,5.89819,16.77777,9.56488,16.20383,1.34247-.21014,2.18234-1.63895,2.43201-2.06369,1.37051-2.33154.09277-4.56189-.07645-8.33121-.07462-1.66217.04782-4.0361.99362-6.95541,1.24698,1.43524,1.89545,2.79651,2.25479,3.89807.87421,2.67981.26385,4.51666,1.6051,5.61786.64661.53088,1.76547.90613,2.63693.57324,2.68939-1.02731,2.88052-8.74463,1.1904-14.44586-1.24573-4.20215-3.52136-7.33575-5.51822-9.47772.95953-9.29752,1.91901-18.595,2.87854-27.89252-2.23973.34384-4.85977.58374-7.78424.55109-4.35451-.04861-8.09454-.68713-11.02533-1.41608.02408.65295.06113,1.61218.11221,2.77026Z"/>
      <path class="cls-9" d="m150.76317,248.42849c.12442,6.754-.58374,11.93533-.85831,13.7175-.74713,4.84958-2.00525,9.96744-3.92413,15.32709.68909.9093,1.74069,2.43936,2.60004,4.4675.82486,1.94675,1.44525,4.91672,1.44666,7.45605.00369,6.75922-4.39044,16.28214-8.71124,16.17508-1.41217-.03497-2.66879-1.09494-3.28564-2.03494-1.3688-2.08588-.10504-4.28821.07645-8.33121.07462-1.66217-.04782-4.0361-.99362-6.95541-1.24699,1.43524-1.89546,2.79651-2.25481,3.89807-.87421,2.67981-.26385,4.51666-1.6051,5.61786-.64661.53088-1.76547.90613-2.63693.57324-2.68939-1.02731-2.88052-8.74463-1.1904-14.44586,1.24573-4.20215,3.52136-7.33575,5.51822-9.47772-.95953-9.29752-1.91901-18.595-2.87854-27.89252,2.53831.21442,5.49449.29581,8.77492.07477,3.75638-.25311,7.05426-.84329,9.79501-1.50955.04834.83334.10236,1.97855.12744,3.34006Z"/>
      <path class="cls-4" d="m78.97957,410.96532c-.40881,1.21301-1.79794,1.74536-2.82007,2.07001-6.80005,2.15997-17.22998,1.26001-18.41992,1.14996-7.27002-.66998-9.09009-1.17999-9.8501-2.69995-1.03003-2.07001.52002-4.74005.91003-5.40002.33997-.58002.7301-1.12,1.18005-1.60999.26001-3.48004.53003-6.97003.79004-10.46002,3.28992,1.02002,7.8999,2.04999,13.44995,2.14001,4.6499.08002,8.60999-.53003,11.62-1.22003.73999,4.26001,1.48999,8.52002,2.22998,12.78003.34482.45099,1.36656,1.89539.91003,3.25Z"/>
      <path class="cls-4" d="m128.17952,411.48533c-.76001,1.51996-2.58008,2.02997-9.84998,2.69995-1.19006.11005-11.62,1.01001-18.42004-1.14996-.92993-.29004-2.40991-.84003-2.82996-2.07001-.39001-1.19.39001-2.44.7699-3.04004.12012-.18994.25-.37994.38013-.56.33997-4.44995.66992-8.88995,1.01001-13.34998,3.29004,1.02002,7.8999,2.04999,13.45996,2.14001,4.64001.08002,8.59998-.53003,11.60999-1.22003.54993,3.13,1.09998,6.27002,1.64001,9.40002.51001.52997.94995,1.10999,1.32007,1.75.38989.65997,1.93994,3.33002.90991,5.40002Z"/>
      <path class="cls-11" d="m27.50325,294.6367c1.43856,3.1364,2.78877,6.03148,3.82186,9.32481-2.23716-2.58419-3.72568-5.87296-3.82186-9.32481h0Z"/>
      <path class="cls-11" d="m24.78352,294.6367c1.43853,3.1364,2.78868,6.03147,3.82186,9.32481-2.23731-2.58407-3.72562-5.873-3.82186-9.32481h0Z"/>
      <path class="cls-11" d="m143.86351,293.85943c-.09626,3.45179-1.58453,6.7407-3.82164,9.32489,1.03289-3.29325,2.38317-6.18866,3.82164-9.32489h0Z"/>
      <path class="cls-11" d="m146.58336,293.85943c-.0962,3.45176-1.5848,6.74059-3.82164,9.32489,1.03275-3.29328,2.38309-6.1887,3.82164-9.32489h0Z"/>
      <path class="cls-11" d="m31.22933,176.98705c6.59843,4.02871,10.6025,12.18897,9.78356,19.87257-2.02834-7.26273-5.23523-13.85327-9.78356-19.87257h0Z"/>
      <path class="cls-11" d="m138.34398,176.58577c-4.54837,6.01932-7.75522,12.60988-9.78323,19.87272-.81927-7.68361,3.18473-15.84399,9.78323-19.87272h0Z"/>
      <path class="cls-11" d="m55.15926,404.58574c4.11296-4.18061,11.82916-4.06222,15.82166.22927-5.26838-1.59615-10.51226-1.69974-15.82166-.22927h0Z"/>
      <path class="cls-11" d="m106.10421,404.58574c4.11296-4.18061,11.82916-4.06222,15.82166.22927-5.26838-1.59615-10.51226-1.69974-15.82166-.22927h0Z"/>
      <path class="cls-5" d="m36.49031,373.08281c5.95239,2.55811,15.03931,5.62848,26.46509,6.42017,9.04272.62659,16.70471-.3714,22.29944-1.54779-.10925,1.96497-.21851,3.92987-.32776,5.89484-5.58093,1.15442-12.93848,2.10022-21.54138,1.68042-11.4585-.5592-20.7135-3.32581-26.97339-5.76227l.078-6.68536Z"/>
      <path class="cls-5" d="m137.13374,373.8278c-5.51587,2.44769-14.62219,5.64966-26.24048,6.01733-8.86157.28046-16.20911-1.18213-21.32239-2.63361.08228,2.1109.16467,4.22186.24695,6.33276,5.68018,1.30731,13.66162,2.51324,23.18225,1.97778,10.31519-.58014,18.66382-2.99225,24.36316-5.12744-.07654-2.18896-.15295-4.37787-.22949-6.56683Z"/>
      <ellipse class="cls-3" cx="149.21577" cy="92.7272" rx="13.33645" ry="9.80543" transform="translate(33.31598 224.7534) rotate(-80.57965)"/>
      <ellipse class="cls-3" cx="21.92347" cy="94.75723" rx="9.80543" ry="13.33645" transform="translate(-15.21386 4.86624) rotate(-9.42035)"/>
      <path class="cls-3" d="m147.08067,92.53661c-.82001,16.94-7.71002,28.91998-10.25,33.21002-2.78003,4.69995-8.01001,13.32996-18.34003,20.63995-4.59998,3.25-16.63,11.52002-33.47998,11.01001-14.60004-.45001-24.75-7.23999-30.73004-11.23999-3.84998-2.58002-12.40997-8.42999-19.26001-19.26001-3.5-5.53998-5.73999-11.07001-7.15997-16.32001-2.46002-9.07996-2.5-17.27997-2.46997-23.12.01996-3.23999.02997-6.67999.23999-10.23999.57001-9.40997,2.5-19.67999,9.38995-29.42999,16.48004-23.31,46.93005-23.38,49.98004-23.34003,2.62.03003,31.42999.89001,49.53998,24.72003,4.21002,5.54999,7.01001,11.22998,8.85999,16.52997,3.35004,9.54004,3.65002,17.81006,3.75,21.76001.04004,1.73999.02002,3.44-.06995,5.08002Z"/>
      <path class="cls-11" d="m78.0157,107.74972c2.46662-7.60893,13.9856-6.98248,16.39488.34411-1.48598-.83199-2.82036-1.51856-4.18453-1.99678-4.23369-1.60557-8.38028-.7825-12.21036,1.65267h0Z"/>
      <path class="cls-11" d="m42.27881,70.61668c4.17934-8.16593,17.34993-9.04952,23.14683-2.22013-7.759-2.56941-16.14527-2.22873-23.14683,2.22013h0Z"/>
      <path class="cls-11" d="m109.021,67.43724c6.41588-6.55641,19.25459-3.48892,22.76197,4.75387-6.64587-4.75766-14.75506-6.92278-22.76197-4.75387h0Z"/>
      <path class="cls-6" d="m146.96786,91.78033c.08997-1.64001.10999-3.34003.06995-5.08002-.09998-3.94995-.40002-12.21997-3.75-21.76001-4.76001,1.22003-10.26001,1.77002-16.07996.59003-16.36011-3.33002-25.83008-18.40997-27.73999-16.96997-.94006.70996.40991,5.04999,9.1499,19.65997-4.01001-.17999-21.27002-1.39001-32.84998-15.15002-3.92993-4.66998-6.12-9.5-7.39001-13.28998-2.42993,2.32001-5.71997,5.91998-8.51001,10.91998-6.07996,10.89001-5.59998,20.91003-7.02991,20.87-1.12-.03998-2.46008-6.32996-1.83008-12.63995.93005-9.32001,5.90002-16.03003,8.85999-19.40002-2.72998,2.89001-6.75,7.44-11,13.52002-5.79993,8.29999-6.92993,12.15997-11.62,16.52997-2.45996,2.28003-6.14001,4.94-11.72998,6.88-.20996,3.56-.21997,7-.23999,10.23999-.03003,5.84003.01001,14.04004,2.46997,23.12-2.68994-6.70996-6.15991-18.31995-10.97998-39.47998-1.73999-7.62-2.31995-10.65002-1.83997-14.97998,1.64001-14.69,16.12-23.31,14.67993-25.22003-.53992-.71997-3.06995-.28998-11.19995,4.09003,6.36438-9.24655,13.2041-15.17999,17.98462-18.72522C42.73654,10.80035,58.60764-.96964,77.8956,1.74716c3.81604.53751,6.88879,1.51852,8.94263,2.293,4.66943-1.88339,8.52771-2.38303,11.00647-2.52231,16.90454-.94998,31.33032,11.39258,38.52905,17.55176.36621.31329.69397.60065.69409.60074,6.28992,5.40997,10.44995,10.97998,13,14.89996-3.57007-2.44-7.14001-4.88995-10.70007-7.33997,2.26001,2.04999,5.21008,5.13,7.79004,9.40997,9.45996,15.63,7.90002,37.12-.18994,55.14001Z"/>
      <g>
        <circle class="cls-1" cx="55.97304" cy="87.88654" r="13.14205"/>
        <path class="cls-11" d="m67.00134,95.03422c-6.47965,10.05553-22.1663,7.64006-25.13975-4.13498-2.07147-7.56374,3.34319-15.93393,11.09746-17.1303,11.96726-2.1035,20.57791,11.24563,14.04229,21.26528h0Zm0,0c6.13892-9.53718-2.65659-21.55305-13.50233-18.73464-6.12257,1.49698-10.25447,7.85859-9.11919,14.06219,1.85188,11.05951,16.42524,14.17201,22.62151,4.67244h0Z"/>
      </g>
      <circle cx="57.08225" cy="90.75575" r="10.27285"/>
      <circle class="cls-1" cx="51.05937" cy="85.30806" r="3.16883"/>
      <path class="cls-7" d="m102.23572,133.61493c-.79666,1.28992-5.57944,9.03394-13.79999,9.83258-9.01779.8761-15.49426-7.25449-16.31-8.31085-.76584-.99173-1.68427-2.60156-3.52112-5.8212-2.30447-4.03928-4.03574-7.44781-5.17462-9.7793,1.53088.81531,3.8511,1.89093,6.84698,2.67694.36252.09512,1.04617.25354,2.00873.45724,4.01001.84863,9.02002,1.51199,14.78003,1.38516,3.96619-.08734,9.18726-.22659,15.59998-2.25327,2.67084-.84409,4.82364-1.78546,6.3306-2.51273-.86554,2.08542-2.17993,5.13342-3.93311,8.7648-1.44855,3.0004-2.17282,4.50058-2.82748,5.56061Z"/>
      <path class="cls-10" d="m100.93582,132.98426c-.26743.52246-4.13364,7.76385-12.38217,8.59872-6.02173.6095-11.94629-2.44162-15.13376-7.79617,1.03842-.33054,2.48785-.75433,4.24203-1.14648,5.1788-1.15775,9.54953-1.26523,12.30377-1.18893,4.26233.11807,7.97034.76819,10.97012,1.53287Z"/>
      <path class="cls-1" d="m102.66572,123.25599c-.19.39996-.40002.77997-.63,1.09998-.38.53003-1.62,2.09998-7.17999,3.35999-2.66998.61005-6.65997,1.47003-12.08002.77002-4.10999-.53998-7.46997-.97003-9.91998-3.67999-.15002-.16998-.34998-.39001-.57001-.66003,4.01001.87,9.02002,1.55005,14.78003,1.42004,6.25-.14001,11.54999-1.17999,15.59998-2.31Z"/>
      <g>
        <circle class="cls-1" cx="116.05055" cy="87.82304" r="13.14205"/>
        <path class="cls-11" d="m105.02222,94.97074c6.19678,9.49998,20.77158,6.38574,22.62166-4.67265,1.1344-6.2032-2.99611-12.56551-9.11953-14.06205-10.84765-2.81715-19.64069,9.19795-13.50213,18.73469h0Zm0,0c-6.53459-10.02085,2.07444-23.36891,14.04261-21.26536,7.75292,1.19744,13.17004,9.56614,11.09696,17.13062-2.973,11.77425-18.66151,14.19054-25.13957,4.13474h0Z"/>
      </g>
      <circle cx="114.94133" cy="90.69225" r="10.27285"/>
      <circle class="cls-1" cx="120.96422" cy="85.24456" r="3.16883"/>
      <ellipse class="cls-10" cx="46.15633" cy="109.82031" rx="8.81671" ry="3.89332"/>
      <ellipse class="cls-10" cx="126.21866" cy="109.82031" rx="8.81671" ry="3.89332"/>
    </g>
  </g>
</svg>