<?xml version="1.0" encoding="UTF-8"?>
<svg id="Layer_2" data-name="Layer 2" xmlns="http://www.w3.org/2000/svg" viewBox="0 0 190.73 302.46">
  <defs>
    <style>
      .cls-1 {
        fill: #ddd;
      }

      .cls-2 {
        stroke-width: 2.69px;
      }

      .cls-2, .cls-3, .cls-4 {
        stroke: #f36e21;
        stroke-miterlimit: 10;
      }

      .cls-2, .cls-4 {
        fill: #f26722;
      }

      .cls-5 {
        fill: #2b2b2b;
      }

      .cls-3 {
        fill: #f57f20;
      }

      .cls-3, .cls-4 {
        stroke-width: 5px;
      }

      .cls-6 {
        fill: #e8e8e8;
      }

      .cls-7 {
        fill: #3a4c63;
      }
    </style>
  </defs>
  <g id="Layer_1-2" data-name="Layer 1">
    <g>
      <circle class="cls-3" cx="95.37" cy="207.09" r="92.87"/>
      <path class="cls-4" d="m51.3,288.86c-2.08-14.46,3.08-26.94,11.97-30.86,1.53-.67,7.21-2.88,12.54-.46,7.42,3.37,5.28,11.68,13.15,19.26,5.45,5.25,15.05,9.54,22.62,6.42,7.51-3.09,10.23-12.32,11.01-14.98,3.14-10.67-1.74-15.19,2.44-22.16,2.76-4.6,8.57-8.67,14.25-8.47,6.05.22,7.33,5.1,17.55,8.01,4.18,1.19,8.01,2.28,10.7.31,3.05-2.24,2.98-7.21,2.81-13.94-.2-7.79-1.56-8-1.59-13.58-.02-3.88-.06-14.15,7.03-19.87,1.41-1.14,5.11-3.71,11.64-3.8.7,5.4,5.03,43.96-23.69,75.22-3.2,3.48-28.34,29.96-68.36,30.01-20.47.03-36.09-6.87-44.07-11.1Z"/>
      <g>
        <path class="cls-6" d="m106.94,89.74c1.42,7.63,2.85,15.27,4.27,22.9.92-.32,3.88-1.23,7.05.08,2.94,1.22,5.98,4.32,5.41,6.86-.6,2.7-5.05,3.65-8.63,4.42-3.46.74-9.17,1.4-16.56-.33-.38-1.39-.77-2.78-1.17-4.18-2.21-7.69-4.62-15.06-7.19-22.1,5.61-2.55,11.22-5.1,16.82-7.65Z"/>
        <path class="cls-6" d="m61.49,95.06c.38,7.75.75,15.51,1.13,23.26-.97-.1-4.06-.3-6.84,1.71-2.57,1.86-4.82,5.59-3.68,7.93,1.21,2.49,5.75,2.39,9.42,2.31,3.53-.08,9.24-.75,16.03-4.15.05-1.44.11-2.88.17-4.34.37-7.99,1.02-15.72,1.9-23.16-6.04-1.19-12.09-2.37-18.13-3.56Z"/>
        <path class="cls-1" d="m99.06,30.49c.5-.07,3.51-.54,5.05-3.43,1.83-3.44.63-8.53-2.48-10.76-2.91-2.09-6.17-.73-6.57-.55,1.33,4.91,2.66,9.83,4,14.74Z"/>
        <path class="cls-1" d="m40.82,28.37c-.5.07-3.51.54-5.05,3.43-1.83,3.44-.63,8.53,2.48,10.76,2.91,2.09,6.17.73,6.57.55-1.33-4.91-2.66-9.83-4-14.74Z"/>
        <ellipse class="cls-6" cx="69.99" cy="28.89" rx="29.74" ry="28.88" transform="translate(-2.88 8.33) rotate(-6.67)"/>
        <ellipse class="cls-7" cx="69.99" cy="28.89" rx="23.08" ry="21.36" transform="translate(-2.88 8.33) rotate(-6.67)"/>
        <path class="cls-5" d="m49.72,39.43c1.54.3,14.18,2.51,24.54-6.51,9.36-8.15,9.82-19.32,9.86-21.14,1.24.88,7.38,5.41,8.68,13.7,1.48,9.5-4.6,16.31-6.21,17.96-6.46,6.67-16.4,8.43-24.53,5.66-7.12-2.42-11.01-7.67-12.34-9.67Z"/>
        <path class="cls-6" d="m60.73,54.51c-3.66,1.33-9.24,3.88-14.69,8.81-4.45,4.03-9.53,8.57-9.01,13.39.62,5.78,9.18,11.06,21.07,12.04-.55-.11-1.37-.23-2.36-.26-1.79-.05-3.14-.09-4.36.65-1.23.75-2.47,2.35-2.33,4.03.2,2.43,3.19,4.01,5.3,4.37,4.64.78,10.35-3.35,10.74-8.19.23-2.89-1.51-5.14-2.65-6.61-3.55-4.58-8.63-5.81-10.51-6.17,2.08-1.2,4.44-2.77,6.87-4.82,1.84-1.55,3.4-3.09,4.7-4.52"/>
        <path class="cls-1" d="m58.3,55.84c-2.08,8.54-2.64,15.67-2.74,20.77-.2,10.11-.21,15.63,4.33,19.6,4.36,3.81,10.56,4.13,14.97,4.36,11.88.61,30.65-3.21,35.54-13.73,2.63-5.65-.56-11.79-4.76-21.25-3.86-8.68-8.71-15-12.3-19.04-2.51,2.37-7.27,6.23-14.32,8.52-9.27,3.01-17.22,1.61-20.71.77Z"/>
        <path class="cls-6" d="m93.24,45.81c2.57-.99,6.47-2.87,10.33-6.37,4.61-4.19,6.99-8.73,8.16-11.43-.74-.43-1.77-1.1-2.83-2.12-.37-.36-4.93-4.83-3.6-7.84.37-.83,1.22-1.65,2.01-1.57,1.36.14,1.82,2.94,2.38,2.85.87-.13-.97-6.92,2.17-9.84,1.63-1.52,4.15-1.58,5.81-1.11,5.27,1.49,5.89,9.54,5.91,9.92.31,4.84-2.22,8.43-3.18,9.65-.7,7.17-2.99,17-10.16,24.75-4.73,5.11-7.56,4.97-8.28,4.89-3.9-.41-7.37-5.09-8.72-11.78Z"/>
      </g>
      <ellipse class="cls-4" cx="46.75" cy="219.7" rx="11.92" ry="10.32"/>
      <circle class="cls-2" cx="104.54" cy="256.16" r="5.96"/>
      <ellipse class="cls-4" cx="97.03" cy="176.37" rx="17.49" ry="15.13"/>
    </g>
  </g>
</svg>