<?xml version="1.0" encoding="UTF-8"?>
<svg id="Layer_2" data-name="Layer 2" xmlns="http://www.w3.org/2000/svg" viewBox="0 0 105.4699707031 56.8699951172">
  <defs>
    <style>
      .cls-1 {
        fill: #fff;
      }

      .cls-2 {
        fill: #72b8d3;
      }

      .cls-3 {
        fill: #8ad3f5;
      }
    </style>
  </defs>
  <g id="Layer_1-2" data-name="Layer 1">
    <path class="cls-3" d="m105.4699707031,51.3699951172c-22.6199951172,1.8299560547-45.2399902344,3.6599731445-67.8699951172,5.5-.0800170898-.0599975586-.1599731445-.1099853516-.2399902344-.1700439453C24.9099731445,47.8899536133,12.450012207,39.0799560547,0,30.2699584961,7.4099731445,21.5299682617,14.8299560547,12.7899780273,22.2399902344,4.049987793c1.1499633789-1.3500366211,2.2899780273-2.700012207,3.4400024414-4.049987793,9.5,1.6099853516,18.9899902344,3.2199707031,28.4799804688,4.8299560547,8.5400390625,1.450012207,17.0900268555,2.9000244141,25.6300048828,4.3400268555,1.0399780273,1.7100219727,2.0900268555,3.4299926758,3.1300048828,5.1400146484,7.5200195312,12.3599853516,15.0300292969,24.700012207,22.549987793,37.0599975586Z"/>
    <path class="cls-2" d="m105.4699707031,51.3699951172c-22.6199951172,1.8299560547-45.2399902344,3.6599731445-67.8699951172,5.5-.0800170898-.0599975586-.1599731445-.1099853516-.2399902344-.1700439453,3.546661377-8.9133300781,7.0933532715-17.8266601562,10.6400146484-26.7399902344,2.053314209-8.3766479492,4.1066589355-16.753326416,6.1599731445-25.1300048828,3.0524902344.5186767578,9.7622680664,1.6566162109,12.8150634766,2.1737670898,4.2724609375.7237548828,8.544921875,1.4462585449,12.8149414062,2.1662597656,1.0399780273,1.7100219727,2.0900268555,3.4299926758,3.1300048828,5.1400146484,7.5200195312,12.3599853516,15.0300292969,24.700012207,22.549987793,37.0599975586Z"/>
    <path class="cls-1" d="m82.9199829102,14.3099975586c-11.6400146484,5.2199707031-23.2800292969,10.4400024414-34.9199829102,15.6499633789-8.6700439453-5.3999633789-17.3300170898-10.799987793-25.9899902344-16.1999511719.0799560547-3.2400512695.1499633789-6.4700317383.2299804688-9.7100219727,1.1499633789-1.3500366211,2.2899780273-2.700012207,3.4400024414-4.049987793,18.0399780273,3.0599975586,36.0700073242,6.1199951172,54.1099853516,9.1699829102,1.0399780273,1.7100219727,2.0900268555,3.4299926758,3.1300048828,5.1400146484Z"/>
  </g>
</svg>