<?xml version="1.0" encoding="UTF-8"?>
<svg id="Layer_2" data-name="Layer 2" xmlns="http://www.w3.org/2000/svg" viewBox="0 0 128.1109407079 161.8829659426">
  <defs>
    <style>
      .cls-1 {
        fill: #fff;
      }

      .cls-2 {
        fill: #a8c5e7;
      }

      .cls-3 {
        fill: #72b8d3;
      }

      .cls-4 {
        fill: #8ad3f5;
      }
    </style>
  </defs>
  <g id="Layer_1-2" data-name="Layer 1">
    <path class="cls-4" d="m128.1109407079,122.0643989027c-5.9240051805,8.5163287294-11.8594734106,17.0184193989-17.7820474376,25.5218626518-3.1795313568.9369844439-6.3576402867,1.8611619813-9.55005712,2.7967152717-3.1524078204.9269525478-6.3176312738,1.8525612386-9.4700390942,2.7795137864-1.9251668152.5550031782-3.8388880339,1.1244015563-5.7655645725,1.6922814845-5.0775047921,1.4820430225-10.1694047842,2.9755316415-15.2469095763,4.457574664-2.9235810826.8611362116-5.8456611683,1.7094742432-8.7691636808,2.5706191814-4.215211597-1.1197568589-8.4433086705-2.2409448712-12.6570105441-3.37357848-4.1765551676-1.1154633985-8.3417345822-2.2166188936-12.5182897498-3.3320822921-7.138811562-1.9005506825-14.2647289209-3.7997487815-21.4034619129-5.7002907374-4.9747614012-1.3214382458-9.960907282-2.657105825-14.9483970197-3.9799577712,2.8188923318-5.6684213597,5.6377933901-11.3369212893,8.4681400449-16.991026019-.5481223149-6.9155676227-1.0962446297-13.8311352455-1.6314814681-20.7452717147-.2003491151-2.5373616092-.4021293836-5.061837742-.6024784987-7.5991993512.7194345775-.0243703405,1.4259836785-.0501718345,2.1469192529-.0873403549,3.2825111181-.1046225734,6.5679543866-.2349288033,9.8533889285-.3651564631.9068880603.8695515101,9.7151306455,9.4453640428,9.7151306455,9.4453640428,0,0-.0086145645-.1573308847-.040073027-.4606081744-.2948510666-4.1507318592-2.5946593399-35.0698036322-2.5918057595-35.0954960151,5.8768090905-7.1532576145,11.740820001-14.3080162259,17.6048221849-21.4626962673.1201616302-.1430280766.241675844-.2989503563.3618374742-.4419784329l4.0004578856-36.0183638291c3.1736358547-5.2251208843,6.3472629829-10.4501631986,9.5208988375-15.6752840828l5.2695760975,5.2376049314,2.2657042484,2.245534316c3.578790441,3.5641807587,7.1704663584,7.1297926709,10.7635734293,10.6825191066.6570761483,12.0360746601,1.3154961534,24.0593336872,1.9611179787,36.0810917174,1.5962196909-.4091549943,3.1924393817-.8183099886,4.777196023-1.2417030429,2.7232530131-.7010026727,5.4465845962-1.4019966189,8.1570219762-2.1043431486.9071912684,9.6659856379,1.8273378567,19.3334897259,2.7488457551,28.9880210408.4391583256.1530519802.8653526048.3046640803,1.3045109305.4577160605l15.9496640986,5.6418621388c-.4845785149,6.12319438-.9563501233,12.2478111869-1.4409373647,18.3710841369-.8666179653,3.9304993007-1.7332446572,7.8610771714-2.612669529,11.7901540452-.324610035,1.5147224826-.6621055465,3.0280138118-.9996010579,4.5413051409,6.1959694155-3.690464766,12.3790533546-7.3823606855,18.5635684471-11.0871420815,1.5320868636,4.1578629148,3.0640951573,8.315717103,4.5976131744,12.4606945413Z"/>
    <path class="cls-3" d="m36.3518589325,155.1773051705c-7.138811562-1.9005506825-14.2647289209-3.7997487815-21.4034619129-5.7002907374l-8.1117384428-41.7162555049c-.2003491151-2.5373616092-.4021293836-5.061837742-.6024784987-7.5991993512.7194345775-.0243703405,1.4259836785-.0501718345,2.1469192529-.0873403549,3.2825111181-.1046225734,6.5679543866-.2349288033,9.8533889285-.3651564631.9068880603.8695515101,9.7151306455,9.4453640428,9.7151306455,9.4453640428,0,0-.0086145645-.1573308847-.040073027-.4606081744.3533400132.6908296954.69379455,1.3802282373,1.0470559932,2.0710492061,2.4751304393,14.7922435037,4.9473200018,29.6102492338,7.3952570613,44.412437337Z"/>
    <path class="cls-1" d="m33.2560960136,77.470250246c-2.6461317267-1.290643999-5.2922241684-2.5812836347-7.9383558951-3.8719276338l17.9666596591-21.9046747002c1.3334859619-12.0061212764,2.6669719237-24.0122425528,4.0004578856-36.0183638291,3.1736358547-5.2251208843,6.3472629829-10.4501631986,9.5208988375-15.6752840828l7.5352803459,7.4831392474-1.0408587122,9.371434187c-.629457825,6.2936224948-1.1639501003,12.813582425-1.5782390312,19.5482067447-.3763011347,6.1172445809-.6323979384,12.0695925447-.7861480167,17.8459532579-9.2265635699,7.740492508-18.453131503,15.481024301-27.6796950729,23.2215168089Z"/>
    <path class="cls-1" d="m0,145.497056662c2.8188923318-5.6684213597,5.6377933901-11.3369212893,8.4681400449-16.991026019-.7484714299-9.452929232-1.4983740133-18.8929729874-2.2339599668-28.3444710659.7194345775-.0243703405,1.4259836785-.0501718345,2.1469192529-.0873403549,3.503736033,2.6909352945,7.007511351,5.3818749523,10.511247384,8.0728102468,1.8491982005,14.6189243081,3.6983658426,29.2377656829,5.5475640431,43.8566899909-8.1466398282-2.1688614093-16.2932709299-4.3378013886-24.4399107581-6.5066627979Z"/>
    <path class="cls-2" d="m91.308797056,153.1624906127c-1.9251668152.5550031782-3.8388880339,1.1244015563-5.7655645725,1.6922814845-5.0775047921,1.4820430225-10.1694047842,2.9755316415-15.2469095763,4.457574664-3.6372321021-31.1979008863-7.2887808341-62.3843474495-10.9388198426-93.5836707627.9102092379-20.1631900234,1.8204272023-40.3264586168,2.7178295336-60.4910710671l2.2657042484,2.245534316c3.578790441,3.5641807587,7.1704663584,7.1297926709,10.7635734293,10.6825191066.6570761483,12.0360746601,1.3154961534,24.0593336872,1.9611179787,36.0810917174,1.5962196909-.4091549943,3.1924393817-.8183099886,4.777196023-1.2417030429,3.1595366138,33.3862595715,6.3191517976,66.7725278696,9.4658727783,100.1574435842Z"/>
    <path class="cls-1" d="m94.0533029394,80.3464409811l15.9496640986,5.6418621388c-.4845785149,6.12319438-.9563501233,12.2478111869-1.4409373647,18.3710841369-1.2041134768,5.4437906299-2.4082356802,10.8876598297-3.612270587,16.3314591861-3.6321404084-13.4481206045-7.2643157385-26.8962848573-10.8964561469-40.3444054618Z"/>
    <path class="cls-1" d="m42.4401242663,97.0168855536c6.0081634338-7.2753168237,12.0162919458-14.5506772957,18.0244553796-21.8259941195,3.2772332044,28.0404967496,6.5545056937,56.0809978625,9.8317432614,84.1214553271-2.9230705641.856897796-5.8460931167,1.7137213853-8.7691636808,2.5706191814-3.2058076456-.853100527-6.4115847328-1.7061181207-9.6173923784-2.5592186477-3.1565620767-20.7689422732-6.3130848684-41.5378801831-9.4696425818-62.3068617412Z"/>
    <path class="cls-3" d="m128.1109407079,122.0643989027c-5.9240051805,8.5163287294-11.8594734106,17.0184193989-17.7820474376,25.5218626518-3.1795313568.9369844439-6.3576402867,1.8611619813-9.55005712,2.7967152717.7365502107-5.5430473912,1.5012530066-11.1211467758,2.2950599852-16.7335561487.6144221465-4.3442751522,1.2398625683-8.6638624684,1.875862951-12.9585742346,6.1959694155-3.690464766,12.3790533546-7.3823606855,18.5635684471-11.0871420815,1.5320868636,4.1578629148,3.0640951573,8.315717103,4.5976131744,12.4606945413Z"/>
  </g>
</svg>