<?xml version="1.0" encoding="UTF-8"?>
<svg id="Layer_2" data-name="Layer 2" xmlns="http://www.w3.org/2000/svg" viewBox="0 0 314.3035690891 84.3849350701">
  <defs>
    <style>
      .cls-1 {
        fill: #fff;
      }

      .cls-2 {
        fill: #72b8d3;
      }

      .cls-3 {
        fill: #8ad3f5;
      }

      .cls-4 {
        fill: #e5e5e5;
      }
    </style>
  </defs>
  <g id="Layer_1-2" data-name="Layer 1">
    <path class="cls-4" d="m134.6684278543,24.1202595434c-10.7394885257.6181153724-21.4789539148,1.2361844718-32.2184424405,1.8542998442-13.9845016847,3.6313236986-27.9690033695,7.2626473971-41.9535050542,10.8939710957.3090576862,6.7218542876.6180922359,13.4436623021.9271499221,20.1655165897,22.3288509836-2.6269209232,44.6576788307-5.2538418464,66.9865298143-7.8807627696,2.0860815406-8.3443261623,4.1721862177-16.6886985977,6.2582677583-25.0330247601Z"/>
    <path class="cls-2" d="m60.4964803596,36.8685304833c-3.7085996884,10.430453976-7.4171762403,20.8608616789-11.1257759286,31.2913156549,8.4811787012,1.4880486709,23.0905747599,2.9071042276,40.3309869064-1.3907364514,13.603304317-3.3911665805,23.8462367668-9.0955228202,30.3641425963-13.4436623021.4635633928-7.2626473971.9271499221-14.5253410673,1.3907133149-21.7879884645l-60.960066889,5.3310715631Z"/>
    <path class="cls-1" d="m92.2042765812,50.6562328958c11.0606003408-6.8775168204,22.4051089664-14.5319118401,33.8880202779-23.0591553604,3.3221040567-2.46700127,6.5667007583-4.9408972242,9.7350626138-7.4171993768,4.5134962182-.7037205108,23.7299757343-3.6964761499,28.2780610557-4.4039910506C228.8620521697,5.7022446035,235.7748290525,4.7059396115,244.3038309486,3.7229612572,261.2095964135,1.7745883069,285.0407250303-.1875740117,314.3035690891.0143615689c-7.7702627314,6.0427973112-19.3701291712,14.4335353405-34.3045239811,22.9469432195-55.3784730451,31.5687688495-130.0498224081,49.6856387943-141.5061267171,30.5959242927-2.36922632-3.9478776185-3.0644094535-11.2026123245,5.6787903808-25.7283698493-6.6868487269,3.5898167747-13.8733075509,7.1760242517-21.5562299046,10.6621893993-10.6496262669,4.832294381-20.8489926422,8.8351906533-30.4112022859,12.1651842647Z"/>
    <path class="cls-3" d="m0,84.3849350701c5.5628995326-.9271267856,11.1257990652-1.8542998442,16.6886985977-2.7814266298v-13.907271968c26.3994215884-3.0748902989,48.1752171048-8.4591295939,64.4368617444-13.4436623021,24.1933771714-7.4158111853,41.7627444147-15.6577350929,47.7481862832-18.5429521689,6.278303988-3.0263961448,11.4837210898-5.7855191655,15.2979621463-7.8807627696,14.5253410673.772621079,29.0506589982,1.545242158,43.5760000655,2.317863237-27.9421650018,12.1700429347-41.6940289387,18.8142973211-41.2581368285,19.9336886203.5304048103,1.3620934348,22.0669455331-5.4556848808,64.6115887729-20.4541215888,7.1656128159-.3726831269,14.6972917129-1.0907020095,22.5404344946-2.2610399343C266.722058324,22.4290721926,293.8803116231,11.1574667539,314.3035690891.0143615689c-.9290702536,13.0648248599-2.006167987,26.3571280227-3.2449900226,39.8674235136-1.2706116193,13.8567880728-2.6667620173,27.4574085531-4.1722093542,40.7945502992-102.2954565708,1.2361844718-204.5909131415,2.4724152166-306.8863697123,3.7085996884Z"/>
  </g>
</svg>