<?xml version="1.0" encoding="UTF-8"?>
<svg id="Layer_2" data-name="Layer 2" xmlns="http://www.w3.org/2000/svg" viewBox="0 0 30.5700073242 17.1199951172">
  <defs>
    <style>
      .cls-1 {
        fill: #fff;
      }

      .cls-2 {
        fill: #8ad3f5;
      }
    </style>
  </defs>
  <g id="Layer_1-2" data-name="Layer 1">
    <path class="cls-2" d="m30.5700073242,5.200012207c-.1699829102.6799926758-.3500366211,1.3499755859-.5200195312,2.0299682617-.8499755859,3.3000488281-1.6900024414,6.6000366211-2.5399780273,9.8900146484H8.8599853516C5.9099731445,13.6599731445,2.950012207,10.1900024414,0,6.7299804688c.7800292969-.5399780273,1.5599975586-1.0700073242,2.3400268555-1.6099853516C4.8200073242,3.4099731445,7.299987793,1.700012207,9.7800292969,0c6.9299926758,1.7299804688,13.8599853516,3.4700317383,20.7899780273,5.200012207Z"/>
    <path class="cls-1" d="m30.5700073242,5.200012207c-.1699829102.6799926758-.3500366211,1.3499755859-.5200195312,2.0299682617-3.2299804688.8500366211-7,1.3300170898-11.0199584961,1.3300170898-6.6900024414,0-12.6800537109-1.3300170898-16.6900024414-3.4400024414C4.8200073242,3.4099731445,7.299987793,1.700012207,9.7800292969,0c6.9299926758,1.7299804688,13.8599853516,3.4700317383,20.7899780273,5.200012207Z"/>
  </g>
</svg>