<?xml version="1.0" encoding="UTF-8"?>
<svg id="Layer_2" data-name="Layer 2" xmlns="http://www.w3.org/2000/svg" viewBox="0 0 138.6496815287 54.8345670299">
  <defs>
    <style>
      .cls-1 {
        fill: #797979;
      }

      .cls-2 {
        fill: #676767;
      }

      .cls-3 {
        fill: #adadad;
      }

      .cls-4 {
        fill: #b5b3b5;
      }

      .cls-5 {
        fill: #a2a0a0;
      }
    </style>
  </defs>
  <g id="Layer_1-2" data-name="Layer 1">
    <path class="cls-1" d="m45.9147439868,5.9789233961c-.0088896267-.8961143653.676900791-1.6523672418,1.3476696453-2.1955952547,6.4553935396-1.9755207,12.0130244664-2.8588506513,15.9193371758-3.2934111455,11.8116122061-1.3140185944,19.4678788447.2573685166,27.2864680484,1.8620681577,3.3908152536.6959469695,7.2328827544,1.6903552147,8.6794368851,4.3588276786.7034127293,1.2975814908.6246952533,2.5931540022.449212005,3.4763743728-14.2525938307,5.1223859345-25.5244610874,4.7434193776-31.6702086397,4.0253005816-8.2257632516-.961132242-21.9723882301-4.2479320192-22.0119151199-8.2335643906Z"/>
    <path class="cls-2" d="m43.4756139772,18.0212803894c-.4551483577-2.6390406762,1.1661245535-5.3494669196,3.2895888611-7.6767886671,6.6736117509-2.6816729099,12.4316100879-3.8564603282,16.4752515367-4.4233870515,12.969042009-1.8183701772,21.8647692679.7143827185,29.4856580163,2.88417602,5.2540950195,1.4959346294,9.1830795002,3.193611079,10.7760569979,6.9881726833.8733303513,2.0803124594.7755977427,4.1574040769.5577244508,5.5734032681-17.474595992,7.8368937866-31.3055833803,7.5387609544-39.3205202084,6.4534543783-4.6267524388-.6265415776-20.0418236852-2.713939889-21.2637596544-9.7990306311Z"/>
    <path class="cls-3" d="m124.3089761398,53.7379143409c-8.7131345115-3.5069473856-16.3242691993-5.7093001163-22.9803911817-6.9780253584-13.6206568387-2.5853007193-23.2154450178-1.2088941847-30.0330824366,1.1131206607-8.8895369898,3.0521144636-13.7530259581,7.9833916727-22.2310169526,6.7745705418-8.4780806754-1.2088941847-11.2845571146-7.2174226416-17.161889508-11.346788353-2.1745842877-1.532011116-4.7753325697-2.8007363581-8.2282294784-3.4710049189C12.1548453126,37.5795839473,1.3404855512,43.93519098.09158829,42.0200857677c-1.2783126211-1.9628823936,11.2550520738-6.9540637139,10.7848547206-13.7165803797-.0881563987-1.2687252421-.6170947906-2.4297691917-1.4252100585-3.483058795-1.4693330984-1.9628823936-3.8349378633-3.566778443-5.994904152-4.7517109833,5.9067477533-.7540612627,13.6794875584-2.2262413213,22.2457246325-5.3023174294,9.5506651393-3.435135506,16.7063101538-7.636313097,21.5550914422-10.9876559012,3.7174557857.5146639794,6.509134864,3.0401336414,6.7442783811,6.0443978698.1175717585,1.5559727605-.4701973532,3.0640952858-1.557489497,4.2610086483,3.0708559542-1.5320841698,5.6863119162-2.0467481492,7.1703526944-2.2502029658,2.9679918756-.4189635091,6.1565092693-.2633589277,7.8608962038-.1795662259,2.3068637261.1077543463,4.2316864977.3351708073,5.6128631974.5506064461-.3085922358,1.0532896033-.5583537519,2.621243186.2350538361,4.2011775909,1.3811766997,2.7887555359,4.7312992108,3.0879838765,5.8332990346,5.4937914237.4995230321,1.1012128922.6465101505,2.8606404693-1.3517613398,5.6733576496,3.6586250659-2.5015080175,4.2757198566-4.2729164167,4.0406660205-5.4937914237-.4996127131-2.6332240082-5.1573735242-3.4231546838-5.3778093613-6.0324170476-.1321897575-1.544064992,1.3371433408-2.896582936,2.6889046807-3.842118193,2.2627406863-.0239616445,5.1279581643-.2393972833,8.3163858771-.9216466663,5.3043606426-1.1370823051,9.2421625845-3.0999646987,11.6812160681-4.5722178112,1.293020301,1.9270860345,3.5411429884,4.8594653295,7.0527809359,7.8876912025,2.2039996475,1.9150321585,4.9076120081,3.8779876059,8.2136114794,5.6493960051,9.4330933808,5.0868817906,18.8808944415,6.1761138606,24.2292884429,6.3675878549-12.6803518133.2393972833-22.0547041553,7.145610762-22.657091266,14.3151101147-.5877691117,7.0138947713,7.3906988506,12.2205117304,8.3163858771,12.8069875894Z"/>
    <path class="cls-3" d="m126.7244659229,23.8450294057c-.4600219727,0-1.0200195312,0-1.6699829102-.0300292969.549987793-.0100097656,1.0999755859,0,1.6699829102.0300292969Z"/>
    <path class="cls-4" d="m101.3285849581,46.7598889826c-13.6206568387-2.5853007193-23.2154450178-1.2088941847-30.0330824366,1.1131206607-8.8895369898,3.0521144636-13.7530259581,7.9833916727-22.2310169526,6.7745705418-8.4780806754-1.2088941847-11.2845571146-7.2174226416-17.161889508-11.346788353-2.1745842877-1.532011116-4.7753325697-2.8007363581-8.2282294784-3.4710049189C12.1548453126,37.5795839473,1.3404855512,43.93519098.09158829,42.0200857677c-1.2783126211-1.9628823936,11.2550520738-6.9540637139,10.7848547206-13.7165803797-.0881563987-1.2687252421-.6170947906-2.4297691917-1.4252100585-3.483058795,11.5049032708,2.4058075472,29.16622613,9.3240018482,53.3073581742,6.9540637139,13.6501618795-1.3405371217,23.0685475804-5.0389585016,29.7393772427-7.3011422897,5.3630120004-1.807350866,8.9628960276-2.7050358878,11.5929699885-.7420804404,4.5696940934,3.4111738616,3.2619661125,13.333632391-2.7623533994,23.0286014056Z"/>
    <path class="cls-5" d="m124.3089761398,53.7379143409c-8.7131345115-3.5069473856-16.3242691993-5.7093001163-22.9803911817-6.9780253584-13.6206568387-2.5853007193-23.2154450178-1.2088941847-30.0330824366,1.1131206607-8.8895369898,3.0521144636-13.7530259581,7.9833916727-22.2310169526,6.7745705418-8.4780806754-1.2088941847-11.2845571146-7.2174226416-17.161889508-11.346788353,6.8177270998-.1196621147,16.4418409578-.3470785758,27.7116903925-3.1119455209,15.0018335384-3.6745327893,24.8610909135-9.8745352405,32.8836819157-15.7154782938,5.0250940857-3.6625519671,9.3302293022-7.1934609972,13.7088132373-9.8745352405,2.2039996475,1.9150321585,4.9076120081,3.8779876059,8.2136114794,5.6493960051,9.4330933808,5.0868817906,18.8808944415,6.1761138606,24.2292884429,6.3675878549-12.6803518133.2393972833-22.0547041553,7.145610762-22.657091266,14.3151101147-.5877691117,7.0138947713,7.3906988506,12.2205117304,8.3163858771,12.8069875894Z"/>
    <path class="cls-3" d="m126.7244659229,23.8450294057c-.4600219727,0-1.0200195312,0-1.6699829102-.0300292969.549987793-.0100097656,1.0999755859,0,1.6699829102.0300292969Z"/>
  </g>
</svg>