<?xml version="1.0" encoding="UTF-8"?>
<svg id="Layer_2" data-name="Layer 2" xmlns="http://www.w3.org/2000/svg" viewBox="0 0 199.949044586 68.4461158943">
  <defs>
    <style>
      .cls-1 {
        fill: #797979;
      }

      .cls-2 {
        fill: #676767;
      }

      .cls-3 {
        fill: #adadad;
      }

      .cls-4 {
        fill: #a2a0a0;
      }
    </style>
  </defs>
  <g id="Layer_1-2" data-name="Layer 1">
    <path class="cls-1" d="m133.7303126939,7.4627423685c.0128199882-1.1185074965-.9761782398-2.0624433873-1.9435134363-2.7404869812-9.3095100309-2.4657954368-17.3243305905-3.5683457484-22.9577373115-4.1107532685-17.0338681353-1.6401250843-28.0751920508.3212409326-39.35060604,2.3241868148-4.8899929065.8686635686-10.4307497512,2.1098590229-12.5168673687,5.4405794875-1.0144118743,1.6196087028-.9008911219,3.236709848-.647821646,4.3391233835,20.5540784492,6.3936337709,36.809564757,5.920617211,45.6725253396,5.0242793242,11.862611479-1.1996611807,31.6870175896-5.3021623035,31.7440204628-10.2769287603Z"/>
    <path class="cls-2" d="m126.6849868798,23.0918317424c.5286749716-3.5733977709-1.3545053048-7.2434552974-3.8210031252-10.3947694928-7.7516955569-3.631124024-14.4398655903-5.2218470396-19.136734186-5.9894951886-15.0641165643-2.4621674076-25.3968976796.9673112026-34.248897415,3.905323722-6.1028640172,2.0255729733-10.6665534676,4.324314821-12.5168673687,9.4623477813-1.0144118743,2.8168508246-.9008911219,5.6293404626-.647821646,7.5466767125,20.2975170218,10.6115601185,36.3628213113,10.2078728221,45.6725253396,8.7383115026,5.3741778309-.848369749,23.2794656651-3.6748151833,24.6987984012-13.268395037Z"/>
    <path class="cls-3" d="m199.8165678265,52.4487735082c-1.7999223141,2.3848621808-17.3935984334-5.5462546714-34.0113911425-2.7348806144-4.9806121406.8423634174-8.7355800327,2.4176556361-11.8697707612,4.3320597563-8.4718326032,5.1525116308-12.5215157557,12.6569935082-24.748221548,14.1666495769-12.2267057923,1.5096560687-19.2400198456-4.6492847346-32.0562508618-8.4562060518-2.5054585259-.7383451377-5.2705449074-1.4000491146-8.3249958386-1.92294716-13.8248636905-2.3667174537-25.9681836258-.5656132442-34.9960639964.5336076197-10.6999064896,1.3028012555-25.7195886519,2.6494748364-45.4525841686,2.9765230794,1.856128454-.2696843161,22.8247120183-3.4507725756,24.304112546-10.2513030518.1269491667-.5836348728-.138502914-1.7291900332-1.0550844208-3.6428063226-3.5997499254-7.5154868883-15.8264557177-13.9697411271-31.6063176347-14.2322611072,7.7115581457-.2297511446,21.3346574202-1.5972037616,34.9423201306-7.9420726236,4.763458512-2.2098160344,8.6580184008-4.6602405061,11.8388029301-7.0559845992,5.0582684754-3.7741401718,8.3010833696-7.4388334176,10.1785673156-9.8455332822,3.5066570266,1.8378245087,9.1855132598,4.2882489803,16.8349463377,5.7104435251,4.6083352482.8532453297,8.7355800327,1.1157776197,11.9939261939,1.1486326242,1.9550455779,1.1814137697,4.0653091223,2.8661406045,3.8790286219,4.7915004961-.3102465275,3.2599451943-7.0287506173,4.2445120634-7.7580572437,7.537250713-.3413090614,1.5206118402.5586520957,3.7304032549,5.8340741997,6.8590761494-2.885974566-3.5116078818-2.6687262345-5.710369666-1.9550455779-7.0887780545,1.5982052496-2.9974005945,6.4236941265-3.3693551907,8.4098022382-6.8590761494,1.1481773196-1.9690844987.7913369913-3.9272255358.3413090614-5.2399731547,2.0016393787-.2625445998,4.763458512-.5469761229,8.0994610079-.6891918844,2.451477903-.0984911545,7.0598131512-.2953872945,11.3422759022.2296772854,2.1257001086.2516626875,5.9116358316.8970437959,10.3336905794,2.811460226-1.5671427157-1.4987002973-2.4205100719-3.3802617228-2.2498555412-5.3275208475.3414037642-3.7412851673,4.3755556498-6.9028130662,9.7286340885-7.5373245721,6.2530395958,3.7413590264,15.1748054261,8.3249953012,26.8428591227,12.3178692968,1.3654256511.4703965113,2.7774451031.940842262,4.235963653,1.3893272304,12.3662977891,3.8397886316,23.5689816945,5.6776008304,32.0873133957,6.618393853-3.1187541644,1.4877445258-6.5323182922,3.4896963389-8.6424871338,5.9401208105-1.1637085866,1.3127476189-1.923983044,2.7567675376-2.0636697436,4.3430155278-.6671815586,8.4452502804,17.4091297004,14.6698026139,15.5627082883,17.1202517053Z"/>
    <path class="cls-4" d="m199.8165678265,52.4487735082c-1.7999223141,2.3848621808-17.3935984334-5.5462546714-34.0113911425-2.7348806144-4.9806121406.8423634174-8.7355800327,2.4176556361-11.8697707612,4.3320597563-8.4718326032,5.1525116308-12.5215157557,12.6569935082-24.748221548,14.1666495769-12.2267057923,1.5096560687-19.2400198456-4.6492847346-32.0562508618-8.4562060518-2.5054585259-.7383451377-5.2705449074-1.4000491146-8.3249958386-1.92294716-14.0283327577-2.4015297253-26.4742282899-.5418798427-34.9960639964.5336076197-10.9655953274,1.3838985841-26.5311920525,2.8290263899-47.4108022919,3.2071112942,14.7636056635-1.5441482841,25.2976874676-5.730139294,26.2623306693-10.4818912665.1887427745-.929763392.0673810758-2.1583854578-1.0550844208-3.6428063226,15.7333628189-4.014834778,37.5024221993.3719053568,48.7981990035,2.6473575412,26.8583903896,5.4150562306,30.7840128123,12.4272177439,46.9673088584,11.0378782037,15.9815789815-1.3674279973,33.359646148-10.0424294223,35.5784391553-20.0629719213,1.8773892432-8.5546848965-8.4873638701-12.3834931369-5.6943875001-21.0804061048.3257777944-.9954487814.7912422885-1.9800279603,1.3808622152-2.9536636776,1.3654256511.4703965113,2.7774451031.940842262,4.235963653,1.3893272304,12.3662977891,3.8397886316,23.5689816945,5.6776008304,32.0873133957,6.618393853-3.1187541644,1.4877445258-6.5323182922,3.4896963389-8.6424871338,5.9401208105-1.1637085866,1.3127476189-1.923983044,2.7567675376-2.0636697436,4.3430155278-.6671815586,8.4452502804,17.4091297004,14.6698026139,15.5627082883,17.1202517053Z"/>
  </g>
</svg>