<?xml version="1.0" encoding="UTF-8"?>
<svg id="Layer_2" data-name="Layer 2" xmlns="http://www.w3.org/2000/svg" viewBox="0 0 69.7246785002 29.4675968968">
  <defs>
    <style>
      .cls-1 {
        fill: #797979;
      }

      .cls-2 {
        fill: #676767;
      }

      .cls-3 {
        fill: #adadad;
      }

      .cls-4 {
        fill: #b5b3b5;
      }

      .cls-5 {
        fill: #b3b2b1;
      }
    </style>
  </defs>
  <g id="Layer_1-2" data-name="Layer 1">
    <path class="cls-1" d="m46.6348976404,3.2130189784c.0044704493-.4815636982-.3404024409-.8879671062-.6777212302-1.1798928927-3.2463128236-1.0616268315-6.0411553744-1.5363203022-8.0055767476-1.769849154-5.939868412-.706141625-9.7900808611.1383074964-13.7219226984,1.000658468-1.7051860546.3739955627-3.6372995533.9083814967-4.3647481893,2.3423942947-.3537348652.6973084749-.3141491219,1.3935373427-.2259014395,1.8681719256,7.1673985232,2.7527235475,12.8358379448,2.5490703716,15.9264348182,2.1631598713,4.1366030691-.5165037129,11.0495580542-2.2827999771,11.0694354868-4.4246425129Z"/>
    <path class="cls-2" d="m48.8387842542,9.6204194341c.2360965927-1.570356413-.604897346-3.1831906795-1.7063902527-4.5680593041-3.4617657476-1.5957246472-6.4485804085-2.29477979-8.5461161936-2.6321285183-6.7273594993-1.0820179074-11.341790946.4250921525-15.2949324564,1.7162237581-2.7254276774.8901532134-4.763488087,1.9003525346-5.5898045023,4.1582995997-.4530178275,1.2378861914-.4023215315,2.4738558266-.2893053227,3.3164436013,9.0645006209,4.6633295682,16.238972284,4.4859261624,20.3965161774,3.8401164344,2.4000097269-.37282244,10.3961844568-1.6149250544,11.0300325503-5.8308955712Z"/>
    <path class="cls-3" d="m7.2117083976,28.8782657284c4.3816941796-1.8846015841,8.209210502-3.0681258827,11.5564664074-3.7499272723,6.8496076485-1.3893170597,11.6746711732-.649648724,15.1031505748.5981809055,4.4704041278,1.6401785147,6.9161739337,4.2902019736,11.1796182483,3.6405925078,4.2634894136-.6496487243,5.6748209458-3.8785771921,8.6304361846-6.0976607156,1.0935632067-.8232888204,2.4014373816-1.50509021,4.1378432947-1.8652864299,5.7929806125-1.2092385791,11.2313469269,2.2062067545,11.8593971256,1.177046656.6428427065-1.0548351206-5.6599833384-3.7370505034-5.4235287072-7.3711653676.0443324247-.6818013897.3103269724-1.3057358336.7167150479-1.8717640732.7389038097-1.0548351206,1.9285281196-1.9167542495,3.0147401714-2.5535262044-2.9704077466-.4052256548-6.8791926641-1.1963618101-11.1870145023-2.8494170942-4.8028747629-1.8460105344-8.401332708-4.1036851082-10.83970626-5.9046662077-1.8694482861.276575735-3.2733384651,1.6337401296-3.3915883302,3.2482043636-.0591249326.8361655899.2364546309,1.6466168993.7832362342,2.289827239-1.5442837067-.8233280789-2.8595541355-1.099903814-3.6058541991-1.2092385794-1.4925550282-.225147174-3.0960087665-.1415266892-3.9531173422-.0964972545-1.1600843931.0579062042-2.1280465798.1801177391-2.8226179649.2958908892.1551860357.5660282396.2807870555,1.4086322143-.1182047661,2.2576745736-.6945713851,1.4986518254-2.3792937188,1.6594544102-2.9334715761,2.9523134743-.2512020398.5917817786-.3251194803,1.5372821339.679778877,3.0488107288-1.8398632702-1.3442876253-2.1501902425-2.2962263653-2.0319854765-2.9523134745.251247139-1.415070599,2.5935595879-1.8395721494,2.7044131991-3.2417659789.0664760874-.8297664636-.6724277222-1.5565972881-1.3522065994-2.0647193235-1.1378956312-.0128767695-2.5787670799-.1286499197-4.1821757192-.4952845244-2.6674770283-.6110576745-4.6477338263-1.6658927952-5.8742943067-2.4570682088-.6502389605,1.0355984833-1.780783437,2.6114324087-3.5467292669,4.2387734121-1.1083557146,1.0291208401-2.4679585681,2.0839952191-4.1304921399,3.0359339591-4.7437498306,2.7336439435-9.494895915,3.3189873371-12.184516606,3.4218837176,6.3767434855.1286499199,11.090953399,3.8399861427,11.3938841172,7.6928097961.2955795633,3.7692031685-3.7166627115,6.5671917011-4.1821757196,6.8823584861Z"/>
    <path class="cls-4" d="m18.7681748051,25.1283384562c6.8496076485-1.3893170597,11.6746711732-.649648724,15.1031505748.5981809055,4.4704041278,1.6401785147,6.9161739337,4.2902019736,11.1796182483,3.6405925078,4.2634894136-.6496487243,5.6748209458-3.8785771921,8.6304361846-6.0976607156,1.0935632067-.8232888204,2.4014373816-1.50509021,4.1378432947-1.8652864299,5.7929806125-1.2092385791,11.2313469269,2.2062067545,11.8593971256,1.177046656.6428427065-1.0548351206-5.6599833384-3.7370505034-5.4235287072-7.3711653676.0443324247-.6818013897.3103269724-1.3057358336.7167150479-1.8717640732-5.7856294576,1.2928590639-14.6672225828,5.010633671-26.807406764,3.7370505022-6.8644452554-.72039244-11.6007988317-2.7078904051-14.9554509911-3.9235673693-2.6969718458-.9712538944-4.5072951994-1.4536616492-5.8299167831-.3987872702-2.2980251235,1.8331337646-1.6403899094,7.165372606,1.3891427695,12.3753606542Z"/>
    <path class="cls-5" d="m7.2117083976,28.8782657284c4.3816941796-1.8846015841,8.209210502-3.0681258827,11.5564664074-3.7499272723,6.8496076485-1.3893170597,11.6746711732-.649648724,15.1031505748.5981809055,4.4704041278,1.6401785147,6.9161739337,4.2902019736,11.1796182483,3.6405925078,4.2634894136-.6496487243,5.6748209458-3.8785771921,8.6304361846-6.0976607156-3.4285245007-.0643053307-8.2683354343-.1865168658-13.9357601259-1.6723311803-7.5441790333-1.9746604541-12.5022398318-5.3064853029-16.5366708682-8.4453549014-2.5270384013-1.9682220692-4.6920211517-3.865700423-6.8939400727-5.3064853027-1.1083557146,1.0291208401-2.4679585681,2.0839952191-4.1304921399,3.0359339591-4.7437498306,2.7336439435-9.494895915,3.3189873371-12.184516606,3.4218837176,6.3767434855.1286499199,11.090953399,3.8399861427,11.3938841172,7.6928097961.2955795633,3.7692031685-3.7166627115,6.5671917011-4.1821757196,6.8823584861Z"/>
  </g>
</svg>