<?xml version="1.0" encoding="UTF-8"?>
<svg id="Layer_2" data-name="Layer 2" xmlns="http://www.w3.org/2000/svg" viewBox="0 0 97.9346862532 37.0508588664">
  <defs>
    <style>
      .cls-1 {
        fill: #676767;
      }

      .cls-2 {
        fill: #7c7977;
      }

      .cls-3 {
        fill: #adadad;
      }

      .cls-4 {
        fill: #b5b3b5;
      }
    </style>
  </defs>
  <g id="Layer_1-2" data-name="Layer 1">
    <path class="cls-2" d="m65.5029673418,4.0398642603c.0062791535-.6054903462-.4781262583-1.1164784898-.9519212468-1.4835290922-4.5597422844-1.334828186-8.4853534161-1.9316803054-11.2445623053-2.225305979-8.3430866443-.8878616443-13.7510610024.1738998479-19.2736912773,1.2581700913-2.3950892531.4702403931-5.1089187874,1.1421463639-6.1306867085,2.9451911297-.4968528636.8767553523-.4412510786,1.7521532689-.3172991642,2.3489313462,10.0672645833,3.4611154036,18.0291044681,3.2050536771,22.3701295059,2.7198321305,5.8102360903-.6494219001,15.5201115301-2.870260681,15.5480311962-5.5632896266Z"/>
    <path class="cls-1" d="m62.0522233457,10.2896318787c.2589418363-1.47581662-.6634285899-2.9915538095-1.8715044574-4.2930495183-3.7967340805-1.4996576165-7.072559726-2.1566277091-9.3730578477-2.4736671123-7.3783141162-1.0168774411-12.4392484523.399500431-16.7749049327,1.6129023481-2.9891462626.8365635316-5.2244140362,1.7859460637-6.1306867085,3.9079584797-.4968528636,1.1633620239-.4412510786,2.3249228737-.3172991642,3.1167845374,9.941602332,4.3825842493,17.8102922027,4.2158610185,22.3701295059,3.6089308197,2.6322401306-.3503774994,11.4021429269-1.5177021062,12.0973236046-5.4798595545Z"/>
    <path class="cls-3" d="m10.129519544,36.3098632425c6.1544643367-2.3695983887,11.5305542831-3.8576965332,16.2320922547-4.7149353027,9.620903282-1.7468566895,16.398145458-.8168334961,21.2137666798.7521057129,6.2790825662,2.0622558594,9.7143865358,5.3942565918,15.7027976693,4.5774841309,5.9884502969-.8168334961,7.970788738-4.8767089844,12.1222363102-7.6668701172,1.5359921303-1.03515625,3.3730340184-1.8923950195,5.8119404415-2.3452758789,8.1368027778-1.5204467773,15.7754851092,2.7739562988,16.6576427516,1.4799499512.9029142928-1.3262939453-7.9499929241-4.6987609863-7.617847354-9.2680969238.0622699512-.8572387695.4358896586-1.6417541504,1.0066975448-2.3534545898,1.0378325204-1.3262634277,2.7087820419-2.4100036621,4.2344741739-3.2106323242-4.1722042227-.5095214844-9.6624557463-1.5042419434-15.713215158-3.5827026367-6.7460680369-2.3210601807-11.8004299019-5.1597290039-15.2253555464-7.4241790771-2.6257946037.3477478027-4.5976763926,2.0541687012-4.7637687593,4.0840911865-.0830657651,1.0513458252.3321064065,2.0703735352,1.1001024717,2.8790893555-2.1690699677-1.0351867676-4.0164901811-1.3829345703-5.0647401903-1.5204162598-2.0964216913-.2830810547-4.3486357511-.177947998-5.5525214749-.1213226318-1.6294362206.0727996826-2.9890359859.2264709473-3.9645985551.3720397949.1597087177.5879669189.3404873937,1.6601715088-.1660532033,2.8386688232-1.274771643,2.9659118652-5.8111180082,4.0651245117-6.019624436,3.833404541-.2076448311-.2307739258,3.5943860715-1.7938537598,3.7986236788-4.0760192871.0933657633-1.0433044434-.9445059206-1.9571838379-1.8993118394-2.5960540771-1.598301245-.016204834-3.6221138233-.1617584229-5.8742495562-.622756958-3.7467320528-.7682952881-6.5281623711-2.0945892334-8.250964355-3.0893707275-.9133317815,1.3021087646-2.5012938647,3.2834625244-4.9817135886,5.3296051025-1.5567879442,1.2939453125-3.4664781088,2.6202697754-5.8016796068,3.817199707-6.6630022717,3.4371337891-13.3364220322,4.1730957031-17.1142498971,4.3024597168,8.9567296324.1617736816,15.5782577668,4.8281860352,16.0037691002,9.6725158691.4151330082,4.7391662598-5.2204150683,8.2572021484-5.8742495562,8.6534729004Z"/>
    <path class="cls-4" d="m26.3616148768,31.5949196478c9.6208983309-1.7468469292,16.3981398891-.8168307375,21.213751738.7521180788,6.2790901055,2.0622656158,9.7143967466,5.3942518669,15.7027929285,4.5774704903,5.9884595277-.8168307379,7.9708033172-4.8766986702,12.1222343448-7.666845967,1.5360092095-1.0351557534,3.3730377099-1.8924133934,5.8119781002-2.3453032907,8.1367693401-1.5204266612,15.7754505731,2.7739567922,16.6576043282,1.4799503987.9029311809-1.3262886815-7.949962545-4.6987511961-7.6178404611-9.2680770718.0622689316-.8572576401.4358825211-1.6417567288,1.0066916183-2.3534479048-8.1264439731,1.6255662232-20.6014511355,6.3000810219-37.653446479,4.6987511945-9.6417391024-.9057797951-16.2943794515-3.4047448029-21.0062942088-4.9332667172-3.7881428049-1.2211984809-6.3309069784-1.8277500951-8.1886495587-.5014120523-3.2277857667,2.3048763888-2.3040771605,9.0093251541,1.9511776496,15.5600628416Z"/>
    <path class="cls-3" d="m10.1295043564,36.3098613484c6.1544888968-2.3695890487,11.5305844758-3.8576840606,16.2321105204-4.7149417005,9.6208983309-1.7468469292,16.3981398891-.8168307375,21.213751738.7521180788,6.2790901055,2.0622656158,9.7143967466,5.3942518669,15.7027929285,4.5774704903,5.9884595277-.8168307379,7.9708033172-4.8766986702,12.1222343448-7.666845967-4.8156751948-.0808538042-11.613630833-.2345155211-19.5740454369-2.1026925182-10.596487156-2.4828238639-17.5605355087-6.6720677553-23.2272616653-10.6187008732-3.5494557915-2.474728611-6.5903714174-4.8605081654-9.683167262-6.672067755-1.5567866354,1.2939570321-3.4664727802,2.6202950748-5.8016527332,3.8172077975C10.4512377283,17.1185347139,3.7778199532,17.8545116477.0000025153,17.9838876063c8.9567175093.1617569697,15.5782550654,4.8281765163,16.0037488732,9.6724941761.4151684408,4.7391780978-5.2203915776,8.2572070759-5.8742470321,8.6534795659Z"/>
  </g>
</svg>