<?xml version="1.0" encoding="UTF-8"?>
<svg id="Layer_2" data-name="Layer 2" xmlns="http://www.w3.org/2000/svg" viewBox="0 0 154.13765 178.71339">
  <defs>
    <style>
      .cls-1 {
        fill: #ffcb48;
        stroke-linecap: round;
        stroke-linejoin: round;
        stroke-width: 2.69019px;
      }

      .cls-1, .cls-2 {
        stroke: #231f20;
      }

      .cls-2 {
        fill: #fcd8b1;
        stroke-miterlimit: 10;
        stroke-width: 3px;
      }
    </style>
  </defs>
  <g id="Layer_1-2" data-name="Layer 1">
    <path class="cls-2" d="m64.88178,159.47446c.98632,2.26358,2.18955,5.88123,2.14013,10.3949-.02175,1.98627-.28161,3.73895-.61147,5.19745,3.28985,1.01324,7.89452,2.04926,13.45222,2.14014,4.64638.07596,8.60527-.53079,11.61783-1.22293-.18892-2.06671-.25531-4.54947,0-7.33759.32404-3.53873,1.07176-6.53711,1.8344-8.86624-9.47771-.1019-18.95541-.20383-28.43311-.30573Z"/>
    <ellipse class="cls-2" cx="142.07144" cy="99.21903" rx="13.33645" ry="9.80543" transform="translate(20.93673 223.13469) rotate(-80.57965)"/>
    <ellipse class="cls-2" cx="14.77915" cy="101.24906" rx="9.80543" ry="13.33645" transform="translate(-16.37277 3.78443) rotate(-9.42035)"/>
    <path class="cls-2" d="m139.93635,99.02844c-.82001,16.94-7.71002,28.91998-10.25,33.21002-2.78003,4.69995-8.01001,13.32996-18.34003,20.63995-4.59998,3.25-16.63,11.52002-33.47998,11.01001-14.60004-.45001-24.75-7.23999-30.73004-11.23999-3.84998-2.58002-12.40997-8.42999-19.26001-19.26001-3.5-5.53998-5.73999-11.07001-7.15997-16.32001-2.46002-9.07996-2.5-17.27997-2.46997-23.12.01996-3.23999.02997-6.67999.23999-10.23999.57001-9.40997,2.5-19.67999,9.38995-29.42999,16.48004-23.31,46.93005-23.38,49.98004-23.34003,2.62.03003,31.42999.89001,49.53998,24.72003,4.21002,5.54999,7.01001,11.22998,8.85999,16.52997,3.35004,9.54004,3.65002,17.81006,3.75,21.76001.04004,1.73999.02002,3.44-.06995,5.08002Z"/>
    <path class="cls-1" d="m140.10874,98.19918c.08429-1.63916.11176-3.33374.06995-5.08008-.27863-11.64185-3.53674-21.5188-7.13483-29.08362-1.44849.25452-3.17316.34106-5.04767-.01965-7.63788-1.46985-11.2851-9.12024-11.82404-10.29651-1.36774,1.20312-4.76215,3.85425-9.85986,4.58594-7.13245,1.02368-12.44226-2.45032-13.70355-3.32605-6.77386,7.32922-16.95032,8.86243-23.70007,4.50989-6.47083-4.17261-7.28986-12.14087-7.39001-13.28992.45917,6.6427-4.43982,11.25098-8.51001,10.91992-2.91711-.2373-5.71399-3.03662-6.77283-6.83936-.46875,2.12439-1.84381,6.9762-6.10272,11.32373-5.28461,5.39453-11.5827,6.51465-13.617,6.79089.23218,1.11328.77173,4.42505-.91718,8.02551-2.08038,4.43506-6.03961,6.10522-6.94025,6.45923.19861,2.91003.20758,6.37427-.23999,10.23999-.30646,2.64648-.77582,5.04041-1.30383,7.14795-.72552-.18445-8.44958-2.28845-11.23572-9.85986-1.95142-5.3031-.26593-9.98755.22931-11.23572-3.89032-2.60742-5.61633-7.24487-4.35669-11.2356,1.39832-4.43005,5.82184-5.99109,6.31696-6.15674-3.48865-4.39929-3.84802-10.30078-1.04303-14.48022,3.05121-4.54626,8.46576-4.99731,9.17194-5.04456-2.61902-1.21948-3.58002-4.38672-2.29297-6.64978,1.15063-2.02319,3.86414-2.91235,6.1911-1.83435-1.87762-4.11414-.61804-8.86621,2.75159-11.23572,2.74945-1.93347,6.53564-2.02173,9.63055-.22925-.80511-4.17322,1.32306-8.20374,4.81531-9.63062,2.67468-1.09277,5.84406-.53345,8.25476,1.37585-.42548-3.0321,1.12048-5.93628,3.66876-7.10828,3.03729-1.39697,6.96344-.08691,8.71338,3.21021.07739-.28552,1.98639-6.92188,7.7962-8.48413,5.40442-1.45325,11.94971,2.08496,14.25281,8.79065-.0946-4.10071,2.38428-7.54663,5.46692-8.33203,3.97821-1.01355,9.11407,2.36523,9.63055,8.02551,1.68506-3.84717,5.86969-5.9563,9.85992-5.04468,4.1922.95776,7.09985,5.00537,6.64966,9.40137.2793-.21411,5.40198-4.00977,11.00635-1.83447,4.74622,1.84216,7.7514,7.15674,6.92212,12.81384,3.35919-1.19995,6.83398.03699,8.21167,2.54932,1.34558,2.45386.15924,5.15527,0,5.50317,2.72198-.88171,5.5769.57666,6.42035,2.98083.92517,2.63708-.76984,5.84192-3.84796,6.53735,3.25342-2.09607,7.38623-1.14429,9.12189,1.48816,1.93268,2.93115.72858,7.69641-3.23816,9.50146,3.237.60901,5.7937,3.11743,6.44836,6.32019.6731,3.29321-.79333,6.69165-3.66882,8.48401.36481,1.24622,1.01862,4.10327.14081,7.56274-.93976,3.70386-3.10114,5.99353-4.03888,6.88318.78992.95361,1.888,2.61523,2.06366,4.81531.315,3.94507-2.46582,7.99316-7.0188,10.08496Z"/>
  </g>
</svg>