<?xml version="1.0" encoding="UTF-8"?>
<svg id="Layer_2" data-name="Layer 2" xmlns="http://www.w3.org/2000/svg" viewBox="0 0 202.55136 194.97663">
  <defs>
    <style>
      .cls-1 {
        fill: #ffcb48;
        stroke-linecap: round;
        stroke-linejoin: round;
        stroke-width: 2.69019px;
      }

      .cls-1, .cls-2 {
        stroke: #231f20;
      }

      .cls-2 {
        fill: #fcd8b1;
        stroke-miterlimit: 10;
        stroke-width: 3px;
      }
    </style>
  </defs>
  <g id="Layer_1-2" data-name="Layer 1">
    <path class="cls-1" d="m195.24565,132.12154c5.20996,6.45007,4.87988,14.63013.68994,18.57007-3.57007,3.37-8.8999,2.65991-9.85986,2.52002-.1001.87988-1.26001,9.36987-8.71021,13.30994-4.06982,2.15002-8.01978,1.88-9.70996,1.66003-.11987,1.1499-.71997,6.07996-4.96997,9.80005-5.33984,4.66992-11.94995,3.51001-12.77002,3.34985-.56665,1.29306-2.16333,4.435-5.68188,6.32751-4.40088,2.36713-10.03516,1.82614-14.59863-1.29935-1.54907,1.64081-5.12598,4.96942-10.7771,6.4968-8.37769,2.26425-15.26245-1.06534-16.97241-1.9549-2.229.85904-7.69385,2.61554-14.44165,1.19058-5.1189-1.08099-8.69019-3.51013-10.52563-4.96701-1.30054.69522-6.63281,3.35324-13.39795,1.75681-6.4397-1.51965-9.95996-5.89902-10.88477-7.13028-.81982.15991-7.42993,1.31995-12.77002-3.3501-4.23999-3.71997-4.84985-8.6499-4.95996-9.80005-1.69995.22009-5.63989.47998-9.70996-1.66992-7.45996-3.93994-8.60986-12.42993-8.71997-13.31006-.94995.15002-6.28003.8501-9.86011-2.51001-4.18994-3.93994-4.51978-12.11987.69019-18.56995-.56006-.40002-5.90015-4.38-5.95996-11.46997-.07007-7.30005,5.52979-11.42004,6.03979-11.78003-4.87988-3.91003-6.80981-10.22998-4.88989-15.58997,2.1499-6,8.11011-8.02002,8.86987-8.26001-5.30981-4.14001-6.96997-11.16003-4.27979-16.51001,2.0498-4.1001,6.42993-6.73999,11.30981-6.96997-4.97998-3.08008-6.31982-9.78003-3.05981-14.43005,3.28979-4.70007,10.1499-5.68005,14.73999-1.93005-3.11011-4.60986-2.86011-10.68994.5498-14.87988,3.14014-3.87012,8.41016-5.46997,13.30005-4.01001-.68994-5.78002,1.55005-11.43005,5.95996-14.64001,5.77002-4.20007,14.40015-3.58997,20.29004,1.92004,1.69995-7.08008,7.79004-12.22009,14.87012-12.62012,6.53003-.37988,12.75,3.36011,15.60986,9.42004.41333,4.3949.82666,8.78967,1.23999,13.18457v-13.60461c3.14014-5.78003,9.38013-9.19995,15.86011-8.69995,6.80005.53003,12.6499,5.27002,14.61987,11.90002,5.89014-5.5,14.52002-6.12,20.29004-1.92004,4.41016,3.20996,6.65015,8.87,5.96997,14.64001,4.88013-1.46008,10.16016.14001,13.30005,4.01001,3.40015,4.20007,3.65015,10.27002.54004,14.88,4.59009-3.75,11.44995-2.76001,14.73999,1.92993,3.26001,4.65002,1.91992,11.3501-3.06006,14.44006,4.88013.21997,9.26001,2.85999,11.32007,6.96997,2.67993,5.33997,1.02002,12.37-4.28003,16.51001.75.23999,6.71997,2.25,8.86011,8.25,1.91992,5.35999-.01001,11.68005-4.89014,15.58997.51001.36011,6.11011,4.47998,6.04004,11.79004-.06006,7.08008-5.3999,11.06006-5.95996,11.45996Z"/>
    <path class="cls-2" d="m89.09184,168.76643c.98632,2.26358,2.18955,5.88123,2.14013,10.3949-.02175,1.98627-.28161,3.73895-.61147,5.19745,3.28985,1.01324,7.89452,2.04926,13.45222,2.14014,4.64638.07596,8.60527-.53079,11.61783-1.22293-.18892-2.06671-.25531-4.54947,0-7.33759.32404-3.53873,1.07176-6.53711,1.8344-8.86624-9.47771-.1019-18.95541-.20383-28.43311-.30573Z"/>
    <ellipse class="cls-2" cx="166.2815" cy="108.51101" rx="13.33645" ry="9.80543" transform="translate(32.0175 254.78935) rotate(-80.57965)"/>
    <ellipse class="cls-2" cx="38.9892" cy="110.54104" rx="9.80543" ry="13.33645" transform="translate(-17.56715 7.87236) rotate(-9.42035)"/>
    <path class="cls-2" d="m164.1464,108.32041c-.82001,16.94-7.71002,28.91998-10.25,33.21002-2.78003,4.69995-8.01001,13.32996-18.34003,20.63995-4.59998,3.25-16.63,11.52002-33.47998,11.01001-14.60004-.45001-24.75-7.23999-30.73004-11.23999-3.84998-2.58002-12.40997-8.42999-19.26001-19.26001-3.5-5.53998-5.73999-11.07001-7.15997-16.32001-2.46002-9.07996-2.5-17.27997-2.46997-23.12.01996-3.23999.02997-6.67999.23999-10.23999.57001-9.40997,2.5-19.67999,9.38995-29.42999,16.48004-23.31,46.93005-23.38,49.98004-23.34003,2.62.03003,31.42999.89001,49.53998,24.72003,4.21002,5.54999,7.01001,11.22998,8.85999,16.52997,3.35004,9.54004,3.65002,17.81006,3.75,21.76001.04004,1.73999.02002,3.44-.06995,5.08002Z"/>
    <path class="cls-1" d="m162.8154,83.64564c-1.92004-.23999-6.69995-1.08997-11.17993-4.87-5.11011-4.31995-6.59009-9.73999-7.01001-11.55994-1.93005,1.68994-4.68005,2.04993-6.88013.91992-2.46997-1.28003-3.77002-4.18994-3.06995-7.02002-.92004.23999-4.90002,1.16003-9.09998-1.04993-4.04004-2.12-5.55005-5.71008-5.91003-6.63-1.02991.09998-5.77991.47998-9.98999-2.87-3.12-2.4801-4.22998-5.65002-4.57996-6.88-.34009,1.03003-1.02002,2.78003-2.37012,4.56006-.63989.86987-1.44995,1.73999-2.44995,2.54993-.10999.08997-.20996.17004-.32007.23999-5.75989,4.41003-12.75,2.76001-13.6499,2.53003-.95996,3.88-3.87,6.75989-7.3501,7.31995-2.95996.47998-5.31982-.88989-6.05994-1.37-.25989,1.05994-1.44006,5.26001-5.53992,7.93005-5.91003,3.83997-12.46008,1-12.94006.78003.03992,1.44995,0,6.52991-3.67004,11.23999-3.21997,4.12988-7.35986,5.56995-8.84998,6.02002-.18005-3.80005-.94006-28.73999,18.71008-47.39014,15.11987-14.34985,33.04993-16.16992,39.96997-16.40991.44995-.02002.85999-.03003,1.21997-.03003.12,0,.25,0,.39001-.01001,5.96997-.03003,28.42004.76001,45.25,19.19995,15.95996,17.5,15.55994,38.48999,15.38,42.80005Z"/>
  </g>
</svg>