<?xml version="1.0" encoding="UTF-8"?>
<svg id="Layer_2" data-name="Layer 2" xmlns="http://www.w3.org/2000/svg" xmlns:xlink="http://www.w3.org/1999/xlink" viewBox="0 0 89.721389611 89.721389611">
  <defs>
    <style>
      .cls-1 {
        fill: url(#linear-gradient-2);
      }

      .cls-2 {
        fill: url(#linear-gradient-17);
      }

      .cls-3 {
        fill: url(#linear-gradient-15);
      }

      .cls-4 {
        fill: url(#linear-gradient-18);
      }

      .cls-5 {
        fill: url(#linear-gradient-28);
      }

      .cls-6 {
        fill: url(#linear-gradient-14);
      }

      .cls-7 {
        fill: url(#linear-gradient-20);
      }

      .cls-8 {
        fill: url(#linear-gradient-6);
      }

      .cls-9 {
        isolation: isolate;
      }

      .cls-10 {
        fill: url(#linear-gradient-11);
      }

      .cls-11 {
        fill: url(#linear-gradient-10);
      }

      .cls-12 {
        fill: url(#linear-gradient-16);
      }

      .cls-13 {
        fill: url(#linear-gradient-31);
      }

      .cls-14 {
        fill: url(#linear-gradient-21);
      }

      .cls-15 {
        fill: url(#linear-gradient-25);
      }

      .cls-16 {
        fill: url(#linear-gradient-5);
      }

      .cls-17 {
        fill: url(#linear-gradient-7);
      }

      .cls-18 {
        fill: url(#linear-gradient-24);
      }

      .cls-19 {
        fill: url(#linear-gradient-9);
      }

      .cls-20 {
        fill: url(#linear-gradient-22);
      }

      .cls-21 {
        fill: url(#linear-gradient-3);
      }

      .cls-22 {
        fill: none;
        stroke: #fff;
        stroke-miterlimit: 10;
        stroke-width: 6.721389611px;
      }

      .cls-23 {
        fill: url(#linear-gradient);
      }

      .cls-24 {
        fill: url(#linear-gradient-27);
      }

      .cls-25 {
        fill: url(#linear-gradient-29);
      }

      .cls-26 {
        fill: url(#linear-gradient-30);
      }

      .cls-27 {
        fill: url(#linear-gradient-23);
      }

      .cls-28 {
        fill: url(#linear-gradient-19);
      }

      .cls-29 {
        fill: url(#linear-gradient-4);
      }

      .cls-30 {
        fill: url(#linear-gradient-8);
      }

      .cls-31 {
        fill: url(#linear-gradient-12);
      }

      .cls-32 {
        fill: url(#linear-gradient-13);
      }

      .cls-33 {
        fill: url(#linear-gradient-26);
      }
    </style>
    <linearGradient id="linear-gradient" x1="6.6390723401" y1="40.0642849033" x2="83.0861922079" y2="40.0642849033" gradientUnits="userSpaceOnUse">
      <stop offset="0" stop-color="#d28929"/>
      <stop offset=".5456239498" stop-color="#d28929"/>
      <stop offset="1" stop-color="#be5727"/>
    </linearGradient>
    <linearGradient id="linear-gradient-2" x1="35.6642359031" y1="302.2341986942" x2="45.7668990076" y2="302.2341986942" gradientTransform="translate(250.6889206145 282.2317675516) rotate(-45) scale(.9999903734 -.9999903734)" gradientUnits="userSpaceOnUse">
      <stop offset=".0000002238" stop-color="#f7ec21"/>
      <stop offset="1" stop-color="#f5a61c"/>
    </linearGradient>
    <linearGradient id="linear-gradient-3" x1="166.877621631" y1="396.276569013" x2="176.9594528772" y2="396.276569013" gradientTransform="translate(502.2773013271 95.8038129761) rotate(-105.4621582073) scale(.999993016 -.999993016)" xlink:href="#linear-gradient-2"/>
    <linearGradient id="linear-gradient-4" x1="165.2598931265" y1="423.5002459321" x2="175.3416037167" y2="423.5002459321" gradientTransform="translate(502.2773013271 95.8038129761) rotate(-105.4621582073) scale(.999993016 -.999993016)" xlink:href="#linear-gradient-2"/>
    <linearGradient id="linear-gradient-5" x1="167.5214849281" y1="429.7797005951" x2="177.6031955183" y2="429.7797005951" gradientTransform="translate(502.2773013271 95.8038129761) rotate(-105.4621582073) scale(.999993016 -.999993016)" xlink:href="#linear-gradient-2"/>
    <linearGradient id="linear-gradient-6" x1="168.5000075035" y1="433.3202165345" x2="178.5818085857" y2="433.3202165345" gradientTransform="translate(502.2773013271 95.8038129761) rotate(-105.4621582073) scale(.999993016 -.999993016)" xlink:href="#linear-gradient-2"/>
    <linearGradient id="linear-gradient-7" x1="170.764859333" y1="439.6953663422" x2="180.8466905792" y2="439.6953663422" gradientTransform="translate(502.2773013271 95.8038129761) rotate(-105.4621582073) scale(.999993016 -.999993016)" xlink:href="#linear-gradient-2"/>
    <linearGradient id="linear-gradient-8" x1="172.1999571273" y1="437.2283956158" x2="182.2817582095" y2="437.2283956158" gradientTransform="translate(502.2773013271 95.8038129761) rotate(-105.4621582073) scale(.999993016 -.999993016)" xlink:href="#linear-gradient-2"/>
    <linearGradient id="linear-gradient-9" x1="174.465522557" y1="443.6035746255" x2="184.5473236392" y2="443.6035746255" gradientTransform="translate(502.2773013271 95.8038129761) rotate(-105.4621582073) scale(.999993016 -.999993016)" xlink:href="#linear-gradient-2"/>
    <linearGradient id="linear-gradient-10" x1="162.7715242691" y1="412.6513209682" x2="172.8532348593" y2="412.6513209682" gradientTransform="translate(502.2773013271 95.8038129761) rotate(-105.4621582073) scale(.999993016 -.999993016)" xlink:href="#linear-gradient-2"/>
    <linearGradient id="linear-gradient-11" x1="165.0475736284" y1="419.026499978" x2="175.1294048746" y2="419.026499978" gradientTransform="translate(502.2773013271 95.8038129761) rotate(-105.4621582073) scale(.999993016 -.999993016)" xlink:href="#linear-gradient-2"/>
    <linearGradient id="linear-gradient-12" x1="163.1007877371" y1="424.828609358" x2="173.1825888194" y2="424.828609358" gradientTransform="translate(502.2773013271 95.8038129761) rotate(-105.4621582073) scale(.999993016 -.999993016)" xlink:href="#linear-gradient-2"/>
    <linearGradient id="linear-gradient-13" x1="165.3662055175" y1="431.1080932231" x2="175.448036774" y2="431.1080932231" gradientTransform="translate(502.2773013271 95.8038129761) rotate(-105.4621582073) scale(.999993016 -.999993016)" xlink:href="#linear-gradient-2"/>
    <linearGradient id="linear-gradient-14" x1="163.4640525237" y1="429.4410659437" x2="173.5458837699" y2="429.4410659437" gradientTransform="translate(502.2773013271 95.8038129761) rotate(-105.4621582073) scale(.999993016 -.999993016)" xlink:href="#linear-gradient-2"/>
    <linearGradient id="linear-gradient-15" x1="209.3363479758" y1="415.3091332222" x2="219.4288994105" y2="415.3091332222" gradientTransform="translate(521.362273742 -4.2223183737) rotate(-123.4151523892) scale(.9999972852 -.9999972852)" xlink:href="#linear-gradient-2"/>
    <linearGradient id="linear-gradient-16" x1="211.6105541249" y1="421.6492455253" x2="221.7030753636" y2="421.6492455253" gradientTransform="translate(521.362273742 -4.2223183737) rotate(-123.4151523892) scale(.9999972852 -.9999972852)" xlink:href="#linear-gradient-2"/>
    <linearGradient id="linear-gradient-17" x1="207.6351711792" y1="387.553614545" x2="217.7277225792" y2="387.553614545" gradientTransform="translate(521.362273742 -4.2223183737) rotate(-123.4151523892) scale(.9999972852 -.9999972852)" xlink:href="#linear-gradient-2"/>
    <linearGradient id="linear-gradient-18" x1="209.9093773106" y1="393.8937185453" x2="220.0019287106" y2="393.8937185453" gradientTransform="translate(521.362273742 -4.2223183737) rotate(-123.4151523892) scale(.9999972852 -.9999972852)" xlink:href="#linear-gradient-2"/>
    <linearGradient id="linear-gradient-19" x1="-13.6125172215" y1="236.5225891249" x2=".0008126895" y2="236.5225891249" gradientTransform="translate(48.524653364 270.745428727) rotate(-7.5855561971) scale(.9999506892 -.9999506892)" xlink:href="#linear-gradient-2"/>
    <linearGradient id="linear-gradient-20" x1="66.8820632714" y1="144.8152093462" x2="80.4775104025" y2="144.8152093462" gradientTransform="translate(-123.8348600738 111.551613607) rotate(35.8247511993) scale(.9999863944 -.9999863944)" xlink:href="#linear-gradient-2"/>
    <linearGradient id="linear-gradient-21" x1="56.8918187553" y1="28.588262658" x2="86.3174010498" y2="28.588262658" gradientUnits="userSpaceOnUse">
      <stop offset=".0000002238" stop-color="#7f4a1e"/>
      <stop offset="1" stop-color="#ffcb2c"/>
    </linearGradient>
    <linearGradient id="linear-gradient-22" x1="24.6405048657" y1="217.1414051909" x2="65.7995305091" y2="217.1414051909" gradientTransform="translate(0 251.1139211054) scale(1 -1)" xlink:href="#linear-gradient-21"/>
    <linearGradient id="linear-gradient-23" x1="339.8509462067" y1="254.384891389" x2="378.8563522845" y2="254.384891389" gradientTransform="translate(196.1782228897 -396.6058958155) rotate(142.2350715643) scale(.9999619897 -.9999619897)" gradientUnits="userSpaceOnUse">
      <stop offset=".0000002238" stop-color="#f99e1f"/>
      <stop offset="1" stop-color="#bea630"/>
    </linearGradient>
    <linearGradient id="linear-gradient-24" x1="178.3698455093" y1="427.8126073442" x2="188.4516767555" y2="427.8126073442" gradientTransform="translate(502.2773013271 95.8038129761) rotate(-105.4621582073) scale(.999993016 -.999993016)" xlink:href="#linear-gradient-2"/>
    <linearGradient id="linear-gradient-25" x1="24.9463341758" y1="16.0978295296" x2="72.2566494314" y2="16.0978295296" gradientUnits="userSpaceOnUse">
      <stop offset=".0000004475" stop-color="#a96f29"/>
      <stop offset="1" stop-color="#e3a625"/>
    </linearGradient>
    <linearGradient id="linear-gradient-26" x1="55.0773136099" y1="12.4322082457" x2="85.6049495719" y2="12.4322082457" gradientTransform="matrix(1, 0, 0, 1, 0, 0)" xlink:href="#linear-gradient-23"/>
    <linearGradient id="linear-gradient-27" x1="3.1729135847" y1="29.2683858347" x2="40.9129988864" y2="29.2683858347" gradientUnits="userSpaceOnUse">
      <stop offset=".0000002238" stop-color="#f99e1f"/>
      <stop offset="1" stop-color="#f5a61c"/>
    </linearGradient>
    <linearGradient id="linear-gradient-28" x1="24.949094619" y1="227.9999742722" x2="61.4167379536" y2="227.9999742722" gradientTransform="translate(0 251.1139211054) scale(1 -1)" xlink:href="#linear-gradient-2"/>
    <linearGradient id="linear-gradient-29" x1="10.6172600794" y1="231.5929908768" x2="25.6703769149" y2="236.8928933863" gradientTransform="translate(11.428697053 257.3704294303) rotate(-2.1927882872) scale(1.0000322864 -1.0000322864)" xlink:href="#linear-gradient-2"/>
    <linearGradient id="linear-gradient-30" x1="3.6422190297" y1="13.2573270014" x2="41.8741003777" y2="13.2573270014" xlink:href="#linear-gradient-21"/>
    <linearGradient id="linear-gradient-31" x1="25.5414365998" y1="49.0641096004" x2="63.7344657586" y2="96.0292299527" gradientUnits="userSpaceOnUse">
      <stop offset=".0000004475" stop-color="#04213e"/>
      <stop offset=".0196680314" stop-color="#1c3139"/>
      <stop offset=".0665896032" stop-color="#50532e"/>
      <stop offset=".1155464773" stop-color="#7e7225"/>
      <stop offset=".1655622813" stop-color="#a58c1d"/>
      <stop offset=".2169072231" stop-color="#c5a117"/>
      <stop offset=".2699585134" stop-color="#ddb212"/>
      <stop offset=".3254979239" stop-color="#efbd0e"/>
      <stop offset=".385081757" stop-color="#f9c40c"/>
      <stop offset=".4559457875" stop-color="#fdc70c"/>
      <stop offset=".5309409636" stop-color="#f7c10c"/>
      <stop offset=".6229096429" stop-color="#e9b20e"/>
      <stop offset=".7238005784" stop-color="#d09910"/>
      <stop offset=".8310337626" stop-color="#ae7713"/>
      <stop offset=".9421684235" stop-color="#824b18"/>
      <stop offset="1" stop-color="#69311b"/>
    </linearGradient>
  </defs>
  <g id="Layer_1-2" data-name="Layer 1">
    <g>
      <g class="cls-9">
        <path class="cls-23" d="m75.4414984002,72.8187214132H14.2837964463c-4.1698550213,0-7.6447241062-3.3594224272-7.6447241062-7.6081294512V7.3098483934h76.4471198678v57.9007435687c.0000302985,4.248707024-3.3755507529,7.6081294512-7.6446938077,7.6081294512Z"/>
      </g>
      <path class="cls-1" d="m61.343476292,38.8292009114c-.1985760671-.8892544434.0992880335-1.7785239636.893531705-2.1737448103.6949859364-.4940335967,1.6878056749-.4940335967,2.3827613128.09881275.1985760671-.8892544435.893531705-1.5809135403,1.78706341-1.6797112136.6949859364,0,1.2906535407.2964231734,1.6878056749.8892544435.1985760671,0,.9928197385,0,1.6878056749.5928463468.9928197385.8892544435.7942436715,2.2725575603.7942436715,2.3713552337.5956979028.5928463468.7942436715,1.5809135403.2978338022,2.3713552337-.4964098693.7904567701-1.5885176414,1.0868799435-2.4820493464.5928463468.0992880335.9880671935-.5956979028,1.8773216369-1.3899415743,1.976134387-.6949859364.09881275-1.3899415743-.1976104234-1.78706341-.8892544434-.3971218357.8892544434-1.3899415743,1.2844903669-2.0849275106.9880671935-.7942436715-.2964231734-1.2906535407-1.4821007902-.6949859364-2.4701679837-.893531705.09881275-1.6878056749-.4940335967-1.78706341-1.1856776168-.1985457686-.5928463468.1985760671-1.1856926935.6949859364-1.4821158669Z"/>
      <path class="cls-21" d="m71.5695074796,39.1256240848c-.893531705-.1976104234-1.4892296078-.9880671935-1.4892296078-1.8773216369-.0992880335-.8892544434.3971218357-1.6797112136,1.1913958056-1.976134387-.6949859364-.5928463468-.9928197385-1.5809135403-.5956979028-2.3713552337.2978338022-.5928463468.893531705-.9880671935,1.6878056749-.9880671935.0992880335-.1976104234.4964098693-.8892544434,1.3899415743-1.0868799435,1.2906535407-.3952208467,2.3827613128.3952208467,2.4820493464.4940335967.893531705-.1976104234,1.78706341.1976104234,2.1842155442.8892544434.3971218357.7904567701.0992880335,1.976134387-.6949859364,2.4701679837.893531705.3952208467,1.2906535407,1.3832880402.9928197385,2.1737448103-.1985760671.5928463468-.893531705,1.0868799435-1.5885176414,1.0868799435.5956979028.7904567701.3971218357,1.7785239636-.1985760671,2.2725575603-.6949859364.5928463468-1.9856394771.3952208467-2.4820493464-.5928463468-.2978338022.8892544434-1.1913958056,1.1856776168-1.8863514435.9880671935-.6949556379-.2964231734-.9928197385-.8892544434-.9928197385-1.4821007902Z"/>
      <path class="cls-29" d="m45.7561942775,47.9194160761c-.893531705-.1976104234-1.4892296078-.9880671935-1.4892296078-1.8773216369-.0992880335-.8892544434.3971218357-1.6797112136,1.1913958056-1.976134387-.6949859364-.5928463468-.9928197385-1.5809135403-.5956979028-2.3713552337.2978338022-.5928463468.893531705-.9880671935,1.6878056749-.9880671935.0992880335-.1976104234.4964098693-.8892544434,1.3899415743-1.0868799435,1.2906535407-.3952208467,2.3827613128.3952208467,2.4820493464.4940335967.893531705-.1976104234,1.78706341.1976104234,2.1842155442.8892544435.3971218357.7904567701.0992880335,1.976134387-.6949859364,2.4701679837.893531705.3952208467,1.2906535407,1.3832880402.9928197385,2.1737448103-.1985760671.5928463468-.893531705,1.0868799435-1.5885176414,1.0868799435.5956979028.7904567701.3971218357,1.7785239636-.1985760671,2.2725575603-.6949859364.5928463468-1.9856394771.3952208467-2.4820493464-.5928463468-.2978338022.8892544434-1.1913958056,1.1856926935-1.8863514435.9880671935-.6949556379-.2964080967-.9928197385-.8892544435-.9928197385-1.4821007902Z"/>
      <path class="cls-16" d="m39.1043202083,47.4253824794c-.893531705-.1976104234-1.4892296078-.9880671935-1.4892296078-1.8773216369-.0992880335-.8892544434.3971218357-1.6797112136,1.1913958056-1.976134387-.6949859364-.5928463468-.9928197385-1.5809135403-.5956979028-2.3713552337.2978338022-.5928463468.893531705-.9880671935,1.6878056749-.9880671935.0992880335-.1976104234.4964098693-.8892544435,1.3899415743-1.0868799435,1.2906535407-.3952208467,2.3827613128.3952208467,2.4820493464.4940335967.893531705-.1976104234,1.78706341.1976104234,2.1842155442.8892544434.3971218357.7904567701.0992880335,1.976134387-.6949859364,2.4701679837.893531705.3952208467,1.2906535407,1.3832880402.9928197385,2.1737448103-.1985760671.5928463468-.893531705,1.0868799435-1.5885176414,1.0868799435.5956979028.7904567701.3971218357,1.7785239636-.1985760671,2.2725575603-.6949859364.5928463468-1.9856394771.3952208467-2.4820493464-.5928463468-.2978338022.8892544434-1.1913958056,1.1856926935-1.8863514435.9880671935-.6949859364-.2964080967-1.0921077721-.8892544434-.9928197385-1.4821007902Z"/>
      <path class="cls-8" d="m35.4308750563,47.4253824794c-.893531705-.1976104234-1.4892296078-.9880671935-1.4892296078-1.8773216369-.0992880335-.8892544434.3971218357-1.6797112136,1.1913958056-1.976134387-.6949859364-.5928463468-.9928197385-1.5809135403-.5956979028-2.3713552337.2978338022-.5928463468.893531705-.9880671935,1.6878056749-.9880671935.0992880335-.1976104234.4964098693-.8892544435,1.3899415743-1.0868799435,1.2906535407-.3952208467,2.3827613128.3952208467,2.4820493464.4940335967.893531705-.1976104234,1.78706341.1976104234,2.1842155442.8892544434.3971218357.7904567701.0992880335,1.976134387-.6949859364,2.4701679837.893531705.3952208467,1.2906535407,1.3832880402.9928197385,2.1737448103-.1985760671.5928463468-.893531705,1.0868799435-1.5885176414,1.0868799435.5956979028.7904567701.3971218357,1.7785239636-.1985760671,2.2725575603-.6949859364.5928463468-1.9856394771.3952208467-2.4820493464-.5928463468-.2978338022.8892544434-1.1913958056,1.1856926935-1.8863514435.9880671935-.6949859364-.2964080967-1.0921077721-.8892544434-.9928197385-1.4821007902Z"/>
      <path class="cls-17" d="m28.6797129536,46.9313488826c-.893531705-.1976104234-1.4892296078-.9880671935-1.4892296078-1.8773216369-.0992880335-.8892544435.3971218357-1.6797112136,1.1913958056-1.976134387-.6949859364-.5928463468-.9928197385-1.5809135403-.5956979028-2.3713552337.2978338022-.5928463468.893531705-.9880671935,1.6878056749-.9880671935.0992880335-.1976104234.4964098693-.8892544435,1.3899415743-1.0868799435,1.2906535407-.3952208467,2.3827613128.3952208467,2.4820493464.4940335967.893531705-.1976104234,1.78706341.1976104234,2.1842155442.8892544435.3971218357.7904567701.0992880335,1.976134387-.6949859364,2.4701679837.893531705.3952208467,1.2906535407,1.3832880402.9928197385,2.1737448103-.1985760671.5928463468-.893531705,1.0868799435-1.5885176414,1.0868799435.5956979028.7904567701.3971218357,1.7785239636-.1985760671,2.2725575603-.6949859364.5928463468-1.9856394771.3952208467-2.4820493464-.5928463468-.2978338022.8892544435-1.1913958056,1.1856926935-1.8863514435.9880671935-.6949859364-.2964080967-1.0921077721-.7904416934-.9928197385-1.4821007902Z"/>
      <path class="cls-30" d="m30.6653524307,44.8564168224c-.893531705-.1976104234-1.4892296078-.9880671935-1.4892296078-1.8773216369-.0992880335-.8892544435.3971218357-1.6797112136,1.1913958056-1.976134387-.6949859364-.5928463468-.9928197385-1.5809135403-.5956979028-2.3713552337.2978338022-.5928463468.893531705-.9880671935,1.6878056749-.9880671935.0992880335-.1976104234.4964098693-.8892544434,1.3899415743-1.0868799435,1.2906535407-.3952208467,2.3827613128.3952208467,2.4820493464.4940335967.893531705-.1976104234,1.78706341.1976104234,2.1842155442.8892544434.3971218357.7904567701.0992880335,1.976134387-.6949859364,2.4701679837.893531705.3952208467,1.2906535407,1.3832880402.9928197385,2.1737448103-.1985760671.5928463468-.893531705,1.0868799435-1.5885176414,1.0868799435.5956979028.7904567701.3971218357,1.7785239636-.1985760671,2.2725575603-.6949859364.5928463468-1.9856394771.3952208467-2.4820493464-.5928463468-.2978338022.8892544435-1.1913958056,1.1856776168-1.8863514435.9880671935-.6949859364-.1976104234-.9928197385-.7904567701-.9928197385-1.4821007902Z"/>
      <path class="cls-19" d="m23.9141600295,44.3623832256c-.893531705-.1976104234-1.4892296078-.9880671935-1.4892296078-1.8773216369-.0992880335-.8892544435.3971218357-1.6797112136,1.1913958056-1.976134387-.6949859364-.5928463468-.9928197385-1.5809135403-.5956979028-2.3713552337.2978338022-.5928463468.893531705-.9880671935,1.6878056749-.9880671935.0992880335-.1976104234.4964098693-.8892544434,1.3899415743-1.0868799435,1.2906535407-.3952208467,2.3827613128.3952208467,2.4820493464.4940335967.893531705-.1976104234,1.78706341.1976104234,2.1842155442.8892544435.3971218357.7904567701.0992880335,1.976134387-.6949859364,2.4701679837.893531705.3952208467,1.2906535407,1.3832880402.9928197385,2.1737448103-.1985760671.5928463468-.893531705,1.0868799435-1.5885176414,1.0868799435.5956979028.7904567701.3971218357,1.7785239636-.1985760671,2.2725575603-.6949859364.5928463468-1.9856394771.3952208467-2.4820493464-.5928463468-.2978338022.8892544434-1.1913958056,1.1856776168-1.8863514435.9880671935-.5956979028-.1976104234-.9928197385-.7904567701-.9928197385-1.4821007902Z"/>
      <path class="cls-11" d="m56.8757874685,47.4253824794c-.893531705-.1976104234-1.4892296078-.9880671935-1.4892296078-1.8773216369-.0992880335-.8892544434.3971218357-1.6797112136,1.1913958056-1.976134387-.6949859364-.5928463468-.9928197385-1.5809135403-.5956979028-2.3713552337.2978338022-.5928463468.893531705-.9880671935,1.6878056749-.9880671935.0992880335-.1976104234.4964098693-.8892544435,1.3899415743-1.0868799435,1.2906535407-.3952208467,2.3827613128.3952208467,2.4820493464.4940335967.893531705-.1976104234,1.78706341.1976104234,2.1842155442.8892544434.3971218357.7904567701.0992880335,1.976134387-.6949859364,2.4701679837.893531705.3952208467,1.2906535407,1.3832880402.9928197385,2.1737448103-.1985760671.5928463468-.893531705,1.0868799435-1.5885176414,1.0868799435.5956979028.7904567701.3971218357,1.7785239636-.1985760671,2.2725575603-.6949859364.5928463468-1.9856394771.3952208467-2.4820493464-.5928463468-.2978338022.8892544434-1.1913958056,1.1856926935-1.8863514435.9880671935-.6949859364-.2964080967-1.0921077721-.8892544434-.9928197385-1.4821007902Z"/>
      <path class="cls-10" d="m50.1245950674,46.9313488826c-.893531705-.1976104234-1.4892296078-.9880671935-1.4892296078-1.8773216369-.0992880335-.8892544435.3971218357-1.6797112136,1.1913958056-1.976134387-.6949859364-.5928463468-.9928197385-1.5809135403-.5956979028-2.3713552337.2978338022-.5928463468.893531705-.9880671935,1.6878056749-.9880671935.0992880335-.1976104234.4964098693-.8892544435,1.3899415743-1.0868799435,1.2906535407-.3952208467,2.3827613128.3952208467,2.4820493464.4940335967.893531705-.1976104234,1.78706341.1976104234,2.1842155442.8892544435.3971218357.7904567701.0992880335,1.976134387-.6949859364,2.4701679837.893531705.3952208467,1.2906535407,1.3832880402.9928197385,2.1737448103-.1985760671.5928463468-.893531705,1.0868799435-1.5885176414,1.0868799435.5956979028.7904567701.3971218357,1.7785239636-.1985760671,2.2725575603-.6949859364.5928463468-1.9856394771.3952208467-2.4820493464-.5928463468-.2978338022.8892544435-1.1913958056,1.1856926935-1.8863514435.9880671935-.6949556379-.2964080967-.9928197385-.7904416934-.9928197385-1.4821007902Z"/>
      <path class="cls-31" d="m45.0612386396,50.3895840598c-.893531705-.1976255001-1.4892296078-.9880671935-1.4892296078-1.8773216369-.0992880335-.8892544434.3971218357-1.6797112136,1.1913958056-1.976134387-.6949859364-.5928463468-.9928197385-1.5809135403-.5956979028-2.3713552337.2978338022-.5928463468.893531705-.9880671935,1.6878056749-.9880671935.0992880335-.1976104234.4964098693-.8892544434,1.3899415743-1.0868799435,1.2906535407-.3952208467,2.3827613128.3952208467,2.4820493464.4940335967.893531705-.1976104234,1.78706341.1976104234,2.1842155442.8892544434.3971218357.7904567701.0992880335,1.976134387-.6949859364,2.4701679837.893531705.3952208467,1.2906535407,1.3832880402.9928197385,2.173759887-.1985760671.5928463468-.893531705,1.0868799435-1.5885176414,1.0868799435.5956979028.7904416934.3971218357,1.7785088869-.1985760671,2.2725424836-.6949859364.5928463468-1.9856394771.3952208467-2.4820493464-.5928463468-.2978338022.8892544434-1.1913958056,1.1856926935-1.8863514435.9880671935-.6949859364-.2964080967-.9928197385-.8892544434-.9928197385-1.4821007902Z"/>
      <path class="cls-32" d="m38.4093342719,49.8955504631c-.893531705-.1976255001-1.4892296078-.9880671935-1.4892296078-1.8773216369-.0992880335-.8892544435.3971218357-1.6797112136,1.1913958056-1.976134387-.6949859364-.5928463468-.9928197385-1.5809135403-.5956979028-2.3713552337.2978338022-.5928463468.893531705-.9880671935,1.6878056749-.9880671935.0992880335-.1976104234.4964098693-.8892544434,1.3899415743-1.0868799435,1.2906535407-.3952208467,2.3827613128.3952208467,2.4820493464.4940335967.893531705-.1976104234,1.78706341.1976104234,2.1842155442.8892544434.3971218357.7904567701.0992880335,1.976134387-.6949859364,2.4701679837.893531705.3952208467,1.2906535407,1.3832880402.9928197385,2.1737448103-.1985760671.5928312701-.893531705,1.0868648668-1.5885176414,1.0868648668.5956979028.7904416934.3971218357,1.7785088869-.1985760671,2.2725424836-.6949859364.5928463468-1.9856394771.3952208467-2.4820493464-.5928463468-.2978338022.8892544434-1.1913958056,1.1856926935-1.8863514435.9880671935-.6949859364-.2963779433-1.0921077721-.88922429-.9928197385-1.4820706368Z"/>
      <path class="cls-6" d="m40.4942617826,51.1800559067c-.893531705-.1976255001-1.4892296078-.9880671935-1.4892296078-1.8773216369-.0992880335-.8892544435.3971218357-1.6797112136,1.1913958056-1.976134387-.6949859364-.5928463468-.9928197385-1.5809135403-.5956979028-2.3713552337.2978338022-.5928463468.893531705-.9880671935,1.6878056749-.9880671935.0992880335-.1976104234.4964098693-.8892544434,1.3899415743-1.0868799435,1.2906535407-.3952208467,2.3827613128.3952208467,2.4820493464.4940335967.893531705-.1976104234,1.78706341.1976104234,2.1842155442.8892544434.3971218357.7904567701.0992880335,1.976134387-.6949859364,2.4701679837.893531705.3952208467,1.2906535407,1.3832880402.9928197385,2.173759887-.1985760671.5928463468-.893531705,1.0868799435-1.5885176414,1.0868799435.5956979028.7904416934.3971218357,1.7785088869-.1985760671,2.2725424836-.6949859364.5928463468-1.9856394771.3952208467-2.4820493464-.5928463468-.2978338022.8892544434-1.1913958056,1.1856926935-1.8863514435.9880671935-.6949859364-.1976255001-.9928197385-.7904718468-.9928197385-1.4821007902Z"/>
      <path class="cls-3" d="m54.8901479914,49.5991423664c-.893531705,0-1.6878056749-.4940335967-1.9856394771-1.2844752902-.2978338022-.7904567701-.0992880335-1.6797112136.4964098693-2.2725575604-.893531705-.3952208467-1.3899415743-1.1856776168-1.2906535407-2.074947137.0992880335-.6916440201.5956979028-1.1856776168,1.1913958056-1.4821007902.0992880335-.1976104234.1985760671-.9880671935.9928197385-1.4821007902,1.0921077721-.7904567701,2.3827613128-.2964231734,2.4820493464-.2964231734.7942436715-.4940335967,1.78706341-.3952208467,2.3827613128.1976104234.6949859364.6916440201.6949859364,1.7785239636.0992880335,2.5689807337.9928197385.09881275,1.6878056749.8892544434,1.6878056749,1.7785239636,0,.6916440201-.4964098693,1.2844903669-1.1913958056,1.5809135403.7942436715.5928463468.9928197385,1.5809135403.4964098693,2.2725424836-.4964098693.7904416934-1.78706341.9880671935-2.5813373799.1976255001,0,.8892544435-.7942436715,1.5809135403-1.4892296078,1.4821007902s-1.1913958056-.4940637502-1.2906838392-1.1856926935Z"/>
      <path class="cls-12" d="m48.3375316574,51.1800559067c-.893531705,0-1.6878056749-.4940335967-1.9856394771-1.2844752902s-.0992880335-1.6797262903.4964098693-2.2725575603c-.893531705-.3952208467-1.3899415743-1.1856776168-1.2906535407-2.074947137.0992880335-.6916440201.5956979028-1.1856776168,1.1913958056-1.4821007902.0992880335-.1976104234.1985760671-.9880671935.9928197385-1.4821007902,1.0921077721-.7904567701,2.3827613128-.2964231734,2.4820493464-.2964231734.7942436715-.4940335967,1.78706341-.3952208467,2.3827613128.1976104234.6949859364.6916440201.6949859364,1.7785239636.0992880335,2.5689807337.9928197385.09881275,1.6878056749.8892544435,1.6878056749,1.7785239636,0,.6916440201-.4964098693,1.2844752902-1.1913958056,1.5809135403.7942436715.5928463468.9928197385,1.5809135403.4964098693,2.2725424836-.4964098693.7904416934-1.78706341.9880671935-2.5813373799.1976255001,0,.8892544434-.7942436715,1.5809135403-1.4892296078,1.4821007902-.6949859364-.0988429034-1.1913958056-.4940637502-1.2906838392-1.1856926935Z"/>
      <path class="cls-2" d="m79.0156555187,35.7662016577c-.893531705,0-1.6878056749-.4940335967-1.9856394771-1.2844903669s-.0992880335-1.6797112136.4964098693-2.2725575603c-.893531705-.3952208467-1.3899415743-1.1856776168-1.2906535407-2.074947137.0992880335-.6916440201.5956979028-1.1856776168,1.1913958056-1.4821007902.0992880335-.1976104234.1985760671-.9880671935.9928197385-1.4821007902,1.0921077721-.7904567701,2.3827613128-.2964231734,2.4820493464-.2964231734.7942436715-.4940335967,1.78706341-.3952208467,2.3827613128.1976104234.6949859364.6916440201.6949859364,1.7785239636.0992880335,2.5689807337.9928197385.09881275,1.6878056749.8892544434,1.6878056749,1.7785239636,0,.6916440201-.4964098693,1.2844903669-1.1913958056,1.5809135403.7942436715.5928463468.9928197385,1.5809135403.4964098693,2.2725575603-.4964098693.7904567701-1.78706341.9880671935-2.5813373799.1976104234,0,.8892544434-.7942436715,1.5809135403-1.4892296078,1.4821007902s-1.1913958056-.5928463468-1.2906838392-1.1856776168Z"/>
      <path class="cls-4" d="m72.4630391846,37.3471001212c-.893531705,0-1.6878056749-.4940335967-1.9856394771-1.2844903669s-.0992880335-1.6797112136.4964098693-2.2725575603c-.893531705-.3952208467-1.3899415743-1.1856776168-1.2906535407-2.074947137.0992880335-.6916440201.5956979028-1.1856776168,1.1913958056-1.4821007902.0992880335-.1976104234.1985760671-.9880671935.9928197385-1.4821007902,1.0921077721-.7904567701,2.3827613128-.2964231734,2.4820493464-.2964231734.7942436715-.4940335967,1.78706341-.3952208467,2.3827613128.1976104234.6949859364.6916440201.6949859364,1.7785239636.0992880335,2.5689807337.9928197385.09881275,1.6878056749.8892544434,1.6878056749,1.7785239636,0,.6916440201-.4964098693,1.2844903669-1.1913958056,1.5809135403.7942436715.5928463468.9928197385,1.5809135403.4964098693,2.2725575603-.4964098693.7904567701-1.78706341.9880671935-2.5813373799.1976104234,0,.8892544434-.7942436715,1.5809135403-1.4892296078,1.4821007902-.5956979028-.0987976733-1.1913958056-.5928312701-1.2906838392-1.1856776168Z"/>
      <path class="cls-28" d="m6.6391026386,32.7031873272c.4964098693-1.0868799435,1.5885176414-1.7785239636,2.7798831485-1.6797112136,1.1913958056.09881275,2.0849275106.8892544434,2.4820493464,1.976134387.893531705-.8892544434,2.2834732793-.9880671935,3.2762930178-.2964231734.7942436715.4940335967,1.1913958056,1.3832880402,1.0921077721,2.3713552337.1985760671.1976104234.9928197385.8892544435,1.2906535407,1.976134387.2978338022,1.7785239636-.9928197385,3.0630143305-1.0921077721,3.1618120038.1985760671,1.1856776168-.4964098693,2.3713552337-1.5885176414,2.7665911571-1.1913958056.3952208467-2.5813373799-.1976104234-3.1770352827-1.4821007902-.6949859364,1.0868799435-2.0849275106,1.4821007902-3.1770352827.9880671935-.7942436715-.3952208467-1.2906535407-1.3832880402-1.1913958056-2.3713552337-1.1913958056.5928463468-2.4820493464.1976104234-3.0777472492-.6916440201-.5956979028-.9880671935-.0992880335-2.6677784071,1.2906535407-3.2606247538-1.0921077721-.5928463468-1.3899415743-1.8773216369-.893531705-2.6677784071.2979246975-.5928463468,1.191486701-.8892695202,1.9857303724-.7904567701Z"/>
      <path class="cls-7" d="m20.9357008139,31.319899287c1.0921077721-.4940335967,2.3827613128-.1976104234,3.1770352827.6916440201.7942436715.7904567701.9928197385,2.074947137.3971218357,3.0630143305,1.2906535407,0,2.2834732793.8892544435,2.5813373799,1.976134387.1985760671.8892544434-.0992880335,1.7785239636-.893531705,2.4701679837,0,.2964231734.1985760671,1.2844903669-.4964098693,2.2725575603-.9928197385,1.5809135403-2.8791711821,1.5809135403-2.9784592156,1.5809135403-.6949859364.9880671935-1.9856394771,1.3832880402-3.0777472492.8892544434-1.1913958056-.4940335967-1.78706341-1.8773216369-1.2906535407-3.1618120038-1.2906535407.2964231734-2.5813373799-.3952208467-2.9784592156-1.4821007902-.2978338022-.8892544434,0-1.8773216369.7942436715-2.5689807337-1.2906535407-.3952208467-1.9856394771-1.5809135403-1.78706341-2.5689807337.2978338022-1.1856776168,1.78706341-1.976134387,3.1770352827-1.4821007902-.3971218357-1.1856776168.2978338022-2.3713552337,1.1913958056-2.5689807337.794213373-.1976104234,1.687745078.09881275,2.1841549473.8892695202Z"/>
      <path class="cls-14" d="m86.3606819804,20.581794077c-.0210126582-.0418241448-.0630379747-.0836482896-.094556962-.1254724343-.5043037975-.5959940631-1.3973417722-.8992191128-2.0907594937-.5959940631,0-.104560362.3046835443-1.1919881262-.2941772152-1.9761908409-.0630379747-.0836482896-.1365822785-.1568405429-.2206329114-.2300327963-.7039240506-.5959940631-2.0802531646-.6587302803-3.0573417722.2300327963-.0630379747-.1777526153-.1470886076-.3450491944-.2416455696-.5018897374h-.0105063291c-.6198734177-1.0456036195-1.8806329114-1.5265812845-2.8262025316-1.18153209-.4937974684.1463845067-.8930379747.4914337012-1.1346835443.9514992938-.2521518987.4600655926-.3572151899,1.0246915471-.2521518987,1.6206856102-.1996202532-.8887630766-.9981012658-1.4847571397-1.6915189873-1.3801967777-.6934177215,0-1.1872151899.5855380269-1.1872151899,1.2756364158-.1050632911-.0941043258-.8930379747-1.0874277643-1.9856962025-1.18153209-.2206329114-.0209120724-.4412658228,0-.6513924051.052280181-.8194936709.1882086515-1.5024050633.8992191128-1.7335443038,1.9239106599-1.292278481-.9828674023-2.8787341772-1.0874277643-3.7717721519-.1986646877-.7984810127.7946587508-.5988607595,2.1748555286-.5988607595,2.3735202163-.094556962,0-.7879746835-.104560362-1.292278481.1986646877-.3887341772.5959940631-.1996202532,1.18153209-.1996202532,1.286092452-.3887341772-.5959940631-1.2817721519-.7946587508-1.8806329114-.3973293754s-.6934177215,1.18153209-.2941772152,1.8716304789c-.7039240506-.4914337012-1.5969620253-.1986646877-1.8911392405.5018897374-.2941772152.6900983889,0,1.4743011035.6934177215,1.8716304789-.9875949367-.1986646877-1.8806329114.3973293754-2.0802531646,1.1919881262v.0209120724c-.1891139241.8783070404.4937974684,1.7566140808.4937974684,1.8507184065-.4937974684.104560362-.8930379747.2927690135-.9875949367.6900983889-.1996202532.5959940631.1891139241,1.4847571397.9875949367,1.7775261532,0,.104560362-.8930379747.3973293754-.9875949367,1.286092452-.1050632911.8887630766.4937974684,1.8820865151,1.5864556962,2.2794158905-.2101265823.3973293754-.273164557.8469389318-.1681012658,1.286092452.0525316456.1986646877.1365822785.3973293754.2626582278.5855380269.3992405063.5959940631,1.0926582278.9933234385,1.7860759494.7946587508-.1996202532.6900983889.1996202532,1.4743011035.7984810127,1.6729657912.4937974684.1986646877,1.0926582278,0,1.292278481-.5855380269.4937974684.9828674023,1.5864556962,1.4743011035,2.2798734177,1.18153209.7984810127-.2927690135.8930379747-1.286092452.8930379747-1.3801967777.1050632911.0941043258,1.1872151899.4914337012,2.0907594937-.104560362.7879746835-.4914337012.8930379747-1.4743011035.8930379747-1.5788614655.189113924.104560362.8930379747.1986646877,1.6810126582-.1986646877.7984810127-.4914337012.9981012658-1.18153209,1.0926582278-1.3801967777.3992405063,0,1.6915189873.0941043258,2.7841772152-.7946587508,1.1872151899-.9828674023,1.4918987342-2.2689598543,1.5864556962-2.6662892297.0525316456.0627362172.4727848101.2718569411,1.0191139241.3345931582.3572151899.0418241448.7669620253.0209120724,1.1662025316-.1359284705,1.0926582278-.3973293754,1.6810126582-1.5788614655,1.4918987342-2.9590582432.8930379747.5855380269,1.9856962025.4914337012,2.4794936709-.104560362.5988607595-.5959940631.2941772152-1.5788614655.2941772152-1.6834218274.4412658228.2404888325.924556962.3659612668,1.3973417722.3659612668.4937974684-.0104560362.9770886076-.1568405429,1.386835443-.4600655926.7879746835-.4914337012,1.1872151899-1.5788614655.9875949367-2.572184904.0630379747,0,.1365822785-.0104560362.1996202532-.0313681086v-5.0711775546Z"/>
      <path class="cls-20" d="m42.3806132261,23.4153617392c.0992880335-.1976104234.893531705-1.6797112136,2.3827613128-1.976134387s3.1770352827.8892544434,3.7727028871,2.7665911571c1.1913958056-1.0868799435,2.8791711821-1.1856776168,3.8719909206-.3952208467,1.0921077721.8892544435,1.0921077721,2.3713552337,1.0921077721,2.5689807337.4964098693-.6916440201,1.4892296078-.8892544434,2.1842155442-.4940335967.7942436715.3952208467,1.1913958056,1.5809135403.7942436715,2.5689807337.6949859364-1.2844903669,2.0849275106-1.976134387,3.2762930178-1.5809135403,1.3899415743.3952208467,2.3827613128,2.074947137,1.9856394771,3.7546583506,1.8863514435-.1976104234,3.2762930178.9880671935,3.3755810514,2.2725575603.0992880335,1.1856776168-.9928197385,2.074947137-1.0921077721,2.1737448103.9928197385.1976104234,1.6878056749.9880671935,1.78706341,1.976134387.0992880335,1.2844903669-.7942436715,2.074947137-.893531705,2.1737448103.4964098693.6916440201.7942436715,1.5809135403.4964098693,2.2725575603-.3971218357.9880671935-1.9856394771,1.6797112136-3.4748690849.7904567701,0,.1976104234-.5956979028,1.976134387-2.4820493464,2.6677784071-1.6878056749.5928463468-3.0777472492-.1976104234-3.2762930178-.2964231734-.0992880335.09881275-.5956979028.9880671935-1.5885176414,1.0868799435-.9928197385.1976104234-2.0849275106-.4940335967-2.5813373799-1.6797112136-.0992880335.09881275-.4964098693.7904567701-1.3899415743.9880671935-.7942436715.1976104234-1.4892296078-.09881275-1.6878056749-.1976104234-.2978338022.5928463468-.893531705,1.0868799435-1.4892296078,1.0868799435-.6949859364.09881275-1.3899415743-.3952208467-1.78706341-.9880671935-.0992880335.6916440201-.4964098693,1.1856776168-1.0921077721,1.3832880402-.6949859364.1976104234-1.4892296078-.1976104234-1.78706341-.8892544435-.4964098693.7904567701-1.3899415743,1.1856776168-2.1842155442,1.0868799435-.7942436715-.09881275-1.3899415743-.6916440201-1.6878056749-1.4821007902-.6949859364.9880671935-1.8863514435,1.3832880402-2.8791711821,1.0868799435-.893531705-.2964231734-1.4892296078-1.0868799435-1.6878056749-1.976134387-.4964098693.7904567701-1.5885176414,1.0868799435-2.4820493464.6916440201-.893531705-.3952208467-1.3899415743-1.5809135403-.9928197385-2.5689807337,0,0-.893531705.9880671935-1.8863514435.6916440201-.9928197385-.1976104234-1.6878056749-1.3832880402-1.4892296078-2.7665911571-.5956979028.3952208467-1.3899415743.2964231734-1.78706341-.2964231734-.4964098693-.5928463468-.3971218357-1.6797112136.3971218357-2.1737448103-.7942436715-.2964231734-1.3899415743-1.0868799435-1.2906535407-1.976134387,0-.7904567701.4964098693-1.5809135403,1.2906535407-1.8773216369-.893531705-1.0868799435-.7942436715-2.5689807337-.0992880335-3.3594224272.6949859364-.7904567701,1.8863514435-.5928463468,1.9856394771-.4940335967-.5956979028-.8892544435-.3971218357-1.976134387.1985760671-2.3713552337.3971218357-.2964231734.9928197385-.2964231734,1.4892296078,0,0-.09881275-.0992880335-1.4821007902.893531705-2.1737448103.893531705-.6916440201,2.0849275106-.5928463468,2.9784592156.2964231734-.3971218357-.8892544434-.0992880335-1.8773216369.5956979028-2.3713552337.7942436715-.4940335967,1.8863514435-.1976104234,2.2834732793.6916440201.0992880335-.8892544434.7942436715-1.6797112136,1.6878056749-1.6797112136.893531705,0,1.6878056749.7904567701,1.6878056749,1.7785239636,0-.09881275.2978338022-.8892544435,1.0921077721-1.0868799435.6950162348-.2964834802,1.3899718727.2963628666,1.4892599063.2963628666Z"/>
      <path class="cls-27" d="m75.5407864338,29.9365961701c0,.1976104234.2978338022,1.7785239636-.6949859364,2.8653888304-.9928197385,1.0868799435-2.8791711821,1.1856776168-4.4676888234.09881275-.1985760671,1.4821007902-1.3899415743,2.5689807337-2.6806254134,2.5689807337-1.2906535407,0-2.1842155442-1.0868799435-2.2834732793-1.2844903669,0,.7904567701-.5956979028,1.4821007902-1.2906535407,1.6797112136-.893531705.1976104234-1.78706341-.4940335967-2.0849275106-1.4821007902.2978338022,1.3832880402-.3971218357,2.6677784071-1.4892296078,3.0630143305-1.2906535407.4940335967-2.9784592156-.1976104234-3.673445152-1.6797112136-1.2906535407,1.2844903669-3.0777472492,1.1856776168-3.8719909206.2964231734-.6949859364-.7904567701-.3971218357-2.1737448103-.3971218357-2.2725575603-.7942436715.3952208467-1.8863514435.1976104234-2.4820493464-.4940335967-.893531705-.8892544435-.5956979028-2.074947137-.5956979028-2.074947137-.7942436715-.1976104234-1.4892296078-.6916440201-1.6878056749-1.3832880402-.2978338022-.9880671935.4964098693-2.3713552337,2.1842155442-2.6677784071-.2978338022-1.1856776168.0992880335-2.3713552337.9928197385-3.0630143305.893531705-.6916440201,2.1842155442-.8892544434,3.2762930178-.3952208467,0-.09881275-.2978338022-1.1856776168.2978338022-1.976134387.5956979028-.7904567701,1.8863514435-.9880671935,2.8791711821-.2964231734-.2978338022-1.5809135403.3971218357-3.0630143305,1.5885176414-3.6558456005,1.1913958056-.5928463468,2.3827613128,0,2.5813373799.09881275.0992880335-.4940335967.3971218357-1.976134387,1.78706341-3.2606247538,1.2906535407-1.0868799435,2.7798831485-1.1856776168,3.1770352827-1.1856776168.0992880335-.1976104234.2978338022-1.0868799435,1.1913958056-1.6797112136.893531705-.5928463468,1.78706341-.4940335967,1.9856394771-.3952208467,0-.1976104234,0-1.1856776168.893531705-1.8773216369.9928197385-.7904567701,2.2834732793-.3952208467,2.3827613128-.2964231734,0-.09881275.0992880335-1.1856776168.9928197385-1.6797112136.893531705-.3952208467,2.0849275106.09881275,2.7798831485,1.1856776168.1985760671-.6916440201.893531705-.9880671935,1.4892296078-.8892544435.6949859364.1976104234,1.2906535407,1.0868799435.9928197385,1.8773216369.7942436715-.1976104234,1.6878056749.09881275,2.1842155442.6916440201.4964098693.5928463468.4964098693,1.4821007902.0992880335,2.1737448103,1.2906535407.2964231734,2.0849275106,1.4821007902,1.9856394771,2.4701679837s-1.0921077721,1.4821007902-1.1913958056,1.4821007902c.9928197385.2964231734,1.4892296078,1.1856776168,1.2906535407,1.8773216369-.0992880335.4940335967-.5956979028.7904567701-1.0921077721.8892544435.0992880335.09881275.893531705.9880671935.5956979028,2.1737448103-.2978338022.9880671935-1.2906535407,1.6797112136-2.3827613128,1.5809135403.7942436715.3952208467,1.1913958056,1.2844903669.893531705,2.074947137-.2978338022.7904567701-1.2906535407,1.1856776168-2.1842155442.7904567701.4964098693.6916440201.3971218357,1.6797112136-.2978338022,2.1737448103-.6949859364.4940335967-1.6878056749.3952208467-2.2834732793-.2964231734,0,.09881275.2978338022.7904567701-.0992880335,1.4821007902-.3970915373.7904416934-1.2906232423.6916289434-1.2906232423.6916289434Z"/>
      <path class="cls-18" d="m38.1115004698,36.4578456778c-.893531705-.1976104234-1.4892296078-.9880671935-1.4892296078-1.8773216369-.0992880335-.8892544435.3971218357-1.6797112136,1.1913958056-1.976134387-.6949859364-.5928463468-.9928197385-1.5809135403-.5956979028-2.3713552337.2978338022-.5928463468.893531705-.9880671935,1.6878056749-.9880671935.0992880335-.1976104234.4964098693-.8892544434,1.3899415743-1.0868799435,1.2906535407-.3952208467,2.3827613128.3952208467,2.4820493464.4940335967.893531705-.1976104234,1.78706341.1976104234,2.1842155442.8892544434.3971218357.7904567701.0992880335,1.976134387-.6949859364,2.4701679837.893531705.3952208467,1.2906535407,1.3832880402.9928197385,2.1737448103-.1985760671.5928463468-.893531705,1.0868799435-1.5885176414,1.0868799435.5956979028.7904567701.3971218357,1.7785239636-.1985760671,2.2725575603-.6949859364.5928463468-1.9856394771.3952208467-2.4820493464-.5928463468-.2978338022.8892544435-1.1913958056,1.1856776168-1.8863514435.9880671935-.6949859364-.2964231734-.9928197385-.8892695202-.9928197385-1.4821007902Z"/>
      <path class="cls-15" d="m45.6381503348,3.5593671514c-.1575949367.2509448687-.2521518987.4391535202-.2836708861.4914337012-.094556962,0-.8930379747-.6900983889-1.9856962025-.1986646877-.8930379747.3973293754-1.1872151899,1.286092452-1.1872151899,1.3801967777-.0525316456-.7110104613-.3992405063-1.3070045244-.8825316456-1.6729657912-.3151898734-.2509448687-.7039240506-.3973293754-1.103164557-.3973293754s-.7669620253.1463845067-1.0716455696.3973293754c-.4517721519.3555052306-.7564556962.9305872214-.8089873418,1.5788614655-.5043037975-1.0874277643-1.7965822785-1.4847571397-2.6896202532-.8887630766-.8930379747.4914337012-1.1872151899,1.7775261532-.6934177215,2.7603935555-.8089873418-.805114787-1.9436708861-1.0142355109-2.8787341772-.6378182079-.2101265823.0836482896-.4097468354.1986646877-.5988607595.3450491944-1.0821518987.9828674023-.9875949367,2.572184904-.9875949367,2.6662892297-.5988607595-.2927690135-1.292278481-.3973293754-1.7860759494,0-.6934177215.4914337012-.8930379747,1.7775261532-.1996202532,2.8649539174-.1996202532-.0941043258-1.4918987342-.2927690135-2.2798734177.5959940631-.7984810127.8887630766-.8930379747,2.6662892297.094556962,3.9523816817-.2311392405.104560362-.4412658228.2300327963-.6198734177.3973293754-.5358227848.4600655926-.8720253165,1.1397079453-.8720253165,1.8716304789-.094556962,1.0874277643.5988607595,1.9761908409,1.4918987342,2.3735202163-.5043037975.4391535202-.7669620253,1.0769717281-.735443038,1.6834218274.0105063291.3555052306.1260759494.6900983889.3362025316.9828674023.5043037975.5959940631,1.3973417722.7946587508,2.0907594937.2927690135-.1996202532,1.5893175016.6934177215,2.9695142794,1.7860759494,3.2622832929,1.1872151899.3032250497,2.1853164557-.7842027146,2.1853164557-.8887630766.094556962.1045603619.9875949367,1.4847571397,2.5740506329,1.4847571397,1.292278481,0,2.1853164557-.9828674023,2.2903797468-1.18153209.2416455696.1672965791.7669620253.7423785698,1.6915189873.9724113661.1786075949.0627362172.3782278481.0941043258.5883544304.1150163981,1.292278481.0941043258,2.1853164557-.5018897374,2.3849367089-.7005544251.4937974684.3973293754,1.8806329114,1.3906528139,3.9713924051,1.286092452,2.1853164557-.0941043258,3.6772151899-1.4743011035,4.0659493671-1.8716304789.0525316456.0731922534.1260759494.1986646877.2311392405.3555052306.3467088608.5332578459,1.0401265823,1.4115648863,2.2588607595,1.714789936,1.5864556962.3973293754,3.2674683544-.5959940631,4.1605063291-2.3735202163.3151898734.7319225337.8194936709,1.286092452,1.3973417722,1.610229574.5253164557.3032250497,1.1136708861.4077854116,1.6810126582.2718569411,1.197721519-.2927690135,1.6915189873-1.6834218274,1.7860759494-1.7775261532.5988607595,1.3801967777,1.9856962025,2.1748555286,3.3830379747,2.1748555286,1.386835443,0,2.679113924-.8887630766,3.2779746835-2.2794158905,1.7860759494.9933234385,3.5721518987.1986646877,4.0659493671-.9828674023.2941772152-.7946587508,0-1.8820865151-.5988607595-2.6662892297,0-.104560362,1.197721519-1.0874277643.9981012658-2.572184904-.1050632911-1.0874277643-.8930379747-2.0702951666-1.9856962025-2.3735202163.0315189873-.0313681086.2206329114-.1882086515.4412658228-.4391535202.1996202532-.2404888325.4307594937-.5541699183.6093670886-.9305872214.1681012658-.3555052306.273164557-.752834606.2416455696-1.1919881262-.1050632911-1.4847571397-1.6915189873-2.9695142794-3.876835443-2.6767452659.0840506329-.3032250497.1155696203-.6169061355.1155696203-.909675149.0210126582-1.6415976826-.9770886076-3.1158987861-2.395443038-3.5341402339-1.386835443-.4914337012-2.9837974684.3032250497-3.7717721519,1.8820865151.4937974684-1.1919881262,0-2.572184904-.8930379747-3.0636186052-.7984810127-.4914337012-1.8911392405-.1986646877-2.49.5855380269,0-.2300327963,0-1.4115648863-.6513924051-2.3839762525-.1681012658-.2404888325-.367721519-.4705216288-.6303797468-.6691863165-1.197721519-.9933234385-3.0783544304-.8887630766-4.4756962025.4914337012-.1786075949-.5959940631-.4412658228-1.1292519091-.7669620253-1.5788614655h-5.9991139241Z"/>
      <path class="cls-33" d="m84.7742288492,15.7330546308c.3992456364.4914668868.5988684546,1.1815371955.3992456364,1.6834703295-.273174817.7005365559-1.2397391404,1.0874047896-2.2168200529.742337726-.1156183557-.0313349229-.241689175-.0940685874-.3677599943-.1568022518-.3992456364.8887375491-1.1872203199,1.3906068646-2.0802326444,1.3906068646-.0525188205,0-.0945851773,0-.1471039977-.0104662472-.840493504-.0418011701-1.6600179552-.5332042383-2.0382304131-1.2756057829,0,.0941324059-.3992456364.8887375491-1.0926351427,1.0874047896-.2836914062.0731999116-.5778352762.0523312358-.840493504-.0418011701-.4727976352-.1672684989-.89307645-.575069227-1.1452180887-1.150138454-.5988684546,1.0874047896-1.6915035972,1.6834065109-2.6791010989,1.4847392705-.6408706858-.1254673289-1.082182679-.5437343041-1.3343243176-.8783351206-.1365874085-.1777347461-.220591871-.3346008165-.2626582278-.4077369095-.2941438699.1986672405-1.1872203199,1.0874047896-2.6791010989,1.1919396241-1.2922579608.0941324059-2.2798554626-.5960017213-2.574063458-.7946689618-.1996228182.0941324059-.7039060955.4914668868-1.5969184199.4914668868-.7879746835-.0941324059-1.2818054972-.5855354742-1.4814283154-.6900703087-.0735519989.073136093-.3256936375.4182031567-.7774580943.6378028914-.1996228182.0940685874-.4412478676.1568022518-.7144226847.1568022518-.9981140909,0-1.5864659563-.8887375491-1.5864659563-.9932723837,0,0-.6933895063.6900703087-1.3973597273.5959379028-.6933895063-.1986672404-1.2817413716-.9932723837-1.0926351427-2.0807409918-.4938308136.3032658935-1.082182679.1986672405-1.3868431381-.1882009933-.3992456364-.5018693154-.2942079955-1.28607203.3046604591-1.6834065109-.5988684546-.1986672405-.9980499654-.7946689618-.9980499654-1.4847392705,0-.5960017213.3991815108-1.1815371955.8930123245-1.380204436-.5988684546-.7946689618-.5988684546-1.8820737514,0-2.4676092256.4937666881-.5960017213,1.3868431381-.3973344809,1.491880779-.3973344809-.3992456364-.6901341273-.3046604591-1.4848030891.0945851773-1.7775389169.0105165892-.0104662472.0314856421-.0209324943.0420022313-.0209324943.2942079955-.1777347461.6724204534-.1672684989,1.0506329114.0209324943,0-.1045986531-.0945210517-1.0874686082.6934536318-1.6834065109.0420022313-.0313987415.0945210517-.0731999116.1470398722-.0941324059.462281046-.2927996464,1.1136683211-.2927996464,1.6810511336,0,.1575564614.0731999116.3151770483.1672684989.462281046.2927996464-.0420663568-.0941324059-.0840685881-.1882648119-.1051017665-.2927996464h14.8875145248c.1050376409.3973344809.1050376409.7319352974.1050376409.7842027146.3992456364-.4914030683,1.0926351427-.6900703087,1.5864659563-.3973344809.5988684546.303202075.8930123245,1.1920034427.5988684546,1.8820737514.4937666881-.9933362022,1.491880779-1.4847392705,2.3848931035-1.1815371955,1.0926992682.2927996464,1.7860887745,1.4743368419,1.4919449046,2.760408872,1.3868431381-.1986672404,2.4794782808.7946689618,2.4794782808,1.6834065109.0945210517.8888013677-.7984912727,1.4848030891-.7984912727,1.5788716764.6934536318.1986672404,1.1977369091.7946689618,1.2922579608,1.4847392705.1051017665.9828699551-.598804329,1.5788716764-.6933895063,1.5788716764Z"/>
      <path class="cls-24" d="m39.3973908411,34.2791912816c.9035289137.5018693154,1.3973597273,1.3906706831,1.1977369091,2.3735406382-.1996228182,1.28607203-1.2923220864,1.8820737514-1.3868431381,1.8820737514.3887290472.7842027146.3887290472,1.6729402638-.1051017665,2.2689419851-.6933895063.8887375491-2.3848931035,1.0874047896-3.5721134234-.0940685874-.1051017665.0940685874-.9981140909,1.7774750983-2.9838256836,1.9761423387-1.7860246489.1986672404-2.8787239171-.9933362022-3.0783467353-1.0874047896-.0945210517.0940685874-.7879746835.7842027146-1.7860887745.6900703087-.9875975017-.1045348345-1.8806098262-.9932723837-2.0802326444-2.1748095792-.1050376409.0940685874-.6933895063.6900703087-1.5864659563.6900703087-.8930123245,0-1.3972956018-.4914030683-1.5864659563-.5960017213-.3992456364.5960017213-1.0926351427.8888013677-1.7965412381.7005365559-.6934536318-.1045348345-1.2818054972-.7005365559-1.4814283154-1.3906068646-.1996228182.5960017213-.7984912727.9933362022-1.3972956018,1.0874047896-.430795404,0-.8615266824-.1882009933-1.1662512671-.5228018098-.1996228182-.1986672405-.3466626904-.4600681453-.4202146892-.7632702203-.5883518654.7005365559-1.5864659563.8887375491-2.384957229.5018693154-.6933895063-.303202075-1.1872203199-.9933362022-1.1872203199-1.8820737514-.8930123245.7946689618-2.1853344108.8887375491-3.0783467353.2927358278-.7984912727-.4914030683-1.1872203199-1.3801406174-1.1872203199-2.3630105725-.6933895063.6900703087-1.7860887745.6900703087-2.5845800472.0940685874-.7984271472-.5960017213-.9980499654-1.8716075042-.2941438699-2.666276466-.0630354097,0-.4202788148.2300021634-.8825598608.3555333108h-.0104524637c-.3256936375.0836023402-.7144868102.1045348345-1.0926992682-.062797483-.0420022313-.0208686758-.0735519989-.0418011701-.1050376409-.073136093v-12.6099770985c.0630354097-.0523312358.1260708193-.1045986531.1996228182-.1568660704.2416250494-.1672684989.4937666881-.2509346577.7354558631-.2823333992.6303540966-.0731999116,1.1767037307.2091334876,1.2502557296.2823333992-.3992456364-.9933362022.1050376409-1.9762061573.7984271472-2.2689419851.4938308136-.1986672404.9875975017,0,1.4814283154.3868682337,0-.0941324059.3046604591-1.380204436,1.3973597273-1.8716713228.9875333762-.3973344809,2.1852702853,0,2.8787239171.9828699551-.1996228182-.8887375491.2941438699-1.8716075042,1.0926351427-2.0702747447.8930123245-.303202075,1.8806098262.2927996464,2.0802326444,1.28607203.3047245847-.8887375491,1.1977369091-1.3906068646,1.9857115927-1.1919396241.89307645.1986672404,1.3868431381,1.0874047896,1.1977369091,2.0807409918.0945210517-.1045986531.4937666881-.7946689618,1.2817413716-.7946689618.7984912727-.3973344809,1.2923220864.3973344809,1.3973597273.3973344809.0945851773-.1986672405,1.2922579608-1.380204436,2.7736862762-1.28607203.6619038642.0418011701,1.2712247824.3241345693,1.7650555961.7946051432.6933895063.6482691386,1.1556705523,1.652071588,1.218705962,2.8650075251,1.3868431381-.7946689618,3.0784108609-.501933134,3.8663855444.5855354742.4622169205.575069227.5883518654,1.2546732885.5883518654,1.7984075926,0,.4914668868-.0840685881.8783351206-.0840685881.9724037079.6933895063-.4914030683,1.5864659563-.4914030683,2.1748178216,0,.7039060955.5960017213.7984912727,1.7775389169.1050376409,2.666276466.9875975017-1.0874047896,2.4794782808-1.380204436,3.572177549-.7842027146.9245620921.4914668868,1.4393619586,1.5893379236,1.3972956018,2.7499426248,0,.4600681453-.1050376409.941068785-.3046604591,1.3906706831,1.8911264154.1986672404,2.9838256836,1.788005164,2.7842028654,3.0636109469-.1996228182,1.1920034427-1.4919449046,1.7775389169-1.5969825455,1.7775389169Z"/>
      <path class="cls-5" d="m40.6928075512,13.831097901c.0992880335-.1976104234.7942436715-1.4821007902,2.0849275106-1.6797112136,1.3899415743-.1976104234,2.7798831485.7904567701,3.3755810514,2.4701679837,1.0921077721-.9880671935,2.4820493464-1.0868799435,3.4748690849-.3952208467.9928197385.7904567701.9928197385,2.074947137.9928197385,2.2725575603.4964098693-.5928463468,1.2906535407-.7904567701,1.8863514435-.4940335967.6949859364.3952208467,1.0921077721,1.3832880402.6949859364,2.2725575603.5956979028-1.1856776168,1.78706341-1.6797112136,2.8791711821-1.3832880402,1.2906535407.3952208467,2.0849275106,1.7785239636,1.78706341,3.2606247538,1.6878056749-.1976104234,2.9784592156.8892544435,2.9784592156,1.976134387.0992880335.9880671935-.893531705,1.7785239636-.9928197385,1.8773216369.7942436715.1976104234,1.4892296078.8892544434,1.5885176414,1.7785239636.0992880335,1.0868799435-.6949859364,1.8773216369-.7942436715,1.8773216369.4964098693.5928463468.6949859364,1.3832880402.4964098693,1.976134387-.3971218357.8892544435-1.78706341,1.4821007902-3.0777472492.6916440201,0,.09881275-.4964098693,1.7785239636-2.1842155442,2.3713552337-1.4892296078.4940335967-2.6806254134-.1976104234-2.8791711821-.2964231734-.0992880335.09881275-.4964098693.8892544435-1.3899415743.9880671935s-1.8863514435-.4940335967-2.2834732793-1.4821007902c-.0992880335.09881275-.4964098693.6916440201-1.2906535407.8892544434-.6949859364.1976104234-1.2906535407-.09881275-1.4892296078-.1976104234-.1985760671.5928463468-.7942436715.9880671935-1.3899415743.9880671935-.6949859364.09881275-1.2906535407-.2964231734-1.5885176414-.8892544434-.0992880335.5928463468-.4964098693,1.0868799435-.9928197385,1.1856776168-.5956979028.1976104234-1.2906535407-.09881275-1.5885176414-.7904567701-.3971218357.6916440201-1.1913958056,1.0868799435-1.9856394771.9880671935-.6949859364-.09881275-1.2906535407-.5928463468-1.4892296078-1.2844903669-.5956979028.8892544435-1.6878056749,1.2844903669-2.5813373799.9880671935-.7942436715-.1976104234-1.3899415743-.8892544435-1.4892296078-1.7785239636-.4964098693.6916440201-1.3899415743.9880671935-2.1842155442.6916440201-.7942436715-.3952208467-1.1913958056-1.3832880402-.893531705-2.2725575603,0,0-.7942436715.8892544434-1.6878056749.6916440201-.893531705-.1976104234-1.4892296078-1.1856776168-1.3899415743-2.3713552337-.5956979028.3952208467-1.2906535407.1976104234-1.5885176414-.1976104234-.3971218357-.5928463468-.2978338022-1.4821007902.2978338022-1.976134387-.6949859364-.2964231734-1.1913958056-.9880671935-1.1913958056-1.7785239636,0-.6916440201.4964098693-1.3832880402,1.0921077721-1.6797112136-.7942436715-.9880671935-.6949859364-2.2725575603-.0992880335-2.9642015804s1.5885176414-.4940335967,1.6878056749-.4940335967c-.4964098693-.7904567701-.3971218357-1.7785239636.1985760671-2.1737448103.3971218357-.2964231734.893531705-.2964231734,1.3899415743,0,0-.09881275-.0992880335-1.2844903669.7942436715-1.976134387.7942436715-.5928463468,1.8863514435-.4940335967,2.6806254134.1976104234-.3971218357-.7904567701-.0992880335-1.6797112136.4964098693-2.074947137.6949859364-.3952208467,1.6878056749-.1976104234,2.0849275106.6916440201.0992880335-.7904567701.6949859364-1.4821007902,1.4892296078-1.4821007902s1.4892296078.6916440201,1.4892296078,1.5809135403c0-.09881275.2978338022-.7904567701.9928197385-.9880671935.8935620035-.1975953466,1.4892599063.3952359234,1.5885176414.3952359234Z"/>
      <path class="cls-25" d="m28.4811368865,24.0081930092c.2978338022.7904567701,0,1.7785239636-.6949859364,2.2725575603-.7942436715.4940335967-1.8863514435.2964231734-2.5813373799-.4940335967-.2978338022.9880671935-1.2906535407,1.4821007902-2.0849275106,1.2844903669-.6949859364-.1976104234-1.1913958056-.7904567701-1.2906535407-1.4821007902-.2978338022.1976104234-.5956979028.3952208467-.893531705.3952208467-.6949859364.2964231734-1.5885176414,0-2.1842155442-.6916440201-.2978338022.9880671935-1.2906535407,1.4821007902-2.0849275106,1.2844903669-.6949859364-.1976104234-1.1913958056-.7904567701-1.2906535407-1.4821007902-.6949859364.6916440201-1.78706341.5928463468-2.2834732793.09881275-.5956979028-.5928463468-.5956979028-1.8773216369.3971218357-2.5689807337-.893531705-.1976104234-1.3899415743-1.0868799435-1.1913958056-1.7785239636.1985760671-.4940335967.6949859364-.8892544434,1.3899415743-.9880671935.0992880335-.8892544435.7942436715-1.5809135403,1.6878056749-1.6797112136.7942436715-.1976104234,1.6878056749.1976104234,2.0849275106.9880671935.4964098693-.7904567701,1.4892296078-1.0868799435,2.2834732793-.7904567701.3971218357.09881275.7942436715.4940335967.9928197385.7904567701.2978338022-.2964231734.6949859364-.4940335967,1.0921077721-.5928463468.7942436715-.1976104234,1.6878056749.1976104234,2.0849275106.9880671935.4964098693-.7904567701,1.4892296078-1.0868799435,2.2834732793-.7904567701.5956979028.1976104234,1.0921077721.7904567701,1.1913958056,1.4821007902.1985760671.09881275.893531705.3952208467,1.2906535407,1.1856776168.5956979028,1.2844903669-.0992577351,2.4701830604-.1985457686,2.5689807337Z"/>
      <path class="cls-26" d="m40.7947505685,18.4801359073c.4937666881.5855354742.7879746835,1.4742730233.4937666881,2.0702747447-.3992456364.9828699551-1.9857115927,1.4847392705-3.3724906052.6900703087-.5043474028,1.0874686082-1.5864659563,1.6834703295-2.7842028654,1.7775389169-1.1872203199,0-2.2798554626-.5855354742-2.8787239171-1.6729402638,0,.0731999116-.3047245847.6900703087-.9035289137,1.0978710368-.1681371761.1150010817-.3677599943.2195997348-.5883518654.2823333992-.9875975017.1986672404-2.0802967699-.3973344809-2.574063458-1.4848030891-.6093850438,1.0665361138-1.5759493671,1.7252714996-2.6265822785,1.88213757-.3151770483.0418011701-.6409348114.0418011701-.9561118597,0-1.2817413716-.3032658935-1.9856474671-1.3906706831-2.0802326444-1.5893379236-.2942079955.303202075-1.5864659563,1.28607203-3.4775923717,1.3906706831-1.7860887745.0940685874-2.9733090944-.6901341273-3.3725547308-.9933362022-.1996228182.1045348345-.9981140909.5960017213-1.9856474671.5960017213-1.0926992682-.0941324059-1.6915677228-.6901341273-1.8911905409-.8888013677-.0945210517.0941324059-.7879746835.8888013677-1.9856474671.8888013677-1.3868431381,0-2.0802967699-1.0874686082-2.1748178216-1.1815371955,0,0-.9035930392.8887375491-1.8911905409.6900703087-.651387275-.1463360046-1.2607081932-.7737364675-1.4498144222-1.5684054293-.0735519989-.2822695806-.0945851773-.5960017214-.0420663568-.9096700435-.273174817.1882009933-.5883518654.2405322291-.8930123245.1986672405v-8.7934983599c0-.2091334876.0105165892-.4182669752.0314856421-.6274004629.5568662233-.1568022518,1.0926992682-.0627336644,1.1662512671-.0627336644-.5988684546-.7842027146-.3992456364-1.7775389169.1996228182-2.1748095792.3887290472-.2927996464.9875333762-.2927996464,1.4813641898,0,0-.0941324059-.0945851773-1.2861358486.8930123245-1.9762061573.7984912727-.5855354742,2.0908133591-.4914668868,2.9838256836.1986672405-.3992456364-.7842027146-.1050376409-1.6730040824.5883518654-2.1748733978.7984912727-.4914030682,1.7966053637-.1986672404,2.2903720518.6900703087.0630354097-.5855354742.378212458-1.0351373723.8195244511-1.2756057829.2311084602-.1254673289.4937666881-.1986672404.7669415051-.1986672404.2836914063,0,.5463496341.0731999116.7774580943.1986672404.4938308136.2614009049.840493504.7737364675.9140455029,1.380204436,0-.1045986531.2942079955-.7946689618.9875975017-.9933362022,1.0926351427-.3868682337,1.7860887745.1986672404,1.7860887745.1986672404.0420022313-.0731999116.1576205869-.3136683221.3676958688-.5855354742h4.8224332785c.3256936375.3868682337.5883518654.8469363791.7669415051,1.380204436,1.1977369091-.9933362022,2.7842028654-1.0874047896,3.7718003671-.3973344809,1.0926351427.7946689618,1.0926351427,2.1748733978,1.0926351427,2.2689419851.5042832773-.5855354742,1.3973597273-.7842027146,2.0907492336-.4914030682.0315497676.0208686758.0630354097.0313349229.0945851773.0522674173.7249392739.4286694038,1.0716660898,1.3697381888.5988684546,2.227140815.5988684546-1.1920034427,1.9856474671-1.788005164,3.172867787-1.4847392705,1.3973597273.3973344809,2.2904361773,1.8716075042,1.9857115927,3.4609454278,1.7860887745-.1986672404,3.1834485018.8887375491,3.2779695535,2.0702747447.1051017665,1.0874047896-.9875975017,1.8820737514-1.0926351427,1.9762061573.8930123245.1986672404,1.5864659563.9828699551,1.6915035972,1.8820737514.0945851773,1.1815371955-.7984912727,1.8716075042-.8930123245,1.9762061573Z"/>
      <path class="cls-22" d="m86.3606948055,10.7991937733v68.1124854752c0,4.1710460035-3.3725547308,7.449015557-7.449015557,7.449015557H10.809646237c-4.170981878,0-7.4489514315-3.3830071944-7.4489514315-7.449015557V10.7991937733c0-.2101394074.0105165892-.4202788148.0314856421-.6304182222.3047245847-3.8663214189,3.4566233188-6.8080807456,7.4174657894-6.8080807456h68.1020330115c4.1710460035,0,7.449015557,3.3725547308,7.449015557,7.4384989678Z"/>
      <g class="cls-9">
        <path class="cls-13" d="m79.1149435522,82.9958014447H10.6103815927c-2.1842155442,0-3.9712789542-1.7785088869-3.9712789542-3.9522687739v-13.8329407087h76.4471198678v13.8329407087c0,2.173759887-1.78706341,3.9522687739-3.9712789542,3.9522687739Z"/>
      </g>
    </g>
  </g>
</svg>